<svg version="1.1" xmlns="http://www.w3.org/2000/svg" viewBox="0 0 980.3798675537109 515.860034938818" width="980.3798675537109" height="515.860034938818">
  <!-- svg-source:excalidraw -->
  
  <defs>
    <style class="style-fonts">
      @font-face {
        font-family: "Virgil";
        src: url("https://excalidraw.com/Virgil.woff2");
      }
      @font-face {
        font-family: "Cascadia";
        src: url("https://excalidraw.com/Cascadia.woff2");
      }
      @font-face {
        font-family: "Assistant";
        src: url("https://excalidraw.com/Assistant-Regular.woff2");
      }
    </style>
    
  </defs>
  <g stroke-linecap="round" transform="translate(277.1999816894531 154.8000030517578) rotate(0 70.39999389648438 50.79998779296875)"><path d="M25.4 0 C60.8 1.94, 95.17 0.41, 115.4 0 M25.4 0 C51.41 -0.67, 78.27 -0.07, 115.4 0 M115.4 0 C134.01 -0.78, 139.5 8.48, 140.8 25.4 M115.4 0 C133.41 2.13, 140.9 6.56, 140.8 25.4 M140.8 25.4 C141.78 46.03, 140.39 66.16, 140.8 76.2 M140.8 25.4 C140.69 45.18, 140.46 65.44, 140.8 76.2 M140.8 76.2 C140.78 92.36, 133.32 100.09, 115.4 101.6 M140.8 76.2 C141.22 94, 133.61 103.1, 115.4 101.6 M115.4 101.6 C96.38 102.38, 77.39 103.35, 25.4 101.6 M115.4 101.6 C82.74 100.35, 51.4 101.15, 25.4 101.6 M25.4 101.6 C8.26 101.58, 1.6 95.09, 0 76.2 M25.4 101.6 C10.02 103.25, -0.73 94.74, 0 76.2 M0 76.2 C1.46 55.34, 1.29 34.25, 0 25.4 M0 76.2 C-0.17 59.16, -1.47 42.32, 0 25.4 M0 25.4 C1.99 9.46, 6.67 -1.91, 25.4 0 M0 25.4 C0.43 10.5, 8.63 0.79, 25.4 0" stroke="#1971c2" stroke-width="2" fill="none"></path></g><g transform="translate(293.08800506591797 185.59999084472656) rotate(0 54.51197052001953 20)"><text x="54.51197052001953" y="14.016" font-family="Virgil, Segoe UI Emoji" font-size="16px" fill="#1e1e1e" text-anchor="middle" style="white-space: pre;" direction="ltr" dominant-baseline="alphabetic">notifier</text><text x="54.51197052001953" y="34.016" font-family="Virgil, Segoe UI Emoji" font-size="16px" fill="#1e1e1e" text-anchor="middle" style="white-space: pre;" direction="ltr" dominant-baseline="alphabetic">load balancing</text></g><g stroke-linecap="round" transform="translate(565.9999694824219 10) rotate(0 56 34)"><path d="M17 0 C45.5 0.17, 75.26 -1.7, 95 0 M17 0 C40.3 -0.76, 61.26 -0.37, 95 0 M95 0 C107.27 1.85, 112.08 4.01, 112 17 M95 0 C108.36 0.16, 111.47 6.76, 112 17 M112 17 C113.73 26.91, 110.53 41.22, 112 51 M112 17 C112.03 26.65, 112.54 36.32, 112 51 M112 51 C112.37 63.09, 107.44 69.3, 95 68 M112 51 C109.88 60.58, 106.77 67.62, 95 68 M95 68 C70.32 70.6, 42.9 67.08, 17 68 M95 68 C79.19 67.84, 64.38 68.83, 17 68 M17 68 C7.02 69.43, -0.64 63.73, 0 51 M17 68 C7.84 70.14, -1.01 64.56, 0 51 M0 51 C0.26 44.18, -1.69 34.06, 0 17 M0 51 C1.33 42.57, -0.57 32.2, 0 17 M0 17 C0.37 7.43, 5.81 0.69, 17 0 M0 17 C1.24 4.01, 6.43 0.2, 17 0" stroke="#2f9e44" stroke-width="2" fill="none"></path></g><g transform="translate(589.0900039672852 31.5) rotate(0 32.90996551513672 12.5)"><text x="32.90996551513672" y="17.52" font-family="Virgil, Segoe UI Emoji" font-size="20px" fill="#2f9e44" text-anchor="middle" style="white-space: pre;" direction="ltr" dominant-baseline="alphabetic">server1</text></g><g stroke-linecap="round" transform="translate(568.1999206542969 126.60002136230469) rotate(0 56 30)"><path d="M15 0 C39.69 -1.15, 65.83 2.41, 97 0 M15 0 C36.88 0.92, 57.86 -0.83, 97 0 M97 0 C108.76 0.14, 111.54 5.95, 112 15 M97 0 C108.05 -0.51, 113.53 7.08, 112 15 M112 15 C111.7 21.5, 112.54 27.45, 112 45 M112 15 C112.33 23.21, 112.7 31.33, 112 45 M112 45 C110.15 53.47, 107.38 59.67, 97 60 M112 45 C112.7 54.27, 108.81 61.25, 97 60 M97 60 C62.28 58.93, 31.13 59.17, 15 60 M97 60 C73.15 61.52, 47.62 61.5, 15 60 M15 60 C6.89 61.87, -0.88 56.94, 0 45 M15 60 C4.06 62.03, -2.15 55.64, 0 45 M0 45 C-0.54 31.09, -0.9 23.04, 0 15 M0 45 C0.46 35.4, 0.34 24.37, 0 15 M0 15 C1.07 3.56, 5.67 0.17, 15 0 M0 15 C0.41 6.57, 4.46 -1.11, 15 0" stroke="#1971c2" stroke-width="2" fill="none"></path></g><g transform="translate(586.8799591064453 144.1000213623047) rotate(0 37.31996154785156 12.5)"><text x="37.31996154785156" y="17.52" font-family="Virgil, Segoe UI Emoji" font-size="20px" fill="#1971c2" text-anchor="middle" style="white-space: pre;" direction="ltr" dominant-baseline="alphabetic">server2</text></g><g stroke-linecap="round" transform="translate(572.3999938964844 200.40000915527344) rotate(0 56 35.19999694824219)"><path d="M17.6 0 C32.65 -1.94, 49.26 0.29, 94.4 0 M17.6 0 C48.64 0.7, 77.68 1.11, 94.4 0 M94.4 0 C107.05 -0.44, 113.33 7.67, 112 17.6 M94.4 0 C104.01 -1.61, 112.83 5.76, 112 17.6 M112 17.6 C111.36 29.61, 110.62 40, 112 52.8 M112 17.6 C111.27 28.72, 112.39 41.2, 112 52.8 M112 52.8 C112.61 63.9, 107.71 71.49, 94.4 70.4 M112 52.8 C114.29 63.87, 104.36 68.13, 94.4 70.4 M94.4 70.4 C73.02 71.92, 53.62 71.67, 17.6 70.4 M94.4 70.4 C66.8 71.87, 36.87 71.9, 17.6 70.4 M17.6 70.4 C5.05 72.16, -1.87 65.09, 0 52.8 M17.6 70.4 C8.15 68.8, 0.77 63.67, 0 52.8 M0 52.8 C1.19 43.84, -1.72 38.85, 0 17.6 M0 52.8 C0.51 38.41, 0.31 25.55, 0 17.6 M0 17.6 C0.36 7.23, 5.4 -0.97, 17.6 0 M0 17.6 C1.72 7.19, 5.3 0.86, 17.6 0" stroke="#2f9e44" stroke-width="2" fill="none"></path></g><g transform="translate(591.3900299072266 223.10000610351562) rotate(0 37.00996398925781 12.5)"><text x="37.00996398925781" y="17.52" font-family="Virgil, Segoe UI Emoji" font-size="20px" fill="#2f9e44" text-anchor="middle" style="white-space: pre;" direction="ltr" dominant-baseline="alphabetic">server3</text></g><g stroke-linecap="round" transform="translate(576.3999938964844 282.40000915527344) rotate(0 56 38.800018310546875)"><path d="M19.4 0 C38.46 -0.26, 52.15 1.42, 92.6 0 M19.4 0 C42.32 -0.57, 64.99 0.56, 92.6 0 M92.6 0 C103.69 -1.4, 112.72 6.37, 112 19.4 M92.6 0 C105.83 0.86, 111.97 5.58, 112 19.4 M112 19.4 C112.46 34.06, 113.01 44.67, 112 58.2 M112 19.4 C112.38 27.76, 112.86 37.29, 112 58.2 M112 58.2 C113.99 70.56, 103.99 75.63, 92.6 77.6 M112 58.2 C111.5 70.7, 105.3 77.58, 92.6 77.6 M92.6 77.6 C66.21 77.46, 38.36 79.99, 19.4 77.6 M92.6 77.6 C63.4 79.19, 34.09 78.59, 19.4 77.6 M19.4 77.6 C8.45 76.21, 0.67 70.38, 0 58.2 M19.4 77.6 C4.25 76.32, 2.29 72.27, 0 58.2 M0 58.2 C2.14 50.2, 1.06 42.98, 0 19.4 M0 58.2 C0.05 50.03, -0.36 40.02, 0 19.4 M0 19.4 C1.5 7.62, 5.97 0.75, 19.4 0 M0 19.4 C-1.44 8.67, 4.57 2.07, 19.4 0" stroke="#2f9e44" stroke-width="2" fill="none"></path></g><g transform="translate(593.9800338745117 308.7000274658203) rotate(0 38.419960021972656 12.5)"><text x="38.419960021972656" y="17.52" font-family="Virgil, Segoe UI Emoji" font-size="20px" fill="#2f9e44" text-anchor="middle" style="white-space: pre;" direction="ltr" dominant-baseline="alphabetic">server...</text></g><g stroke-linecap="round"><g transform="translate(426.8000183105469 196.62228873023105) rotate(0 64.79998779296875 -71.94365400172524)"><path d="M1.06 0.08 C22.6 -23.64, 107.81 -119.28, 129.32 -143.32 M0.15 -0.92 C21.51 -24.91, 106.64 -121.47, 128.23 -145.14" stroke="#2f9e44" stroke-width="2" fill="none"></path></g><g transform="translate(426.8000183105469 196.62228873023105) rotate(0 64.79998779296875 -71.94365400172524)"><path d="M118.94 -121.93 C122.1 -129.54, 125.73 -135.22, 128.23 -145.14 M118.94 -121.93 C120.45 -129.17, 124.31 -134.96, 128.23 -145.14" stroke="#2f9e44" stroke-width="2" fill="none"></path></g><g transform="translate(426.8000183105469 196.62228873023105) rotate(0 64.79998779296875 -71.94365400172524)"><path d="M106.19 -133.33 C113.13 -137.58, 120.65 -139.8, 128.23 -145.14 M106.19 -133.33 C111.32 -137.51, 118.72 -140.14, 128.23 -145.14" stroke="#2f9e44" stroke-width="2" fill="none"></path></g></g><mask></mask><g stroke-linecap="round"><g transform="translate(429.8066357168882 212.18006523494887) rotate(0 62 -31.920092513713257)"><path d="M-0.28 0.57 C20.3 -10.13, 103.7 -53.55, 124.55 -64.11 M1.78 -0.18 C22.16 -10.7, 103.44 -51.98, 123.89 -62.71" stroke="#2f9e44" stroke-width="2" fill="none"></path></g><g transform="translate(429.8066357168882 212.18006523494887) rotate(0 62 -31.920092513713257)"><path d="M106.92 -44.35 C114.44 -50.52, 119.64 -57.23, 123.89 -62.71 M106.92 -44.35 C114.07 -51.44, 120.47 -58.19, 123.89 -62.71" stroke="#2f9e44" stroke-width="2" fill="none"></path></g><g transform="translate(429.8066357168882 212.18006523494887) rotate(0 62 -31.920092513713257)"><path d="M99.09 -59.55 C109.66 -59.81, 117.89 -60.62, 123.89 -62.71 M99.09 -59.55 C109.16 -60.66, 118.61 -61.47, 123.89 -62.71" stroke="#2f9e44" stroke-width="2" fill="none"></path></g></g><mask></mask><g stroke-linecap="round"><g transform="translate(424.2066601309507 232.6568905229501) rotate(0 67.19998168945312 1.635240580143659)"><path d="M0.55 -0.26 C23.13 0.37, 113.07 3.91, 135.2 4.36 M-0.62 -1.45 C21.89 -1.18, 111.96 2.01, 134.67 2.8" stroke="#2f9e44" stroke-width="2" fill="none"></path></g><g transform="translate(424.2066601309507 232.6568905229501) rotate(0 67.19998168945312 1.635240580143659)"><path d="M110.89 10.53 C117 9.61, 125.83 4.3, 134.67 2.8 M110.89 10.53 C116.46 9.14, 121.79 6.6, 134.67 2.8" stroke="#2f9e44" stroke-width="2" fill="none"></path></g><g transform="translate(424.2066601309507 232.6568905229501) rotate(0 67.19998168945312 1.635240580143659)"><path d="M111.49 -6.56 C117.51 -2.75, 126.17 -3.32, 134.67 2.8 M111.49 -6.56 C116.98 -4.02, 122.17 -2.63, 134.67 2.8" stroke="#2f9e44" stroke-width="2" fill="none"></path></g></g><mask></mask><g stroke-linecap="round"><g transform="translate(425.4066113028257 247.48794579465311) rotate(0 71.73832519966794 39.995588457027)"><path d="M0.8 1.08 C24.43 14.32, 118.52 66.01, 142.37 79.15 M-0.24 0.61 C23.7 14, 120.57 66.81, 144.5 80.25" stroke="#2f9e44" stroke-width="2" fill="none"></path></g><g transform="translate(425.4066113028257 247.48794579465311) rotate(0 71.73832519966794 39.995588457027)"><path d="M119.8 76.38 C130.14 75.71, 135.47 79.61, 144.5 80.25 M119.8 76.38 C127.09 77.04, 134.89 77.81, 144.5 80.25" stroke="#2f9e44" stroke-width="2" fill="none"></path></g><g transform="translate(425.4066113028257 247.48794579465311) rotate(0 71.73832519966794 39.995588457027)"><path d="M128.07 61.41 C135.52 65.97, 137.99 75.04, 144.5 80.25 M128.07 61.41 C132.93 66.52, 138.29 71.71, 144.5 80.25" stroke="#2f9e44" stroke-width="2" fill="none"></path></g></g><mask></mask><g transform="translate(737.1999816894531 132.40000915527344) rotate(0 73.77993774414062 12.5)"><text x="0" y="17.52" font-family="Virgil, Segoe UI Emoji" font-size="20px" fill="#1971c2" text-anchor="start" style="white-space: pre;" direction="ltr" dominant-baseline="alphabetic">vertical scaling</text></g><g transform="translate(564.4000549316406 86.20001220703125) rotate(0 67.57595825195312 20)"><text x="0" y="14.016" font-family="Virgil, Segoe UI Emoji" font-size="16px" fill="#1971c2" text-anchor="start" style="white-space: pre;" direction="ltr" dominant-baseline="alphabetic">very powerful</text><text x="0" y="34.016" font-family="Virgil, Segoe UI Emoji" font-size="16px" fill="#1971c2" text-anchor="start" style="white-space: pre;" direction="ltr" dominant-baseline="alphabetic">horizontal scaling</text></g><g stroke-linecap="round" transform="translate(10 124.40000915527344) rotate(0 40 25)"><path d="M12.5 0 C28.94 1, 45.42 0.37, 67.5 0 M12.5 0 C30.15 -1.12, 49.83 -0.52, 67.5 0 M67.5 0 C76.44 -0.63, 81.58 5.25, 80 12.5 M67.5 0 C78.12 -0.66, 78.23 1.9, 80 12.5 M80 12.5 C79.94 21.06, 81.9 27.76, 80 37.5 M80 12.5 C80.87 22.72, 79.48 32.05, 80 37.5 M80 37.5 C79.18 47.6, 73.97 50.56, 67.5 50 M80 37.5 C82.28 44.23, 76.6 49.14, 67.5 50 M67.5 50 C57.3 48.75, 43.21 50.92, 12.5 50 M67.5 50 C46.68 49.47, 25.12 50.28, 12.5 50 M12.5 50 C4.53 51.36, -0.47 44.87, 0 37.5 M12.5 50 C5.89 51.32, -0.57 46.69, 0 37.5 M0 37.5 C1.56 32.95, 0.39 26.47, 0 12.5 M0 37.5 C-0.84 30.83, -0.77 23.74, 0 12.5 M0 12.5 C-1.19 5.02, 3.41 1.38, 12.5 0 M0 12.5 C-1.37 4.29, 4.25 2.03, 12.5 0" stroke="#f08c00" stroke-width="2" fill="none"></path></g><g transform="translate(24.048019409179688 139.40000915527344) rotate(0 25.951980590820312 10)"><text x="25.951980590820312" y="14.016" font-family="Virgil, Segoe UI Emoji" font-size="16px" fill="#f08c00" text-anchor="middle" style="white-space: pre;" direction="ltr" dominant-baseline="alphabetic">user A</text></g><g stroke-linecap="round" transform="translate(11.5999755859375 193.6000213623047) rotate(0 40 25)"><path d="M12.5 0 C32.47 1.01, 52.24 -1.95, 67.5 0 M12.5 0 C25.1 -0.23, 37.88 0.63, 67.5 0 M67.5 0 C77.82 -0.58, 78.46 2.2, 80 12.5 M67.5 0 C75.33 -0.43, 79.77 4.15, 80 12.5 M80 12.5 C81.68 21.37, 81.64 33.39, 80 37.5 M80 12.5 C79.48 23.21, 78.96 32.44, 80 37.5 M80 37.5 C81.98 44.44, 76.5 49.25, 67.5 50 M80 37.5 C77.78 44.55, 78.13 51.14, 67.5 50 M67.5 50 C57.72 50.25, 45.08 51.18, 12.5 50 M67.5 50 C55.13 50.73, 42.17 49.56, 12.5 50 M12.5 50 C5.66 51.15, -0.49 46.58, 0 37.5 M12.5 50 C2.73 52.2, -1.89 47.91, 0 37.5 M0 37.5 C-0.4 29.94, -0.79 17.78, 0 12.5 M0 37.5 C-0.45 29.34, -0.24 21.02, 0 12.5 M0 12.5 C-1.19 4.28, 4.24 1.77, 12.5 0 M0 12.5 C-0.55 4.32, 6.01 0.04, 12.5 0" stroke="#f08c00" stroke-width="2" fill="none"></path></g><g transform="translate(25.079994201660156 208.6000213623047) rotate(0 26.519981384277344 10)"><text x="26.519981384277344" y="14.016" font-family="Virgil, Segoe UI Emoji" font-size="16px" fill="#f08c00" text-anchor="middle" style="white-space: pre;" direction="ltr" dominant-baseline="alphabetic">user B</text></g><g stroke-linecap="round" transform="translate(14.199981689453125 263.40000915527344) rotate(0 40 25)"><path d="M12.5 0 C30.52 0.89, 51.26 1.11, 67.5 0 M12.5 0 C28.25 -0.59, 41.25 -1.28, 67.5 0 M67.5 0 C75.4 -0.38, 79.8 4.15, 80 12.5 M67.5 0 C77.67 2.24, 81.55 5.82, 80 12.5 M80 12.5 C82.04 18.33, 82.11 25.09, 80 37.5 M80 12.5 C80.76 21.51, 80.1 31.53, 80 37.5 M80 37.5 C78.07 44.72, 77.83 50.99, 67.5 50 M80 37.5 C77.93 43.63, 76.26 52.03, 67.5 50 M67.5 50 C49.17 50.96, 33.88 50.65, 12.5 50 M67.5 50 C48 50.31, 26.76 50.11, 12.5 50 M12.5 50 C2.92 51.91, -1.65 47.64, 0 37.5 M12.5 50 C5.76 50.73, 0.97 45.47, 0 37.5 M0 37.5 C0.96 26.78, 0.97 17.13, 0 12.5 M0 37.5 C-0.5 28.99, 0.13 21.26, 0 12.5 M0 12.5 C-0.48 4.3, 5.77 0.04, 12.5 0 M0 12.5 C0.8 3.47, 3.15 -0.95, 12.5 0" stroke="#f08c00" stroke-width="2" fill="none"></path></g><g transform="translate(28.34400177001953 278.40000915527344) rotate(0 25.855979919433594 10)"><text x="25.855979919433594" y="14.016" font-family="Virgil, Segoe UI Emoji" font-size="16px" fill="#f08c00" text-anchor="middle" style="white-space: pre;" direction="ltr" dominant-baseline="alphabetic">user C</text></g><g stroke-linecap="round"><g transform="translate(102.79998779296875 140.40000915527344) rotate(0 78.80000305175781 15.199996948242188)"><path d="M0.36 -0.38 C15.55 2.83, 64.94 13.98, 91.35 19.05 C117.75 24.12, 147.9 28.36, 158.79 30.05 M-0.91 -1.63 C14.19 1.25, 64.3 11.8, 90.9 17.27 C117.49 22.74, 147.73 29.12, 158.65 31.19" stroke="#f08c00" stroke-width="2" fill="none"></path></g><g transform="translate(102.79998779296875 140.40000915527344) rotate(0 78.80000305175781 15.199996948242188)"><path d="M133.94 34.97 C141.2 35.26, 150.8 34.47, 158.65 31.19 M133.94 34.97 C140.45 34, 147.27 33.15, 158.65 31.19" stroke="#f08c00" stroke-width="2" fill="none"></path></g><g transform="translate(102.79998779296875 140.40000915527344) rotate(0 78.80000305175781 15.199996948242188)"><path d="M137.29 18.2 C143.45 23.85, 151.99 28.41, 158.65 31.19 M137.29 18.2 C142.77 21.74, 148.67 25.44, 158.65 31.19" stroke="#f08c00" stroke-width="2" fill="none"></path></g></g><mask></mask><g transform="translate(135.60000610351562 124.19999694824219) rotate(0 57.96795654296875 10)"><text x="0" y="14.016" font-family="Virgil, Segoe UI Emoji" font-size="16px" fill="#f08c00" text-anchor="start" style="white-space: pre;" direction="ltr" dominant-baseline="alphabetic">request 1,2,3...</text></g><g stroke-linecap="round"><g transform="translate(103.06789478063581 220.5905607475761) rotate(0 79.19999694824219 9.199996948242188)"><path d="M1.19 -0.35 C15.95 2.41, 63.32 17.2, 89.48 17.22 C115.63 17.24, 146.67 2.64, 158.14 -0.23 M0.36 -1.57 C15.4 1.23, 65.56 17.71, 91.7 18.13 C117.85 18.56, 146.11 3.81, 157.24 0.97" stroke="#f08c00" stroke-width="2" fill="none"></path></g><g transform="translate(103.06789478063581 220.5905607475761) rotate(0 79.19999694824219 9.199996948242188)"><path d="M137.98 16.92 C144.61 9.15, 150.51 4.21, 157.24 0.97 M137.98 16.92 C144.21 13.42, 149.5 8.67, 157.24 0.97" stroke="#f08c00" stroke-width="2" fill="none"></path></g><g transform="translate(103.06789478063581 220.5905607475761) rotate(0 79.19999694824219 9.199996948242188)"><path d="M132.24 0.82 C141.13 -0.91, 149.21 0.25, 157.24 0.97 M132.24 0.82 C140.06 1.84, 146.97 1.62, 157.24 0.97" stroke="#f08c00" stroke-width="2" fill="none"></path></g></g><mask></mask><g stroke-linecap="round"><g transform="translate(104.65598423603467 291.5324740653841) rotate(0 78.80003354296912 -17.599976629237176)"><path d="M-0.92 -1.18 C13.71 -3.63, 62.59 -9.34, 88.99 -15.01 C115.4 -20.68, 145.88 -32.04, 157.48 -35.21 M0.79 0.81 C15.14 -1.42, 61.93 -7.8, 87.91 -13.59 C113.89 -19.37, 144.75 -30.17, 156.65 -33.9" stroke="#f08c00" stroke-width="2" fill="none"></path></g><g transform="translate(104.65598423603467 291.5324740653841) rotate(0 78.80003354296912 -17.599976629237176)"><path d="M136.95 -18.5 C142.89 -24.93, 152.35 -30.85, 156.65 -33.9 M136.95 -18.5 C143.4 -22.58, 148.3 -27.21, 156.65 -33.9" stroke="#f08c00" stroke-width="2" fill="none"></path></g><g transform="translate(104.65598423603467 291.5324740653841) rotate(0 78.80003354296912 -17.599976629237176)"><path d="M131.66 -34.76 C139.67 -34.66, 151.24 -34.08, 156.65 -33.9 M131.66 -34.76 C139.82 -34.03, 146.3 -33.79, 156.65 -33.9" stroke="#f08c00" stroke-width="2" fill="none"></path></g></g><mask></mask><g transform="translate(100.92003631591797 193.40000915527344) rotate(0 57.96795654296875 10)"><text x="0" y="14.016" font-family="Virgil, Segoe UI Emoji" font-size="16px" fill="#f08c00" text-anchor="start" style="white-space: pre;" direction="ltr" dominant-baseline="alphabetic">request 1,2,3...</text></g><g transform="translate(107.93602752685547 252.99998474121094) rotate(0 57.96795654296875 10)"><text x="0" y="14.016" font-family="Virgil, Segoe UI Emoji" font-size="16px" fill="#f08c00" text-anchor="start" style="white-space: pre;" direction="ltr" dominant-baseline="alphabetic">request 1,2,3...</text></g><g stroke-opacity="0.5" fill-opacity="0.5" stroke-linecap="round" transform="translate(579.6000061035156 45.20001220703125) rotate(0 42.800018310546875 15)"><path d="M7.5 0 C29.92 0.79, 49.86 -1.2, 78.1 0 M7.5 0 C33.16 0.31, 59.3 0.22, 78.1 0 M78.1 0 C81.23 0.56, 87.58 1.11, 85.6 7.5 M78.1 0 C83.87 -0.86, 83.38 1.22, 85.6 7.5 M85.6 7.5 C84.24 13.78, 87 19.6, 85.6 22.5 M85.6 7.5 C85.93 12.58, 85.82 18.04, 85.6 22.5 M85.6 22.5 C85.13 26.53, 84.6 31.15, 78.1 30 M85.6 22.5 C85.03 28.36, 81.66 32.2, 78.1 30 M78.1 30 C63.36 31.33, 47.04 32.16, 7.5 30 M78.1 30 C58.85 30.75, 40.14 30.73, 7.5 30 M7.5 30 C1.75 31.38, -1.19 27.61, 0 22.5 M7.5 30 C2.58 32.03, -0.55 27.65, 0 22.5 M0 22.5 C-0.46 16.13, -0.62 11.93, 0 7.5 M0 22.5 C-0.47 16.43, -0.62 11.77, 0 7.5 M0 7.5 C1.69 3.02, 3.66 -1.4, 7.5 0 M0 7.5 C-1.84 4.36, 1.61 -1.11, 7.5 0" stroke="#f08c00" stroke-width="2" fill="none"></path></g><g stroke-opacity="0.5" fill-opacity="0.5" transform="translate(600.7040328979492 50.20001220703125) rotate(0 21.69599151611328 10)"><text x="21.69599151611328" y="14.016" font-family="Virgil, Segoe UI Emoji" font-size="16px" fill="#f08c00" text-anchor="middle" style="white-space: pre;" direction="ltr" dominant-baseline="alphabetic">cache</text></g><g stroke-opacity="0.5" fill-opacity="0.5" stroke-linecap="round" transform="translate(581.7999877929688 154.40000915527344) rotate(0 42.800018310546875 15)"><path d="M7.5 0 C34.85 2.12, 61.27 -0.66, 78.1 0 M7.5 0 C34.58 -0.34, 64.52 -1.32, 78.1 0 M78.1 0 C83.77 -0.75, 83.67 1.39, 85.6 7.5 M78.1 0 C85.39 1.14, 83.53 0.3, 85.6 7.5 M85.6 7.5 C86.25 13.09, 84.65 17.56, 85.6 22.5 M85.6 7.5 C85.45 11.77, 86.19 17.19, 85.6 22.5 M85.6 22.5 C85.11 28.25, 81.85 31.91, 78.1 30 M85.6 22.5 C83.71 29.57, 84.69 30.73, 78.1 30 M78.1 30 C53.23 29.33, 30.65 29.46, 7.5 30 M78.1 30 C53.44 30.99, 28.94 30.35, 7.5 30 M7.5 30 C2.57 31.77, -0.48 27.63, 0 22.5 M7.5 30 C4.34 30.04, 0.8 26.81, 0 22.5 M0 22.5 C1.11 17.81, -0.57 13.72, 0 7.5 M0 22.5 C0.77 19.24, 0.57 15.06, 0 7.5 M0 7.5 C-1.6 4.12, 1.73 -0.97, 7.5 0 M0 7.5 C-0.69 4.09, 0.89 -2.01, 7.5 0" stroke="#f08c00" stroke-width="2" fill="none"></path></g><g stroke-opacity="0.5" fill-opacity="0.5" transform="translate(602.9040145874023 159.40000915527344) rotate(0 21.69599151611328 10)"><text x="21.69599151611328" y="14.016" font-family="Virgil, Segoe UI Emoji" font-size="16px" fill="#f08c00" text-anchor="middle" style="white-space: pre;" direction="ltr" dominant-baseline="alphabetic">cache</text></g><g stroke-opacity="0.5" fill-opacity="0.5" stroke-linecap="round" transform="translate(587.2000122070312 238.00001525878906) rotate(0 42.800018310546875 15)"><path d="M7.5 0 C37.29 -0.51, 64.97 -1.56, 78.1 0 M7.5 0 C30.99 0.12, 52.84 -0.06, 78.1 0 M78.1 0 C85.09 0.99, 83.8 0.59, 85.6 7.5 M78.1 0 C83.53 2.03, 85.77 3.29, 85.6 7.5 M85.6 7.5 C85.62 13.07, 86.51 17.76, 85.6 22.5 M85.6 7.5 C85.53 11.55, 85.24 15.77, 85.6 22.5 M85.6 22.5 C83.95 29.3, 84.49 30.63, 78.1 30 M85.6 22.5 C86.57 27.13, 85.02 29.19, 78.1 30 M78.1 30 C62.25 28.41, 45.49 28.85, 7.5 30 M78.1 30 C52.1 30.92, 25.79 30.1, 7.5 30 M7.5 30 C4.1 30.04, 0.69 26.9, 0 22.5 M7.5 30 C1.48 29.05, 1.27 29.1, 0 22.5 M0 22.5 C-0.98 17.44, 0.79 16.47, 0 7.5 M0 22.5 C-0.69 18.22, -0.38 12.36, 0 7.5 M0 7.5 C-0.6 3.88, 1.1 -1.75, 7.5 0 M0 7.5 C-1.77 2.84, 3.13 1.42, 7.5 0" stroke="#f08c00" stroke-width="2" fill="none"></path></g><g stroke-opacity="0.5" fill-opacity="0.5" transform="translate(608.3040390014648 243.00001525878906) rotate(0 21.69599151611328 10)"><text x="21.69599151611328" y="14.016" font-family="Virgil, Segoe UI Emoji" font-size="16px" fill="#f08c00" text-anchor="middle" style="white-space: pre;" direction="ltr" dominant-baseline="alphabetic">cache</text></g><g stroke-opacity="0.5" fill-opacity="0.5" stroke-linecap="round" transform="translate(591.2000122070312 329.59999084472656) rotate(0 42.800018310546875 15)"><path d="M7.5 0 C26.34 2.64, 42.67 1.33, 78.1 0 M7.5 0 C27.03 0.89, 43.66 -0.56, 78.1 0 M78.1 0 C83.47 1.77, 85.74 3.19, 85.6 7.5 M78.1 0 C84.34 -1.65, 86.37 2.7, 85.6 7.5 M85.6 7.5 C84.98 13.39, 86.57 16.67, 85.6 22.5 M85.6 7.5 C84.89 13.24, 86.03 17.86, 85.6 22.5 M85.6 22.5 C86.44 27.18, 84.77 29.29, 78.1 30 M85.6 22.5 C84.15 28.5, 81.8 31.01, 78.1 30 M78.1 30 C62.51 28.55, 44.27 29.8, 7.5 30 M78.1 30 C51.48 30.06, 23.61 29.74, 7.5 30 M7.5 30 C1.61 29.17, 1.1 28.89, 0 22.5 M7.5 30 C1.19 29.03, -1.71 25.9, 0 22.5 M0 22.5 C0.32 20.27, -1.12 15.11, 0 7.5 M0 22.5 C-0.17 17.31, -0.47 10.42, 0 7.5 M0 7.5 C-1.54 2.8, 3.05 1.24, 7.5 0 M0 7.5 C0.41 2.33, 4.03 2.28, 7.5 0" stroke="#f08c00" stroke-width="2" fill="none"></path></g><g stroke-opacity="0.5" fill-opacity="0.5" transform="translate(612.3040390014648 334.59999084472656) rotate(0 21.69599151611328 10)"><text x="21.69599151611328" y="14.016" font-family="Virgil, Segoe UI Emoji" font-size="16px" fill="#f08c00" text-anchor="middle" style="white-space: pre;" direction="ltr" dominant-baseline="alphabetic">cache</text></g><g transform="translate(24.399993896484375 87.60002136230469) rotate(0 20.503990173339844 10)"><text x="0" y="14.016" font-family="Virgil, Segoe UI Emoji" font-size="16px" fill="#f08c00" text-anchor="start" style="white-space: pre;" direction="ltr" dominant-baseline="alphabetic">client</text></g><g stroke-linecap="round" transform="translate(578.3799285888672 385.0600166282711) rotate(0 61.600006103515625 42.40000915527344)"><path d="M21.2 0 C51.63 -0.1, 84.2 0.25, 102 0 M21.2 0 C43.38 -0.04, 64.41 -0.8, 102 0 M102 0 C117.74 -1.32, 123.12 7.11, 123.2 21.2 M102 0 C114.54 2.02, 123.14 6.9, 123.2 21.2 M123.2 21.2 C122.14 31.28, 122.19 39.15, 123.2 63.6 M123.2 21.2 C124.14 37.89, 122.94 53.99, 123.2 63.6 M123.2 63.6 C122.43 78.34, 115.47 85.59, 102 84.8 M123.2 63.6 C122.24 77.84, 114.15 82.76, 102 84.8 M102 84.8 C86.28 84.96, 66.96 85.6, 21.2 84.8 M102 84.8 C76.27 84.96, 48.03 84.59, 21.2 84.8 M21.2 84.8 C7.62 86.62, 1.32 77.73, 0 63.6 M21.2 84.8 C8.89 83.21, 0.24 76.67, 0 63.6 M0 63.6 C0.05 48.97, -0.92 37.83, 0 21.2 M0 63.6 C-0.77 50.15, 0.49 35.16, 0 21.2 M0 21.2 C-0.87 7.2, 5.3 1.66, 21.2 0 M0 21.2 C-1.11 8.8, 9.05 0.89, 21.2 0" stroke="#e03131" stroke-width="2" fill="none"></path></g><g transform="translate(611.0359573364258 417.46002578354455) rotate(0 28.94397735595703 10)"><text x="28.94397735595703" y="14.016" font-family="Virgil, Segoe UI Emoji" font-size="16px" fill="#e03131" text-anchor="middle" style="white-space: pre;" direction="ltr" dominant-baseline="alphabetic">serverX</text></g><g stroke-linecap="round"><g transform="translate(931.1799163818359 418.660083766943) rotate(0 -112.4000244140625 2.304580558866519)"><path d="M1.1 0.97 C-36.41 1.78, -187.91 4.93, -225.39 5.65 M0.21 0.44 C-36.86 0.86, -185.62 3.6, -222.98 4.08" stroke="#e03131" stroke-width="2" fill="none"></path></g><g transform="translate(931.1799163818359 418.660083766943) rotate(0 -112.4000244140625 2.304580558866519)"><path d="M-199.63 -4.84 C-204.25 -3.2, -210.44 1.96, -222.98 4.08 M-199.63 -4.84 C-207.82 -1.88, -215.82 0.96, -222.98 4.08" stroke="#e03131" stroke-width="2" fill="none"></path></g><g transform="translate(931.1799163818359 418.660083766943) rotate(0 -112.4000244140625 2.304580558866519)"><path d="M-199.36 12.26 C-204.17 9.29, -210.43 9.82, -222.98 4.08 M-199.36 12.26 C-207.63 9.11, -215.73 5.83, -222.98 4.08" stroke="#e03131" stroke-width="2" fill="none"></path></g></g><mask></mask><g transform="translate(787.9799652099609 397.06007766342736) rotate(0 14.439987182617188 10)"><text x="0" y="14.016" font-family="Virgil, Segoe UI Emoji" font-size="16px" fill="#e03131" text-anchor="start" style="white-space: pre;" direction="ltr" dominant-baseline="alphabetic">add</text></g><g stroke-linecap="round"><g transform="translate(931.9799652099609 418.66005324936486) rotate(0 -121.59991455078125 -86.80001831054688)"><path d="M-0.44 1.16 C-40.86 -27.89, -203.19 -144.24, -243.71 -173.2 M1.53 0.72 C-39 -28.18, -203.92 -145.92, -244.93 -175.12" stroke="#e03131" stroke-width="2" fill="none"></path></g><g transform="translate(931.9799652099609 418.66005324936486) rotate(0 -121.59991455078125 -86.80001831054688)"><path d="M-220.84 -168.44 C-223.83 -170.73, -229.96 -171.85, -244.93 -175.12 M-220.84 -168.44 C-230.34 -170.91, -239.12 -172.57, -244.93 -175.12" stroke="#e03131" stroke-width="2" fill="none"></path></g><g transform="translate(931.9799652099609 418.66005324936486) rotate(0 -121.59991455078125 -86.80001831054688)"><path d="M-230.77 -154.51 C-231.88 -159.58, -236.01 -163.51, -244.93 -175.12 M-230.77 -154.51 C-236.46 -162.35, -241.46 -169.31, -244.93 -175.12" stroke="#e03131" stroke-width="2" fill="none"></path></g></g><mask></mask><g transform="translate(808.7800140380859 312.25999831772424) rotate(0 37.83197784423828 10)"><text x="0" y="14.016" font-family="Virgil, Segoe UI Emoji" font-size="16px" fill="#e03131" text-anchor="start" style="white-space: pre;" direction="ltr" dominant-baseline="alphabetic">turn down</text></g><g stroke-linecap="round" transform="translate(760.7798919677734 268.26002883530236) rotate(0 104.79998779296875 118.80000305175781)"><path d="M63.92 9.23 C74.29 2.26, 87.72 0.08, 100.34 -0.21 C112.96 -0.5, 127.55 2.82, 139.66 7.48 C151.77 12.15, 163.5 18.69, 172.98 27.79 C182.46 36.9, 190.47 49.56, 196.54 62.14 C202.6 74.71, 207.68 89.13, 209.37 103.24 C211.06 117.35, 209.73 132.8, 206.7 146.78 C203.67 160.76, 198.33 175.4, 191.19 187.12 C184.06 198.84, 174.6 209.33, 163.89 217.11 C153.19 224.89, 139.58 230.66, 126.95 233.82 C114.32 236.99, 100.42 238.09, 88.09 236.1 C75.77 234.11, 63.75 229.02, 53 221.86 C42.26 214.71, 31.71 204.32, 23.61 193.15 C15.52 181.98, 8.2 168.51, 4.43 154.85 C0.66 141.18, 0.3 125.31, 1 111.17 C1.69 97.02, 3.57 83, 8.59 69.96 C13.6 56.92, 20.71 43.44, 31.09 32.93 C41.47 22.41, 63.19 11.16, 70.89 6.88 C78.58 2.6, 76.94 5.34, 77.27 7.25 M136.9 4.3 C148.83 6.55, 160.23 17.63, 169.82 26.76 C179.41 35.9, 188.26 46.69, 194.46 59.1 C200.67 71.51, 204.97 87.11, 207.04 101.2 C209.11 115.3, 209.36 129.69, 206.87 143.68 C204.39 157.66, 199.22 173, 192.12 185.11 C185.02 197.22, 174.74 208.08, 164.28 216.35 C153.82 224.62, 141.25 231.27, 129.36 234.75 C117.48 238.23, 105.34 239.33, 92.96 237.22 C80.57 235.12, 66.24 228.86, 55.05 222.1 C43.87 215.34, 34.09 207.44, 25.85 196.64 C17.6 185.84, 9.81 170.96, 5.59 157.32 C1.37 143.68, -0.05 129.22, 0.52 114.8 C1.1 100.37, 4.28 83.8, 9.04 70.77 C13.79 57.74, 20.12 46.71, 29.06 36.62 C38.01 26.53, 51.37 16.21, 62.73 10.21 C74.1 4.22, 84.87 1.46, 97.25 0.67 C109.63 -0.13, 130.68 4.21, 137.01 5.45 C143.33 6.68, 135.77 6.04, 135.2 8.1" stroke="#e03131" stroke-width="2" fill="none"></path></g></svg>