<svg version="1.1" xmlns="http://www.w3.org/2000/svg" viewBox="0 0 585.0000305175781 319.30277748565254" width="585.0000305175781" height="319.30277748565254">
  <!-- svg-source:excalidraw -->
  
  <defs>
    <style class="style-fonts">
      @font-face {
        font-family: "Virgil";
        src: url("https://excalidraw.com/Virgil.woff2");
      }
      @font-face {
        font-family: "Cascadia";
        src: url("https://excalidraw.com/Cascadia.woff2");
      }
      @font-face {
        font-family: "Assistant";
        src: url("https://excalidraw.com/Assistant-Regular.woff2");
      }
    </style>
    
  </defs>
  <g stroke-linecap="round" transform="translate(161.58978382882367 265.4713911330773) rotate(0 20.69815466649385 21.91569317628762)"><path d="M0 0 C17.1 -0.53, 33.2 0.89, 41.4 0 M0 0 C13.24 -0.64, 27.28 -0.64, 41.4 0 M41.4 0 C42.39 11.68, 41.91 23.96, 41.4 43.83 M41.4 0 C41.53 8.97, 41.81 17.81, 41.4 43.83 M41.4 43.83 C26.45 43.89, 12.2 43.95, 0 43.83 M41.4 43.83 C27.1 43.72, 13.09 43.86, 0 43.83 M0 43.83 C-0.66 26.9, 1.08 9.79, 0 0 M0 43.83 C-0.23 26.57, -0.29 9.11, 0 0" stroke="#000000" stroke-width="4" fill="none"></path></g><g stroke-linecap="round" transform="translate(203.0418970101781 265.4713911330773) rotate(0 20.69815466649385 21.91569317628762)"><path d="M0 0 C10.71 0.91, 20.41 -0.56, 41.4 0 M0 0 C15.56 -0.28, 31.14 0.54, 41.4 0 M41.4 0 C41.94 15.42, 40.62 29.96, 41.4 43.83 M41.4 0 C41.61 16.05, 41.6 32.14, 41.4 43.83 M41.4 43.83 C27.13 43.89, 14.52 44.36, 0 43.83 M41.4 43.83 C29.02 43.79, 16.52 43.46, 0 43.83 M0 43.83 C1.12 34.46, 1.14 26.89, 0 0 M0 43.83 C-0.1 32.41, 0.38 20.62, 0 0" stroke="#000000" stroke-width="4" fill="none"></path></g><g stroke-linecap="round" transform="translate(244.4382063431766 265.4713911330773) rotate(0 20.69815466649385 21.91569317628762)"><path d="M0 0 C10.04 -0.85, 20.24 -1.06, 41.4 0 M0 0 C8.31 0.54, 17.15 0.62, 41.4 0 M41.4 0 C40.52 14.56, 42.16 27.36, 41.4 43.83 M41.4 0 C41.73 13.13, 41.65 26.24, 41.4 43.83 M41.4 43.83 C29.44 44.37, 16.64 43.83, 0 43.83 M41.4 43.83 C30.44 43.52, 18.17 43.44, 0 43.83 M0 43.83 C0.75 32.2, -0.6 19.02, 0 0 M0 43.83 C0.41 29.49, -0.12 15.99, 0 0" stroke="#000000" stroke-width="4" fill="none"></path></g><g stroke-linecap="round" transform="translate(286.24036184608747 265.4713911330773) rotate(0 20.69815466649385 21.91569317628762)"><path d="M0 0 C16.41 -0.76, 30.31 -0.05, 41.4 0 M0 0 C8.66 0.28, 17.06 0.04, 41.4 0 M41.4 0 C41.87 16.82, 41.22 34.3, 41.4 43.83 M41.4 0 C41.65 11.96, 41.49 24.27, 41.4 43.83 M41.4 43.83 C28.8 43.92, 15.83 44.47, 0 43.83 M41.4 43.83 C28.38 43.3, 16.25 44.17, 0 43.83 M0 43.83 C-0.6 32.92, -0.02 22.04, 0 0 M0 43.83 C-0.33 30.83, 0.34 17.63, 0 0" stroke="#000000" stroke-width="4" fill="none"></path></g><g stroke-linecap="round" transform="translate(327.6366711790796 265.4713911330773) rotate(0 20.69815466649385 21.91569317628762)"><path d="M0 0 C8.62 -0.01, 18.18 -0.18, 41.4 0 M0 0 C15.35 0, 30.99 -0.65, 41.4 0 M41.4 0 C41.58 17.26, 41.35 34.04, 41.4 43.83 M41.4 0 C41.46 11.49, 41.49 23.81, 41.4 43.83 M41.4 43.83 C26.55 44.36, 12.23 44.65, 0 43.83 M41.4 43.83 C31.51 44.14, 21.55 44.15, 0 43.83 M0 43.83 C0.28 27.33, 0.08 12.07, 0 0 M0 43.83 C0.57 33.93, -0.09 23.92, 0 0" stroke="#000000" stroke-width="4" fill="none"></path></g><g stroke-linecap="round" transform="translate(369.0329805120699 265.4713911330773) rotate(0 20.69815466649385 21.91569317628762)"><path d="M0 0 C7.73 -0.32, 18.05 0.36, 41.4 0 M0 0 C16.34 -0.55, 32.25 0.27, 41.4 0 M41.4 0 C41.21 13.19, 41.09 25.77, 41.4 43.83 M41.4 0 C41.42 10.52, 41.66 20.61, 41.4 43.83 M41.4 43.83 C29.08 44.76, 16.07 42.95, 0 43.83 M41.4 43.83 C32.01 44.51, 23.53 43.83, 0 43.83 M0 43.83 C-0.05 32.03, -0.77 18.47, 0 0 M0 43.83 C-0.38 29.63, -0.12 15.46, 0 0" stroke="#000000" stroke-width="4" fill="none"></path></g><g stroke-linecap="round" transform="translate(410.42928984505295 265.4713911330773) rotate(0 20.69815466649385 21.91569317628762)"><path d="M0 0 C12.3 0.4, 24.06 0.21, 41.4 0 M0 0 C14.31 0.54, 27.75 0.21, 41.4 0 M41.4 0 C41.04 15.52, 40.7 30.44, 41.4 43.83 M41.4 0 C41.67 10.56, 41.4 20.94, 41.4 43.83 M41.4 43.83 C26.13 43.01, 11.34 43.81, 0 43.83 M41.4 43.83 C25.44 43.83, 8.7 44.12, 0 43.83 M0 43.83 C-0.73 31.5, 0.24 20.88, 0 0 M0 43.83 C0.17 30.32, -0.14 16.96, 0 0" stroke="#000000" stroke-width="4" fill="none"></path></g><g stroke-linecap="round" transform="translate(451.01390683818306 265.4713911330773) rotate(0 20.69815466649385 21.91569317628762)"><path d="M0 0 C11.75 0.07, 22.17 0.79, 41.4 0 M0 0 C8.41 -0.13, 17.15 -0.24, 41.4 0 M41.4 0 C40.68 15.14, 40.73 30.34, 41.4 43.83 M41.4 0 C41.5 15, 41.78 30.27, 41.4 43.83 M41.4 43.83 C24.78 43.44, 10.71 43.08, 0 43.83 M41.4 43.83 C24.93 43.84, 8.47 43.75, 0 43.83 M0 43.83 C0.4 28.61, 0.24 11.1, 0 0 M0 43.83 C-0.26 30.98, 0.12 17.78, 0 0" stroke="#000000" stroke-width="4" fill="none"></path></g><g stroke-linecap="round" transform="translate(492.4102161711679 265.4713911330773) rotate(0 20.69815466649385 21.91569317628762)"><path d="M0 0 C14.11 0.83, 26.55 0.8, 41.4 0 M0 0 C15.49 -0.1, 30.73 -0.16, 41.4 0 M41.4 0 C40.66 14.53, 41.7 29.46, 41.4 43.83 M41.4 0 C41.66 13.4, 41.8 26.46, 41.4 43.83 M41.4 43.83 C34 43.25, 25.69 44.49, 0 43.83 M41.4 43.83 C30.47 43.87, 20.17 43.51, 0 43.83 M0 43.83 C0.03 31.94, -0.08 20.9, 0 0 M0 43.83 C0.26 30.59, -0.12 17.36, 0 0" stroke="#000000" stroke-width="4" fill="none"></path></g><g transform="translate(178.82950901902757 239.89723472137848) rotate(0 8.60614013671875 11.726070996663566)"><text x="0" y="16.58703282728709" font-family="Virgil, Segoe UI Emoji" font-size="18.355906861069688px" fill="#000000" text-anchor="start" style="white-space: pre;" direction="ltr" dominant-baseline="alphabetic">1a</text></g><g transform="translate(217.09394746836358 239.89723472137848) rotate(0 11.193489074707031 11.726070996663566)"><text x="0" y="16.587032827287086" font-family="Virgil, Segoe UI Emoji" font-size="18.355906861069705px" fill="#000000" text-anchor="start" style="white-space: pre;" direction="ltr" dominant-baseline="alphabetic">2b</text></g><g transform="translate(258.68014549301813 239.89723472137848) rotate(0 10.854019165039062 11.726070996663566)"><text x="0" y="16.587032827287086" font-family="Virgil, Segoe UI Emoji" font-size="18.355906861069695px" fill="#000000" text-anchor="start" style="white-space: pre;" direction="ltr" dominant-baseline="alphabetic">3c</text></g><g transform="translate(300.86207837927475 239.89723472137848) rotate(0 5.9658957702323505 11.726070996663566)"><text x="0" y="16.587032827287082" font-family="Virgil, Segoe UI Emoji" font-size="18.355906861069702px" fill="#000000" text-anchor="start" style="white-space: pre;" direction="ltr" dominant-baseline="alphabetic">4</text></g><g transform="translate(342.4482764039193 239.89723472137848) rotate(0 5.760175226431215 11.726070996663566)"><text x="0" y="16.58703282728709" font-family="Virgil, Segoe UI Emoji" font-size="18.35590686106969px" fill="#000000" text-anchor="start" style="white-space: pre;" direction="ltr" dominant-baseline="alphabetic">5</text></g><g transform="translate(383.65469704524446 239.89723472137848) rotate(0 5.9658957702323505 11.726070996663566)"><text x="0" y="16.587032827287082" font-family="Virgil, Segoe UI Emoji" font-size="18.355906861069702px" fill="#000000" text-anchor="start" style="white-space: pre;" direction="ltr" dominant-baseline="alphabetic">6</text></g><g transform="translate(426.0004498365623 239.89723472137848) rotate(0 4.9372930512267885 11.726070996663566)"><text x="0" y="16.587032827287086" font-family="Virgil, Segoe UI Emoji" font-size="18.355906861069705px" fill="#000000" text-anchor="start" style="white-space: pre;" direction="ltr" dominant-baseline="alphabetic">7</text></g><g transform="translate(464.49629122135855 239.89723472137848) rotate(0 6.9944984892379125 11.726070996663566)"><text x="0" y="16.587032827287096" font-family="Virgil, Segoe UI Emoji" font-size="18.35590686106967px" fill="#000000" text-anchor="start" style="white-space: pre;" direction="ltr" dominant-baseline="alphabetic">8</text></g><g transform="translate(507.4117100876691 239.89723472137848) rotate(0 5.554454682630137 11.726070996663566)"><text x="0" y="16.587032827287082" font-family="Virgil, Segoe UI Emoji" font-size="18.355906861069702px" fill="#000000" text-anchor="start" style="white-space: pre;" direction="ltr" dominant-baseline="alphabetic">9</text></g><g stroke-linecap="round" transform="translate(10 29.300048828125) rotate(0 77.60000610351562 17.5)"><path d="M8.75 0 C51.93 -2.31, 99.01 -2.94, 146.45 0 M8.75 0 C39.39 -1.21, 70.26 -0.38, 146.45 0 M146.45 0 C151.62 1.2, 155.58 4.36, 155.2 8.75 M146.45 0 C151.64 0.76, 153.23 2.18, 155.2 8.75 M155.2 8.75 C154.15 11.1, 155.01 15.34, 155.2 26.25 M155.2 8.75 C155.46 14.98, 154.19 20.67, 155.2 26.25 M155.2 26.25 C153.92 32.98, 152.39 35.17, 146.45 35 M155.2 26.25 C156.75 30.56, 154.03 35.7, 146.45 35 M146.45 35 C92.97 33.33, 42.68 32.59, 8.75 35 M146.45 35 C116.73 34.17, 87.75 34.84, 8.75 35 M8.75 35 C2.25 35.62, -0.58 30.68, 0 26.25 M8.75 35 C4.81 33.4, 0.43 30.45, 0 26.25 M0 26.25 C-0.57 17.97, -0.68 12.15, 0 8.75 M0 26.25 C0.27 20.74, 0.1 13.62, 0 8.75 M0 8.75 C1.2 2.59, 4.09 -1.8, 8.75 0 M0 8.75 C-0.01 0.8, 4.45 1.31, 8.75 0" stroke="#2f9e44" stroke-width="2" fill="none"></path></g><g transform="translate(23.910064697265625 34.300048828125) rotate(0 63.68994140625 12.5)"><text x="63.68994140625" y="17.52" font-family="Virgil, Segoe UI Emoji" font-size="20px" fill="#2f9e44" text-anchor="middle" style="white-space: pre;" direction="ltr" dominant-baseline="alphabetic">Harry Potter</text></g><g stroke-linecap="round" transform="translate(207.80001831054688 10) rotate(0 77.60000610351562 30)"><path d="M15 0 C46.18 0.16, 81.97 2.46, 140.2 0 M15 0 C55.47 1.07, 96.4 1.05, 140.2 0 M140.2 0 C150.36 -0.89, 155.32 6.81, 155.2 15 M140.2 0 C148.15 1.6, 155.95 6.09, 155.2 15 M155.2 15 C154.97 24.16, 153.63 30.84, 155.2 45 M155.2 15 C155.92 24.35, 156.31 32.9, 155.2 45 M155.2 45 C157.2 53.18, 151.79 59.97, 140.2 60 M155.2 45 C155.17 56.24, 148.63 58.05, 140.2 60 M140.2 60 C110.24 58.77, 77.61 58.35, 15 60 M140.2 60 C96.31 60.58, 50.7 59.11, 15 60 M15 60 C6.91 60.22, 0.43 53.82, 0 45 M15 60 C5.95 59.72, 2.19 54.43, 0 45 M0 45 C0.67 33.82, 0.26 24.9, 0 15 M0 45 C0.28 37.84, -0.01 29.05, 0 15 M0 15 C0.24 6.21, 6.81 -1.46, 15 0 M0 15 C0.88 4.76, 4.13 -1.03, 15 0" stroke="#2f9e44" stroke-width="2" fill="none"></path></g><g transform="translate(240.9200668334961 15) rotate(0 44.479957580566406 25)"><text x="44.479957580566406" y="17.52" font-family="Virgil, Segoe UI Emoji" font-size="20px" fill="#2f9e44" text-anchor="middle" style="white-space: pre;" direction="ltr" dominant-baseline="alphabetic">Hermione </text><text x="44.479957580566406" y="42.519999999999996" font-family="Virgil, Segoe UI Emoji" font-size="20px" fill="#2f9e44" text-anchor="middle" style="white-space: pre;" direction="ltr" dominant-baseline="alphabetic">Granger</text></g><g stroke-linecap="round" transform="translate(419.8000183105469 21.0999755859375) rotate(0 77.60000610351562 17.5)"><path d="M8.75 0 C48.97 0.14, 88.42 0.47, 146.45 0 M8.75 0 C59.11 0.26, 110.09 1.61, 146.45 0 M146.45 0 C153.09 0.96, 155.67 1.82, 155.2 8.75 M146.45 0 C151.11 -0.79, 156.05 5.21, 155.2 8.75 M155.2 8.75 C156.26 14.59, 154.31 22.67, 155.2 26.25 M155.2 8.75 C155.08 15.25, 155.54 21.99, 155.2 26.25 M155.2 26.25 C154.02 30.64, 153.59 36.08, 146.45 35 M155.2 26.25 C156.94 32.75, 151.77 35.22, 146.45 35 M146.45 35 C103.26 36.94, 54.21 34.42, 8.75 35 M146.45 35 C118.66 35.4, 89.68 34.75, 8.75 35 M8.75 35 C1.87 34.71, 0.8 30.81, 0 26.25 M8.75 35 C5.02 34.64, -0.22 30.96, 0 26.25 M0 26.25 C-1.41 20.67, 0.78 14.77, 0 8.75 M0 26.25 C0.48 22.84, 0.36 18.22, 0 8.75 M0 8.75 C-1.87 2.56, 1 -0.11, 8.75 0 M0 8.75 C-0.9 2.31, 1.76 -2.12, 8.75 0" stroke="#2f9e44" stroke-width="2" fill="none"></path></g><g transform="translate(437.5900650024414 26.0999755859375) rotate(0 59.809959411621094 12.5)"><text x="59.809959411621094" y="17.52" font-family="Virgil, Segoe UI Emoji" font-size="20px" fill="#2f9e44" text-anchor="middle" style="white-space: pre;" direction="ltr" dominant-baseline="alphabetic">Ron Weasley</text></g><g transform="translate(22.200042724609375 147.39999389648438) rotate(0 37.19995880126953 12.5)"><text x="0" y="17.52" font-family="Virgil, Segoe UI Emoji" font-size="20px" fill="#e03131" text-anchor="start" style="white-space: pre;" direction="ltr" dominant-baseline="alphabetic">buckets</text></g><g stroke-linecap="round"><g transform="translate(129.4000244140625 63.4000244140625) rotate(0 24.000030517578125 39.80889644731451)"><path d="M1.06 -0.38 C9.42 12.95, 41.29 66.7, 49.08 80.01 M0.15 -1.62 C8.55 11.33, 40.9 64.37, 48.7 78.1" stroke="#e03131" stroke-width="2" fill="none"></path></g><g transform="translate(129.4000244140625 63.4000244140625) rotate(0 24.000030517578125 39.80889644731451)"><path d="M29.37 62.25 C32.74 67.16, 38.03 68.32, 48.7 78.1 M29.37 62.25 C34.09 65.76, 40.41 70.48, 48.7 78.1" stroke="#e03131" stroke-width="2" fill="none"></path></g><g transform="translate(129.4000244140625 63.4000244140625) rotate(0 24.000030517578125 39.80889644731451)"><path d="M44.08 53.53 C44.41 60.37, 46.66 63.34, 48.7 78.1 M44.08 53.53 C44.5 59.68, 46.56 66.92, 48.7 78.1" stroke="#e03131" stroke-width="2" fill="none"></path></g></g><mask></mask><g stroke-linecap="round"><g transform="translate(309.4000244140625 69.79998779296875) rotate(0 7.600006103515625 35.2400575374902)"><path d="M-0.85 0.24 C1.6 11.91, 12.51 57.82, 15.01 69.55 M0.9 -0.67 C3.15 11.15, 11.37 58.49, 13.97 70.6" stroke="#e03131" stroke-width="2" fill="none"></path></g><g transform="translate(309.4000244140625 69.79998779296875) rotate(0 7.600006103515625 35.2400575374902)"><path d="M1.15 49.13 C5.62 55.86, 7.81 61.36, 13.97 70.6 M1.15 49.13 C5.56 56.54, 9.01 62.55, 13.97 70.6" stroke="#e03131" stroke-width="2" fill="none"></path></g><g transform="translate(309.4000244140625 69.79998779296875) rotate(0 7.600006103515625 35.2400575374902)"><path d="M17.95 45.92 C16.97 53.56, 13.73 60.1, 13.97 70.6 M17.95 45.92 C17.11 54.47, 15.32 61.48, 13.97 70.6" stroke="#e03131" stroke-width="2" fill="none"></path></g></g><mask></mask><g stroke-linecap="round"><g transform="translate(488.8003280230912 57.79998779296875) rotate(0 -0.5001395974830984 42.55120200182637)"><path d="M0.9 0.23 C0.57 14.09, -1.26 69.96, -1.71 83.92 M-0.09 -0.7 C-0.05 13.21, 0.51 70.59, 0.64 84.84" stroke="#e03131" stroke-width="2" fill="none"></path></g><g transform="translate(488.8003280230912 57.79998779296875) rotate(0 -0.5001395974830984 42.55120200182637)"><path d="M-8.13 61.42 C-4.79 67.72, -4.32 75.09, 0.64 84.84 M-8.13 61.42 C-6.1 66.06, -5.13 71.2, 0.64 84.84" stroke="#e03131" stroke-width="2" fill="none"></path></g><g transform="translate(488.8003280230912 57.79998779296875) rotate(0 -0.5001395974830984 42.55120200182637)"><path d="M8.97 61.27 C6.81 67.74, 1.78 75.16, 0.64 84.84 M8.97 61.27 C7.42 65.93, 4.81 71.11, 0.64 84.84" stroke="#e03131" stroke-width="2" fill="none"></path></g></g><mask></mask><g stroke-linecap="round" transform="translate(151.00006103515625 143.60000610351562) rotate(0 30.79998779296875 17.199996948242188)"><path d="M8.6 0 C22.62 -2.11, 36.32 1.05, 53 0 M8.6 0 C23.9 -0.43, 37.88 -0.67, 53 0 M53 0 C60.6 0.81, 61.82 2.28, 61.6 8.6 M53 0 C58.43 0.48, 59.34 1.1, 61.6 8.6 M61.6 8.6 C62.96 15.16, 61.03 19.56, 61.6 25.8 M61.6 8.6 C62.22 13.03, 61.4 18.14, 61.6 25.8 M61.6 25.8 C60.8 33.41, 60.17 32.55, 53 34.4 M61.6 25.8 C63.09 32.06, 60.7 33.41, 53 34.4 M53 34.4 C38.96 35.06, 29.1 35.84, 8.6 34.4 M53 34.4 C40.82 34.1, 29.02 34.16, 8.6 34.4 M8.6 34.4 C3.96 36.08, -1.53 31.95, 0 25.8 M8.6 34.4 C0.96 33.7, -1.16 29.94, 0 25.8 M0 25.8 C-0.72 21.07, -0.03 16.24, 0 8.6 M0 25.8 C0.47 20.28, 0.38 14.83, 0 8.6 M0 8.6 C1.24 2.76, 2.64 0.09, 8.6 0 M0 8.6 C0.19 2.02, 5.12 1.32, 8.6 0" stroke="#e03131" stroke-width="2" fill="none"></path></g><g stroke-linecap="round" transform="translate(295.800048828125 143.8000030517578) rotate(0 30.79998779296875 17.199996948242188)"><path d="M8.6 0 C22.07 -1.48, 32.39 0.02, 53 0 M8.6 0 C26.17 0.7, 44.16 -1.01, 53 0 M53 0 C60.4 1.1, 61.1 1.78, 61.6 8.6 M53 0 C59.5 -1.36, 62.81 4.27, 61.6 8.6 M61.6 8.6 C62.13 13.57, 62.94 19.78, 61.6 25.8 M61.6 8.6 C61.49 14.95, 60.71 21.24, 61.6 25.8 M61.6 25.8 C61.99 33.03, 60.57 36.28, 53 34.4 M61.6 25.8 C61.41 30.66, 58.23 36.32, 53 34.4 M53 34.4 C40.76 32.66, 25.92 35.97, 8.6 34.4 M53 34.4 C42.2 35.14, 30.81 34.01, 8.6 34.4 M8.6 34.4 C4.8 35.66, -1.52 32.29, 0 25.8 M8.6 34.4 C4.28 32.88, -1.54 32.46, 0 25.8 M0 25.8 C-1.63 20.62, 0.13 17.83, 0 8.6 M0 25.8 C0.08 20.26, 0.55 14.39, 0 8.6 M0 8.6 C-1.29 4.19, 3.52 -1.33, 8.6 0 M0 8.6 C1.01 3.39, 4.24 0.15, 8.6 0" stroke="#e03131" stroke-width="2" fill="none"></path></g><g stroke-linecap="round" transform="translate(458.2000732421875 142.19996643066406) rotate(0 30.79998779296875 17.199996948242188)"><path d="M8.6 0 C20.03 1.14, 30.7 -1.31, 53 0 M8.6 0 C25.3 0.52, 41.72 0.36, 53 0 M53 0 C60.09 0.25, 62.64 1.25, 61.6 8.6 M53 0 C60.9 1.37, 63.27 1.03, 61.6 8.6 M61.6 8.6 C60.1 14.15, 62.95 17.67, 61.6 25.8 M61.6 8.6 C61.38 15.18, 61.88 20.62, 61.6 25.8 M61.6 25.8 C60.73 30.39, 60.02 32.58, 53 34.4 M61.6 25.8 C59.73 33.25, 57.89 34.65, 53 34.4 M53 34.4 C36.72 35.4, 23.64 33.04, 8.6 34.4 M53 34.4 C44.14 34.3, 33.8 33.86, 8.6 34.4 M8.6 34.4 C2.95 34.03, 0.39 31.02, 0 25.8 M8.6 34.4 C2.68 33.51, 0.7 33.77, 0 25.8 M0 25.8 C0 23.23, -1.02 16.26, 0 8.6 M0 25.8 C-0.11 20.89, 0.8 15.81, 0 8.6 M0 8.6 C0.71 3.3, 2.51 0.37, 8.6 0 M0 8.6 C-1.88 1.3, 1 0.02, 8.6 0" stroke="#e03131" stroke-width="2" fill="none"></path></g><g stroke-linecap="round"><g transform="translate(175.97729059011067 287.7433632718471) rotate(0 56.73112088342418 -56.37166637713449)"><path d="M0.61 -1.02 C19.44 -19.53, 94.52 -93.44, 113.19 -111.94 M-0.52 1.07 C18.1 -17.71, 92.83 -94.47, 112.09 -113.64" stroke="#1971c2" stroke-width="2" fill="none"></path></g><g transform="translate(175.97729059011067 287.7433632718471) rotate(0 56.73112088342418 -56.37166637713449)"><path d="M101.67 -90.92 C103.48 -98.71, 109.85 -106.93, 112.09 -113.64 M101.67 -90.92 C104.6 -98.46, 108.99 -108.07, 112.09 -113.64" stroke="#1971c2" stroke-width="2" fill="none"></path></g><g transform="translate(175.97729059011067 287.7433632718471) rotate(0 56.73112088342418 -56.37166637713449)"><path d="M89.5 -102.93 C95.12 -106.94, 105.39 -111.3, 112.09 -113.64 M89.5 -102.93 C96.82 -106.23, 105.6 -111.5, 112.09 -113.64" stroke="#1971c2" stroke-width="2" fill="none"></path></g></g><mask></mask><g stroke-linecap="round"><g transform="translate(220.37776775378268 280.9166238340083) rotate(0 -19.199981689453125 -52.00004577636719)"><path d="M-0.59 0.17 C-6.74 -17.3, -31.62 -86.86, -37.88 -104.29 M1.3 -0.79 C-4.88 -18.12, -31.87 -85.82, -38.55 -102.91" stroke="#1971c2" stroke-width="2" fill="none"></path></g><g transform="translate(220.37776775378268 280.9166238340083) rotate(0 -19.199981689453125 -52.00004577636719)"><path d="M-21.98 -84.2 C-25.41 -87.51, -29.81 -92.08, -38.55 -102.91 M-21.98 -84.2 C-25.44 -88.5, -29.84 -93.78, -38.55 -102.91" stroke="#1971c2" stroke-width="2" fill="none"></path></g><g transform="translate(220.37776775378268 280.9166238340083) rotate(0 -19.199981689453125 -52.00004577636719)"><path d="M-37.88 -77.92 C-37.85 -82.53, -38.77 -88.47, -38.55 -102.91 M-37.88 -77.92 C-37.11 -83.91, -37.28 -90.86, -38.55 -102.91" stroke="#1971c2" stroke-width="2" fill="none"></path></g></g><mask></mask><g stroke-linecap="round"><g transform="translate(264.6258780469652 279.6607839941978) rotate(0 112.4000244140625 -51.60002136230469)"><path d="M-0.07 0.09 C37.29 -17.25, 187.37 -86.39, 224.74 -103.67 M-1.56 -0.9 C35.58 -18.12, 186.33 -85.45, 223.76 -102.38" stroke="#1971c2" stroke-width="2" fill="none"></path></g><g transform="translate(264.6258780469652 279.6607839941978) rotate(0 112.4000244140625 -51.60002136230469)"><path d="M205.84 -84.95 C212.23 -91.17, 217.59 -98.32, 223.76 -102.38 M205.84 -84.95 C210.87 -89.61, 215.68 -93.93, 223.76 -102.38" stroke="#1971c2" stroke-width="2" fill="none"></path></g><g transform="translate(264.6258780469652 279.6607839941978) rotate(0 112.4000244140625 -51.60002136230469)"><path d="M198.83 -100.55 C207.74 -101.28, 215.56 -102.95, 223.76 -102.38 M198.83 -100.55 C205.76 -101.04, 212.43 -101.23, 223.76 -102.38" stroke="#1971c2" stroke-width="2" fill="none"></path></g></g><mask></mask></svg>