<svg version="1.1" xmlns="http://www.w3.org/2000/svg" viewBox="0 0 894.7598571777344 377.17238642960797" width="894.7598571777344" height="377.17238642960797">
  <!-- svg-source:excalidraw -->
  
  <defs>
    <style class="style-fonts">
      @font-face {
        font-family: "Virgil";
        src: url("https://excalidraw.com/Virgil.woff2");
      }
      @font-face {
        font-family: "Cascadia";
        src: url("https://excalidraw.com/Cascadia.woff2");
      }
      @font-face {
        font-family: "Assistant";
        src: url("https://excalidraw.com/Assistant-Regular.woff2");
      }
    </style>
    
  </defs>
  <g stroke-linecap="round" transform="translate(277.1999816894531 158.52619184532205) rotate(0 70.39999389648438 50.79998779296875)"><path d="M25.4 0 C52.5 -1.42, 76.06 1.79, 115.4 0 M25.4 0 C44.59 -0.63, 64.25 -1.04, 115.4 0 M115.4 0 C133.58 0.08, 141.62 8.5, 140.8 25.4 M115.4 0 C131.63 0.38, 140.25 10.39, 140.8 25.4 M140.8 25.4 C142.95 45.06, 140.37 65.48, 140.8 76.2 M140.8 25.4 C141.56 39.15, 140.38 51.01, 140.8 76.2 M140.8 76.2 C140.91 91.98, 133.76 102.8, 115.4 101.6 M140.8 76.2 C139.1 93.38, 133.79 99.63, 115.4 101.6 M115.4 101.6 C89.3 103.24, 66.96 100.11, 25.4 101.6 M115.4 101.6 C96.16 101.84, 74.91 101.87, 25.4 101.6 M25.4 101.6 C7.71 101.77, -1.01 92.42, 0 76.2 M25.4 101.6 C10.45 101.53, -1.58 93.4, 0 76.2 M0 76.2 C-0.44 63.26, -0.08 53.24, 0 25.4 M0 76.2 C0.45 64.82, 0.53 51.57, 0 25.4 M0 25.4 C-1.86 7.39, 10.27 1.35, 25.4 0 M0 25.4 C0.1 9.33, 7.9 1.07, 25.4 0" stroke="#1971c2" stroke-width="2" fill="none"></path></g><g transform="translate(293.08800506591797 189.3261796382908) rotate(0 54.51197052001953 20)"><text x="54.51197052001953" y="14.016" font-family="Virgil, Segoe UI Emoji" font-size="16px" fill="#1e1e1e" text-anchor="middle" style="white-space: pre;" direction="ltr" dominant-baseline="alphabetic">notifier</text><text x="54.51197052001953" y="34.016" font-family="Virgil, Segoe UI Emoji" font-size="16px" fill="#1e1e1e" text-anchor="middle" style="white-space: pre;" direction="ltr" dominant-baseline="alphabetic">load balancing</text></g><g stroke-linecap="round" transform="translate(565.9999694824219 13.726188793564233) rotate(0 56 34)"><path d="M17 0 C37.87 1.93, 58.85 -1.27, 95 0 M17 0 C35.72 0.16, 53.87 -0.42, 95 0 M95 0 C106.33 -0.09, 111.36 3.74, 112 17 M95 0 C106.05 0.87, 110.62 4.07, 112 17 M112 17 C112.03 23.15, 111.97 32.78, 112 51 M112 17 C111.82 26.86, 110.8 37.06, 112 51 M112 51 C113.5 63.33, 105.7 68.2, 95 68 M112 51 C110.54 61.84, 104.64 69.65, 95 68 M95 68 C74.4 66.49, 52.5 66.14, 17 68 M95 68 C71.52 67.27, 48.45 68.36, 17 68 M17 68 C6.11 69.94, 0.06 61.32, 0 51 M17 68 C3.45 66.15, 0.83 62.54, 0 51 M0 51 C0.43 41.94, -1.83 35.28, 0 17 M0 51 C-0.21 39.44, 0.25 27.92, 0 17 M0 17 C-1.5 4.1, 7.58 0.3, 17 0 M0 17 C-1.08 4.85, 7.37 -1.03, 17 0" stroke="#2f9e44" stroke-width="2" fill="none"></path></g><g transform="translate(589.0900039672852 35.22618879356423) rotate(0 32.90996551513672 12.5)"><text x="32.90996551513672" y="17.52" font-family="Virgil, Segoe UI Emoji" font-size="20px" fill="#2f9e44" text-anchor="middle" style="white-space: pre;" direction="ltr" dominant-baseline="alphabetic">server1</text></g><g stroke-linecap="round" transform="translate(568.1999206542969 130.32621015586892) rotate(0 56 30)"><path d="M15 0 C41.08 0.26, 66.47 1.21, 97 0 M15 0 C45.18 -0.21, 74.33 -0.55, 97 0 M97 0 C108.82 -1.88, 113.77 6.77, 112 15 M97 0 C106.08 -0.27, 114.26 4.41, 112 15 M112 15 C111.36 22.99, 113.91 28.15, 112 45 M112 15 C111.78 22.24, 112.21 30.35, 112 45 M112 45 C111.45 55.14, 105.35 61.07, 97 60 M112 45 C113.65 55.07, 104.96 62.08, 97 60 M97 60 C66.98 60.25, 36.48 58.44, 15 60 M97 60 C72.11 60.18, 48.41 59.71, 15 60 M15 60 C5.33 60.86, -1.34 53.07, 0 45 M15 60 C5.5 61.7, -1.3 53.97, 0 45 M0 45 C-1.16 33.87, 0.47 25, 0 15 M0 45 C0.38 36.43, -0.44 28.08, 0 15 M0 15 C-1.3 4.21, 6.13 -1.52, 15 0 M0 15 C0.95 3.33, 5.8 0.83, 15 0" stroke="#1971c2" stroke-width="2" fill="none"></path></g><g transform="translate(586.8799591064453 147.82621015586892) rotate(0 37.31996154785156 12.5)"><text x="37.31996154785156" y="17.52" font-family="Virgil, Segoe UI Emoji" font-size="20px" fill="#1971c2" text-anchor="middle" style="white-space: pre;" direction="ltr" dominant-baseline="alphabetic">server2</text></g><g stroke-linecap="round" transform="translate(572.3999938964844 204.12619794883767) rotate(0 56 35.19999694824219)"><path d="M17.6 0 C33.78 -0.02, 54.43 0.06, 94.4 0 M17.6 0 C41.05 -1.14, 66.33 -0.45, 94.4 0 M94.4 0 C105.85 -0.41, 112.18 6.73, 112 17.6 M94.4 0 C105.01 -2.01, 110.83 5.06, 112 17.6 M112 17.6 C111.52 26.15, 113.31 35.23, 112 52.8 M112 17.6 C112.2 28.57, 112.02 38, 112 52.8 M112 52.8 C112.7 65.7, 106.43 69.59, 94.4 70.4 M112 52.8 C110.95 62.91, 107.46 68.78, 94.4 70.4 M94.4 70.4 C70.01 70.72, 42.78 71.25, 17.6 70.4 M94.4 70.4 C72.08 70.38, 47.55 70.12, 17.6 70.4 M17.6 70.4 C4.37 71.08, 0.58 62.65, 0 52.8 M17.6 70.4 C4.88 71.27, 1.78 66.26, 0 52.8 M0 52.8 C-1.82 44.51, -0.7 35.82, 0 17.6 M0 52.8 C-1.13 40.16, 0.21 29.19, 0 17.6 M0 17.6 C0.17 4.3, 4.77 0.14, 17.6 0 M0 17.6 C2.11 5.22, 7.75 1.05, 17.6 0" stroke="#2f9e44" stroke-width="2" fill="none"></path></g><g transform="translate(591.3900299072266 226.82619489707986) rotate(0 37.00996398925781 12.5)"><text x="37.00996398925781" y="17.52" font-family="Virgil, Segoe UI Emoji" font-size="20px" fill="#2f9e44" text-anchor="middle" style="white-space: pre;" direction="ltr" dominant-baseline="alphabetic">server3</text></g><g stroke-linecap="round" transform="translate(576.3999938964844 286.12619794883767) rotate(0 56 38.800018310546875)"><path d="M19.4 0 C33.09 0.24, 51.48 -0.41, 92.6 0 M19.4 0 C46.21 0.2, 75.04 0.26, 92.6 0 M92.6 0 C106.32 0.05, 111.81 5.24, 112 19.4 M92.6 0 C104.81 2.1, 114.01 7.8, 112 19.4 M112 19.4 C111.81 30.06, 112.97 41.91, 112 58.2 M112 19.4 C112.68 34.34, 112.25 50.63, 112 58.2 M112 58.2 C110.17 72.87, 107.28 78.09, 92.6 77.6 M112 58.2 C113.58 70.52, 104.39 79.83, 92.6 77.6 M92.6 77.6 C64.51 76.98, 38.21 77.57, 19.4 77.6 M92.6 77.6 C72.1 77.62, 52.1 77.94, 19.4 77.6 M19.4 77.6 C5.56 78.23, -1.36 69.59, 0 58.2 M19.4 77.6 C6.81 76.28, -0.3 69.27, 0 58.2 M0 58.2 C0.85 46.37, -1.48 37.7, 0 19.4 M0 58.2 C-0.32 45.36, -0.62 32.03, 0 19.4 M0 19.4 C0.1 4.79, 7.69 -0.9, 19.4 0 M0 19.4 C-1.04 7.85, 7.69 0.6, 19.4 0" stroke="#2f9e44" stroke-width="2" fill="none"></path></g><g transform="translate(593.9800338745117 312.42621625938455) rotate(0 38.419960021972656 12.5)"><text x="38.419960021972656" y="17.52" font-family="Virgil, Segoe UI Emoji" font-size="20px" fill="#2f9e44" text-anchor="middle" style="white-space: pre;" direction="ltr" dominant-baseline="alphabetic">server...</text></g><g stroke-linecap="round"><g transform="translate(426.8000183105469 200.34847752379528) rotate(0 64.79998779296875 -71.94365400172524)"><path d="M0.47 1.19 C22.09 -22.48, 109.22 -118.76, 130.73 -143.07 M-0.74 0.77 C20.73 -23.14, 108.79 -120.68, 130.37 -144.76" stroke="#2f9e44" stroke-width="2" fill="none"></path></g><g transform="translate(426.8000183105469 200.34847752379528) rotate(0 64.79998779296875 -71.94365400172524)"><path d="M121.01 -121.58 C126.79 -128.63, 129.76 -139.5, 130.37 -144.76 M121.01 -121.58 C122.36 -127.06, 124.49 -133.53, 130.37 -144.76" stroke="#2f9e44" stroke-width="2" fill="none"></path></g><g transform="translate(426.8000183105469 200.34847752379528) rotate(0 64.79998779296875 -71.94365400172524)"><path d="M108.3 -133.02 C118.86 -135.73, 126.71 -142.21, 130.37 -144.76 M108.3 -133.02 C112.65 -135.88, 117.8 -139.64, 130.37 -144.76" stroke="#2f9e44" stroke-width="2" fill="none"></path></g></g><mask></mask><g stroke-linecap="round"><g transform="translate(429.8066357168882 215.90625402851333) rotate(0 62 -31.920092513713257)"><path d="M-0.23 -0.32 C20.5 -10.95, 103.37 -52.84, 124.13 -63.62 M-1.82 -1.53 C18.8 -12.57, 102.32 -55.17, 123.24 -65.63" stroke="#2f9e44" stroke-width="2" fill="none"></path></g><g transform="translate(429.8066357168882 215.90625402851333) rotate(0 62 -31.920092513713257)"><path d="M106.15 -47.39 C110.28 -52.16, 115.86 -56.83, 123.24 -65.63 M106.15 -47.39 C109.17 -50.36, 112.83 -54.62, 123.24 -65.63" stroke="#2f9e44" stroke-width="2" fill="none"></path></g><g transform="translate(429.8066357168882 215.90625402851333) rotate(0 62 -31.920092513713257)"><path d="M98.42 -62.65 C104.7 -63.21, 112.41 -63.7, 123.24 -65.63 M98.42 -62.65 C102.99 -62.48, 108.22 -63.65, 123.24 -65.63" stroke="#2f9e44" stroke-width="2" fill="none"></path></g></g><mask></mask><g stroke-linecap="round"><g transform="translate(424.2066601309507 236.38307931651457) rotate(0 67.19998168945312 1.635240580143659)"><path d="M0.21 0.29 C22.41 1.14, 111.51 3.89, 133.68 4.47 M-1.14 -0.61 C21.41 0.01, 113.25 2.59, 136.02 2.97" stroke="#2f9e44" stroke-width="2" fill="none"></path></g><g transform="translate(424.2066601309507 236.38307931651457) rotate(0 67.19998168945312 1.635240580143659)"><path d="M112.33 10.97 C120.94 7, 130.53 3.48, 136.02 2.97 M112.33 10.97 C121.05 9.2, 127.69 6.64, 136.02 2.97" stroke="#2f9e44" stroke-width="2" fill="none"></path></g><g transform="translate(424.2066601309507 236.38307931651457) rotate(0 67.19998168945312 1.635240580143659)"><path d="M112.73 -6.12 C121.11 -4.26, 130.56 -1.94, 136.02 2.97 M112.73 -6.12 C121.39 -2.09, 127.89 1.16, 136.02 2.97" stroke="#2f9e44" stroke-width="2" fill="none"></path></g></g><mask></mask><g stroke-linecap="round"><g transform="translate(425.4066113028257 251.21413458821735) rotate(0 71.73832519966794 39.995588457027)"><path d="M-0.29 -0.76 C23.93 12.61, 120.21 66.34, 144.19 79.89 M1.76 1.45 C25.98 15.05, 120.09 68.53, 143.61 81.38" stroke="#2f9e44" stroke-width="2" fill="none"></path></g><g transform="translate(425.4066113028257 251.21413458821735) rotate(0 71.73832519966794 39.995588457027)"><path d="M118.94 77.39 C122.77 79.46, 128.99 79.32, 143.61 81.38 M118.94 77.39 C126.66 78.28, 136.67 79.19, 143.61 81.38" stroke="#2f9e44" stroke-width="2" fill="none"></path></g><g transform="translate(425.4066113028257 251.21413458821735) rotate(0 71.73832519966794 39.995588457027)"><path d="M127.28 62.46 C129.34 67.61, 133.83 70.56, 143.61 81.38 M127.28 62.46 C132.07 68.59, 139.19 74.69, 143.61 81.38" stroke="#2f9e44" stroke-width="2" fill="none"></path></g></g><mask></mask><g stroke-linecap="round"><g transform="translate(724.4000549316406 11.326194897079858) rotate(0 1.199951171875 177.20000457763672)"><path d="M-0.72 -0.18 C-0.09 58.78, 2.86 295.33, 3.22 354.34 M1.11 -1.33 C1.7 57.79, 2.24 296.47, 2.71 355.85" stroke="#1971c2" stroke-width="2" fill="none"></path></g><g transform="translate(724.4000549316406 11.326194897079858) rotate(0 1.199951171875 177.20000457763672)"><path d="M-5.96 332.39 C-3.95 339.78, -1.54 342.84, 2.71 355.85 M-5.96 332.39 C-4.42 338.58, -2.1 343.83, 2.71 355.85" stroke="#1971c2" stroke-width="2" fill="none"></path></g><g transform="translate(724.4000549316406 11.326194897079858) rotate(0 1.199951171875 177.20000457763672)"><path d="M11.14 332.31 C8.8 339.62, 6.86 342.7, 2.71 355.85 M11.14 332.31 C8.29 338.52, 6.23 343.79, 2.71 355.85" stroke="#1971c2" stroke-width="2" fill="none"></path></g></g><mask></mask><g transform="translate(737.1999816894531 136.12619794883767) rotate(0 73.77993774414062 12.5)"><text x="0" y="17.52" font-family="Virgil, Segoe UI Emoji" font-size="20px" fill="#1971c2" text-anchor="start" style="white-space: pre;" direction="ltr" dominant-baseline="alphabetic">vertical scaling</text></g><g transform="translate(564.4000549316406 89.92620100059548) rotate(0 67.57595825195312 20)"><text x="0" y="14.016" font-family="Virgil, Segoe UI Emoji" font-size="16px" fill="#1971c2" text-anchor="start" style="white-space: pre;" direction="ltr" dominant-baseline="alphabetic">very powerful</text><text x="0" y="34.016" font-family="Virgil, Segoe UI Emoji" font-size="16px" fill="#1971c2" text-anchor="start" style="white-space: pre;" direction="ltr" dominant-baseline="alphabetic">horizontal scaling</text></g><g stroke-linecap="round" transform="translate(10 128.12619794883767) rotate(0 40 25)"><path d="M12.5 0 C33.29 0.14, 55.55 -0.63, 67.5 0 M12.5 0 C28.41 0.88, 44.55 0.7, 67.5 0 M67.5 0 C75.82 -1.22, 80.42 5.56, 80 12.5 M67.5 0 C75.75 2.06, 78.3 2.16, 80 12.5 M80 12.5 C81.81 20.06, 80.76 27.44, 80 37.5 M80 12.5 C79.72 19.31, 79.22 27.18, 80 37.5 M80 37.5 C81.91 46.2, 73.86 51.28, 67.5 50 M80 37.5 C79.8 45.24, 76.52 51.1, 67.5 50 M67.5 50 C52.96 49, 37.24 51.59, 12.5 50 M67.5 50 C46.39 49.24, 23.1 49.55, 12.5 50 M12.5 50 C3.34 50.73, 1.6 45.2, 0 37.5 M12.5 50 C5 51.57, 1.33 43.97, 0 37.5 M0 37.5 C1.27 30.34, -2.09 24.21, 0 12.5 M0 37.5 C-0.78 30.55, 0.19 25.23, 0 12.5 M0 12.5 C-1.44 4.6, 4.89 -1.61, 12.5 0 M0 12.5 C1.2 2.27, 5.82 -0.39, 12.5 0" stroke="#f08c00" stroke-width="2" fill="none"></path></g><g transform="translate(24.048019409179688 143.12619794883767) rotate(0 25.951980590820312 10)"><text x="25.951980590820312" y="14.016" font-family="Virgil, Segoe UI Emoji" font-size="16px" fill="#f08c00" text-anchor="middle" style="white-space: pre;" direction="ltr" dominant-baseline="alphabetic">user A</text></g><g stroke-linecap="round" transform="translate(11.5999755859375 197.32621015586892) rotate(0 40 25)"><path d="M12.5 0 C27.16 -0.33, 45.98 0.32, 67.5 0 M12.5 0 C32.5 -0.82, 51.01 -0.82, 67.5 0 M67.5 0 C74.06 0.29, 78.84 3.43, 80 12.5 M67.5 0 C78.03 -0.91, 79.22 4.76, 80 12.5 M80 12.5 C78.03 18.02, 78.51 26.41, 80 37.5 M80 12.5 C79.15 21.83, 79.69 30.04, 80 37.5 M80 37.5 C79.38 45.4, 77.81 50.74, 67.5 50 M80 37.5 C80.29 47.86, 75.12 48.54, 67.5 50 M67.5 50 C55.3 49.07, 40.9 48.28, 12.5 50 M67.5 50 C53.06 49.27, 39.74 49.47, 12.5 50 M12.5 50 C5.64 48.1, 1.55 43.84, 0 37.5 M12.5 50 C2.95 49.1, -2.12 45.26, 0 37.5 M0 37.5 C1.78 29.25, -1.39 22.48, 0 12.5 M0 37.5 C0.09 29.43, 0.46 22.11, 0 12.5 M0 12.5 C0.92 4.97, 4.94 -1.82, 12.5 0 M0 12.5 C-2.27 2.87, 2.43 0.39, 12.5 0" stroke="#f08c00" stroke-width="2" fill="none"></path></g><g transform="translate(25.079994201660156 212.32621015586892) rotate(0 26.519981384277344 10)"><text x="26.519981384277344" y="14.016" font-family="Virgil, Segoe UI Emoji" font-size="16px" fill="#f08c00" text-anchor="middle" style="white-space: pre;" direction="ltr" dominant-baseline="alphabetic">user B</text></g><g stroke-linecap="round" transform="translate(14.199981689453125 267.12619794883767) rotate(0 40 25)"><path d="M12.5 0 C27.2 0.81, 36.76 -1.53, 67.5 0 M12.5 0 C24.36 -0.08, 35.09 0.41, 67.5 0 M67.5 0 C76.4 1.85, 80.2 5.69, 80 12.5 M67.5 0 C76.49 -0.36, 81.4 3.07, 80 12.5 M80 12.5 C79.79 18.97, 80.22 27.68, 80 37.5 M80 12.5 C79.01 19.34, 80.33 27.63, 80 37.5 M80 37.5 C78.44 44.57, 77.52 51.49, 67.5 50 M80 37.5 C78.79 46.86, 77.47 48.78, 67.5 50 M67.5 50 C47.82 49.8, 26.84 48.58, 12.5 50 M67.5 50 C47.03 49.11, 25.75 48.8, 12.5 50 M12.5 50 C6.03 48.18, -0.6 45.66, 0 37.5 M12.5 50 C2.75 48.49, 1 43.65, 0 37.5 M0 37.5 C-0.42 26.45, 1.88 18.19, 0 12.5 M0 37.5 C-0.12 28.26, -0.23 18.55, 0 12.5 M0 12.5 C-0.86 2.2, 4 -0.83, 12.5 0 M0 12.5 C-1.45 2.5, 4.67 -1.36, 12.5 0" stroke="#f08c00" stroke-width="2" fill="none"></path></g><g transform="translate(28.34400177001953 282.12619794883767) rotate(0 25.855979919433594 10)"><text x="25.855979919433594" y="14.016" font-family="Virgil, Segoe UI Emoji" font-size="16px" fill="#f08c00" text-anchor="middle" style="white-space: pre;" direction="ltr" dominant-baseline="alphabetic">user C</text></g><g stroke-linecap="round"><g transform="translate(102.79998779296875 144.12619794883767) rotate(0 78.80000305175781 15.199996948242188)"><path d="M-1.18 -0.17 C13.87 2.91, 64.47 13.55, 90.84 18.79 C117.21 24.04, 146.01 29.43, 157.05 31.32 M0.4 -1.3 C15.29 1.37, 64.19 11.75, 90.12 16.88 C116.05 22.01, 144.84 27.09, 155.99 29.47" stroke="#f08c00" stroke-width="2" fill="none"></path></g><g transform="translate(102.79998779296875 144.12619794883767) rotate(0 78.80000305175781 15.199996948242188)"><path d="M131.29 33.33 C139.45 32.99, 148.83 30.01, 155.99 29.47 M131.29 33.33 C141.07 32.46, 150.08 30.13, 155.99 29.47" stroke="#f08c00" stroke-width="2" fill="none"></path></g><g transform="translate(102.79998779296875 144.12619794883767) rotate(0 78.80000305175781 15.199996948242188)"><path d="M134.59 16.55 C141.66 21.91, 149.92 24.67, 155.99 29.47 M134.59 16.55 C143.05 21.99, 150.82 25.99, 155.99 29.47" stroke="#f08c00" stroke-width="2" fill="none"></path></g></g><mask></mask><g transform="translate(135.60000610351562 127.92618574180642) rotate(0 57.96795654296875 10)"><text x="0" y="14.016" font-family="Virgil, Segoe UI Emoji" font-size="16px" fill="#f08c00" text-anchor="start" style="white-space: pre;" direction="ltr" dominant-baseline="alphabetic">request 1,2,3...</text></g><g stroke-linecap="round"><g transform="translate(103.06789478063581 224.31674954114033) rotate(0 79.19999694824219 9.199996948242188)"><path d="M0.99 -1.02 C16.08 2.3, 65.26 19.16, 91.53 19.33 C117.81 19.5, 147.47 3.14, 158.63 0.01 M0.05 1.07 C14.99 4.11, 64.86 17.65, 91.18 17.69 C117.51 17.74, 146.72 4.57, 157.99 1.34" stroke="#f08c00" stroke-width="2" fill="none"></path></g><g transform="translate(103.06789478063581 224.31674954114033) rotate(0 79.19999694824219 9.199996948242188)"><path d="M138.56 17.07 C144.44 12.74, 155.16 5.17, 157.99 1.34 M138.56 17.07 C144.07 12.92, 150.78 6.72, 157.99 1.34" stroke="#f08c00" stroke-width="2" fill="none"></path></g><g transform="translate(103.06789478063581 224.31674954114033) rotate(0 79.19999694824219 9.199996948242188)"><path d="M133 0.9 C140.94 2.75, 153.81 1.42, 157.99 1.34 M133 0.9 C140.2 1.6, 148.57 0.26, 157.99 1.34" stroke="#f08c00" stroke-width="2" fill="none"></path></g></g><mask></mask><g stroke-linecap="round"><g transform="translate(104.65598423603467 295.25866285894836) rotate(0 78.80003354296912 -17.599976629237176)"><path d="M-0.97 0.97 C13.73 -1.38, 62.19 -7.9, 88.56 -14.11 C114.94 -20.31, 145.89 -32.81, 157.27 -36.27 M0.72 0.43 C15.78 -2.26, 64.98 -9.89, 90.91 -15.88 C116.85 -21.87, 145.37 -32.57, 156.34 -35.51" stroke="#f08c00" stroke-width="2" fill="none"></path></g><g transform="translate(104.65598423603467 295.25866285894836) rotate(0 78.80003354296912 -17.599976629237176)"><path d="M136.48 -20.33 C144.65 -26.34, 150.72 -30.74, 156.34 -35.51 M136.48 -20.33 C139.92 -22.64, 145.36 -26.97, 156.34 -35.51" stroke="#f08c00" stroke-width="2" fill="none"></path></g><g transform="translate(104.65598423603467 295.25866285894836) rotate(0 78.80003354296912 -17.599976629237176)"><path d="M131.36 -36.65 C141.22 -37.23, 148.98 -36.24, 156.34 -35.51 M131.36 -36.65 C135.78 -35.53, 142.3 -36.41, 156.34 -35.51" stroke="#f08c00" stroke-width="2" fill="none"></path></g></g><mask></mask><g transform="translate(100.92003631591797 197.12619794883767) rotate(0 57.96795654296875 10)"><text x="0" y="14.016" font-family="Virgil, Segoe UI Emoji" font-size="16px" fill="#f08c00" text-anchor="start" style="white-space: pre;" direction="ltr" dominant-baseline="alphabetic">request 1,2,3...</text></g><g transform="translate(107.93602752685547 256.72617353477517) rotate(0 57.96795654296875 10)"><text x="0" y="14.016" font-family="Virgil, Segoe UI Emoji" font-size="16px" fill="#f08c00" text-anchor="start" style="white-space: pre;" direction="ltr" dominant-baseline="alphabetic">request 1,2,3...</text></g><g stroke-opacity="0.5" fill-opacity="0.5" stroke-linecap="round" transform="translate(579.6000061035156 48.92620100059548) rotate(0 42.800018310546875 15)"><path d="M7.5 0 C27.41 -1.34, 47.48 1.25, 78.1 0 M7.5 0 C24.81 0.18, 41.67 -1.66, 78.1 0 M78.1 0 C81.4 0.76, 86.63 2.2, 85.6 7.5 M78.1 0 C82.56 -1.61, 85.98 3.83, 85.6 7.5 M85.6 7.5 C85.44 12.63, 86.22 16.83, 85.6 22.5 M85.6 7.5 C86.15 11.68, 85.03 15.17, 85.6 22.5 M85.6 22.5 C85.51 26.86, 83.7 30.54, 78.1 30 M85.6 22.5 C84.82 26.15, 81.15 31.42, 78.1 30 M78.1 30 C54.15 29.27, 28.25 30.68, 7.5 30 M78.1 30 C57.15 29.05, 36.49 30.06, 7.5 30 M7.5 30 C2.36 30.24, 0.18 27.96, 0 22.5 M7.5 30 C1.76 31.58, 1.5 26.69, 0 22.5 M0 22.5 C-0.69 17.78, -0.52 12.02, 0 7.5 M0 22.5 C-0.15 17.77, -0.21 11.07, 0 7.5 M0 7.5 C-0.56 2.74, 1.76 1.11, 7.5 0 M0 7.5 C-0.79 1, 1.59 0.73, 7.5 0" stroke="#f08c00" stroke-width="2" fill="none"></path></g><g stroke-opacity="0.5" fill-opacity="0.5" transform="translate(600.7040328979492 53.92620100059548) rotate(0 21.69599151611328 10)"><text x="21.69599151611328" y="14.016" font-family="Virgil, Segoe UI Emoji" font-size="16px" fill="#f08c00" text-anchor="middle" style="white-space: pre;" direction="ltr" dominant-baseline="alphabetic">cache</text></g><g stroke-opacity="0.5" fill-opacity="0.5" stroke-linecap="round" transform="translate(581.7999877929688 158.12619794883767) rotate(0 42.800018310546875 15)"><path d="M7.5 0 C24.68 -1.61, 46.8 -0.67, 78.1 0 M7.5 0 C31.74 -1.4, 54.26 -0.73, 78.1 0 M78.1 0 C84.02 -0.05, 84.35 2.65, 85.6 7.5 M78.1 0 C84.73 -1.53, 86.58 3.46, 85.6 7.5 M85.6 7.5 C86.3 11.41, 84.66 14.12, 85.6 22.5 M85.6 7.5 C84.96 11.94, 85.67 15.97, 85.6 22.5 M85.6 22.5 C85.91 28.93, 82.77 30.2, 78.1 30 M85.6 22.5 C85.33 28.04, 82.91 31.47, 78.1 30 M78.1 30 C62.11 29.05, 41.4 30.32, 7.5 30 M78.1 30 C57.03 31.16, 37.76 30.49, 7.5 30 M7.5 30 C3.9 31.37, 1.35 28.17, 0 22.5 M7.5 30 C2.9 31.44, -1.17 29.58, 0 22.5 M0 22.5 C0.95 17.71, -0.96 13.06, 0 7.5 M0 22.5 C-0.62 16.51, 0.35 11.59, 0 7.5 M0 7.5 C1.8 1, 0.69 0.51, 7.5 0 M0 7.5 C0.46 0.34, 2.88 -0.31, 7.5 0" stroke="#f08c00" stroke-width="2" fill="none"></path></g><g stroke-opacity="0.5" fill-opacity="0.5" transform="translate(602.9040145874023 163.12619794883767) rotate(0 21.69599151611328 10)"><text x="21.69599151611328" y="14.016" font-family="Virgil, Segoe UI Emoji" font-size="16px" fill="#f08c00" text-anchor="middle" style="white-space: pre;" direction="ltr" dominant-baseline="alphabetic">cache</text></g><g stroke-opacity="0.5" fill-opacity="0.5" stroke-linecap="round" transform="translate(587.2000122070312 241.7262040523533) rotate(0 42.800018310546875 15)"><path d="M7.5 0 C29.24 2.04, 53 1.66, 78.1 0 M7.5 0 C34.64 -0.38, 63.64 -1.12, 78.1 0 M78.1 0 C84.36 -1.98, 85.87 0.84, 85.6 7.5 M78.1 0 C83.76 1.34, 84.79 4.4, 85.6 7.5 M85.6 7.5 C86.6 13.4, 84.36 19.37, 85.6 22.5 M85.6 7.5 C86.3 13.09, 85.55 17.08, 85.6 22.5 M85.6 22.5 C84.59 25.97, 83.03 31.16, 78.1 30 M85.6 22.5 C86.9 26.92, 84.28 30.36, 78.1 30 M78.1 30 C57.03 27.75, 33.83 27.57, 7.5 30 M78.1 30 C56.24 29.01, 32.42 30.52, 7.5 30 M7.5 30 C3.81 29.89, -1.07 25.75, 0 22.5 M7.5 30 C2.72 29.94, -1.31 29.25, 0 22.5 M0 22.5 C-0.12 17.44, 0.61 11.39, 0 7.5 M0 22.5 C-0.39 19.19, -0.27 16.27, 0 7.5 M0 7.5 C0.39 1.96, 2.72 0.98, 7.5 0 M0 7.5 C1.77 0.3, 1.82 -1.13, 7.5 0" stroke="#f08c00" stroke-width="2" fill="none"></path></g><g stroke-opacity="0.5" fill-opacity="0.5" transform="translate(608.3040390014648 246.7262040523533) rotate(0 21.69599151611328 10)"><text x="21.69599151611328" y="14.016" font-family="Virgil, Segoe UI Emoji" font-size="16px" fill="#f08c00" text-anchor="middle" style="white-space: pre;" direction="ltr" dominant-baseline="alphabetic">cache</text></g><g stroke-opacity="0.5" fill-opacity="0.5" stroke-linecap="round" transform="translate(591.2000122070312 333.3261796382908) rotate(0 42.800018310546875 15)"><path d="M7.5 0 C25.31 -2.01, 44.6 0.41, 78.1 0 M7.5 0 C34.67 -0.84, 64.16 0.05, 78.1 0 M78.1 0 C82.99 -1.07, 83.85 2.69, 85.6 7.5 M78.1 0 C83.04 -1.31, 87.35 3.22, 85.6 7.5 M85.6 7.5 C85.59 11.41, 84.51 13.01, 85.6 22.5 M85.6 7.5 C85.5 10.26, 85.77 13.97, 85.6 22.5 M85.6 22.5 C85.06 27.72, 84.08 31.54, 78.1 30 M85.6 22.5 C83.4 26.82, 81.97 28.66, 78.1 30 M78.1 30 C53.29 28.97, 27.92 30.58, 7.5 30 M78.1 30 C56.61 30.79, 37.24 31.34, 7.5 30 M7.5 30 C2.93 31.73, 0.77 29.4, 0 22.5 M7.5 30 C1.95 30.24, -1.6 26.31, 0 22.5 M0 22.5 C-0.8 17.85, -1.28 16.13, 0 7.5 M0 22.5 C0.17 18.56, 0.14 15.67, 0 7.5 M0 7.5 C-1.9 0.8, 1.62 0.93, 7.5 0 M0 7.5 C2.23 2.19, 2.68 0.35, 7.5 0" stroke="#f08c00" stroke-width="2" fill="none"></path></g><g stroke-opacity="0.5" fill-opacity="0.5" transform="translate(612.3040390014648 338.3261796382908) rotate(0 21.69599151611328 10)"><text x="21.69599151611328" y="14.016" font-family="Virgil, Segoe UI Emoji" font-size="16px" fill="#f08c00" text-anchor="middle" style="white-space: pre;" direction="ltr" dominant-baseline="alphabetic">cache</text></g><g transform="translate(24.399993896484375 91.32621015586892) rotate(0 20.503990173339844 10)"><text x="0" y="14.016" font-family="Virgil, Segoe UI Emoji" font-size="16px" fill="#e03131" text-anchor="start" style="white-space: pre;" direction="ltr" dominant-baseline="alphabetic">client</text></g></svg>