<svg version="1.1" xmlns="http://www.w3.org/2000/svg" viewBox="0 0 494.1679918169823 251.17469603680104" width="494.1679918169823" height="251.17469603680104">
  <!-- svg-source:excalidraw -->
  
  <defs>
    <style class="style-fonts">
      @font-face {
        font-family: "Virgil";
        src: url("https://excalidraw.com/Virgil.woff2");
      }
      @font-face {
        font-family: "Cascadia";
        src: url("https://excalidraw.com/Cascadia.woff2");
      }
      @font-face {
        font-family: "Assistant";
        src: url("https://excalidraw.com/Assistant-Regular.woff2");
      }
    </style>
    
  </defs>
  <g stroke-linecap="round" transform="translate(273.310615024307 35.00405224908428) rotate(0.41553307913708104 105.05764059092724 102.70571465914927)"><path d="M32 0 C68.02 -1.89, 104.28 -1.33, 178.12 0 M32 0 C87.24 -1.26, 141.98 -0.1, 178.12 0 M178.12 0 C200.25 1.06, 209.56 11.87, 210.12 32 M178.12 0 C197.45 0.3, 209.57 9.46, 210.12 32 M210.12 32 C212.18 71.6, 209.19 109.68, 210.12 173.41 M210.12 32 C211.26 80.11, 210.58 128.69, 210.12 173.41 M210.12 173.41 C209.38 194.71, 201.11 204.11, 178.12 205.41 M210.12 173.41 C211.34 192.94, 198.61 204.43, 178.12 205.41 M178.12 205.41 C138.44 204.64, 99.44 204.5, 32 205.41 M178.12 205.41 C129.59 206.06, 81.15 206.29, 32 205.41 M32 205.41 C10.1 204.58, 1.22 196.33, 0 173.41 M32 205.41 C12.03 205.02, 2.04 196.54, 0 173.41 M0 173.41 C0.24 144, 2.38 113.57, 0 32 M0 173.41 C0.98 135.19, 1.37 95.88, 0 32 M0 32 C1.62 10.5, 10.72 1.7, 32 0 M0 32 C-1.66 10.81, 12.2 0.38, 32 0" stroke="#2f9e44" stroke-width="2" fill="none"></path></g><g transform="translate(301.0940486058828 54.06971797818281) rotate(0.41553307913708104 67.28258291722182 76.65499403131842)"><text x="0" y="17.90660660571598" font-family="Virgil, Segoe UI Emoji" font-size="20.44133174168491px" fill="#2f9e44" text-anchor="start" style="white-space: pre;" direction="ltr" dominant-baseline="alphabetic">sort</text><text x="0" y="43.45827128282211" font-family="Virgil, Segoe UI Emoji" font-size="20.44133174168491px" fill="#2f9e44" text-anchor="start" style="white-space: pre;" direction="ltr" dominant-baseline="alphabetic">randomization</text><text x="0" y="69.00993595992824" font-family="Virgil, Segoe UI Emoji" font-size="20.44133174168491px" fill="#2f9e44" text-anchor="start" style="white-space: pre;" direction="ltr" dominant-baseline="alphabetic">graph search</text><text x="0" y="94.56160063703439" font-family="Virgil, Segoe UI Emoji" font-size="20.44133174168491px" fill="#2f9e44" text-anchor="start" style="white-space: pre;" direction="ltr" dominant-baseline="alphabetic">heap</text><text x="0" y="120.11326531414052" font-family="Virgil, Segoe UI Emoji" font-size="20.44133174168491px" fill="#2f9e44" text-anchor="start" style="white-space: pre;" direction="ltr" dominant-baseline="alphabetic">hash table</text><text x="0" y="145.66492999124665" font-family="Virgil, Segoe UI Emoji" font-size="20.44133174168491px" fill="#2f9e44" text-anchor="start" style="white-space: pre;" direction="ltr" dominant-baseline="alphabetic">...</text></g><g stroke-linecap="round" transform="translate(10 39.833099365234375) rotate(0 108.10015869140625 99.58806610107422)"><path d="M32 0 C72.05 0.44, 108.7 0.65, 184.2 0 M32 0 C71.53 -0.55, 110.99 0.25, 184.2 0 M184.2 0 C206.42 -1.59, 215.01 12.11, 216.2 32 M184.2 0 C204.54 -0.72, 215.48 12.25, 216.2 32 M216.2 32 C214.43 58.7, 216.6 86.27, 216.2 167.18 M216.2 32 C216.77 74.18, 215.14 115.75, 216.2 167.18 M216.2 167.18 C217.24 187.15, 206.64 198.71, 184.2 199.18 M216.2 167.18 C218.02 190.38, 207.26 197.71, 184.2 199.18 M184.2 199.18 C140.31 198.11, 96.76 199.52, 32 199.18 M184.2 199.18 C151.35 199.32, 116.26 199.61, 32 199.18 M32 199.18 C10.59 201.07, -1.82 186.78, 0 167.18 M32 199.18 C10.9 197.86, -0.62 187.64, 0 167.18 M0 167.18 C1.32 126.27, -0.96 87.73, 0 32 M0 167.18 C-1.24 117.41, -0.78 66.5, 0 32 M0 32 C0.67 9.66, 10.8 -1.79, 32 0 M0 32 C1.95 12.68, 8.48 0.1, 32 0" stroke="#1971c2" stroke-width="2" fill="none"></path></g><g transform="translate(35.95172119140625 69.31108093261719) rotate(0 87.84991455078125 12.5)"><text x="0" y="17.52" font-family="Virgil, Segoe UI Emoji" font-size="20px" fill="#1971c2" text-anchor="start" style="white-space: pre;" direction="ltr" dominant-baseline="alphabetic">divide-and-conquer</text></g><g transform="translate(39.02349853515625 129.61647033691406) rotate(0 78.88992309570312 12.5)"><text x="0" y="17.52" font-family="Virgil, Segoe UI Emoji" font-size="20px" fill="#1971c2" text-anchor="start" style="white-space: pre;" direction="ltr" dominant-baseline="alphabetic">greedy algorithm</text></g><g transform="translate(24.7265625 194.17967224121094) rotate(0 95.5399169921875 12.5)"><text x="0" y="17.52" font-family="Virgil, Segoe UI Emoji" font-size="20px" fill="#1971c2" text-anchor="start" style="white-space: pre;" direction="ltr" dominant-baseline="alphabetic">dynamic programming</text></g><g transform="translate(78.8885498046875 10) rotate(0 41.78996276855469 12.5)"><text x="0" y="17.52" font-family="Virgil, Segoe UI Emoji" font-size="20px" fill="#1971c2" text-anchor="start" style="white-space: pre;" direction="ltr" dominant-baseline="alphabetic">paradigm</text></g><g transform="translate(334.14776611328125 12.16619873046875) rotate(0 48.68994903564453 12.5)"><text x="0" y="17.52" font-family="Virgil, Segoe UI Emoji" font-size="20px" fill="#1971c2" text-anchor="start" style="white-space: pre;" direction="ltr" dominant-baseline="alphabetic">algorithms</text></g></svg>