<svg version="1.1" xmlns="http://www.w3.org/2000/svg" viewBox="0 0 410.9942932128906 402.2407253985489" width="410.9942932128906" height="402.2407253985489">
  <!-- svg-source:excalidraw -->
  
  <defs>
    <style class="style-fonts">
      @font-face {
        font-family: "Virgil";
        src: url("https://excalidraw.com/Virgil.woff2");
      }
      @font-face {
        font-family: "Cascadia";
        src: url("https://excalidraw.com/Cascadia.woff2");
      }
      @font-face {
        font-family: "Assistant";
        src: url("https://excalidraw.com/Assistant-Regular.woff2");
      }
    </style>
    
  </defs>
  <g stroke-linecap="round" transform="translate(10 10) rotate(0 195.4971466064453 189.57918548583984)"><path d="M196.89 -0.34 C213.47 -3.46, 232.96 2.08, 249.94 6.93 C266.92 11.79, 283.74 19.62, 298.76 28.79 C313.78 37.96, 328.35 49.39, 340.05 61.96 C351.75 74.53, 360.96 88.99, 368.94 104.21 C376.92 119.42, 384.29 136.49, 387.92 153.27 C391.54 170.06, 392.17 188.13, 390.71 204.91 C389.24 221.69, 385.12 238.04, 379.12 253.93 C373.13 269.83, 365 286.25, 354.76 300.26 C344.51 314.28, 331.47 327.47, 317.67 338.01 C303.86 348.54, 288.18 356.78, 271.95 363.47 C255.71 370.17, 237.7 375.96, 220.24 378.18 C202.79 380.39, 184.6 379.48, 167.23 376.74 C149.86 374.01, 131.96 368.63, 116.03 361.79 C100.1 354.95, 85.09 346.44, 71.66 335.69 C58.24 324.93, 45.65 311.3, 35.46 297.25 C25.28 283.21, 16.4 267.33, 10.55 251.42 C4.7 235.5, 1.42 218.65, 0.37 201.76 C-0.68 184.86, 0.63 166.88, 4.25 150.05 C7.87 133.22, 13.79 116.01, 22.09 100.76 C30.4 85.5, 41.85 70.87, 54.1 58.54 C66.35 46.21, 80.45 35.34, 95.58 26.76 C110.71 18.18, 127.64 11.52, 144.88 7.05 C162.13 2.57, 189.41 0.31, 199.05 -0.08 C208.69 -0.47, 202.53 1.51, 202.73 4.69 M257.39 9.96 C273.97 12.45, 289.48 23.04, 304.08 32.65 C318.68 42.26, 333.51 54.87, 344.99 67.61 C356.46 80.35, 365.83 93.75, 372.91 109.09 C379.99 124.42, 384.8 142.74, 387.48 159.62 C390.16 176.5, 390.79 193.31, 388.98 210.36 C387.18 227.41, 383.43 246.19, 376.64 261.92 C369.84 277.65, 359.29 291.23, 348.23 304.73 C337.17 318.22, 324.06 332.76, 310.26 342.89 C296.46 353.02, 281.54 359.41, 265.44 365.51 C249.34 371.61, 231.16 377.95, 213.65 379.46 C196.15 380.98, 177.9 377.95, 160.39 374.62 C142.89 371.28, 124.66 366.53, 108.63 359.46 C92.59 352.39, 77.17 343.4, 64.17 332.19 C51.17 320.97, 39.86 306.89, 30.62 292.17 C21.38 277.45, 13.77 260.37, 8.74 243.88 C3.71 227.4, 1 210.16, 0.45 193.27 C-0.11 176.38, 1.3 158.83, 5.4 142.54 C9.51 126.25, 16.07 110.55, 25.09 95.52 C34.12 80.49, 46.62 64.3, 59.55 52.38 C72.47 40.47, 87.41 31.77, 102.64 24.01 C117.86 16.25, 133.85 9.62, 150.91 5.82 C167.96 2.02, 187.21 0.43, 204.99 1.2 C222.77 1.98, 249.26 8.29, 257.56 10.47 C265.86 12.64, 255.93 11.27, 254.79 14.24" stroke="#2f9e44" stroke-width="2" fill="none"></path></g><g stroke-linecap="round" transform="translate(34.449554443359375 36.88209533691406) rotate(0 171.374267578125 164.28622436523438)"><path d="M203.52 2.08 C220.01 2.69, 237.61 12.31, 252.5 20.02 C267.39 27.73, 281.01 37.01, 292.85 48.36 C304.69 59.72, 315.79 73.9, 323.52 88.18 C331.26 102.45, 336.09 118.37, 339.25 134.04 C342.41 149.7, 344.32 166.24, 342.5 182.15 C340.68 198.07, 335.39 214.53, 328.32 229.5 C321.25 244.48, 311.13 259.64, 300.1 272 C289.07 284.36, 276.29 295.21, 262.14 303.65 C247.99 312.09, 231.42 318.52, 215.21 322.65 C199 326.78, 181.59 328.95, 164.89 328.44 C148.19 327.94, 130.84 324.9, 114.99 319.63 C99.15 314.35, 83.4 306.36, 69.83 296.8 C56.26 287.24, 43.78 275.29, 33.57 262.25 C23.36 249.21, 14.02 233.91, 8.56 218.56 C3.1 203.21, 1.16 186.3, 0.81 170.14 C0.46 153.98, 2.01 137.1, 6.47 121.62 C10.92 106.15, 18.51 90.98, 27.52 77.29 C36.53 63.6, 48.02 50.03, 60.52 39.48 C73.01 28.92, 87.26 20.46, 102.48 13.97 C117.7 7.48, 132.79 2.01, 151.86 0.54 C170.92 -0.92, 204.47 3.21, 216.87 5.18 C229.28 7.15, 227.12 9.62, 226.29 12.35 M211.82 5.33 C227.76 6.62, 243.45 15.55, 257.68 23.67 C271.9 31.78, 285.87 42.22, 297.17 54.02 C308.46 65.82, 318.29 80.14, 325.46 94.46 C332.63 108.78, 337.79 123.82, 340.19 139.95 C342.6 156.08, 342.13 174.84, 339.86 191.23 C337.6 207.62, 334.02 223.78, 326.61 238.29 C319.2 252.81, 307.41 266.67, 295.39 278.32 C283.38 289.96, 268.99 300.5, 254.53 308.14 C240.07 315.77, 224.73 321.07, 208.65 324.13 C192.57 327.2, 174.74 327.87, 158.04 326.54 C141.34 325.22, 124.07 321.85, 108.46 316.18 C92.84 310.52, 77.48 302.53, 64.36 292.55 C51.24 282.57, 39.23 270.03, 29.73 256.3 C20.23 242.57, 12.36 225.52, 7.37 210.17 C2.39 194.81, -0.42 179.97, -0.17 164.2 C0.08 148.43, 3.74 130.97, 8.87 115.54 C13.99 100.1, 21.37 84.89, 30.59 71.58 C39.81 58.27, 50.91 46.05, 64.2 35.69 C77.48 25.34, 94.52 15.5, 110.3 9.44 C126.09 3.39, 141.98 0.22, 158.91 -0.62 C175.85 -1.45, 203.24 3.03, 211.93 4.45 C220.61 5.86, 211.82 5.44, 211.03 7.86" stroke="#2f9e44" stroke-width="2" fill="none"></path></g><g stroke-linecap="round"><g transform="translate(215.17398071289062 39.64488220214844) rotate(0 4.701690673828125 -13.989700317382812)"><path d="M-0.15 0.28 C1.5 -4.37, 8.15 -22.85, 9.71 -27.6 M0.77 -0.06 C2.4 -4.87, 8.1 -23.75, 9.43 -28.36" stroke="#2f9e44" stroke-width="2" fill="none"></path></g></g><mask></mask><g stroke-linecap="round"><g transform="translate(273.1817932128906 48.38069152832031) rotate(0 6.23046875 -14.339492797851562)"><path d="M-0.12 -0.33 C2.04 -5.2, 10.4 -24.41, 12.58 -29.21 M0.83 0.69 C2.95 -4.13, 10.2 -23.88, 12.21 -28.78" stroke="#2f9e44" stroke-width="2" fill="none"></path></g></g><mask></mask><g transform="translate(229.68038940429688 20.855819702148438) rotate(0 8.789993286132812 12.5)"><text x="0" y="17.52" font-family="Virgil, Segoe UI Emoji" font-size="20px" fill="#2f9e44" text-anchor="start" style="white-space: pre;" direction="ltr" dominant-baseline="alphabetic">S1</text></g><g stroke-linecap="round"><g transform="translate(355.35891135497957 120.08029275134436) rotate(0 10.15802001953125 -6.067108154296875)"><path d="M-0.32 -0.14 C3.17 -2.17, 17.17 -9.78, 20.59 -11.83 M0.52 -0.68 C4 -2.91, 17.08 -10.75, 20.29 -12.64" stroke="#2f9e44" stroke-width="2" fill="none"></path></g></g><mask></mask><g stroke-linecap="round"><g transform="translate(385.22169414878033 177.72542177771902) rotate(68.71342304860887 0.7146913341319419 -12.111434674258447)"><path d="M0.13 0.34 C0.45 -3.83, 1.72 -20.27, 1.86 -24.45 M-0.46 0.04 C-0.18 -3.82, 1.23 -19.8, 1.66 -23.87" stroke="#2f9e44" stroke-width="2" fill="none"></path></g></g><mask></mask><g transform="translate(364.2335340539273 123.20513127202838) rotate(68.71342304860887 13.199989318847656 12.5)"><text x="0" y="17.52" font-family="Virgil, Segoe UI Emoji" font-size="20px" fill="#2f9e44" text-anchor="start" style="white-space: pre;" direction="ltr" dominant-baseline="alphabetic">S2</text></g><g stroke-linecap="round"><g transform="translate(250.43651591027674 381.116295325496) rotate(111.5342048519639 10.15802001953125 -6.067108154296875)"><path d="M0.23 -0.51 C3.57 -2.36, 16.53 -9.68, 19.8 -11.65 M-0.31 0.42 C3.21 -1.53, 17.23 -10.33, 20.76 -12.37" stroke="#2f9e44" stroke-width="2" fill="none"></path></g></g><mask></mask><g stroke-linecap="round"><g transform="translate(204.43739101319807 387.05220121695254) rotate(180.2476279005728 0.7146913341319419 -12.111434674258419)"><path d="M-0.52 0.48 C-0.4 -3.5, 0.59 -20.37, 0.94 -24.39 M0.21 0.26 C0.48 -3.6, 1.74 -19.66, 1.92 -23.78" stroke="#2f9e44" stroke-width="2" fill="none"></path></g></g><mask></mask><g transform="translate(222.7254815098638 365.78968640009) rotate(353.1354478755893 12.889991760253906 12.5)"><text x="0" y="17.52" font-family="Virgil, Segoe UI Emoji" font-size="20px" fill="#2f9e44" text-anchor="start" style="white-space: pre;" direction="ltr" dominant-baseline="alphabetic">S3</text></g><g stroke-linecap="round"><g transform="translate(66.25537051271209 329.92612028197055) rotate(159.8872824035692 10.15802001953125 -6.067108154296875)"><path d="M-0.14 -0.47 C3.14 -2.55, 16.88 -10.36, 20.24 -12.36 M0.79 0.48 C3.95 -1.54, 16.65 -9.69, 19.78 -11.78" stroke="#2f9e44" stroke-width="2" fill="none"></path></g></g><mask></mask><g stroke-linecap="round"><g transform="translate(39.20001927784108 294.69710146941185) rotate(228.60070545217815 0.7146913341319419 -12.111434674258447)"><path d="M-0.07 -0.23 C0.14 -4.24, 0.91 -20.49, 1.14 -24.56 M-0.77 -0.82 C-0.36 -4.73, 1.95 -20.13, 2.23 -24.04" stroke="#2f9e44" stroke-width="2" fill="none"></path></g></g><mask></mask><g transform="translate(44.6638706831161 294.6970794307465) rotate(401.4885254271947 12.479988098144531 12.5)"><text x="0" y="17.52" font-family="Virgil, Segoe UI Emoji" font-size="20px" fill="#2f9e44" text-anchor="start" style="white-space: pre;" direction="ltr" dominant-baseline="alphabetic">S4</text></g><g stroke-linecap="round"><g transform="translate(24.66540673102088 149.7571431486125) rotate(227.0903632366816 10.15802001953125 -6.067108154296875)"><path d="M-0.04 -0.5 C3.34 -2.46, 17.4 -10.13, 20.77 -12.1 M-0.72 0.44 C2.59 -1.4, 17.15 -9.34, 20.57 -11.38" stroke="#2f9e44" stroke-width="2" fill="none"></path></g></g><mask></mask><g stroke-linecap="round"><g transform="translate(58.23914551221782 106.42412743983215) rotate(295.8037862852905 0.7146913341319419 -12.111434674258447)"><path d="M0.45 0.04 C0.68 -3.94, 1.23 -20.39, 1.31 -24.38 M0.02 -0.42 C0.17 -4.28, 0.49 -19.7, 0.82 -23.77" stroke="#2f9e44" stroke-width="2" fill="none"></path></g></g><mask></mask><g transform="translate(30.664651464644464 107.02936194670752) rotate(468.6916062603071 12.259986877441406 12.5)"><text x="0" y="17.52" font-family="Virgil, Segoe UI Emoji" font-size="20px" fill="#2f9e44" text-anchor="start" style="white-space: pre;" direction="ltr" dominant-baseline="alphabetic">S5</text></g><g stroke-linecap="round"><g transform="translate(304.6570000611042 69.84710653211852) rotate(29.425272167617962 4.701690673828125 -13.989700317382812)"><path d="M-0.16 0.29 C1.34 -4.39, 7.94 -23.01, 9.53 -27.75 M0.76 -0.03 C2.16 -4.9, 7.79 -23.99, 9.17 -28.6" stroke="#2f9e44" stroke-width="2" fill="none"></path></g></g><mask></mask><g stroke-linecap="round"><g transform="translate(341.9839352690476 105.00784001661123) rotate(29.425272167617962 6.517785797993781 -16.258782417245158)"><path d="M0.13 0.23 C2.33 -5.27, 10.87 -27.18, 13.02 -32.69 M-0.47 -0.13 C1.67 -5.57, 10.4 -26.71, 12.58 -32.09" stroke="#2f9e44" stroke-width="2" fill="none"></path></g></g><mask></mask><g transform="translate(301.73694665510357 59.36086312982454) rotate(29.425272167617962 27.439971923828125 12.5)"><text x="0" y="17.52" font-family="Virgil, Segoe UI Emoji" font-size="20px" fill="#2f9e44" text-anchor="start" style="white-space: pre;" direction="ltr" dominant-baseline="alphabetic">userA</text></g><g transform="translate(100.18997033042615 348.95817759772734) rotate(29.425272167617962 28.14997100830078 12.500000000000028)"><text x="0" y="17.52" font-family="Virgil, Segoe UI Emoji" font-size="20px" fill="#2f9e44" text-anchor="start" style="white-space: pre;" direction="ltr" dominant-baseline="alphabetic">userB</text></g><g stroke-linecap="round"><g transform="translate(96.05112396981099 345.2023811576783) rotate(0 -10.0941162109375 -8.467681884765625)"><path d="M0.62 -0.38 C-2.56 -3.15, -16.28 -13.66, -19.73 -16.53 M-0.52 -1.63 C-3.76 -4.77, -17.06 -15.94, -20.44 -18.44" stroke="#1971c2" stroke-width="2" fill="none"></path></g><g transform="translate(96.05112396981099 345.2023811576783) rotate(0 -10.0941162109375 -8.467681884765625)"><path d="M-7.96 -14.23 C-11.44 -14.7, -13.64 -16.12, -20.44 -18.44 M-7.96 -14.23 C-11.31 -15.72, -14.65 -16.64, -20.44 -18.44" stroke="#1971c2" stroke-width="2" fill="none"></path></g><g transform="translate(96.05112396981099 345.2023811576783) rotate(0 -10.0941162109375 -8.467681884765625)"><path d="M-13.59 -7.19 C-15.69 -9.42, -16.52 -12.56, -20.44 -18.44 M-13.59 -7.19 C-15.62 -10.44, -17.6 -13.05, -20.44 -18.44" stroke="#1971c2" stroke-width="2" fill="none"></path></g></g><mask></mask><g transform="translate(77.39632191443599 38.92554352242783) rotate(329.55668294369406 27.319969177246065 12.5)"><text x="0" y="17.52" font-family="Virgil, Segoe UI Emoji" font-size="20px" fill="#2f9e44" text-anchor="start" style="white-space: pre;" direction="ltr" dominant-baseline="alphabetic">userC</text></g><g stroke-linecap="round"><g transform="translate(138.84940277840474 35.0355110404908) rotate(0 39.011016845703125 -5.5042572021484375)"><path d="M-0.7 0.04 C12.26 -1.53, 64.4 -8.6, 77.64 -10.45 M1.14 -0.99 C13.91 -2.83, 63.62 -10.81, 76.5 -12.28" stroke="#1971c2" stroke-width="2" fill="none"></path></g><g transform="translate(138.84940277840474 35.0355110404908) rotate(0 39.011016845703125 -5.5042572021484375)"><path d="M54.42 -0.55 C61.04 -4.48, 68.37 -6.06, 76.5 -12.28 M54.42 -0.55 C60.66 -4.53, 67.47 -8.22, 76.5 -12.28" stroke="#1971c2" stroke-width="2" fill="none"></path></g><g transform="translate(138.84940277840474 35.0355110404908) rotate(0 39.011016845703125 -5.5042572021484375)"><path d="M52.05 -17.49 C59.22 -16.45, 67.24 -13.07, 76.5 -12.28 M52.05 -17.49 C59.14 -16.5, 66.64 -15.22, 76.5 -12.28" stroke="#1971c2" stroke-width="2" fill="none"></path></g></g><mask></mask><g stroke-linecap="round"><g transform="translate(349.8827890088735 89.8046760795533) rotate(0 8.4375 12.736160278320312)"><path d="M-0.65 0.77 C2.24 5.24, 13.66 22.23, 16.74 26.18 M1.21 0.13 C3.99 4.3, 13 20.24, 15.72 24.42" stroke="#1971c2" stroke-width="2" fill="none"></path></g><g transform="translate(349.8827890088735 89.8046760795533) rotate(0 8.4375 12.736160278320312)"><path d="M3.82 14.84 C7.7 17.1, 10.55 20.85, 15.72 24.42 M3.82 14.84 C5.9 17.61, 9.5 18.53, 15.72 24.42" stroke="#1971c2" stroke-width="2" fill="none"></path></g><g transform="translate(349.8827890088735 89.8046760795533) rotate(0 8.4375 12.736160278320312)"><path d="M12.76 9.43 C14.41 12.98, 15.05 18.06, 15.72 24.42 M12.76 9.43 C12.89 13.29, 14.56 15.38, 15.72 24.42" stroke="#1971c2" stroke-width="2" fill="none"></path></g></g><mask></mask></svg>