<svg version="1.1" xmlns="http://www.w3.org/2000/svg" viewBox="0 0 1051.7999572753906 341.2631983214789" width="1051.7999572753906" height="341.2631983214789">
  <!-- svg-source:excalidraw -->
  
  <defs>
    <style class="style-fonts">
      @font-face {
        font-family: "Virgil";
        src: url("https://excalidraw.com/Virgil.woff2");
      }
      @font-face {
        font-family: "Cascadia";
        src: url("https://excalidraw.com/Cascadia.woff2");
      }
      @font-face {
        font-family: "Assistant";
        src: url("https://excalidraw.com/Assistant-Regular.woff2");
      }
    </style>
    
  </defs>
  <g stroke-linecap="round" transform="translate(16.199951171875 56.763129656928115) rotate(0 46.399993896484375 41.59999084472656)"><path d="M29.29 2.18 C36.38 -1.04, 47.52 -1.61, 55.82 -0.01 C64.11 1.59, 73.04 6.34, 79.06 11.78 C85.08 17.23, 90.1 25.38, 91.95 32.68 C93.8 39.98, 93.19 48.47, 90.16 55.56 C87.14 62.66, 80.39 70.52, 73.77 75.26 C67.16 80, 58.7 83.65, 50.47 84.01 C42.25 84.36, 31.97 81.01, 24.41 77.4 C16.85 73.79, 9.29 68.8, 5.11 62.34 C0.93 55.89, -1.25 46.31, -0.67 38.66 C-0.08 31.02, 2.14 22.89, 8.6 16.49 C15.06 10.09, 32.19 2.9, 38.08 0.25 C43.98 -2.41, 44 -0.38, 43.97 0.54 M26.32 3.55 C33.23 0.43, 44.75 0.8, 53.1 1.96 C61.44 3.12, 70.28 5.55, 76.39 10.51 C82.5 15.46, 87.23 24.65, 89.76 31.7 C92.3 38.75, 93.87 46.01, 91.6 52.8 C89.33 59.59, 82.8 67.22, 76.15 72.42 C69.49 77.62, 60.09 83.01, 51.66 84.01 C43.23 85.01, 32.8 81.59, 25.55 78.41 C18.3 75.24, 12.46 71.08, 8.16 64.96 C3.86 58.85, 0 49.22, -0.23 41.73 C-0.46 34.25, 2.13 26.2, 6.77 20.05 C11.41 13.91, 24.05 7.48, 27.6 4.89 C31.16 2.29, 28.02 4.12, 28.11 4.51" stroke="#1e1e1e" stroke-width="2" fill="none"></path></g><g transform="translate(38.11020969075412 85.94748487805023) rotate(0 24.67998504638672 12.5)"><text x="24.67998504638672" y="17.52" font-family="Virgil, Segoe UI Emoji" font-size="20px" fill="#1e1e1e" text-anchor="middle" style="white-space: pre;" direction="ltr" dominant-baseline="alphabetic">data</text></g><g stroke-linecap="round" transform="translate(173.79998779296875 64.76319069208436) rotate(0 52.00001525878906 34.399993896484375)"><path d="M17.2 0 C43.07 -1.88, 63.47 1.08, 86.8 0 M17.2 0 C43.61 1.41, 70.23 1.41, 86.8 0 M86.8 0 C97.6 -1.38, 103.11 5.17, 104 17.2 M86.8 0 C97.11 -0.36, 104.67 5.61, 104 17.2 M104 17.2 C102.07 27.24, 103.49 39.58, 104 51.6 M104 17.2 C103.59 23.68, 103.1 30.99, 104 51.6 M104 51.6 C103.72 63.07, 98.24 69.13, 86.8 68.8 M104 51.6 C105.34 63.57, 97.16 68.18, 86.8 68.8 M86.8 68.8 C68.65 70.77, 48.98 70.21, 17.2 68.8 M86.8 68.8 C69.22 68.21, 50.88 67.55, 17.2 68.8 M17.2 68.8 C6.09 68.8, 1.58 61.2, 0 51.6 M17.2 68.8 C5.59 67.25, -0.64 60.81, 0 51.6 M0 51.6 C1.32 43.29, -0.54 30.63, 0 17.2 M0 51.6 C0.56 43.47, 1.17 35.2, 0 17.2 M0 17.2 C1.82 6.84, 3.75 -1.68, 17.2 0 M0 17.2 C-2.12 3.9, 4.84 -0.19, 17.2 0" stroke="#2f9e44" stroke-width="2" fill="none"></path></g><g transform="translate(199.82003021240234 86.66318458856874) rotate(0 25.97997283935547 12.5)"><text x="25.97997283935547" y="17.52" font-family="Virgil, Segoe UI Emoji" font-size="20px" fill="#2f9e44" text-anchor="middle" style="white-space: pre;" direction="ltr" dominant-baseline="alphabetic">Filter</text></g><g stroke-linecap="round"><g transform="translate(109.99705505463982 97.89320516254129) rotate(0 31.401466369164467 0.46325493734403267)"><path d="M0.64 0.76 C11.11 0.75, 52.31 0.55, 62.85 0.53 M-0.49 0.11 C9.83 0.21, 51.23 1.57, 61.92 1.86" stroke="#1e1e1e" stroke-width="2" fill="none"></path></g><g transform="translate(109.99705505463982 97.89320516254129) rotate(0 31.401466369164467 0.46325493734403267)"><path d="M38.19 9.7 C46.59 7.28, 51.83 6.6, 61.92 1.86 M38.19 9.7 C45.54 7.62, 51.04 5.99, 61.92 1.86" stroke="#1e1e1e" stroke-width="2" fill="none"></path></g><g transform="translate(109.99705505463982 97.89320516254129) rotate(0 31.401466369164467 0.46325493734403267)"><path d="M38.7 -7.39 C47.03 -4.64, 52.12 -0.16, 61.92 1.86 M38.7 -7.39 C46 -4.73, 51.36 -1.62, 61.92 1.86" stroke="#1e1e1e" stroke-width="2" fill="none"></path></g></g><mask></mask><g stroke-linecap="round" transform="translate(495.3999328613281 143.96311134638125) rotate(0 55.199981689453125 29.599990844726562)"><path d="M14.8 0 C37.17 1.74, 55.46 -0.05, 95.6 0 M14.8 0 C45.9 -0.31, 76.49 -1.2, 95.6 0 M95.6 0 C106.54 -0.57, 109.49 4.66, 110.4 14.8 M95.6 0 C105.3 -0.06, 110.93 6.41, 110.4 14.8 M110.4 14.8 C108.78 23.54, 109.5 28.01, 110.4 44.4 M110.4 14.8 C110.33 21.65, 110.05 28.89, 110.4 44.4 M110.4 44.4 C110.66 52.66, 105.14 60.46, 95.6 59.2 M110.4 44.4 C110.9 52.45, 107.15 59.17, 95.6 59.2 M95.6 59.2 C69.23 59.6, 42.86 60.58, 14.8 59.2 M95.6 59.2 C63.09 60.93, 32.91 59.11, 14.8 59.2 M14.8 59.2 C6.66 58.23, -0.85 55.41, 0 44.4 M14.8 59.2 C4.8 60.88, 1.55 55.78, 0 44.4 M0 44.4 C-1.7 37.38, 0.3 28.35, 0 14.8 M0 44.4 C-0.99 37.81, -0.18 29.24, 0 14.8 M0 14.8 C-1.85 4.58, 3.83 -0.06, 14.8 0 M0 14.8 C2.12 4.17, 6.75 -1.48, 14.8 0" stroke="#2f9e44" stroke-width="2" fill="none"></path></g><g transform="translate(516.6399459838867 161.06310219110782) rotate(0 33.95996856689453 12.5)"><text x="33.95996856689453" y="17.52" font-family="Virgil, Segoe UI Emoji" font-size="20px" fill="#2f9e44" text-anchor="middle" style="white-space: pre;" direction="ltr" dominant-baseline="alphabetic">Mapper</text></g><g stroke-linecap="round" transform="translate(646.199951171875 141.3631205016547) rotate(0 55.199981689453125 29.599990844726562)"><path d="M14.8 0 C45.31 -1.16, 74.67 -0.49, 95.6 0 M14.8 0 C41.03 -0.11, 67.55 -0.26, 95.6 0 M95.6 0 C105.74 -1.81, 109.86 3.23, 110.4 14.8 M95.6 0 C104.09 -0.13, 109.79 5.91, 110.4 14.8 M110.4 14.8 C110.82 23.41, 112.05 27.64, 110.4 44.4 M110.4 14.8 C110.3 26.99, 111.54 38.56, 110.4 44.4 M110.4 44.4 C110.23 54.35, 104.44 60.05, 95.6 59.2 M110.4 44.4 C110.92 52.42, 105.44 57.87, 95.6 59.2 M95.6 59.2 C68.6 58.96, 41.6 59.65, 14.8 59.2 M95.6 59.2 C78.92 60.04, 62.2 60.4, 14.8 59.2 M14.8 59.2 C3.57 58.77, 1.83 55.37, 0 44.4 M14.8 59.2 C6.06 57.89, 0.74 56.46, 0 44.4 M0 44.4 C-1.3 31.61, 0.13 20.27, 0 14.8 M0 44.4 C-0.44 35.69, -0.48 25.98, 0 14.8 M0 14.8 C-0.05 3.18, 3.13 0.27, 14.8 0 M0 14.8 C1.02 6.89, 6.92 -0.89, 14.8 0" stroke="#2f9e44" stroke-width="2" fill="none"></path></g><g transform="translate(674.3299560546875 158.46311134638125) rotate(0 27.069976806640625 12.5)"><text x="27.069976806640625" y="17.52" font-family="Virgil, Segoe UI Emoji" font-size="20px" fill="#2f9e44" text-anchor="middle" style="white-space: pre;" direction="ltr" dominant-baseline="alphabetic">Actor</text></g><g stroke-linecap="round" transform="translate(792.1998291015625 138.16310829462344) rotate(0 55.199981689453125 29.599990844726562)"><path d="M14.8 0 C42.57 -0.15, 68.14 -1.21, 95.6 0 M14.8 0 C39.93 -0.11, 65.55 0.17, 95.6 0 M95.6 0 C105.03 1.31, 111.52 3.78, 110.4 14.8 M95.6 0 C104.3 -0.4, 111.1 6.33, 110.4 14.8 M110.4 14.8 C109.25 21.33, 111.19 29.3, 110.4 44.4 M110.4 14.8 C110.14 21.08, 110.5 29.81, 110.4 44.4 M110.4 44.4 C109.75 54.09, 106.09 59.28, 95.6 59.2 M110.4 44.4 C110.32 53.96, 104.08 60.26, 95.6 59.2 M95.6 59.2 C78.07 58.2, 60.25 59.17, 14.8 59.2 M95.6 59.2 C75.98 58.12, 56.28 58.9, 14.8 59.2 M14.8 59.2 C4.62 60.27, 1.33 52.57, 0 44.4 M14.8 59.2 C5.9 61.34, -1.74 55.24, 0 44.4 M0 44.4 C-0.54 37.73, -0.61 32.48, 0 14.8 M0 44.4 C0.03 35.98, -0.74 29.68, 0 14.8 M0 14.8 C0.92 6.48, 3.48 -1.97, 14.8 0 M0 14.8 C1.76 7.23, 4.46 2.11, 14.8 0" stroke="#2f9e44" stroke-width="2" fill="none"></path></g><g transform="translate(805.2498474121094 155.26309913935) rotate(0 42.14996337890625 12.5)"><text x="42.14996337890625" y="17.52" font-family="Virgil, Segoe UI Emoji" font-size="20px" fill="#2f9e44" text-anchor="middle" style="white-space: pre;" direction="ltr" dominant-baseline="alphabetic">Renderer</text></g><g stroke-linecap="round" transform="translate(946.5998840332031 139.96311134638125) rotate(0 47.60003662109375 27.20001220703125)"><path d="M13.6 0 C35.45 -1.05, 58.78 -1.23, 81.6 0 M13.6 0 C32.86 1.23, 52.07 -0.09, 81.6 0 M81.6 0 C89.74 -1.14, 96.18 3.68, 95.2 13.6 M81.6 0 C89.41 -1.73, 97.4 5.76, 95.2 13.6 M95.2 13.6 C94.27 21.38, 93.12 33.78, 95.2 40.8 M95.2 13.6 C94.21 19.77, 94.22 24.62, 95.2 40.8 M95.2 40.8 C95.79 51.2, 92.27 52.94, 81.6 54.4 M95.2 40.8 C93.74 52.15, 89.77 52.55, 81.6 54.4 M81.6 54.4 C67.39 52.7, 53.47 55.46, 13.6 54.4 M81.6 54.4 C61.35 55.17, 41.78 53.83, 13.6 54.4 M13.6 54.4 C3.48 55.1, 0.67 51.79, 0 40.8 M13.6 54.4 C2.33 54.42, 1.53 48.17, 0 40.8 M0 40.8 C0.76 33.42, -1.87 23.92, 0 13.6 M0 40.8 C0.53 34.38, -0.69 29.09, 0 13.6 M0 13.6 C0.64 5.76, 3.3 0.48, 13.6 0 M0 13.6 C1.39 2.32, 4.14 -1.46, 13.6 0" stroke="#1e1e1e" stroke-width="2" fill="none"></path></g><g transform="translate(962.559944152832 154.6631235534125) rotate(0 31.639976501464844 12.5)"><text x="31.639976501464844" y="17.52" font-family="Virgil, Segoe UI Emoji" font-size="20px" fill="#1e1e1e" text-anchor="middle" style="white-space: pre;" direction="ltr" dominant-baseline="alphabetic">Window</text></g><g stroke-linecap="round"><g transform="translate(605.7998352050781 173.56311744989688) rotate(0 20.800018310546875 0)"><path d="M0.18 -0.14 C7.17 -0.3, 35.16 -0.51, 42.11 -0.54 M-0.39 -0.69 C6.55 -0.84, 34.92 -0.26, 41.95 -0.11" stroke="#1e1e1e" stroke-width="2" fill="none"></path></g><g transform="translate(605.7998352050781 173.56311744989688) rotate(0 20.800018310546875 0)"><path d="M22.26 6.61 C28.51 5.29, 34.32 2.73, 41.95 -0.11 M22.26 6.61 C26.77 5.2, 31.76 3.18, 41.95 -0.11" stroke="#1e1e1e" stroke-width="2" fill="none"></path></g><g transform="translate(605.7998352050781 173.56311744989688) rotate(0 20.800018310546875 0)"><path d="M22.55 -7.61 C28.75 -4.22, 34.47 -2.06, 41.95 -0.11 M22.55 -7.61 C26.93 -5.45, 31.85 -3.9, 41.95 -0.11" stroke="#1e1e1e" stroke-width="2" fill="none"></path></g></g><mask></mask><g stroke-linecap="round"><g transform="translate(756.9998474121094 169.56311744989688) rotate(0 17.20001220703125 -0.8000030517578125)"><path d="M0.51 -0.01 C6.17 -0.22, 28.48 -1.36, 34.2 -1.65 M0.1 -0.48 C5.66 -0.58, 27.9 -0.86, 33.67 -0.98" stroke="#1e1e1e" stroke-width="2" fill="none"></path></g><g transform="translate(756.9998474121094 169.56311744989688) rotate(0 17.20001220703125 -0.8000030517578125)"><path d="M17.58 5.17 C23.03 2.71, 28.39 1.63, 33.67 -0.98 M17.58 5.17 C21.63 3.89, 26.31 1.59, 33.67 -0.98" stroke="#1e1e1e" stroke-width="2" fill="none"></path></g><g transform="translate(756.9998474121094 169.56311744989688) rotate(0 17.20001220703125 -0.8000030517578125)"><path d="M17.39 -6.6 C22.86 -5.09, 28.29 -2.2, 33.67 -0.98 M17.39 -6.6 C21.5 -4.63, 26.23 -3.67, 33.67 -0.98" stroke="#1e1e1e" stroke-width="2" fill="none"></path></g></g><mask></mask><g stroke-linecap="round"><g transform="translate(904.9998474121094 163.62737882253506) rotate(0 20.300018310546875 -0.07995145724483166)"><path d="M0.05 0.13 C6.76 -0.01, 33.81 -0.31, 40.51 -0.43 M-0.58 -0.27 C6.03 -0.38, 33.31 0.12, 40.04 0.12" stroke="#1e1e1e" stroke-width="2" fill="none"></path></g><g transform="translate(904.9998474121094 163.62737882253506) rotate(0 20.300018310546875 -0.07995145724483166)"><path d="M20.89 6.87 C27.72 4.37, 33.6 1.63, 40.04 0.12 M20.89 6.87 C24.87 4.86, 29.51 3.47, 40.04 0.12" stroke="#1e1e1e" stroke-width="2" fill="none"></path></g><g transform="translate(904.9998474121094 163.62737882253506) rotate(0 20.300018310546875 -0.07995145724483166)"><path d="M21.03 -7.02 C27.87 -4.72, 33.69 -2.66, 40.04 0.12 M21.03 -7.02 C25.05 -5.97, 29.65 -4.29, 40.04 0.12" stroke="#1e1e1e" stroke-width="2" fill="none"></path></g></g><mask></mask><g stroke-linecap="round" transform="translate(162.5999755859375 31.16315407099062) rotate(0 16.800003051757812 17.5)"><path d="M8.4 0 C11.15 0.99, 15.94 1.42, 25.2 0 M8.4 0 C13.91 -0.86, 21.24 -0.2, 25.2 0 M25.2 0 C28.9 0.09, 33.97 4.25, 33.6 8.4 M25.2 0 C29.61 1.86, 34.42 4.57, 33.6 8.4 M33.6 8.4 C33.7 12.33, 32.63 17.18, 33.6 26.6 M33.6 8.4 C32.96 14.73, 33.53 19.53, 33.6 26.6 M33.6 26.6 C35.18 31.01, 28.89 35.05, 25.2 35 M33.6 26.6 C34.74 31.89, 29.84 34.51, 25.2 35 M25.2 35 C21.18 34.89, 15.92 36.55, 8.4 35 M25.2 35 C20.06 35.45, 13.45 35.04, 8.4 35 M8.4 35 C3.71 35.68, -0.95 33.54, 0 26.6 M8.4 35 C2.34 37.03, -0.25 31.14, 0 26.6 M0 26.6 C-0.5 19.8, 1.3 16.23, 0 8.4 M0 26.6 C-0.18 21.08, -0.6 14.56, 0 8.4 M0 8.4 C1.14 2.58, 1.51 -0.46, 8.4 0 M0 8.4 C0.08 4.65, 1.74 -0.88, 8.4 0" stroke="#f08c00" stroke-width="2" fill="none"></path></g><g transform="translate(176.68997955322266 36.163154070990615) rotate(0 2.7099990844726562 12.5)"><text x="2.7099990844726562" y="17.52" font-family="Virgil, Segoe UI Emoji" font-size="20px" fill="#f08c00" text-anchor="middle" style="white-space: pre;" direction="ltr" dominant-baseline="alphabetic">1</text></g><g stroke-linecap="round" transform="translate(206.59999084472656 30.96315712274843) rotate(0 16.800003051757812 17.5)"><path d="M8.4 0 C14.45 0.46, 19.23 -1.09, 25.2 0 M8.4 0 C13.85 0.52, 20.79 0.85, 25.2 0 M25.2 0 C32.48 1.51, 32.25 3.82, 33.6 8.4 M25.2 0 C31.28 0.27, 31.83 3.91, 33.6 8.4 M33.6 8.4 C31.79 12.33, 32.2 17.46, 33.6 26.6 M33.6 8.4 C34.55 12.1, 33.41 16.73, 33.6 26.6 M33.6 26.6 C33.31 32.01, 29.35 35.65, 25.2 35 M33.6 26.6 C33.49 32.63, 32.44 35.4, 25.2 35 M25.2 35 C18.15 34.81, 12.07 33.26, 8.4 35 M25.2 35 C19.36 35.65, 14.72 35.47, 8.4 35 M8.4 35 C2.44 34.8, -0.12 33.3, 0 26.6 M8.4 35 C0.86 33.94, -0.97 31.44, 0 26.6 M0 26.6 C-0.2 17.91, -1.64 11.13, 0 8.4 M0 26.6 C-0.39 19.04, 0.49 12.96, 0 8.4 M0 8.4 C1.29 3.46, 2.33 -1.98, 8.4 0 M0 8.4 C-1.04 5.1, 3.98 1.34, 8.4 0" stroke="#f08c00" stroke-width="2" fill="none"></path></g><g transform="translate(216.27999877929688 35.96315712274843) rotate(0 7.1199951171875 12.5)"><text x="7.1199951171875" y="17.52" font-family="Virgil, Segoe UI Emoji" font-size="20px" fill="#f08c00" text-anchor="middle" style="white-space: pre;" direction="ltr" dominant-baseline="alphabetic">2</text></g><g stroke-linecap="round" transform="translate(251.40000915527344 29.563163226264056) rotate(0 16.800003051757812 17.5)"><path d="M8.4 0 C13.2 0.26, 19.37 0.24, 25.2 0 M8.4 0 C13.9 0.12, 19.88 -0.65, 25.2 0 M25.2 0 C31.01 0.3, 32.14 1.3, 33.6 8.4 M25.2 0 C32.93 -0.15, 35.22 2.39, 33.6 8.4 M33.6 8.4 C32.06 12.84, 32.82 18.36, 33.6 26.6 M33.6 8.4 C33.44 14.84, 32.72 22.23, 33.6 26.6 M33.6 26.6 C35.42 30.44, 29.31 33.79, 25.2 35 M33.6 26.6 C32.46 33.03, 32.28 36.48, 25.2 35 M25.2 35 C18.85 36.51, 14.88 35.81, 8.4 35 M25.2 35 C20.52 35.6, 16.74 35.01, 8.4 35 M8.4 35 C3.79 35.24, -0.77 32.12, 0 26.6 M8.4 35 C4.07 36.28, -0.09 33.84, 0 26.6 M0 26.6 C0.11 22.6, 0.62 19.84, 0 8.4 M0 26.6 C-0.31 20.9, -0.88 14.36, 0 8.4 M0 8.4 C0.1 1.26, 4.46 0.44, 8.4 0 M0 8.4 C1.38 4.46, 0.63 -0.33, 8.4 0" stroke="#f08c00" stroke-width="2" fill="none"></path></g><g transform="translate(261.3900146484375 34.56316322626405) rotate(0 6.80999755859375 12.5)"><text x="6.80999755859375" y="17.52" font-family="Virgil, Segoe UI Emoji" font-size="20px" fill="#f08c00" text-anchor="middle" style="white-space: pre;" direction="ltr" dominant-baseline="alphabetic">3</text></g><g stroke-linecap="round"><g transform="translate(169.79998779296875 11.163154070990618) rotate(0 60.00001525878906 0)"><path d="M0.86 -1.13 C20.79 -1.32, 100.05 -0.55, 119.83 -0.43 M-0.14 0.89 C19.59 0.8, 99.02 0.92, 118.79 0.88" stroke="#f08c00" stroke-width="2" fill="none"></path></g><g transform="translate(169.79998779296875 11.163154070990618) rotate(0 60.00001525878906 0)"><path d="M95.3 9.43 C100.93 6.22, 109.66 2.94, 118.79 0.88 M95.3 9.43 C101.77 7.14, 108.65 5.65, 118.79 0.88" stroke="#f08c00" stroke-width="2" fill="none"></path></g><g transform="translate(169.79998779296875 11.163154070990618) rotate(0 60.00001525878906 0)"><path d="M95.3 -7.67 C101.03 -5.37, 109.76 -3.15, 118.79 0.88 M95.3 -7.67 C101.79 -5.45, 108.67 -2.42, 118.79 0.88" stroke="#f08c00" stroke-width="2" fill="none"></path></g></g><mask></mask><g transform="translate(608.1998596191406 147.1631235534125) rotate(0 2.7099990844726562 12.5)"><text x="0" y="17.52" font-family="Virgil, Segoe UI Emoji" font-size="20px" fill="#f08c00" text-anchor="start" style="white-space: pre;" direction="ltr" dominant-baseline="alphabetic">1</text></g><g transform="translate(634.5998840332031 146.36313576044375) rotate(0 2.7099990844726562 12.5)"><text x="0" y="17.52" font-family="Virgil, Segoe UI Emoji" font-size="20px" fill="#f08c00" text-anchor="start" style="white-space: pre;" direction="ltr" dominant-baseline="alphabetic">1</text></g><g transform="translate(758.5998840332031 138.3631205016547) rotate(0 4.6699981689453125 12.5)"><text x="0" y="17.52" font-family="Virgil, Segoe UI Emoji" font-size="20px" fill="#f08c00" text-anchor="start" style="white-space: pre;" direction="ltr" dominant-baseline="alphabetic">n</text></g><g transform="translate(783.0898361206055 141.86310524286563) rotate(0 2.7099990844726562 12.5)"><text x="0" y="17.52" font-family="Virgil, Segoe UI Emoji" font-size="20px" fill="#f08c00" text-anchor="start" style="white-space: pre;" direction="ltr" dominant-baseline="alphabetic">1</text></g><g transform="translate(416.8899459838867 144.86310524286563) rotate(0 4.6699981689453125 12.5)"><text x="0" y="17.52" font-family="Virgil, Segoe UI Emoji" font-size="20px" fill="#f08c00" text-anchor="start" style="white-space: pre;" direction="ltr" dominant-baseline="alphabetic">n</text></g><g transform="translate(482.28990936279297 143.06311744989688) rotate(0 2.7099990844726562 12.5)"><text x="0" y="17.52" font-family="Virgil, Segoe UI Emoji" font-size="20px" fill="#f08c00" text-anchor="start" style="white-space: pre;" direction="ltr" dominant-baseline="alphabetic">1</text></g><g stroke-linecap="round" transform="translate(10 150.56313270868594) rotate(0 46.399993896484375 41.59999084472656)"><path d="M29.69 1.73 C36.87 -1.35, 48.62 -0.31, 56.76 1.34 C64.89 3, 72.69 6.33, 78.51 11.65 C84.33 16.97, 89.74 25.84, 91.68 33.27 C93.61 40.7, 92.98 49.43, 90.1 56.25 C87.22 63.06, 81.22 69.6, 74.4 74.17 C67.57 78.73, 57.59 82.95, 49.16 83.63 C40.74 84.31, 31.09 81.76, 23.84 78.25 C16.59 74.74, 9.73 69, 5.65 62.56 C1.58 56.12, -1.16 47.31, -0.59 39.62 C-0.03 31.94, 3.16 23, 9.06 16.46 C14.95 9.91, 29.31 2.89, 34.75 0.37 C40.2 -2.16, 41.34 0.36, 41.71 1.32 M36.17 1.06 C43.99 -1.28, 55.58 -1.24, 63.64 1.37 C71.7 3.97, 79.61 10.45, 84.52 16.7 C89.44 22.96, 92.94 31.56, 93.15 38.91 C93.36 46.25, 89.78 54.11, 85.79 60.79 C81.8 67.46, 76.48 75.22, 69.21 78.98 C61.95 82.74, 50.51 84.13, 42.19 83.34 C33.87 82.55, 26.09 78.78, 19.29 74.23 C12.49 69.69, 4.28 63.26, 1.38 56.06 C-1.52 48.87, -0.45 38.5, 1.86 31.07 C4.18 23.64, 9.45 16.7, 15.25 11.49 C21.04 6.29, 32.96 1.3, 36.63 -0.15 C40.3 -1.6, 37.2 1.72, 37.28 2.79" stroke="#1e1e1e" stroke-width="2" fill="none"></path></g><g transform="translate(31.910258518879118 179.74748792980805) rotate(0 24.67998504638672 12.5)"><text x="24.67998504638672" y="17.52" font-family="Virgil, Segoe UI Emoji" font-size="20px" fill="#1e1e1e" text-anchor="middle" style="white-space: pre;" direction="ltr" dominant-baseline="alphabetic">data</text></g><g stroke-linecap="round" transform="translate(308.1999053955078 136.56311744989688) rotate(0 52.00001525878906 34.399993896484375)"><path d="M17.2 0 C36.07 -0.37, 58.96 -0.77, 86.8 0 M17.2 0 C36.26 -0.86, 56 -1.1, 86.8 0 M86.8 0 C98.76 -0.11, 102.23 4.61, 104 17.2 M86.8 0 C100.2 2.19, 106.12 5.02, 104 17.2 M104 17.2 C103.66 30.11, 102.52 43.11, 104 51.6 M104 17.2 C104.51 25.67, 104.7 35.72, 104 51.6 M104 51.6 C105.88 64.65, 98.8 69.58, 86.8 68.8 M104 51.6 C104.63 61.19, 99.62 66.75, 86.8 68.8 M86.8 68.8 C59.34 68.02, 33.3 69.6, 17.2 68.8 M86.8 68.8 C71.86 68.69, 57.69 68.05, 17.2 68.8 M17.2 68.8 C5.85 67.61, -0.11 62.69, 0 51.6 M17.2 68.8 C6.72 67.56, 1.39 61.17, 0 51.6 M0 51.6 C0.12 38.47, 0.29 26.96, 0 17.2 M0 51.6 C-0.46 41.26, -1.01 31.33, 0 17.2 M0 17.2 C-1.84 4.09, 4.65 0.54, 17.2 0 M0 17.2 C0.49 6.27, 6.29 -0.13, 17.2 0" stroke="#2f9e44" stroke-width="2" fill="none"></path></g><g transform="translate(334.2199478149414 158.46311134638125) rotate(0 25.97997283935547 12.5)"><text x="25.97997283935547" y="17.52" font-family="Virgil, Segoe UI Emoji" font-size="20px" fill="#2f9e44" text-anchor="middle" style="white-space: pre;" direction="ltr" dominant-baseline="alphabetic">Filter</text></g><g stroke-linecap="round" transform="translate(175.19996643066406 166.36316627802188) rotate(0 52.00001525878906 34.399993896484375)"><path d="M17.2 0 C30.19 0.28, 48.01 2.13, 86.8 0 M17.2 0 C35.96 0.77, 55.04 0.67, 86.8 0 M86.8 0 C96.99 -0.4, 104.06 6.31, 104 17.2 M86.8 0 C98.7 -2.22, 102.08 4.93, 104 17.2 M104 17.2 C106.03 27.09, 102.52 39.55, 104 51.6 M104 17.2 C104.71 26.99, 102.96 34.07, 104 51.6 M104 51.6 C103.77 61.21, 98.27 67.38, 86.8 68.8 M104 51.6 C105.9 64.05, 100.41 68.21, 86.8 68.8 M86.8 68.8 C70.12 69.86, 51.36 70, 17.2 68.8 M86.8 68.8 C66.37 69.18, 47.34 69.21, 17.2 68.8 M17.2 68.8 C5.77 70.73, 0.61 61.75, 0 51.6 M17.2 68.8 C7.78 67, -0.61 62.74, 0 51.6 M0 51.6 C-0.39 36.91, -1.38 25.79, 0 17.2 M0 51.6 C-0.25 44.83, 0.25 37.54, 0 17.2 M0 17.2 C-0.34 7.44, 7.07 1.83, 17.2 0 M0 17.2 C1.12 5.2, 5.27 0.04, 17.2 0" stroke="#2f9e44" stroke-width="2" fill="none"></path></g><g transform="translate(201.22000885009766 188.26316017450625) rotate(0 25.97997283935547 12.5)"><text x="25.97997283935547" y="17.52" font-family="Virgil, Segoe UI Emoji" font-size="20px" fill="#2f9e44" text-anchor="middle" style="white-space: pre;" direction="ltr" dominant-baseline="alphabetic">Filter</text></g><g stroke-linecap="round"><g transform="translate(106.60000610351562 193.563147967475) rotate(0 32.399993896484375 0.399993896484375)"><path d="M0.17 0.8 C11.22 1.24, 55.27 1.96, 66 1.93 M-1.19 0.17 C9.82 0.37, 54.87 0.12, 65.68 0.41" stroke="#1e1e1e" stroke-width="2" fill="none"></path></g><g transform="translate(106.60000610351562 193.563147967475) rotate(0 32.399993896484375 0.399993896484375)"><path d="M42.11 8.76 C50.05 8.4, 57.17 3.66, 65.68 0.41 M42.11 8.76 C48.44 6.19, 55.75 3.68, 65.68 0.41" stroke="#1e1e1e" stroke-width="2" fill="none"></path></g><g transform="translate(106.60000610351562 193.563147967475) rotate(0 32.399993896484375 0.399993896484375)"><path d="M42.26 -8.34 C50.06 -3.94, 57.13 -3.92, 65.68 0.41 M42.26 -8.34 C48.45 -5.97, 55.71 -3.54, 65.68 0.41" stroke="#1e1e1e" stroke-width="2" fill="none"></path></g></g><mask></mask><g stroke-linecap="round"><g transform="translate(280.66814256611735 95.44536814557397) rotate(0 16.265896673484292 20.269735442543983)"><path d="M0.05 -0.31 C5.58 6.56, 26.82 34.82, 32.19 41.49 M-1.39 -1.53 C4.05 5, 25.61 32.84, 31.07 39.86" stroke="#1e1e1e" stroke-width="2" fill="none"></path></g><g transform="translate(280.66814256611735 95.44536814557397) rotate(0 16.265896673484292 20.269735442543983)"><path d="M9.9 26.56 C13.96 28.85, 20.62 31.83, 31.07 39.86 M9.9 26.56 C15.45 30.38, 19.83 33.45, 31.07 39.86" stroke="#1e1e1e" stroke-width="2" fill="none"></path></g><g transform="translate(280.66814256611735 95.44536814557397) rotate(0 16.265896673484292 20.269735442543983)"><path d="M23.41 16.06 C24.58 20.62, 28.34 25.86, 31.07 39.86 M23.41 16.06 C25.84 22.2, 27.1 27.7, 31.07 39.86" stroke="#1e1e1e" stroke-width="2" fill="none"></path></g></g><mask></mask><g stroke-linecap="round"><g transform="translate(282.59996032714844 194.85891165965467) rotate(0 12.699966430664062 -10.811554564413484)"><path d="M0.58 0.16 C4.47 -3.35, 20.23 -17.78, 24.42 -21.47 M-0.58 -0.8 C3.58 -4.06, 22.34 -16.51, 26.62 -19.86" stroke="#1e1e1e" stroke-width="2" fill="none"></path></g><g transform="translate(282.59996032714844 194.85891165965467) rotate(0 12.699966430664062 -10.811554564413484)"><path d="M17.17 -6.11 C21.14 -12.9, 24.83 -16.47, 26.62 -19.86 M17.17 -6.11 C19.99 -10.21, 22.75 -12.79, 26.62 -19.86" stroke="#1e1e1e" stroke-width="2" fill="none"></path></g><g transform="translate(282.59996032714844 194.85891165965467) rotate(0 12.699966430664062 -10.811554564413484)"><path d="M10.55 -15.41 C17.08 -18.58, 23.37 -18.51, 26.62 -19.86 M10.55 -15.41 C15.09 -17.01, 19.64 -17.08, 26.62 -19.86" stroke="#1e1e1e" stroke-width="2" fill="none"></path></g></g><mask></mask><g stroke-linecap="round"><g transform="translate(412.9999694824219 173.563147967475) rotate(0 40 -0.8000030517578125)"><path d="M0.72 0.69 C14.22 0.57, 67.46 -1.28, 80.85 -1.5 M-0.36 0 C13.07 0.17, 66.81 0.5, 80.35 0.09" stroke="#1e1e1e" stroke-width="2" fill="none"></path></g><g transform="translate(412.9999694824219 173.563147967475) rotate(0 40 -0.8000030517578125)"><path d="M56.93 8.86 C64.82 7.63, 70.54 5.49, 80.35 0.09 M56.93 8.86 C66.03 5.16, 75.48 2.23, 80.35 0.09" stroke="#1e1e1e" stroke-width="2" fill="none"></path></g><g transform="translate(412.9999694824219 173.563147967475) rotate(0 40 -0.8000030517578125)"><path d="M56.78 -8.24 C64.59 -4.59, 70.35 -1.84, 80.35 0.09 M56.78 -8.24 C65.79 -5.44, 75.3 -1.86, 80.35 0.09" stroke="#1e1e1e" stroke-width="2" fill="none"></path></g></g><mask></mask><g stroke-linecap="round" transform="translate(12.799903869628906 248.06321663202579) rotate(0 46.399993896484375 41.59999084472656)"><path d="M47.51 0.28 C55.63 0.09, 66.24 3.77, 73.28 7.92 C80.33 12.08, 86.53 18.49, 89.81 25.22 C93.08 31.94, 94.37 40.9, 92.91 48.27 C91.45 55.64, 86.87 63.85, 81.06 69.44 C75.24 75.02, 66.33 79.97, 58 81.77 C49.66 83.56, 38.84 82.68, 31.05 80.21 C23.26 77.73, 16.41 72.56, 11.24 66.91 C6.07 61.25, 0.97 53.47, 0.04 46.26 C-0.89 39.05, 1.77 30.3, 5.66 23.65 C9.55 17, 14.23 10.11, 23.37 6.36 C32.51 2.6, 52.55 1.12, 60.49 1.11 C68.44 1.11, 71.21 5.7, 71.04 6.33 M37.17 2.07 C45.1 -0.07, 55.56 0.32, 63.22 2.51 C70.88 4.69, 78.42 9.49, 83.11 15.2 C87.79 20.9, 90.77 28.87, 91.33 36.71 C91.9 44.56, 90.4 55.63, 86.5 62.27 C82.61 68.9, 74.98 73.23, 67.95 76.51 C60.93 79.8, 52.59 82.34, 44.35 81.99 C36.11 81.64, 25.4 78.52, 18.5 74.41 C11.59 70.3, 5.83 64.23, 2.92 57.31 C0.01 50.38, -0.93 40.05, 1.01 32.85 C2.95 25.65, 8.7 19.21, 14.56 14.11 C20.43 9.01, 32.48 4.42, 36.19 2.26 C39.9 0.09, 36.54 0.63, 36.8 1.11" stroke="#1e1e1e" stroke-width="2" fill="none"></path></g><g transform="translate(34.710162388508024 277.2475718531479) rotate(0 24.67998504638672 12.5)"><text x="24.67998504638672" y="17.52" font-family="Virgil, Segoe UI Emoji" font-size="20px" fill="#1e1e1e" text-anchor="middle" style="white-space: pre;" direction="ltr" dominant-baseline="alphabetic">data</text></g><g stroke-linecap="round" transform="translate(177.99987030029297 259.8632502013617) rotate(0 52.00001525878906 34.399993896484375)"><path d="M17.2 0 C37.92 0.83, 61.06 1.57, 86.8 0 M17.2 0 C42.02 -0.04, 67.47 -0.69, 86.8 0 M86.8 0 C98.1 -1.88, 102.13 7.34, 104 17.2 M86.8 0 C96.03 -0.58, 103.97 7.72, 104 17.2 M104 17.2 C105.52 27.76, 105.31 39.61, 104 51.6 M104 17.2 C103.17 30.54, 104.56 44.74, 104 51.6 M104 51.6 C105.65 63.19, 98.23 67.47, 86.8 68.8 M104 51.6 C102.01 61.04, 96.83 70.73, 86.8 68.8 M86.8 68.8 C70.29 68.23, 55.7 68.75, 17.2 68.8 M86.8 68.8 C64.06 69.57, 39.61 69.35, 17.2 68.8 M17.2 68.8 C6.68 67.76, 1.15 63.06, 0 51.6 M17.2 68.8 C4.66 66.74, -0.73 62.71, 0 51.6 M0 51.6 C-2.01 37.1, 1.29 25.6, 0 17.2 M0 51.6 C1.04 42.05, 0.54 30.68, 0 17.2 M0 17.2 C0.16 4.92, 6.56 0.38, 17.2 0 M0 17.2 C2.11 5.65, 6.93 -0.66, 17.2 0" stroke="#2f9e44" stroke-width="2" fill="none"></path></g><g transform="translate(195.79991912841797 281.7632440978461) rotate(0 34.19996643066406 12.5)"><text x="34.19996643066406" y="17.52" font-family="Virgil, Segoe UI Emoji" font-size="20px" fill="#2f9e44" text-anchor="middle" style="white-space: pre;" direction="ltr" dominant-baseline="alphabetic">Filter...</text></g><g stroke-linecap="round"><g transform="translate(109.42223193055344 290.0162562244029) rotate(0 32.38883291777992 -0.3927970751421981)"><path d="M0.75 0.76 C11.44 0.67, 53.9 0.33, 64.48 0.18 M-0.32 0.12 C10.17 -0.36, 52.8 -1.05, 63.37 -1.43" stroke="#1e1e1e" stroke-width="2" fill="none"></path></g><g transform="translate(109.42223193055344 290.0162562244029) rotate(0 32.38883291777992 -0.3927970751421981)"><path d="M40.1 7.7 C48.89 4.08, 56.81 0.63, 63.37 -1.43 M40.1 7.7 C48.24 3.58, 55.59 2.1, 63.37 -1.43" stroke="#1e1e1e" stroke-width="2" fill="none"></path></g><g transform="translate(109.42223193055344 290.0162562244029) rotate(0 32.38883291777992 -0.3927970751421981)"><path d="M39.67 -9.39 C48.71 -7.45, 56.76 -5.34, 63.37 -1.43 M39.67 -9.39 C47.91 -7.5, 55.4 -2.95, 63.37 -1.43" stroke="#1e1e1e" stroke-width="2" fill="none"></path></g></g><mask></mask><g stroke-linecap="round"><g transform="translate(280.1999816894531 286.36313576044375) rotate(0 17.199981689453125 -42)"><path d="M1.2 -0.93 C6.98 -15.06, 29.35 -70.92, 34.87 -84.73 M0.37 1.2 C6.02 -12.8, 28.65 -69.65, 34.16 -83.58" stroke="#1e1e1e" stroke-width="2" fill="none"></path></g><g transform="translate(280.1999816894531 286.36313576044375) rotate(0 17.199981689453125 -42)"><path d="M33.44 -58.59 C32.11 -65.67, 32.66 -74.47, 34.16 -83.58 M33.44 -58.59 C32.58 -66.58, 33.35 -75.01, 34.16 -83.58" stroke="#1e1e1e" stroke-width="2" fill="none"></path></g><g transform="translate(280.1999816894531 286.36313576044375) rotate(0 17.199981689453125 -42)"><path d="M17.54 -64.91 C21.21 -70.16, 26.76 -76.98, 34.16 -83.58 M17.54 -64.91 C21.76 -70.82, 27.53 -77.27, 34.16 -83.58" stroke="#1e1e1e" stroke-width="2" fill="none"></path></g></g><mask></mask></svg>