<svg version="1.1" xmlns="http://www.w3.org/2000/svg" viewBox="0 0 269.6963043212891 265.1375503540039" width="269.6963043212891" height="265.1375503540039">
  <!-- svg-source:excalidraw -->
  
  <defs>
    <style class="style-fonts">
      @font-face {
        font-family: "Virgil";
        src: url("https://excalidraw.com/Virgil.woff2");
      }
      @font-face {
        font-family: "Cascadia";
        src: url("https://excalidraw.com/Cascadia.woff2");
      }
      @font-face {
        font-family: "Assistant";
        src: url("https://excalidraw.com/Assistant-Regular.woff2");
      }
    </style>
    
  </defs>
  <g stroke-linecap="round" transform="translate(10 14.639541625976562) rotate(0 17.24609375 17.766326904296875)"><path d="M8.62 0 C15.32 1.7, 20.3 -0.1, 25.87 0 M8.62 0 C13.62 -0.3, 18.88 -0.46, 25.87 0 M25.87 0 C31.48 0.82, 32.8 3.39, 34.49 8.62 M25.87 0 C32.83 1.1, 34.31 4.18, 34.49 8.62 M34.49 8.62 C34.09 13.52, 35.63 21.55, 34.49 26.91 M34.49 8.62 C34.07 15.39, 34.05 22.98, 34.49 26.91 M34.49 26.91 C32.56 33.06, 29.86 36.55, 25.87 35.53 M34.49 26.91 C36 31.26, 29.51 37.54, 25.87 35.53 M25.87 35.53 C19.63 36.42, 14.71 36.1, 8.62 35.53 M25.87 35.53 C21.52 36.14, 19.39 35.33, 8.62 35.53 M8.62 35.53 C1.16 34.37, -0.04 34.53, 0 26.91 M8.62 35.53 C0.94 34.75, 0.36 34.2, 0 26.91 M0 26.91 C0.49 22.67, 0.94 14.41, 0 8.62 M0 26.91 C-0.39 20.37, -0.75 14.14, 0 8.62 M0 8.62 C-0.58 3.29, 4.77 -1.52, 8.62 0 M0 8.62 C-0.32 4.51, 3.73 -1.51, 8.62 0" stroke="#1971c2" stroke-width="2" fill="none"></path></g><g transform="translate(17.656097412109375 19.905868530273438) rotate(0 9.589996337890625 12.5)"><text x="9.589996337890625" y="17.52" font-family="Virgil, Segoe UI Emoji" font-size="20px" fill="#1971c2" text-anchor="middle" style="white-space: pre;" direction="ltr" dominant-baseline="alphabetic">10</text></g><g stroke-linecap="round" transform="translate(62.219451904296875 15.680007934570312) rotate(0 18.955963134765625 18.297225952148438)"><path d="M9.15 0 C13.47 -1.35, 20.75 0.99, 28.76 0 M9.15 0 C15.03 -0.05, 20.5 0.31, 28.76 0 M28.76 0 C33.81 1.42, 38.3 3.43, 37.91 9.15 M28.76 0 C36.03 0.34, 39.16 4.47, 37.91 9.15 M37.91 9.15 C37.62 15.38, 38.82 23.92, 37.91 27.45 M37.91 9.15 C37.94 14.5, 37.58 18.48, 37.91 27.45 M37.91 27.45 C38.56 33.23, 33.7 36.35, 28.76 36.59 M37.91 27.45 C37.88 35.7, 36.85 37.64, 28.76 36.59 M28.76 36.59 C20.96 37.95, 15.3 36.77, 9.15 36.59 M28.76 36.59 C24.22 36.3, 17.56 36.65, 9.15 36.59 M9.15 36.59 C4.67 38.4, 1.03 33.91, 0 27.45 M9.15 36.59 C2.04 34.51, -0.16 31.26, 0 27.45 M0 27.45 C1.38 19.98, 0.1 14.56, 0 9.15 M0 27.45 C-0.25 22.97, -0.6 19.47, 0 9.15 M0 9.15 C1.97 4.73, 1.96 -0.99, 9.15 0 M0 9.15 C-0.17 4.48, 3 0.2, 9.15 0" stroke="#1971c2" stroke-width="2" fill="none"></path></g><g transform="translate(71.34542083740234 21.47723388671875) rotate(0 9.829994201660156 12.5)"><text x="9.829994201660156" y="17.52" font-family="Virgil, Segoe UI Emoji" font-size="20px" fill="#1971c2" text-anchor="middle" style="white-space: pre;" direction="ltr" dominant-baseline="alphabetic">12</text></g><g stroke-linecap="round" transform="translate(111.98861694335938 14.09088134765625) rotate(0 18.955963134765625 18.297225952148438)"><path d="M9.15 0 C16.38 -1.12, 20.56 0.46, 28.76 0 M9.15 0 C13.03 -0.72, 16.78 0.88, 28.76 0 M28.76 0 C33.57 1.27, 39.27 4.79, 37.91 9.15 M28.76 0 C35.66 -1.42, 37.27 2.52, 37.91 9.15 M37.91 9.15 C38.9 14.27, 38.03 18.72, 37.91 27.45 M37.91 9.15 C38.58 13.65, 37.88 19.17, 37.91 27.45 M37.91 27.45 C39.1 32.69, 35.25 37.32, 28.76 36.59 M37.91 27.45 C38.01 33.84, 33.62 38.72, 28.76 36.59 M28.76 36.59 C25.69 36.22, 20.31 36.94, 9.15 36.59 M28.76 36.59 C24.33 37.54, 20.81 36.11, 9.15 36.59 M9.15 36.59 C3.33 36.53, 1.15 35.18, 0 27.45 M9.15 36.59 C1.69 37.94, 1.06 34.04, 0 27.45 M0 27.45 C-0.03 21.14, -1.62 13.71, 0 9.15 M0 27.45 C-0.62 22.35, 0.11 17.56, 0 9.15 M0 9.15 C-0.35 4.31, 1.37 1.43, 9.15 0 M0 9.15 C-1.26 2.37, 2.15 -0.27, 9.15 0" stroke="#1971c2" stroke-width="2" fill="none"></path></g><g transform="translate(124.54458618164062 19.888107299804688) rotate(0 6.399993896484375 12.5)"><text x="6.399993896484375" y="17.52" font-family="Virgil, Segoe UI Emoji" font-size="20px" fill="#1971c2" text-anchor="middle" style="white-space: pre;" direction="ltr" dominant-baseline="alphabetic">4</text></g><g stroke-linecap="round" transform="translate(161.80749511718756 11.960205078125) rotate(0 18.955963134765625 18.297225952148438)"><path d="M9.15 0 C14 -1.22, 17.29 -1.02, 28.76 0 M9.15 0 C17.84 -0.75, 25.56 0.2, 28.76 0 M28.76 0 C33.56 0.16, 38.81 3.17, 37.91 9.15 M28.76 0 C33.25 1.63, 37.8 5.11, 37.91 9.15 M37.91 9.15 C37.1 13.55, 39.67 16.04, 37.91 27.45 M37.91 9.15 C37.42 14.68, 37.97 19.46, 37.91 27.45 M37.91 27.45 C36.32 35.49, 36.12 37.94, 28.76 36.59 M37.91 27.45 C38.65 31.72, 36.12 35.04, 28.76 36.59 M28.76 36.59 C23.12 35.79, 17.04 35.49, 9.15 36.59 M28.76 36.59 C23.98 35.96, 18.71 36.03, 9.15 36.59 M9.15 36.59 C4.78 35.9, 0.79 35.5, 0 27.45 M9.15 36.59 C1.21 38.53, 0.46 34.57, 0 27.45 M0 27.45 C1.26 21.54, -0.24 16.34, 0 9.15 M0 27.45 C0.51 22.21, 0.58 15.71, 0 9.15 M0 9.15 C1.8 4.69, 2.52 -0.8, 9.15 0 M0 9.15 C0.36 3.87, 3.4 -1.59, 9.15 0" stroke="#1971c2" stroke-width="2" fill="none"></path></g><g transform="translate(173.64346313476568 17.757431030273438) rotate(0 7.1199951171875 12.5)"><text x="7.1199951171875" y="17.52" font-family="Virgil, Segoe UI Emoji" font-size="20px" fill="#1971c2" text-anchor="middle" style="white-space: pre;" direction="ltr" dominant-baseline="alphabetic">2</text></g><g stroke-linecap="round" transform="translate(217.22653198242193 10) rotate(0 19.08026123046875 18.508514404296875)"><path d="M9.25 0 C16.91 -1.56, 24.16 0.24, 28.91 0 M9.25 0 C13.98 -1.07, 19.36 -0.51, 28.91 0 M28.91 0 C34.82 -1.8, 36.79 3.31, 38.16 9.25 M28.91 0 C36.75 -0.45, 39.97 1.92, 38.16 9.25 M38.16 9.25 C36.56 15.72, 38.84 21.3, 38.16 27.76 M38.16 9.25 C37.69 14.92, 37.3 21.47, 38.16 27.76 M38.16 27.76 C40.15 33.58, 35.71 36.69, 28.91 37.02 M38.16 27.76 C37.88 32.12, 33.01 36.86, 28.91 37.02 M28.91 37.02 C26.16 35.33, 20.57 36.16, 9.25 37.02 M28.91 37.02 C20.66 37.34, 13.82 36.98, 9.25 37.02 M9.25 37.02 C1.95 35.97, -0.53 34.41, 0 27.76 M9.25 37.02 C2.41 37.85, 0.22 36.02, 0 27.76 M0 27.76 C-0.9 25.25, -0.95 20.66, 0 9.25 M0 27.76 C-0.09 23.77, 0.03 18.6, 0 9.25 M0 9.25 C0.87 1.16, 4.34 1.32, 9.25 0 M0 9.25 C-1.67 2.52, 0.82 2.05, 9.25 0" stroke="#1971c2" stroke-width="2" fill="none"></path></g><g transform="translate(228.6567993164063 16.008514404296875) rotate(0 7.649993896484375 12.5)"><text x="7.649993896484375" y="17.52" font-family="Virgil, Segoe UI Emoji" font-size="20px" fill="#1971c2" text-anchor="middle" style="white-space: pre;" direction="ltr" dominant-baseline="alphabetic">8</text></g><g stroke-linecap="round" transform="translate(13.666519165039062 64.29239654541016) rotate(0 17.24609375 17.766326904296875)"><path d="M8.62 0 C13.78 0.56, 21.9 0.14, 25.87 0 M8.62 0 C12.39 0.33, 16.12 -0.42, 25.87 0 M25.87 0 C32.97 1.17, 35.06 2.07, 34.49 8.62 M25.87 0 C29.59 1.53, 33.93 1.44, 34.49 8.62 M34.49 8.62 C34.42 14.07, 35.43 16.21, 34.49 26.91 M34.49 8.62 C34.98 14.86, 33.6 18.96, 34.49 26.91 M34.49 26.91 C36.19 30.95, 32.91 35.47, 25.87 35.53 M34.49 26.91 C33.11 32.96, 30.07 37.82, 25.87 35.53 M25.87 35.53 C20.04 35.34, 12.51 34.65, 8.62 35.53 M25.87 35.53 C21.09 35.51, 14.67 35.36, 8.62 35.53 M8.62 35.53 C1.01 34.91, 0.95 33.56, 0 26.91 M8.62 35.53 C1.42 34.39, 0.37 33.63, 0 26.91 M0 26.91 C-1.9 24.4, 0.96 18.53, 0 8.62 M0 26.91 C-0.36 21.59, -0.26 16.93, 0 8.62 M0 8.62 C-0.95 2.51, 2.18 -1.77, 8.62 0 M0 8.62 C1.78 3.2, 3.02 -2, 8.62 0" stroke="#f08c00" stroke-width="2" fill="none"></path></g><g transform="translate(21.322616577148438 69.55872344970703) rotate(0 9.589996337890625 12.5)"><text x="9.589996337890625" y="17.52" font-family="Virgil, Segoe UI Emoji" font-size="20px" fill="#f08c00" text-anchor="middle" style="white-space: pre;" direction="ltr" dominant-baseline="alphabetic">10</text></g><g stroke-linecap="round" transform="translate(65.88597106933594 65.3328628540039) rotate(0 18.955963134765625 18.297225952148438)"><path d="M9.15 0 C14.51 1.58, 23.68 -0.67, 28.76 0 M9.15 0 C16.7 0.64, 23.21 -0.32, 28.76 0 M28.76 0 C33.1 1.33, 37.42 1.8, 37.91 9.15 M28.76 0 C33.57 2.05, 35.89 2.76, 37.91 9.15 M37.91 9.15 C38.03 15.26, 37 23.15, 37.91 27.45 M37.91 9.15 C38.52 15.28, 38.33 22.96, 37.91 27.45 M37.91 27.45 C36.71 33.81, 33.52 38.58, 28.76 36.59 M37.91 27.45 C40.19 35.38, 35.68 38, 28.76 36.59 M28.76 36.59 C23.5 35.89, 16.68 38.06, 9.15 36.59 M28.76 36.59 C21.85 36.27, 17.23 37.01, 9.15 36.59 M9.15 36.59 C1.78 35.6, 0.32 34.39, 0 27.45 M9.15 36.59 C1.44 38.84, 0.75 31.38, 0 27.45 M0 27.45 C-0.79 21.69, -0.16 12.62, 0 9.15 M0 27.45 C-0.41 22.82, -0.3 17.72, 0 9.15 M0 9.15 C1.54 3.34, 3.18 -1.74, 9.15 0 M0 9.15 C0.98 2.6, 1.95 -1.55, 9.15 0" stroke="#2f9e44" stroke-width="2" fill="none"></path></g><g transform="translate(75.0119400024414 71.13008880615234) rotate(0 9.829994201660156 12.5)"><text x="9.829994201660156" y="17.52" font-family="Virgil, Segoe UI Emoji" font-size="20px" fill="#2f9e44" text-anchor="middle" style="white-space: pre;" direction="ltr" dominant-baseline="alphabetic">12</text></g><g stroke-linecap="round" transform="translate(115.65513610839844 63.743736267089844) rotate(0 18.955963134765625 18.297225952148438)"><path d="M9.15 0 C17.64 -1.32, 23.43 1.39, 28.76 0 M9.15 0 C15.31 0.73, 22.96 -0.53, 28.76 0 M28.76 0 C33.74 1.78, 36.15 2.8, 37.91 9.15 M28.76 0 C36.1 0.98, 36.24 3.1, 37.91 9.15 M37.91 9.15 C39.24 12.57, 36.39 20.96, 37.91 27.45 M37.91 9.15 C37.48 13.19, 37.41 17.9, 37.91 27.45 M37.91 27.45 C39.89 35.14, 35.57 37.81, 28.76 36.59 M37.91 27.45 C37.58 34.08, 33.6 36.99, 28.76 36.59 M28.76 36.59 C23.59 36.14, 17.97 34.92, 9.15 36.59 M28.76 36.59 C22.87 36.19, 18.38 37.1, 9.15 36.59 M9.15 36.59 C1.65 38.55, 0.65 31.66, 0 27.45 M9.15 36.59 C5.19 38.03, 0.05 32.69, 0 27.45 M0 27.45 C-1.03 20.28, -0.72 12.72, 0 9.15 M0 27.45 C0.77 22.42, 0.12 16.33, 0 9.15 M0 9.15 C0.85 2.66, 2.09 -1.35, 9.15 0 M0 9.15 C2.01 3.59, 5.11 0.89, 9.15 0" stroke="#1971c2" stroke-width="2" fill="none"></path></g><g transform="translate(128.2111053466797 69.54096221923828) rotate(0 6.399993896484375 12.5)"><text x="6.399993896484375" y="17.52" font-family="Virgil, Segoe UI Emoji" font-size="20px" fill="#1971c2" text-anchor="middle" style="white-space: pre;" direction="ltr" dominant-baseline="alphabetic">4</text></g><g stroke-linecap="round" transform="translate(165.47401428222662 61.613059997558594) rotate(0 18.955963134765625 18.297225952148438)"><path d="M9.15 0 C14.79 0.43, 17.35 -1.86, 28.76 0 M9.15 0 C15.79 1, 22.66 0, 28.76 0 M28.76 0 C35.94 0.85, 36.46 3.09, 37.91 9.15 M28.76 0 C34.41 -1.24, 39.23 4.85, 37.91 9.15 M37.91 9.15 C36.2 14.11, 37.72 15.61, 37.91 27.45 M37.91 9.15 C38.69 15.61, 38.11 21.17, 37.91 27.45 M37.91 27.45 C37.62 34.01, 33.76 36.94, 28.76 36.59 M37.91 27.45 C37.22 32.51, 36.71 36.73, 28.76 36.59 M28.76 36.59 C22.87 37.34, 19.09 35.17, 9.15 36.59 M28.76 36.59 C23.17 37.64, 19.27 35.75, 9.15 36.59 M9.15 36.59 C4.91 37.84, 0.04 32.8, 0 27.45 M9.15 36.59 C4.86 36.54, -0.56 32.25, 0 27.45 M0 27.45 C-0.26 21.55, -1.55 18.35, 0 9.15 M0 27.45 C0.38 21.52, -0.45 15.33, 0 9.15 M0 9.15 C1.74 3.52, 4.84 0.78, 9.15 0 M0 9.15 C-0.06 5.1, 1.97 0.1, 9.15 0" stroke="#1971c2" stroke-width="2" fill="none"></path></g><g transform="translate(177.30998229980474 67.41028594970703) rotate(0 7.1199951171875 12.5)"><text x="7.1199951171875" y="17.52" font-family="Virgil, Segoe UI Emoji" font-size="20px" fill="#1971c2" text-anchor="middle" style="white-space: pre;" direction="ltr" dominant-baseline="alphabetic">2</text></g><g stroke-linecap="round" transform="translate(220.893051147461 59.652854919433594) rotate(0 19.08026123046875 18.508514404296875)"><path d="M9.25 0 C17.02 -0.31, 20.94 -0.93, 28.91 0 M9.25 0 C17.43 0.44, 23.83 0.05, 28.91 0 M28.91 0 C34.68 -1.08, 39.31 4.65, 38.16 9.25 M28.91 0 C32.93 -1.79, 40.12 1.12, 38.16 9.25 M38.16 9.25 C38.4 14.76, 39.99 24.59, 38.16 27.76 M38.16 9.25 C38.09 16.5, 37.72 23.48, 38.16 27.76 M38.16 27.76 C37.55 33.03, 36.68 37.13, 28.91 37.02 M38.16 27.76 C37.45 33.69, 32.93 36.3, 28.91 37.02 M28.91 37.02 C21.1 37.21, 16.08 35.52, 9.25 37.02 M28.91 37.02 C22 37.44, 13.29 36.47, 9.25 37.02 M9.25 37.02 C4.66 36.97, -0.48 32.81, 0 27.76 M9.25 37.02 C2.79 36.11, -1.09 33.52, 0 27.76 M0 27.76 C0.43 22.98, -1.44 18.74, 0 9.25 M0 27.76 C0.9 22.79, 0.92 17.74, 0 9.25 M0 9.25 C-0.05 4.87, 2.14 0.09, 9.25 0 M0 9.25 C-2.16 1.41, 1.33 -2.17, 9.25 0" stroke="#1971c2" stroke-width="2" fill="none"></path></g><g transform="translate(232.32331848144537 65.66136932373047) rotate(0 7.649993896484375 12.5)"><text x="7.649993896484375" y="17.52" font-family="Virgil, Segoe UI Emoji" font-size="20px" fill="#1971c2" text-anchor="middle" style="white-space: pre;" direction="ltr" dominant-baseline="alphabetic">8</text></g><g stroke-linecap="round" transform="translate(14.309249877929688 116.81372833251953) rotate(0 17.24609375 17.766326904296875)"><path d="M8.62 0 C12.92 -0.42, 19.92 1.78, 25.87 0 M8.62 0 C13.99 -0.83, 19.87 -0.02, 25.87 0 M25.87 0 C32.79 1.48, 35.32 3.63, 34.49 8.62 M25.87 0 C31.12 -0.45, 35.04 5.17, 34.49 8.62 M34.49 8.62 C34.72 13.32, 35.81 21.77, 34.49 26.91 M34.49 8.62 C34.91 14.61, 34.33 21.55, 34.49 26.91 M34.49 26.91 C34.65 34.02, 30.57 36.64, 25.87 35.53 M34.49 26.91 C35.69 33.41, 32.54 34.23, 25.87 35.53 M25.87 35.53 C18.09 35.71, 12.82 36.11, 8.62 35.53 M25.87 35.53 C19.67 35.55, 15.26 35.25, 8.62 35.53 M8.62 35.53 C1.32 33.91, 0.86 33.85, 0 26.91 M8.62 35.53 C2.12 37.26, 0.55 30.58, 0 26.91 M0 26.91 C0.79 21.84, -0.14 17.7, 0 8.62 M0 26.91 C-0.65 20.28, -0.61 12.53, 0 8.62 M0 8.62 C-1.65 2.22, 2.39 1.81, 8.62 0 M0 8.62 C-0.24 4.4, 1.46 2.17, 8.62 0" stroke="#f08c00" stroke-width="2" fill="none"></path></g><g transform="translate(21.965347290039062 122.0800552368164) rotate(0 9.589996337890625 12.5)"><text x="9.589996337890625" y="17.52" font-family="Virgil, Segoe UI Emoji" font-size="20px" fill="#f08c00" text-anchor="middle" style="white-space: pre;" direction="ltr" dominant-baseline="alphabetic">10</text></g><g stroke-linecap="round" transform="translate(66.52870178222656 117.85419464111328) rotate(0 18.955963134765625 18.297225952148438)"><path d="M9.15 0 C14.89 -0.04, 19.35 -0.76, 28.76 0 M9.15 0 C13.67 0.74, 17.44 0.38, 28.76 0 M28.76 0 C34.43 -0.4, 38.39 5.04, 37.91 9.15 M28.76 0 C36.05 0.07, 39.01 3.33, 37.91 9.15 M37.91 9.15 C39.02 14.12, 39.2 17.25, 37.91 27.45 M37.91 9.15 C37.93 14.31, 37.38 18.73, 37.91 27.45 M37.91 27.45 C38.95 34.2, 35.66 35.46, 28.76 36.59 M37.91 27.45 C39.77 31.41, 34.57 34.97, 28.76 36.59 M28.76 36.59 C23.13 35.98, 18.18 35.28, 9.15 36.59 M28.76 36.59 C22.4 35.7, 17.97 37.08, 9.15 36.59 M9.15 36.59 C2.4 38.1, 0.48 31.74, 0 27.45 M9.15 36.59 C1.24 37.81, -1.29 34.66, 0 27.45 M0 27.45 C1.27 24.8, 0.04 17.57, 0 9.15 M0 27.45 C-0.67 21.42, -0.14 16.82, 0 9.15 M0 9.15 C-0.21 4.37, 1.82 1.89, 9.15 0 M0 9.15 C-1.95 5.15, 1.17 -0.11, 9.15 0" stroke="#1971c2" stroke-width="2" fill="none"></path></g><g transform="translate(75.65467071533203 123.65142059326172) rotate(0 9.829994201660156 12.5)"><text x="9.829994201660156" y="17.52" font-family="Virgil, Segoe UI Emoji" font-size="20px" fill="#1971c2" text-anchor="middle" style="white-space: pre;" direction="ltr" dominant-baseline="alphabetic">12</text></g><g stroke-linecap="round" transform="translate(116.29786682128906 116.26506805419922) rotate(0 18.955963134765625 18.297225952148438)"><path d="M9.15 0 C13.24 0.08, 21.1 1.21, 28.76 0 M9.15 0 C16.27 -0.27, 24.05 0.9, 28.76 0 M28.76 0 C35.9 0.06, 38.87 3.29, 37.91 9.15 M28.76 0 C32.68 1.65, 38.27 4.28, 37.91 9.15 M37.91 9.15 C37.08 15.3, 38.04 22.71, 37.91 27.45 M37.91 9.15 C38.29 16.19, 38.18 22.1, 37.91 27.45 M37.91 27.45 C39.52 31.69, 34.61 35.18, 28.76 36.59 M37.91 27.45 C38.17 33.65, 35.66 37.15, 28.76 36.59 M28.76 36.59 C23.28 37.76, 17.39 34.94, 9.15 36.59 M28.76 36.59 C24.15 37.45, 20.41 35.83, 9.15 36.59 M9.15 36.59 C1.48 37.66, -1.13 34.51, 0 27.45 M9.15 36.59 C1.77 36.55, -1.41 35.14, 0 27.45 M0 27.45 C0.23 19.29, -1.76 11.31, 0 9.15 M0 27.45 C-0.05 23.16, -0.52 18.53, 0 9.15 M0 9.15 C-1.69 4.88, 1.41 -0.1, 9.15 0 M0 9.15 C1.07 4.68, 5.19 0.44, 9.15 0" stroke="#2f9e44" stroke-width="2" fill="none"></path></g><g transform="translate(128.8538360595703 122.06229400634766) rotate(0 6.399993896484375 12.5)"><text x="6.399993896484375" y="17.52" font-family="Virgil, Segoe UI Emoji" font-size="20px" fill="#2f9e44" text-anchor="middle" style="white-space: pre;" direction="ltr" dominant-baseline="alphabetic">4</text></g><g stroke-linecap="round" transform="translate(166.11674499511724 114.13439178466797) rotate(0 18.955963134765625 18.297225952148438)"><path d="M9.15 0 C16.51 0.7, 21.7 -0.54, 28.76 0 M9.15 0 C15.15 -0.17, 20.61 -0.08, 28.76 0 M28.76 0 C32.96 1.43, 38.23 4.12, 37.91 9.15 M28.76 0 C36.4 1.45, 38.67 1.85, 37.91 9.15 M37.91 9.15 C39.16 13.12, 38.92 19.96, 37.91 27.45 M37.91 9.15 C38.72 14.39, 37.87 20.68, 37.91 27.45 M37.91 27.45 C38.14 33.63, 35.56 37.08, 28.76 36.59 M37.91 27.45 C37.11 35.46, 33.24 36.27, 28.76 36.59 M28.76 36.59 C19.98 37.28, 15.54 35.8, 9.15 36.59 M28.76 36.59 C20.63 36.94, 13.49 36.89, 9.15 36.59 M9.15 36.59 C1.94 36.55, -1.22 34.93, 0 27.45 M9.15 36.59 C5.34 36.64, -1.17 33.84, 0 27.45 M0 27.45 C-0.42 22.36, 1.84 17.98, 0 9.15 M0 27.45 C-0.66 21.58, -0.64 14, 0 9.15 M0 9.15 C0.93 4.47, 4.91 0.38, 9.15 0 M0 9.15 C-1.41 4.89, 1.79 -1.37, 9.15 0" stroke="#e03131" stroke-width="2" fill="none"></path></g><g transform="translate(177.95271301269537 119.9316177368164) rotate(0 7.1199951171875 12.5)"><text x="7.1199951171875" y="17.52" font-family="Virgil, Segoe UI Emoji" font-size="20px" fill="#e03131" text-anchor="middle" style="white-space: pre;" direction="ltr" dominant-baseline="alphabetic">2</text></g><g stroke-linecap="round" transform="translate(221.53578186035162 112.17418670654297) rotate(0 19.08026123046875 18.508514404296875)"><path d="M9.25 0 C15.57 0.51, 24.63 1.06, 28.91 0 M9.25 0 C14.27 0.68, 21.32 0.5, 28.91 0 M28.91 0 C36.41 1.26, 38.82 2.05, 38.16 9.25 M28.91 0 C34.37 0.02, 38.34 4.65, 38.16 9.25 M38.16 9.25 C38.87 14.58, 37.21 19.91, 38.16 27.76 M38.16 9.25 C38.24 13.13, 38.46 17.15, 38.16 27.76 M38.16 27.76 C37.47 35.6, 33.67 36.73, 28.91 37.02 M38.16 27.76 C39.69 32.8, 33.29 35.15, 28.91 37.02 M28.91 37.02 C23.65 37.42, 13.66 35.41, 9.25 37.02 M28.91 37.02 C21.42 37.09, 14.43 37.79, 9.25 37.02 M9.25 37.02 C5.08 37.05, -1.02 34.19, 0 27.76 M9.25 37.02 C2.02 34.81, -1.9 33.18, 0 27.76 M0 27.76 C1.06 21.52, 1.58 15.99, 0 9.25 M0 27.76 C0.58 21.17, 1.01 13.45, 0 9.25 M0 9.25 C-1.23 4.68, 1.99 -1.19, 9.25 0 M0 9.25 C-1.15 4.01, 4.46 1.81, 9.25 0" stroke="#1971c2" stroke-width="2" fill="none"></path></g><g transform="translate(232.966049194336 118.18270111083984) rotate(0 7.649993896484375 12.5)"><text x="7.649993896484375" y="17.52" font-family="Virgil, Segoe UI Emoji" font-size="20px" fill="#1971c2" text-anchor="middle" style="white-space: pre;" direction="ltr" dominant-baseline="alphabetic">8</text></g><g stroke-linecap="round" transform="translate(13.81929016113287 166.7320327758789) rotate(0 17.24609375 17.766326904296875)"><path d="M8.62 0 C15.28 -0.87, 19.37 -1.55, 25.87 0 M8.62 0 C14.04 -0.64, 19.83 0.69, 25.87 0 M25.87 0 C30.08 0.7, 33.05 3.87, 34.49 8.62 M25.87 0 C33.05 0.38, 32.65 2.75, 34.49 8.62 M34.49 8.62 C36.17 14.97, 34.08 21.46, 34.49 26.91 M34.49 8.62 C34.23 14.88, 34.66 18.84, 34.49 26.91 M34.49 26.91 C33.14 33.16, 33.05 35.58, 25.87 35.53 M34.49 26.91 C36.04 32.32, 30.93 35.9, 25.87 35.53 M25.87 35.53 C20.17 35.5, 16.97 34.49, 8.62 35.53 M25.87 35.53 C19.8 35.67, 13.25 34.86, 8.62 35.53 M8.62 35.53 C1.32 33.68, -0.38 32.18, 0 26.91 M8.62 35.53 C1.35 34.15, -1.26 34.23, 0 26.91 M0 26.91 C1.3 21.56, 1.01 14.26, 0 8.62 M0 26.91 C0.11 20.86, 0.79 15.35, 0 8.62 M0 8.62 C-1.97 0.99, 2.42 -0.02, 8.62 0 M0 8.62 C-1.97 2.73, 3.93 0.71, 8.62 0" stroke="#f08c00" stroke-width="2" fill="none"></path></g><g transform="translate(21.475387573242244 171.99835968017578) rotate(0 9.589996337890625 12.5)"><text x="9.589996337890625" y="17.52" font-family="Virgil, Segoe UI Emoji" font-size="20px" fill="#f08c00" text-anchor="middle" style="white-space: pre;" direction="ltr" dominant-baseline="alphabetic">10</text></g><g stroke-linecap="round" transform="translate(66.03874206542974 167.77249908447266) rotate(0 18.955963134765625 18.297225952148438)"><path d="M9.15 0 C14.26 -1.33, 20.78 0.68, 28.76 0 M9.15 0 C13.11 0.16, 17.86 0.3, 28.76 0 M28.76 0 C36.1 0.33, 36.31 2.94, 37.91 9.15 M28.76 0 C35.81 0.41, 38.35 5.11, 37.91 9.15 M37.91 9.15 C37.84 15.64, 38.42 19.64, 37.91 27.45 M37.91 9.15 C37.31 16.46, 38.58 23.34, 37.91 27.45 M37.91 27.45 C39.25 33.25, 34.27 36.91, 28.76 36.59 M37.91 27.45 C36.69 34.54, 34.51 34.67, 28.76 36.59 M28.76 36.59 C24.04 34.52, 18.4 36.75, 9.15 36.59 M28.76 36.59 C22.08 35.5, 16.74 36.18, 9.15 36.59 M9.15 36.59 C1.73 35.4, -1.1 34.91, 0 27.45 M9.15 36.59 C4.5 38.16, -1.69 35.34, 0 27.45 M0 27.45 C-0.06 21.85, 1.65 14.33, 0 9.15 M0 27.45 C-1.08 22.11, -0.39 18.49, 0 9.15 M0 9.15 C-1.72 2.93, 3.97 0.62, 9.15 0 M0 9.15 C-0.92 3.49, 3.08 0.71, 9.15 0" stroke="#1971c2" stroke-width="2" fill="none"></path></g><g transform="translate(75.16471099853521 173.5697250366211) rotate(0 9.829994201660156 12.5)"><text x="9.829994201660156" y="17.52" font-family="Virgil, Segoe UI Emoji" font-size="20px" fill="#1971c2" text-anchor="middle" style="white-space: pre;" direction="ltr" dominant-baseline="alphabetic">12</text></g><g stroke-linecap="round" transform="translate(115.80790710449224 166.1833724975586) rotate(0 18.955963134765625 18.297225952148438)"><path d="M9.15 0 C12.37 1.83, 19.81 -1.56, 28.76 0 M9.15 0 C16.33 0.07, 21.51 -0.15, 28.76 0 M28.76 0 C35.69 0.36, 38.3 4.84, 37.91 9.15 M28.76 0 C35 -0.56, 38.36 3.02, 37.91 9.15 M37.91 9.15 C39.56 15.69, 36.57 20.68, 37.91 27.45 M37.91 9.15 C38.66 14.97, 37.77 21.2, 37.91 27.45 M37.91 27.45 C36.85 34.41, 34.55 34.92, 28.76 36.59 M37.91 27.45 C37.9 33.03, 33.51 37.94, 28.76 36.59 M28.76 36.59 C24.87 36.06, 19.09 35.09, 9.15 36.59 M28.76 36.59 C24.05 35.96, 20.09 37.22, 9.15 36.59 M9.15 36.59 C4.31 37.95, -1.47 35.11, 0 27.45 M9.15 36.59 C4.68 38.02, 0.79 33.62, 0 27.45 M0 27.45 C-1.19 22.6, -1.11 12.3, 0 9.15 M0 27.45 C-0.74 23.63, 0.46 20.2, 0 9.15 M0 9.15 C-0.8 3.43, 3.08 0.62, 9.15 0 M0 9.15 C-0.41 5.23, 5.01 -0.25, 9.15 0" stroke="#2f9e44" stroke-width="2" fill="none"></path></g><g transform="translate(128.3638763427735 171.98059844970703) rotate(0 6.399993896484375 12.5)"><text x="6.399993896484375" y="17.52" font-family="Virgil, Segoe UI Emoji" font-size="20px" fill="#2f9e44" text-anchor="middle" style="white-space: pre;" direction="ltr" dominant-baseline="alphabetic">4</text></g><g stroke-linecap="round" transform="translate(165.62678527832037 164.05269622802734) rotate(0 18.955963134765625 18.297225952148438)"><path d="M9.15 0 C17.6 -1.27, 25.65 1.37, 28.76 0 M9.15 0 C15.76 0.19, 21.76 0.89, 28.76 0 M28.76 0 C34.98 -0.48, 38.3 3.02, 37.91 9.15 M28.76 0 C35.98 0.69, 37.02 5.05, 37.91 9.15 M37.91 9.15 C38.23 16.1, 37.82 21.67, 37.91 27.45 M37.91 9.15 C37.37 14.77, 37.72 18.82, 37.91 27.45 M37.91 27.45 C37.9 33.1, 33.69 37.77, 28.76 36.59 M37.91 27.45 C35.62 35.17, 35.17 36.63, 28.76 36.59 M28.76 36.59 C21.63 36.07, 17.66 35.14, 9.15 36.59 M28.76 36.59 C24.67 37.4, 18.62 37.49, 9.15 36.59 M9.15 36.59 C4.46 37.84, 0.69 33.61, 0 27.45 M9.15 36.59 C4.54 38.82, 0.57 32.27, 0 27.45 M0 27.45 C-1.63 19.72, 0.07 11.25, 0 9.15 M0 27.45 C-0.45 22.24, -0.07 16.98, 0 9.15 M0 9.15 C-0.36 4.94, 4.76 -0.22, 9.15 0 M0 9.15 C-0.65 3.9, 5.05 2.26, 9.15 0" stroke="#1971c2" stroke-width="2" fill="none"></path></g><g transform="translate(177.4627532958985 169.84992218017578) rotate(0 7.1199951171875 12.5)"><text x="7.1199951171875" y="17.52" font-family="Virgil, Segoe UI Emoji" font-size="20px" fill="#1971c2" text-anchor="middle" style="white-space: pre;" direction="ltr" dominant-baseline="alphabetic">2</text></g><g stroke-linecap="round" transform="translate(221.04582214355474 162.09249114990234) rotate(0 19.08026123046875 18.508514404296875)"><path d="M9.25 0 C14.06 -1.7, 18.1 0.69, 28.91 0 M9.25 0 C15.56 -0.41, 21.94 -0.19, 28.91 0 M28.91 0 C36.05 0.6, 37.39 4.83, 38.16 9.25 M28.91 0 C35.27 -1.75, 36.61 3.67, 38.16 9.25 M38.16 9.25 C37.89 15.58, 38.46 22.02, 38.16 27.76 M38.16 9.25 C38.13 15.4, 37.59 22.5, 38.16 27.76 M38.16 27.76 C36.17 35.35, 35.35 37.05, 28.91 37.02 M38.16 27.76 C37.5 31.81, 33.28 34.88, 28.91 37.02 M28.91 37.02 C22.21 35.81, 19.21 38.13, 9.25 37.02 M28.91 37.02 C22.37 37.78, 14.78 37.2, 9.25 37.02 M9.25 37.02 C4.38 38.95, 0.5 32.82, 0 27.76 M9.25 37.02 C5.38 35.84, -2.26 31.76, 0 27.76 M0 27.76 C-0.11 23.48, 0.57 16.75, 0 9.25 M0 27.76 C-0.17 22.73, 0.79 15.85, 0 9.25 M0 9.25 C-0.56 3.82, 4.83 1.97, 9.25 0 M0 9.25 C-0.77 2.28, 1.77 -1.05, 9.25 0" stroke="#e03131" stroke-width="2" fill="none"></path></g><g transform="translate(232.47608947753912 168.10100555419922) rotate(0 7.649993896484375 12.5)"><text x="7.649993896484375" y="17.52" font-family="Virgil, Segoe UI Emoji" font-size="20px" fill="#e03131" text-anchor="middle" style="white-space: pre;" direction="ltr" dominant-baseline="alphabetic">8</text></g><g stroke-linecap="round" transform="translate(13.45350646972662 217.50263214111328) rotate(0 17.24609375 17.766326904296875)"><path d="M8.62 0 C13.14 0.82, 19.4 -0.81, 25.87 0 M8.62 0 C12.71 -0.14, 16.24 -0.39, 25.87 0 M25.87 0 C32.56 -1.66, 35.73 3.89, 34.49 8.62 M25.87 0 C30.28 -1.69, 32.57 2.18, 34.49 8.62 M34.49 8.62 C34.84 14.21, 34.59 20.76, 34.49 26.91 M34.49 8.62 C34.3 12.34, 34.76 16.2, 34.49 26.91 M34.49 26.91 C34.62 31.99, 32.6 35.84, 25.87 35.53 M34.49 26.91 C36.5 32.43, 33.68 33.67, 25.87 35.53 M25.87 35.53 C20.27 35.17, 14.63 37.15, 8.62 35.53 M25.87 35.53 C18.95 35.78, 12.18 36.41, 8.62 35.53 M8.62 35.53 C2.52 36.86, -1.04 33.22, 0 26.91 M8.62 35.53 C3.88 34.19, 0.76 34.54, 0 26.91 M0 26.91 C-0.04 20.3, -0.57 17.32, 0 8.62 M0 26.91 C-0.41 23.11, 0.82 17.8, 0 8.62 M0 8.62 C-1.08 1.65, 4.31 1.66, 8.62 0 M0 8.62 C1.99 1.25, 2.96 0.96, 8.62 0" stroke="#f08c00" stroke-width="2" fill="none"></path></g><g transform="translate(21.109603881835994 222.76895904541016) rotate(0 9.589996337890625 12.5)"><text x="9.589996337890625" y="17.52" font-family="Virgil, Segoe UI Emoji" font-size="20px" fill="#f08c00" text-anchor="middle" style="white-space: pre;" direction="ltr" dominant-baseline="alphabetic">10</text></g><g stroke-linecap="round" transform="translate(65.6729583740235 218.54309844970703) rotate(0 18.955963134765625 18.297225952148438)"><path d="M9.15 0 C14.82 -1.45, 21.39 0.25, 28.76 0 M9.15 0 C14.83 -0.69, 20.21 0.62, 28.76 0 M28.76 0 C33.7 -1.47, 36.24 2.45, 37.91 9.15 M28.76 0 C35 0.89, 36.24 3.4, 37.91 9.15 M37.91 9.15 C36.29 13.3, 39.11 19.99, 37.91 27.45 M37.91 9.15 C38.05 14.05, 38.44 19.71, 37.91 27.45 M37.91 27.45 C39.66 33.35, 36.65 34.97, 28.76 36.59 M37.91 27.45 C37.51 33.37, 33.91 35.62, 28.76 36.59 M28.76 36.59 C25.14 35.4, 19.5 36.68, 9.15 36.59 M28.76 36.59 C22.5 37.41, 16.07 37.03, 9.15 36.59 M9.15 36.59 C3.92 35.43, 0.66 35.18, 0 27.45 M9.15 36.59 C3.19 36.96, 2.03 33.53, 0 27.45 M0 27.45 C-1.04 22.63, -0.12 17.59, 0 9.15 M0 27.45 C-0.65 20.21, 0.5 14.86, 0 9.15 M0 9.15 C1.73 1.64, 3.12 0.83, 9.15 0 M0 9.15 C-1.53 3.24, 2.82 0.86, 9.15 0" stroke="#1971c2" stroke-width="2" fill="none"></path></g><g transform="translate(74.79892730712896 224.34032440185547) rotate(0 9.829994201660156 12.5)"><text x="9.829994201660156" y="17.52" font-family="Virgil, Segoe UI Emoji" font-size="20px" fill="#1971c2" text-anchor="middle" style="white-space: pre;" direction="ltr" dominant-baseline="alphabetic">12</text></g><g stroke-linecap="round" transform="translate(115.442123413086 216.95397186279297) rotate(0 18.955963134765625 18.297225952148438)"><path d="M9.15 0 C12.85 -0.96, 16.64 0.9, 28.76 0 M9.15 0 C12.84 -0.82, 16.85 -0.4, 28.76 0 M28.76 0 C34.98 0.77, 36.45 3.35, 37.91 9.15 M28.76 0 C34.85 0.03, 39.09 1, 37.91 9.15 M37.91 9.15 C37.75 14.12, 37.74 17.59, 37.91 27.45 M37.91 9.15 C38.8 13.94, 38.82 18.16, 37.91 27.45 M37.91 27.45 C37.56 33.39, 34.04 35.75, 28.76 36.59 M37.91 27.45 C37.53 31.54, 37.11 38.86, 28.76 36.59 M28.76 36.59 C24.47 36.71, 21.39 36.24, 9.15 36.59 M28.76 36.59 C22.01 36.08, 14.72 37.45, 9.15 36.59 M9.15 36.59 C3.17 36.91, 1.77 33.54, 0 27.45 M9.15 36.59 C1.78 35.91, 2.01 32.16, 0 27.45 M0 27.45 C1.2 23.86, -0.64 16.15, 0 9.15 M0 27.45 C0.66 22.43, -0.1 19.09, 0 9.15 M0 9.15 C-1.33 3.22, 2.85 0.75, 9.15 0 M0 9.15 C-0.11 1.89, 2.75 -0.66, 9.15 0" stroke="#1971c2" stroke-width="2" fill="none"></path></g><g transform="translate(127.99809265136724 222.7511978149414) rotate(0 6.399993896484375 12.5)"><text x="6.399993896484375" y="17.52" font-family="Virgil, Segoe UI Emoji" font-size="20px" fill="#1971c2" text-anchor="middle" style="white-space: pre;" direction="ltr" dominant-baseline="alphabetic">4</text></g><g stroke-linecap="round" transform="translate(165.26100158691412 214.82329559326172) rotate(0 18.955963134765625 18.297225952148438)"><path d="M9.15 0 C12.46 1.12, 20.02 -1.23, 28.76 0 M9.15 0 C13.65 0.44, 17.32 0.21, 28.76 0 M28.76 0 C34.85 0.03, 38.94 1.27, 37.91 9.15 M28.76 0 C33.2 1.5, 37.77 2.7, 37.91 9.15 M37.91 9.15 C37.27 16.35, 38.17 23.34, 37.91 27.45 M37.91 9.15 C37.91 14.39, 37.7 19.38, 37.91 27.45 M37.91 27.45 C37.58 31.8, 36.82 38.56, 28.76 36.59 M37.91 27.45 C36.29 35.71, 34.73 36.83, 28.76 36.59 M28.76 36.59 C24.05 35.54, 17.28 37.42, 9.15 36.59 M28.76 36.59 C24.08 36.91, 20.15 36.75, 9.15 36.59 M9.15 36.59 C1.95 36, 1.75 32.34, 0 27.45 M9.15 36.59 C2.63 36.37, -1.12 35.03, 0 27.45 M0 27.45 C-1.06 21.71, 1.59 14.92, 0 9.15 M0 27.45 C-0.61 23.32, -0.1 19.39, 0 9.15 M0 9.15 C-0.1 2.04, 2.79 -0.57, 9.15 0 M0 9.15 C-1.71 1.45, 3.02 1.09, 9.15 0" stroke="#2f9e44" stroke-width="2" fill="none"></path></g><g transform="translate(177.09696960449224 220.62052154541016) rotate(0 7.1199951171875 12.5)"><text x="7.1199951171875" y="17.52" font-family="Virgil, Segoe UI Emoji" font-size="20px" fill="#2f9e44" text-anchor="middle" style="white-space: pre;" direction="ltr" dominant-baseline="alphabetic">2</text></g><g stroke-linecap="round" transform="translate(220.6800384521485 212.86309051513672) rotate(0 19.08026123046875 18.508514404296875)"><path d="M9.25 0 C14.92 -1.52, 22.88 0.23, 28.91 0 M9.25 0 C15.9 -0.02, 23.07 -0.9, 28.91 0 M28.91 0 C33.63 1.3, 38.04 2.78, 38.16 9.25 M28.91 0 C36.09 -0.36, 38.31 2.32, 38.16 9.25 M38.16 9.25 C38.01 17.37, 36.69 21.85, 38.16 27.76 M38.16 9.25 C37.93 13.86, 38.99 20.99, 38.16 27.76 M38.16 27.76 C36.75 35.82, 34.96 37.23, 28.91 37.02 M38.16 27.76 C38.31 35.84, 34.67 38.54, 28.91 37.02 M28.91 37.02 C22.89 37.75, 20.77 37.22, 9.25 37.02 M28.91 37.02 C22.16 36.72, 17.36 36.43, 9.25 37.02 M9.25 37.02 C2.72 36.82, -0.98 35.23, 0 27.76 M9.25 37.02 C5.05 36.19, -1.24 32.52, 0 27.76 M0 27.76 C-1.46 20.95, 0.62 12.77, 0 9.25 M0 27.76 C-0.03 21.59, -0.1 16.08, 0 9.25 M0 9.25 C-1.48 1.69, 3.05 0.94, 9.25 0 M0 9.25 C-1.68 1.5, 4.79 -0.65, 9.25 0" stroke="#e03131" stroke-width="2" fill="none"></path></g><g transform="translate(232.11030578613287 218.8716049194336) rotate(0 7.649993896484375 12.5)"><text x="7.649993896484375" y="17.52" font-family="Virgil, Segoe UI Emoji" font-size="20px" fill="#e03131" text-anchor="middle" style="white-space: pre;" direction="ltr" dominant-baseline="alphabetic">8</text></g></svg>