<svg version="1.1" xmlns="http://www.w3.org/2000/svg" viewBox="0 0 411.1058819712522 402.6810330157364" width="411.1058819712522" height="402.6810330157364">
  <!-- svg-source:excalidraw -->
  
  <defs>
    <style class="style-fonts">
      @font-face {
        font-family: "Virgil";
        src: url("https://excalidraw.com/Virgil.woff2");
      }
      @font-face {
        font-family: "Cascadia";
        src: url("https://excalidraw.com/Cascadia.woff2");
      }
      @font-face {
        font-family: "Assistant";
        src: url("https://excalidraw.com/Assistant-Regular.woff2");
      }
    </style>
    
  </defs>
  <g stroke-linecap="round" transform="translate(10 10) rotate(0 195.4971466064453 189.57918548583984)"><path d="M171.25 0.94 C187.54 -3.92, 207.43 0.35, 224.76 2.88 C242.1 5.4, 259.35 9.35, 275.26 16.07 C291.17 22.78, 306.87 32.08, 320.24 43.17 C333.6 54.26, 345.49 68.39, 355.42 82.58 C365.35 96.78, 373.77 112.26, 379.8 128.32 C385.83 144.38, 390.36 162.07, 391.59 178.93 C392.81 195.8, 390.94 212.88, 387.14 229.49 C383.35 246.09, 377.06 263.43, 368.82 278.56 C360.59 293.68, 349.97 307.8, 337.72 320.22 C325.48 332.64, 310.6 344.42, 295.36 353.07 C280.13 361.72, 263.25 367.67, 246.3 372.12 C229.36 376.57, 211.11 379.86, 193.69 379.75 C176.27 379.65, 158.49 376.32, 141.77 371.51 C125.06 366.69, 108.61 359.95, 93.39 350.84 C78.17 341.73, 62.44 329.52, 50.46 316.84 C38.47 304.16, 29.21 289.97, 21.49 274.77 C13.78 259.58, 7.6 242.34, 4.17 225.67 C0.74 209.01, -0.32 191.56, 0.92 174.79 C2.17 158.02, 5.55 140.93, 11.64 125.05 C17.72 109.18, 27.12 93.57, 37.42 79.53 C47.72 65.49, 59.86 51.47, 73.43 40.81 C86.99 30.15, 101.71 22.14, 118.81 15.54 C135.9 8.94, 165.33 3.07, 175.98 1.2 C186.64 -0.68, 182.42 1.2, 182.75 4.28 M206.06 1.03 C223.13 -0.98, 242.76 5.16, 259.77 10.38 C276.78 15.61, 293.78 22.57, 308.12 32.4 C322.46 42.22, 334.77 55.88, 345.79 69.34 C356.8 82.79, 367.2 97.73, 374.23 113.12 C381.25 128.51, 385.44 145.05, 387.95 161.66 C390.46 178.27, 391.52 195.95, 389.27 212.78 C387.01 229.62, 381.27 246.67, 374.43 262.68 C367.59 278.7, 358.97 295.54, 348.23 308.86 C337.5 322.18, 324.37 332.93, 310 342.59 C295.63 352.25, 278.62 360.66, 262.02 366.81 C245.42 372.97, 227.67 377.9, 210.4 379.52 C193.13 381.14, 175.6 380, 158.4 376.55 C141.21 373.1, 122.92 366.74, 107.24 358.82 C91.56 350.89, 77.34 340.54, 64.32 328.99 C51.3 317.44, 38.59 303.99, 29.11 289.53 C19.62 275.07, 12.21 258.46, 7.41 242.24 C2.61 226.02, 0.44 209.04, 0.3 192.19 C0.16 175.34, 2.16 157.94, 6.56 141.15 C10.96 124.36, 17.87 106.41, 26.73 91.46 C35.58 76.5, 46.83 63.13, 59.7 51.43 C72.57 39.74, 88.18 29.09, 103.93 21.28 C119.69 13.46, 137.21 8.06, 154.22 4.52 C171.22 0.97, 197.39 0.06, 205.96 0.02 C214.52 -0.02, 205.37 0.85, 205.61 4.26" stroke="#2f9e44" stroke-width="2" fill="none"></path></g><g stroke-linecap="round" transform="translate(34.449554443359375 36.88209533691406) rotate(0 171.374267578125 164.28622436523438)"><path d="M131.01 5.71 C145.82 -0.47, 164.57 -0.74, 181.23 -0.05 C197.89 0.64, 215.37 4.01, 230.97 9.83 C246.58 15.65, 261.61 24.88, 274.88 34.88 C288.16 44.88, 300.6 56.72, 310.64 69.83 C320.67 82.93, 329.64 98.34, 335.09 113.51 C340.53 128.69, 343.06 144.79, 343.32 160.87 C343.57 176.95, 341.28 194.43, 336.61 210 C331.95 225.56, 324.66 240.7, 315.31 254.27 C305.96 267.83, 293.61 281.19, 280.52 291.41 C267.42 301.63, 252.26 309.43, 236.73 315.6 C221.2 321.77, 203.95 326.9, 187.34 328.45 C170.74 330.01, 153.41 328.32, 137.1 324.95 C120.78 321.59, 104.48 316.18, 89.46 308.26 C74.44 300.33, 58.77 289.12, 46.99 277.39 C35.21 265.65, 26.13 252.23, 18.77 237.83 C11.42 223.44, 5.68 206.87, 2.85 191.01 C0.03 175.16, -0.28 158.48, 1.8 142.7 C3.88 126.93, 8.29 110.9, 15.35 96.36 C22.42 81.83, 32.94 67.72, 44.19 55.49 C55.44 43.25, 66.9 31.64, 82.85 22.94 C98.8 14.23, 128.68 6.25, 139.89 3.23 C151.1 0.21, 149.63 2.18, 150.08 4.81 M106.11 11.61 C119.73 3.51, 138.55 2.6, 155.54 1.28 C172.52 -0.04, 191.16 0.61, 208.01 3.68 C224.87 6.75, 242.08 11.68, 256.64 19.71 C271.21 27.74, 283.99 39.81, 295.39 51.84 C306.78 63.87, 317.66 77.62, 325.02 91.89 C332.38 106.17, 336.89 121.8, 339.55 137.47 C342.21 153.14, 343.31 170.02, 340.98 185.94 C338.65 201.85, 332.67 218.02, 325.56 232.96 C318.46 247.9, 309.41 263.61, 298.34 275.57 C287.26 287.52, 273.7 296.76, 259.12 304.69 C244.54 312.63, 227.32 319.09, 210.86 323.17 C194.41 327.25, 176.93 329.86, 160.38 329.15 C143.84 328.43, 127.3 324.75, 111.61 318.9 C95.92 313.04, 79.53 304.17, 66.24 294.03 C52.96 283.9, 41.64 271.35, 31.93 258.1 C22.22 244.85, 13.35 229.87, 7.99 214.53 C2.63 199.2, -0.15 182.07, -0.26 166.09 C-0.36 150.1, 2.59 133.9, 7.38 118.63 C12.17 103.36, 19.36 88.21, 28.49 74.44 C37.62 60.68, 49.29 46.53, 62.18 36.02 C75.07 25.51, 98.19 14.98, 105.85 11.37 C113.51 7.76, 106.84 11.68, 108.12 14.37" stroke="#2f9e44" stroke-width="2" fill="none"></path></g><g stroke-linecap="round"><g transform="translate(215.17398071289074 39.64488220214844) rotate(0 4.701690673828125 -13.989700317382812)"><path d="M-0.27 0.36 C1.27 -4.24, 7.38 -22.77, 9.07 -27.47 M0.6 0.07 C2.32 -4.68, 8.6 -23.36, 10.13 -28.17" stroke="#2f9e44" stroke-width="2" fill="none"></path></g></g><mask></mask><g stroke-linecap="round"><g transform="translate(273.18179321289074 48.59730529785156) rotate(0 6.23046875 -14.339492797851562)"><path d="M-0.33 0.51 C1.87 -4.3, 10.84 -23.66, 12.94 -28.52 M0.5 0.3 C2.69 -4.72, 10.86 -24.68, 12.76 -29.41" stroke="#2f9e44" stroke-width="2" fill="none"></path></g></g><mask></mask><g transform="translate(229.680389404297 21.072433471679688) rotate(0 15.459991455078125 12.5)"><text x="0" y="17.52" font-family="Virgil, Segoe UI Emoji" font-size="20px" fill="#2f9e44" text-anchor="start" style="white-space: pre;" direction="ltr" dominant-baseline="alphabetic">S1a</text></g><g stroke-linecap="round"><g transform="translate(355.3589113549798 120.08029275134436) rotate(0 10.15802001953125 -6.067108154296875)"><path d="M-0.17 0.01 C3.1 -2.11, 16.58 -10.5, 20.09 -12.57 M0.75 -0.46 C3.88 -2.54, 16.2 -10.18, 19.54 -12.09" stroke="#2f9e44" stroke-width="2" fill="none"></path></g></g><mask></mask><g stroke-linecap="round"><g transform="translate(385.22169414878056 177.72542177771902) rotate(68.71342304860887 0.7146913341319419 -12.111434674258476)"><path d="M-0.23 -0.43 C0.12 -4.51, 1.62 -20.61, 1.95 -24.49 M0.65 0.54 C0.99 -3.48, 1.63 -19.75, 1.79 -23.92" stroke="#2f9e44" stroke-width="2" fill="none"></path></g></g><mask></mask><g transform="translate(364.2335340539272 123.20513127202844) rotate(68.71342304860887 13.199989318847656 12.5)"><text x="0" y="17.52" font-family="Virgil, Segoe UI Emoji" font-size="20px" fill="#2f9e44" text-anchor="start" style="white-space: pre;" direction="ltr" dominant-baseline="alphabetic">S2</text></g><g stroke-linecap="round"><g transform="translate(245.61013632213144 382.36756795817223) rotate(111.5342048519639 11.760056858493556 -10.398435575883923)"><path d="M0.77 1.12 C4.62 -2.13, 20.53 -16.54, 24.26 -20.08 M-0.29 0.67 C3.37 -2.87, 19.95 -18.02, 23.69 -21.82" stroke="#2f9e44" stroke-width="2" fill="none"></path></g></g><mask></mask><g stroke-linecap="round"><g transform="translate(204.21009609132318 387.2758950646089) rotate(180.2476279005728 0.7146913341319419 -12.111434674258476)"><path d="M0.34 0.33 C0.49 -3.74, 1.05 -19.88, 1.26 -23.92 M-0.15 0.02 C-0.12 -3.98, 0.5 -20.59, 0.74 -24.73" stroke="#2f9e44" stroke-width="2" fill="none"></path></g></g><mask></mask><g transform="translate(222.4503725623349 365.4327783964616) rotate(353.1354478755893 19.55998992919922 12.5)"><text x="0" y="17.52" font-family="Virgil, Segoe UI Emoji" font-size="20px" fill="#2f9e44" text-anchor="start" style="white-space: pre;" direction="ltr" dominant-baseline="alphabetic">S3a</text></g><g stroke-linecap="round"><g transform="translate(66.25537051271203 329.9261202819705) rotate(159.8872824035692 10.15802001953125 -6.067108154296875)"><path d="M0.15 0.3 C3.56 -1.8, 16.91 -10.16, 20.33 -12.26 M-0.44 -0.03 C2.92 -2.06, 16.41 -9.67, 19.9 -11.62" stroke="#2f9e44" stroke-width="2" fill="none"></path></g></g><mask></mask><g stroke-linecap="round"><g transform="translate(39.423774160653466 294.6971014694118) rotate(228.60070545217815 0.7146913341319419 -12.111434674258476)"><path d="M0.01 -0.12 C0.28 -4.23, 1.59 -20.35, 1.78 -24.37 M-0.65 -0.66 C-0.43 -4.72, 1.31 -19.91, 1.53 -23.74" stroke="#2f9e44" stroke-width="2" fill="none"></path></g></g><mask></mask><g transform="translate(43.61299613381152 298.27903717372556) rotate(401.4885254271947 17.559982299804688 12.5)"><text x="0" y="17.52" font-family="Virgil, Segoe UI Emoji" font-size="20px" fill="#2f9e44" text-anchor="start" style="white-space: pre;" direction="ltr" dominant-baseline="alphabetic">S4b</text></g><g stroke-linecap="round"><g transform="translate(24.665406731020994 149.7571431486126) rotate(227.0903632366816 10.15802001953125 -6.067108154296875)"><path d="M-0.25 -0.04 C3.13 -1.97, 17.24 -9.83, 20.65 -11.75 M0.62 -0.53 C3.93 -2.61, 17.19 -10.55, 20.39 -12.53" stroke="#2f9e44" stroke-width="2" fill="none"></path></g></g><mask></mask><g stroke-linecap="round"><g transform="translate(58.239145512217874 106.42412743983209) rotate(295.8037862852905 0.7146913341319419 -12.111434674258476)"><path d="M0.33 0.38 C0.6 -3.56, 1.14 -19.51, 1.34 -23.7 M-0.16 0.1 C0.05 -3.98, 0.63 -20.31, 0.86 -24.4" stroke="#2f9e44" stroke-width="2" fill="none"></path></g></g><mask></mask><g transform="translate(23.956650071608692 111.84142321748641) rotate(468.6916062603071 17.339981079101562 12.5)"><text x="0" y="17.52" font-family="Virgil, Segoe UI Emoji" font-size="20px" fill="#2f9e44" text-anchor="start" style="white-space: pre;" direction="ltr" dominant-baseline="alphabetic">S5b</text></g><g stroke-linecap="round"><g transform="translate(304.6570000611042 69.84710653211846) rotate(29.425272167617962 4.701690673828125 -13.989700317382812)"><path d="M0.09 -0.54 C1.59 -5.26, 7.4 -23.24, 8.91 -27.78 M-0.53 0.37 C1.14 -4.28, 8.36 -23.8, 9.89 -28.64" stroke="#2f9e44" stroke-width="2" fill="none"></path></g></g><mask></mask><g stroke-linecap="round"><g transform="translate(341.9839352690475 105.00784001661123) rotate(29.425272167617962 6.517785797993781 -16.25878241724513)"><path d="M-0.5 0.2 C1.61 -5.09, 10.57 -26.86, 12.75 -32.28 M0.25 -0.17 C2.53 -5.58, 11.6 -27.61, 13.83 -33.13" stroke="#2f9e44" stroke-width="2" fill="none"></path></g></g><mask></mask><g transform="translate(301.7369466551037 59.360863129824565) rotate(29.425272167617962 27.439971923828125 12.5)"><text x="0" y="17.52" font-family="Virgil, Segoe UI Emoji" font-size="20px" fill="#2f9e44" text-anchor="start" style="white-space: pre;" direction="ltr" dominant-baseline="alphabetic">userA</text></g><g transform="translate(100.18997033042615 348.9581775977274) rotate(29.425272167617962 28.14997100830078 12.5)"><text x="0" y="17.52" font-family="Virgil, Segoe UI Emoji" font-size="20px" fill="#2f9e44" text-anchor="start" style="white-space: pre;" direction="ltr" dominant-baseline="alphabetic">userB</text></g><g stroke-linecap="round"><g transform="translate(96.00619635517899 345.2820326610265) rotate(0 -6.10201700010731 -5.093100412969989)"><path d="M-0.1 -0.13 C-2 -1.8, -9.95 -8.16, -11.9 -9.84 M-0.81 -0.67 C-2.73 -2.52, -10.31 -9.14, -12.18 -10.63" stroke="#1971c2" stroke-width="2" fill="none"></path></g><g transform="translate(96.00619635517899 345.2820326610265) rotate(0 -6.10201700010731 -5.093100412969989)"><path d="M-4.72 -7.89 C-6.44 -8.28, -7.71 -8.83, -12.18 -10.63 M-4.72 -7.89 C-6.81 -8.9, -9.05 -9.68, -12.18 -10.63" stroke="#1971c2" stroke-width="2" fill="none"></path></g><g transform="translate(96.00619635517899 345.2820326610265) rotate(0 -6.10201700010731 -5.093100412969989)"><path d="M-8.22 -3.74 C-9.19 -5.02, -9.7 -6.48, -12.18 -10.63 M-8.22 -3.74 C-9.27 -5.97, -10.47 -7.97, -12.18 -10.63" stroke="#1971c2" stroke-width="2" fill="none"></path></g></g><mask></mask><g transform="translate(77.39632191443593 38.925543522427915) rotate(329.55668294369406 27.319969177246094 12.5)"><text x="0" y="17.52" font-family="Virgil, Segoe UI Emoji" font-size="20px" fill="#2f9e44" text-anchor="start" style="white-space: pre;" direction="ltr" dominant-baseline="alphabetic">userC</text></g><g stroke-linecap="round"><g transform="translate(138.8494027784045 35.25212481002177) rotate(0 39.01101684570318 -5.464802166672143)"><path d="M0.77 -0.05 C13.54 -2.08, 64.26 -9.41, 77.24 -11.41 M-0.28 -1.13 C12.81 -3.06, 66.46 -8.42, 79.54 -10.12" stroke="#1971c2" stroke-width="2" fill="none"></path></g><g transform="translate(138.8494027784045 35.25212481002177) rotate(0 39.01101684570318 -5.464802166672143)"><path d="M57.16 1.02 C64.93 -4.38, 72.16 -6.01, 79.54 -10.12 M57.16 1.02 C61.85 -1.87, 66.27 -3.28, 79.54 -10.12" stroke="#1971c2" stroke-width="2" fill="none"></path></g><g transform="translate(138.8494027784045 35.25212481002177) rotate(0 39.01101684570318 -5.464802166672143)"><path d="M55.23 -15.97 C63.79 -15.36, 71.7 -10.97, 79.54 -10.12 M55.23 -15.97 C60.38 -15.35, 65.2 -13.26, 79.54 -10.12" stroke="#1971c2" stroke-width="2" fill="none"></path></g></g><mask></mask><g stroke-linecap="round"><g transform="translate(349.8827890088734 89.80467607955325) rotate(0 8.4375 12.736160278320312)"><path d="M-0.79 -0.48 C2 3.59, 14.47 20.17, 17.48 24.34 M1 -1.78 C3.62 2.4, 14.23 20.76, 16.86 25.29" stroke="#1971c2" stroke-width="2" fill="none"></path></g><g transform="translate(349.8827890088734 89.80467607955325) rotate(0 8.4375 12.736160278320312)"><path d="M5.14 15.49 C8.79 19.91, 12.24 23.23, 16.86 25.29 M5.14 15.49 C7.72 17.86, 9.9 19.76, 16.86 25.29" stroke="#1971c2" stroke-width="2" fill="none"></path></g><g transform="translate(349.8827890088734 89.80467607955325) rotate(0 8.4375 12.736160278320312)"><path d="M14.18 10.25 C14.54 16.52, 14.69 21.75, 16.86 25.29 M14.18 10.25 C14.75 13.72, 14.9 16.79, 16.86 25.29" stroke="#1971c2" stroke-width="2" fill="none"></path></g></g><mask></mask><g stroke-linecap="round"><g transform="translate(375.60783647773644 247.83298625309408) rotate(203.8665952760189 10.15802001953125 -6.067108154296875)"><path d="M0.42 0.47 C3.8 -1.57, 16.57 -9.68, 19.85 -11.84 M-0.04 0.24 C3.56 -1.99, 17.57 -10.6, 20.84 -12.65" stroke="#2f9e44" stroke-width="2" fill="none"></path></g></g><mask></mask><g stroke-linecap="round"><g transform="translate(388.0493711252734 197.6550512884421) rotate(272.5800183246278 0.7146913341319419 -12.111434674258476)"><path d="M-0.47 0.3 C-0.34 -3.88, 0.8 -20.56, 1.18 -24.56 M0.3 -0.03 C0.3 -3.9, 0.39 -19.95, 0.63 -24.04" stroke="#2f9e44" stroke-width="2" fill="none"></path></g></g><mask></mask><g transform="translate(365.11731108672575 209.69020844060788) rotate(445.46783829964426 18.92998504638672 12.5)"><text x="0" y="17.52" font-family="Virgil, Segoe UI Emoji" font-size="20px" fill="#2f9e44" text-anchor="start" style="white-space: pre;" direction="ltr" dominant-baseline="alphabetic">S5a</text></g><g stroke-linecap="round"><g transform="translate(351.463525066436 317.92048068132885) rotate(313.7650041690679 0.7146913341319419 -12.111434674258476)"><path d="M-0.41 0.17 C-0.13 -3.83, 1.59 -20.37, 1.92 -24.49 M0.37 -0.22 C0.61 -4.11, 1.59 -19.95, 1.74 -23.93" stroke="#2f9e44" stroke-width="2" fill="none"></path></g></g><mask></mask><g transform="translate(318.4569131760444 314.0335630000111) rotate(318.4832400092665 19.149986267089844 12.5)"><text x="0" y="17.52" font-family="Virgil, Segoe UI Emoji" font-size="20px" fill="#2f9e44" text-anchor="start" style="white-space: pre;" direction="ltr" dominant-baseline="alphabetic">S4a</text></g><g stroke-linecap="round"><g transform="translate(316.9714050746977 352.98168964103) rotate(313.7650041690679 0.7146913341319419 -12.111434674258476)"><path d="M-0.26 0.06 C-0.03 -3.93, 0.84 -20.17, 1.16 -24.23 M0.6 -0.39 C1.04 -4.25, 2.12 -19.64, 2.25 -23.53" stroke="#2f9e44" stroke-width="2" fill="none"></path></g></g><mask></mask><g stroke-linecap="round"><g transform="translate(349.8181694913502 88.92149400291987) rotate(0 21.36187744140625 48.28480529785156)"><path d="M1.14 1.07 C6.48 9.24, 25.1 32.82, 32.06 48.76 C39.02 64.7, 41.15 88.63, 42.89 96.71 M0.28 0.59 C5.42 8.92, 23.87 33.67, 30.86 49.92 C37.85 66.17, 40.25 90.59, 42.21 98.1" stroke="#e03131" stroke-width="2" fill="none"></path></g><g transform="translate(349.8181694913502 88.92149400291987) rotate(0 21.36187744140625 48.28480529785156)"><path d="M29.95 77.37 C35.41 82.75, 36.13 90.1, 42.21 98.1 M29.95 77.37 C33.4 83.39, 37.9 89.73, 42.21 98.1" stroke="#e03131" stroke-width="2" fill="none"></path></g><g transform="translate(349.8181694913502 88.92149400291987) rotate(0 21.36187744140625 48.28480529785156)"><path d="M46.14 74.34 C46.68 80.79, 42.5 89.07, 42.21 98.1 M46.14 74.34 C44.54 81.39, 43.99 88.68, 42.21 98.1" stroke="#e03131" stroke-width="2" fill="none"></path></g></g><mask></mask><g stroke-linecap="round"><g transform="translate(27.61567940593045 227.09414037079273) rotate(259.2055777981854 0.7146913341319419 -12.111434674258476)"><path d="M-0.39 -0.34 C-0.18 -4.38, 0.87 -20.86, 1.16 -24.76 M0.41 0.67 C0.81 -3.28, 2.16 -20.13, 2.25 -24.34" stroke="#2f9e44" stroke-width="2" fill="none"></path></g></g><mask></mask><g transform="translate(14.494927784230356 237.74124106732938) rotate(432.0933977732019 17.969985961914062 12.5)"><text x="0" y="17.52" font-family="Virgil, Segoe UI Emoji" font-size="20px" fill="#2f9e44" text-anchor="start" style="white-space: pre;" direction="ltr" dominant-baseline="alphabetic">S3b</text></g><g stroke-linecap="round"><g transform="translate(378.40152969819053 272.1682031343739) rotate(293.51225824946096 -0.5018808236906125 -14.125212524432186)"><path d="M-0.18 0.02 C-0.4 -4.58, -0.8 -22.95, -1.02 -27.74 M0.72 -0.45 C0.41 -5.18, -1.26 -23.79, -1.45 -28.44" stroke="#2f9e44" stroke-width="2" fill="none"></path></g></g><mask></mask><g transform="translate(351.744893740982 271.4771878914064) rotate(293.51225824946096 13.869987487792969 12.5)"><text x="0" y="17.52" font-family="Virgil, Segoe UI Emoji" font-size="20px" fill="#2f9e44" text-anchor="start" style="white-space: pre;" direction="ltr" dominant-baseline="alphabetic">S1b</text></g></svg>