<svg version="1.1" xmlns="http://www.w3.org/2000/svg" viewBox="0 0 410.9942932128906 402.2407253985489" width="410.9942932128906" height="402.2407253985489">
  <!-- svg-source:excalidraw -->
  
  <defs>
    <style class="style-fonts">
      @font-face {
        font-family: "Virgil";
        src: url("https://excalidraw.com/Virgil.woff2");
      }
      @font-face {
        font-family: "Cascadia";
        src: url("https://excalidraw.com/Cascadia.woff2");
      }
      @font-face {
        font-family: "Assistant";
        src: url("https://excalidraw.com/Assistant-Regular.woff2");
      }
    </style>
    
  </defs>
  <g stroke-linecap="round" transform="translate(10 10) rotate(0 195.4971466064453 189.57918548583984)"><path d="M154.47 4.77 C170.05 -1.64, 189.7 -0.38, 207.05 0.62 C224.39 1.61, 241.74 5.18, 258.55 10.75 C275.36 16.31, 293.39 24.3, 307.91 34 C322.44 43.7, 334.66 55.83, 345.69 68.97 C356.71 82.11, 366.7 97.45, 374.06 112.84 C381.43 128.22, 387.47 144.51, 389.89 161.27 C392.32 178.04, 391.07 196.33, 388.6 213.43 C386.13 230.53, 381.94 248.18, 375.07 263.89 C368.2 279.6, 358.3 294.29, 347.39 307.71 C336.48 321.12, 323.63 334.53, 309.62 344.38 C295.61 354.23, 279.9 361, 263.35 366.8 C246.8 372.61, 227.89 377.68, 210.32 379.21 C192.74 380.75, 175.02 379.29, 157.92 376.02 C140.82 372.74, 123.55 367.43, 107.71 359.58 C91.86 351.72, 76.02 340.62, 62.86 328.91 C49.69 317.19, 37.81 303.64, 28.71 289.31 C19.61 274.97, 12.92 259.43, 8.28 242.92 C3.63 226.4, 0.95 207.29, 0.85 190.22 C0.75 173.14, 3.37 156.64, 7.68 140.48 C11.98 124.31, 17.91 107.86, 26.67 93.22 C35.44 78.57, 47.33 64.65, 60.26 52.62 C73.19 40.58, 86.56 29.58, 104.26 20.99 C121.96 12.4, 153.97 3.78, 166.45 1.06 C178.93 -1.66, 178.45 1.32, 179.14 4.7 M193.09 0.87 C209.41 -2.92, 227.49 0.78, 244.17 4.86 C260.85 8.94, 277.66 16.7, 293.17 25.37 C308.68 34.04, 324.96 44.34, 337.21 56.91 C349.47 69.47, 358.55 85.77, 366.69 100.78 C374.82 115.78, 381.97 130.5, 386.01 146.93 C390.05 163.35, 391.91 182.33, 390.93 199.35 C389.95 216.37, 385.89 232.86, 380.14 249.03 C374.4 265.21, 366.43 282.36, 356.46 296.39 C346.48 310.42, 333.6 322.26, 320.29 333.22 C306.99 344.18, 292.44 355.1, 276.61 362.15 C260.79 369.19, 242.91 372.92, 225.33 375.5 C207.75 378.07, 188.73 379.59, 171.14 377.6 C153.55 375.62, 135.66 370.1, 119.78 363.59 C103.9 357.08, 89.3 348.78, 75.86 338.52 C62.42 328.26, 49.89 315.89, 39.14 302.01 C28.38 288.14, 17.61 271.18, 11.34 255.27 C5.08 239.36, 2.92 223.42, 1.55 206.55 C0.18 189.68, 0.02 170.75, 3.13 154.06 C6.25 137.36, 12.28 121.67, 20.25 106.38 C28.22 91.1, 39.36 75.35, 50.97 62.37 C62.58 49.39, 75.32 37.58, 89.92 28.5 C104.51 19.42, 121.37 12.68, 138.52 7.87 C155.68 3.07, 183.91 0.33, 192.84 -0.35 C201.76 -1.03, 192.09 0.49, 192.07 3.8" stroke="#2f9e44" stroke-width="2" fill="none"></path></g><g stroke-linecap="round" transform="translate(34.449554443359375 36.88209533691406) rotate(0 171.374267578125 164.28622436523438)"><path d="M201.01 2.78 C217.03 2.85, 233.53 11.08, 248.71 18.44 C263.89 25.79, 279.94 35.66, 292.07 46.92 C304.19 58.18, 313.6 71.83, 321.46 86.01 C329.33 100.19, 335.7 116.38, 339.26 132 C342.82 147.63, 344.62 163.8, 342.83 179.75 C341.03 195.71, 335.24 212.67, 328.48 227.73 C321.71 242.8, 313.06 257.76, 302.23 270.14 C291.41 282.52, 277.6 293.16, 263.53 302.02 C249.46 310.87, 233.74 318.99, 217.8 323.26 C201.86 327.53, 184.77 328.07, 167.91 327.63 C151.04 327.18, 132.61 325.51, 116.61 320.6 C100.61 315.68, 85.44 307.51, 71.91 298.15 C58.39 288.78, 45.79 277.39, 35.46 264.39 C25.13 251.39, 15.92 235.48, 9.95 220.13 C3.97 204.78, 0.3 188.27, -0.37 172.31 C-1.04 156.35, 1.51 140.16, 5.92 124.38 C10.32 108.61, 17.2 91.45, 26.03 77.65 C34.86 63.86, 46.57 52.01, 58.89 41.62 C71.22 31.23, 84.9 21.97, 100 15.33 C115.1 8.69, 130.96 3.77, 149.51 1.8 C168.05 -0.17, 199.58 2.29, 211.27 3.52 C222.97 4.75, 220.45 6.31, 219.65 9.18 M250.27 19.3 C265.81 24.06, 279.88 36.37, 291.64 47.14 C303.4 57.91, 313.06 70.01, 320.84 83.93 C328.61 97.85, 334.55 114.78, 338.27 130.67 C341.98 146.55, 344.74 162.85, 343.15 179.23 C341.56 195.61, 335.44 214.04, 328.72 228.94 C322.01 243.84, 313.47 256.42, 302.85 268.62 C292.24 280.82, 279.22 293.34, 265.02 302.14 C250.82 310.93, 234 316.95, 217.66 321.38 C201.32 325.82, 183.89 329.15, 166.97 328.74 C150.05 328.32, 131.97 324, 116.12 318.88 C100.28 313.76, 85.44 307.42, 71.91 298.02 C58.38 288.63, 45.36 275.37, 34.95 262.5 C24.53 249.63, 15.35 235.89, 9.4 220.78 C3.46 205.67, -0.21 187.97, -0.74 171.85 C-1.27 155.74, 1.74 139.48, 6.23 124.09 C10.72 108.7, 17.84 93.43, 26.21 79.51 C34.57 65.59, 43.93 51.23, 56.43 40.57 C68.93 29.9, 85.74 22.06, 101.2 15.49 C116.67 8.92, 132.67 3.15, 149.21 1.14 C165.75 -0.86, 183.7 0.73, 200.45 3.47 C217.2 6.21, 242.05 14.85, 249.71 17.59 C257.37 20.33, 247.96 17.46, 246.4 19.93" stroke="#2f9e44" stroke-width="2" fill="none"></path></g><g stroke-linecap="round"><g transform="translate(215.17398071289062 39.64488220214844) rotate(0 4.701690673828125 -13.989700317382812)"><path d="M0.19 0.16 C1.84 -4.55, 8.11 -23.32, 9.67 -28.1 M-0.37 -0.23 C1.25 -4.87, 7.77 -22.81, 9.38 -27.46" stroke="#2f9e44" stroke-width="2" fill="none"></path></g></g><mask></mask><g stroke-linecap="round"><g transform="translate(273.1817932128906 48.38069152832031) rotate(0 6.23046875 -14.339492797851562)"><path d="M0.27 -0.12 C2.34 -5.01, 10.55 -24.52, 12.61 -29.19 M-0.26 -0.66 C1.73 -5.51, 10.15 -24.04, 12.26 -28.75" stroke="#2f9e44" stroke-width="2" fill="none"></path></g></g><mask></mask><g transform="translate(229.68038940429688 20.855819702148438) rotate(0 8.789993286132812 12.5)"><text x="0" y="17.52" font-family="Virgil, Segoe UI Emoji" font-size="20px" fill="#2f9e44" text-anchor="start" style="white-space: pre;" direction="ltr" dominant-baseline="alphabetic">S1</text></g><g stroke-linecap="round"><g transform="translate(355.3589113549797 120.08029275134436) rotate(0 10.15802001953125 -6.067108154296875)"><path d="M0.17 0.53 C3.55 -1.45, 17.04 -10.27, 20.41 -12.39 M-0.41 0.33 C2.89 -1.53, 16.61 -9.82, 20.03 -11.82" stroke="#2f9e44" stroke-width="2" fill="none"></path></g></g><mask></mask><g stroke-linecap="round"><g transform="translate(385.22169414878044 177.72542177771902) rotate(68.71342304860887 0.7146913341319419 -12.111434674258476)"><path d="M0.1 -0.25 C0.33 -4.39, 1.31 -20.38, 1.55 -24.28 M-0.51 0.81 C-0.36 -3.01, 0.89 -19.4, 1.18 -23.62" stroke="#2f9e44" stroke-width="2" fill="none"></path></g></g><mask></mask><g transform="translate(364.2335340539273 123.20513127202844) rotate(68.71342304860887 13.199989318847656 12.5)"><text x="0" y="17.52" font-family="Virgil, Segoe UI Emoji" font-size="20px" fill="#2f9e44" text-anchor="start" style="white-space: pre;" direction="ltr" dominant-baseline="alphabetic">S2</text></g><g stroke-linecap="round"><g transform="translate(250.43651591027674 381.11629532549614) rotate(111.5342048519639 10.15802001953125 -6.067108154296875)"><path d="M0.1 0.52 C3.38 -1.57, 16.45 -10.42, 19.78 -12.56 M-0.51 0.31 C2.92 -1.72, 17.39 -10.06, 20.74 -12.08" stroke="#2f9e44" stroke-width="2" fill="none"></path></g></g><mask></mask><g stroke-linecap="round"><g transform="translate(204.43739101319807 387.05220121695265) rotate(180.2476279005728 0.7146913341319419 -12.111434674258476)"><path d="M-0.54 -0.43 C-0.36 -4.59, 0.84 -20.39, 1.18 -24.42 M0.19 0.54 C0.27 -3.31, 0.45 -19.7, 0.63 -23.83" stroke="#2f9e44" stroke-width="2" fill="none"></path></g></g><mask></mask><g transform="translate(222.7254815098638 365.78968640009) rotate(353.1354478755893 12.889991760253906 12.5)"><text x="0" y="17.52" font-family="Virgil, Segoe UI Emoji" font-size="20px" fill="#2f9e44" text-anchor="start" style="white-space: pre;" direction="ltr" dominant-baseline="alphabetic">S3</text></g><g stroke-linecap="round"><g transform="translate(66.25537051271203 329.9261202819705) rotate(159.8872824035692 10.15802001953125 -6.067108154296875)"><path d="M0.1 -0.41 C3.5 -2.39, 16.7 -10.21, 20.14 -12.08 M-0.51 0.57 C2.83 -1.3, 16.09 -9.18, 19.62 -11.36" stroke="#2f9e44" stroke-width="2" fill="none"></path></g></g><mask></mask><g stroke-linecap="round"><g transform="translate(39.200019277840966 294.6971014694118) rotate(228.60070545217815 0.7146913341319419 -12.111434674258476)"><path d="M-0.18 0.05 C0.12 -3.83, 1.69 -19.68, 1.87 -23.73 M0.73 -0.4 C0.99 -4.39, 1.46 -20.56, 1.67 -24.44" stroke="#2f9e44" stroke-width="2" fill="none"></path></g></g><mask></mask><g transform="translate(44.6638706831161 294.6970794307465) rotate(401.4885254271947 12.479988098144531 12.5)"><text x="0" y="17.52" font-family="Virgil, Segoe UI Emoji" font-size="20px" fill="#2f9e44" text-anchor="start" style="white-space: pre;" direction="ltr" dominant-baseline="alphabetic">S4</text></g><g stroke-linecap="round"><g transform="translate(24.665406731020994 149.7571431486126) rotate(227.0903632366816 10.15802001953125 -6.067108154296875)"><path d="M-0.49 -0.05 C2.88 -2.1, 17.13 -9.83, 20.65 -11.78 M0.26 -0.56 C3.55 -2.52, 17.03 -10.55, 20.39 -12.56" stroke="#2f9e44" stroke-width="2" fill="none"></path></g></g><mask></mask><g stroke-linecap="round"><g transform="translate(58.239145512217874 106.42412743983209) rotate(295.8037862852905 0.7146913341319419 -12.111434674258476)"><path d="M0.33 0.36 C0.7 -3.6, 1.44 -19.68, 1.71 -23.81 M-0.16 0.07 C0.2 -4.04, 1.09 -20.57, 1.43 -24.57" stroke="#2f9e44" stroke-width="2" fill="none"></path></g></g><mask></mask><g transform="translate(30.66465146464452 107.02936194670747) rotate(468.6916062603071 12.259986877441406 12.5)"><text x="0" y="17.52" font-family="Virgil, Segoe UI Emoji" font-size="20px" fill="#2f9e44" text-anchor="start" style="white-space: pre;" direction="ltr" dominant-baseline="alphabetic">S5</text></g><g stroke-linecap="round"><g transform="translate(304.6570000611041 69.84710653211846) rotate(29.425272167617962 4.701690673828125 -13.989700317382812)"><path d="M0.54 -0.2 C2.03 -4.98, 7.79 -23.72, 9.26 -28.3 M0.15 -0.77 C1.53 -5.53, 7.28 -23.13, 8.75 -27.76" stroke="#2f9e44" stroke-width="2" fill="none"></path></g></g><mask></mask><g stroke-linecap="round"><g transform="translate(341.9839352690476 105.00784001661123) rotate(29.425272167617962 6.517785797993781 -16.25878241724513)"><path d="M-0.15 -0.32 C1.93 -5.65, 10.73 -26.9, 12.99 -32.19 M0.78 0.71 C2.73 -4.76, 10.45 -27.39, 12.54 -32.99" stroke="#2f9e44" stroke-width="2" fill="none"></path></g></g><mask></mask><g transform="translate(301.73694665510357 59.360863129824565) rotate(29.425272167617962 27.439971923828125 12.5)"><text x="0" y="17.52" font-family="Virgil, Segoe UI Emoji" font-size="20px" fill="#2f9e44" text-anchor="start" style="white-space: pre;" direction="ltr" dominant-baseline="alphabetic">userA</text></g><g transform="translate(100.18997033042615 348.9581775977274) rotate(29.425272167617962 28.14997100830078 12.5)"><text x="0" y="17.52" font-family="Virgil, Segoe UI Emoji" font-size="20px" fill="#2f9e44" text-anchor="start" style="white-space: pre;" direction="ltr" dominant-baseline="alphabetic">userB</text></g><g stroke-linecap="round"><g transform="translate(96.05112396981099 345.20238115767825) rotate(0 -10.0941162109375 -8.467681884765625)"><path d="M-1.07 1.02 C-4.47 -2.17, -16.48 -14.98, -19.5 -18.1 M0.56 0.51 C-3 -2.06, -16.76 -14.29, -20.09 -17.18" stroke="#1971c2" stroke-width="2" fill="none"></path></g><g transform="translate(96.05112396981099 345.20238115767825) rotate(0 -10.0941162109375 -8.467681884765625)"><path d="M-7.81 -12.4 C-11.3 -13.54, -18.26 -14.97, -20.09 -17.18 M-7.81 -12.4 C-11.36 -13.74, -14.27 -15.1, -20.09 -17.18" stroke="#1971c2" stroke-width="2" fill="none"></path></g><g transform="translate(96.05112396981099 345.20238115767825) rotate(0 -10.0941162109375 -8.467681884765625)"><path d="M-13.75 -5.63 C-15.09 -9.22, -19.84 -13.18, -20.09 -17.18 M-13.75 -5.63 C-15.94 -8.56, -17.45 -11.51, -20.09 -17.18" stroke="#1971c2" stroke-width="2" fill="none"></path></g></g><mask></mask><g transform="translate(77.39632191443593 38.9255435224278) rotate(329.55668294369406 27.319969177246094 12.5)"><text x="0" y="17.52" font-family="Virgil, Segoe UI Emoji" font-size="20px" fill="#2f9e44" text-anchor="start" style="white-space: pre;" direction="ltr" dominant-baseline="alphabetic">userC</text></g><g stroke-linecap="round"><g transform="translate(138.84940277840474 35.035511040490746) rotate(0 39.011016845703125 -5.5042572021484375)"><path d="M0.99 -0.78 C13.99 -2.4, 66.02 -9.12, 78.67 -10.89 M0.06 1.43 C12.89 0.12, 64.88 -7.33, 78.06 -9.29" stroke="#1971c2" stroke-width="2" fill="none"></path></g><g transform="translate(138.84940277840474 35.035511040490746) rotate(0 39.011016845703125 -5.5042572021484375)"><path d="M56.04 2.54 C62.72 -0.79, 72.08 -8.03, 78.06 -9.29 M56.04 2.54 C62.29 0.49, 68.37 -3.63, 78.06 -9.29" stroke="#1971c2" stroke-width="2" fill="none"></path></g><g transform="translate(138.84940277840474 35.035511040490746) rotate(0 39.011016845703125 -5.5042572021484375)"><path d="M53.58 -14.38 C60.98 -11.69, 71.21 -12.89, 78.06 -9.29 M53.58 -14.38 C60.33 -11.91, 67.05 -11.53, 78.06 -9.29" stroke="#1971c2" stroke-width="2" fill="none"></path></g></g><mask></mask><g stroke-linecap="round"><g transform="translate(349.8827890088735 89.80467607955325) rotate(0 8.4375 12.736160278320312)"><path d="M0.65 0.12 C3.1 4.43, 13.2 20.98, 15.71 25.06 M-0.47 -0.86 C2.24 3.68, 14.74 21.99, 17.81 26.39" stroke="#1971c2" stroke-width="2" fill="none"></path></g><g transform="translate(349.8827890088735 89.80467607955325) rotate(0 8.4375 12.736160278320312)"><path d="M5.37 17.52 C10.22 19.36, 14.31 22.72, 17.81 26.39 M5.37 17.52 C8.63 19.41, 11.73 22.22, 17.81 26.39" stroke="#1971c2" stroke-width="2" fill="none"></path></g><g transform="translate(349.8827890088735 89.80467607955325) rotate(0 8.4375 12.736160278320312)"><path d="M13.98 11.6 C15.5 15.75, 16.29 21.38, 17.81 26.39 M13.98 11.6 C15.28 14.93, 16.4 19.1, 17.81 26.39" stroke="#1971c2" stroke-width="2" fill="none"></path></g></g><mask></mask><g stroke-linecap="round"><g transform="translate(348.8053741455078 87.03582900786819) rotate(0 -19.875732421875 141.21270751953125)"><path d="M-0.41 -0.96 C6.16 23.07, 52.12 95.69, 39.39 143.03 C26.66 190.38, -57.13 259.78, -76.81 283.09 M1.57 1.15 C8.1 25.41, 52.15 97.45, 39.06 144.1 C25.97 190.76, -57.33 258.34, -76.97 281.1" stroke="#e03131" stroke-width="2" fill="none"></path></g><g transform="translate(348.8053741455078 87.03582900786819) rotate(0 -19.875732421875 141.21270751953125)"><path d="M-66.25 258.52 C-71.22 267.11, -74.27 273.71, -76.97 281.1 M-66.25 258.52 C-70.55 267.57, -73.76 275.42, -76.97 281.1" stroke="#e03131" stroke-width="2" fill="none"></path></g><g transform="translate(348.8053741455078 87.03582900786819) rotate(0 -19.875732421875 141.21270751953125)"><path d="M-54.24 270.7 C-62.63 275.66, -69.23 278.67, -76.97 281.1 M-54.24 270.7 C-62.74 275.47, -70.22 278.98, -76.97 281.1" stroke="#e03131" stroke-width="2" fill="none"></path></g></g><mask></mask></svg>