<svg version="1.1" xmlns="http://www.w3.org/2000/svg" viewBox="0 0 619.5999450683594 258.00001525878906" width="619.5999450683594" height="258.00001525878906">
  <!-- svg-source:excalidraw -->
  
  <defs>
    <style class="style-fonts">
      @font-face {
        font-family: "Virgil";
        src: url("https://excalidraw.com/Virgil.woff2");
      }
      @font-face {
        font-family: "Cascadia";
        src: url("https://excalidraw.com/Cascadia.woff2");
      }
      @font-face {
        font-family: "Assistant";
        src: url("https://excalidraw.com/Assistant-Regular.woff2");
      }
    </style>
    
  </defs>
  <g stroke-linecap="round" transform="translate(12.399993896484375 75.10000610351562) rotate(0 77.60000610351562 17.5)"><path d="M8.75 0 C62.19 -2.16, 116.61 -1.86, 146.45 0 M8.75 0 C53.05 -0.83, 98.47 -0.84, 146.45 0 M146.45 0 C153.67 -1.84, 157.06 2.35, 155.2 8.75 M146.45 0 C153.61 -1.5, 155.96 1.5, 155.2 8.75 M155.2 8.75 C155.49 15.14, 156.15 19.09, 155.2 26.25 M155.2 8.75 C154.74 15.94, 155.43 21.97, 155.2 26.25 M155.2 26.25 C154.83 33.66, 153.86 34.26, 146.45 35 M155.2 26.25 C155.47 30.32, 153.06 36.51, 146.45 35 M146.45 35 C98.01 33.61, 49.34 35.37, 8.75 35 M146.45 35 C108.69 34.23, 71.38 35.56, 8.75 35 M8.75 35 C1.12 36.82, -0.82 30.94, 0 26.25 M8.75 35 C4.41 34.26, -0.75 30.68, 0 26.25 M0 26.25 C-0.04 20.64, 1.86 16.81, 0 8.75 M0 26.25 C-0.22 21.36, 0.03 15.45, 0 8.75 M0 8.75 C1.06 2.05, 3.7 -0.76, 8.75 0 M0 8.75 C-1.53 4.32, 4.27 -0.21, 8.75 0" stroke="#2f9e44" stroke-width="2" fill="none"></path></g><g transform="translate(26.31005859375 80.10000610351562) rotate(0 63.68994140625 12.5)"><text x="63.68994140625" y="17.52" font-family="Virgil, Segoe UI Emoji" font-size="20px" fill="#2f9e44" text-anchor="middle" style="white-space: pre;" direction="ltr" dominant-baseline="alphabetic">Harry Potter</text></g><g stroke-linecap="round" transform="translate(10 133.00001525878906) rotate(0 77.60000610351562 30)"><path d="M15 0 C47.74 -0.78, 82.73 1.02, 140.2 0 M15 0 C61.06 -0.27, 106.64 0.26, 140.2 0 M140.2 0 C150.14 -1.07, 154.56 4.79, 155.2 15 M140.2 0 C152.15 -1.18, 155.43 6.74, 155.2 15 M155.2 15 C153.2 24.41, 156.59 33.96, 155.2 45 M155.2 15 C155.52 21.77, 154.27 29.25, 155.2 45 M155.2 45 C155.17 55.64, 148.23 60.99, 140.2 60 M155.2 45 C154.44 56.62, 148.44 58.43, 140.2 60 M140.2 60 C104.85 61.53, 64.38 58.32, 15 60 M140.2 60 C95.58 60.54, 52.6 60.61, 15 60 M15 60 C4.99 61.87, -1.45 56.86, 0 45 M15 60 C6.31 58, 1.87 56.69, 0 45 M0 45 C-0.9 33.58, 1.78 21.44, 0 15 M0 45 C0.56 36.62, -0.89 27.85, 0 15 M0 15 C-1.46 4.41, 3.28 1.41, 15 0 M0 15 C1.44 5.8, 3.45 -0.73, 15 0" stroke="#2f9e44" stroke-width="2" fill="none"></path></g><g transform="translate(43.12004852294922 138.00001525878906) rotate(0 44.479957580566406 25)"><text x="44.479957580566406" y="17.52" font-family="Virgil, Segoe UI Emoji" font-size="20px" fill="#2f9e44" text-anchor="middle" style="white-space: pre;" direction="ltr" dominant-baseline="alphabetic">Hermione </text><text x="44.479957580566406" y="42.519999999999996" font-family="Virgil, Segoe UI Emoji" font-size="20px" fill="#2f9e44" text-anchor="middle" style="white-space: pre;" direction="ltr" dominant-baseline="alphabetic">Granger</text></g><g stroke-linecap="round" transform="translate(11.000030517578125 213.00001525878906) rotate(0 77.60000610351562 17.5)"><path d="M8.75 0 C61.65 -1.42, 111.87 1.27, 146.45 0 M8.75 0 C48.65 -0.45, 90.5 -1.91, 146.45 0 M146.45 0 C151.95 -1.46, 154.61 1.2, 155.2 8.75 M146.45 0 C153.9 1.44, 156 1.36, 155.2 8.75 M155.2 8.75 C156.17 12.17, 153.69 18.61, 155.2 26.25 M155.2 8.75 C154.86 12.56, 155.9 15.4, 155.2 26.25 M155.2 26.25 C154.8 31.18, 152.41 36.5, 146.45 35 M155.2 26.25 C153.68 30.69, 154.55 36.67, 146.45 35 M146.45 35 C91.54 35.01, 41.21 35.67, 8.75 35 M146.45 35 C106.39 33.41, 67.62 33.98, 8.75 35 M8.75 35 C2.38 35.07, -1.04 33.52, 0 26.25 M8.75 35 C1.53 34.73, -0.71 30.79, 0 26.25 M0 26.25 C-1.48 20.49, 0.01 14.09, 0 8.75 M0 26.25 C-0.23 19.79, 0.82 14.43, 0 8.75 M0 8.75 C-1.91 3.73, 3.82 -1.75, 8.75 0 M0 8.75 C-1.21 1.97, 3.27 -1.49, 8.75 0" stroke="#2f9e44" stroke-width="2" fill="none"></path></g><g transform="translate(28.790077209472656 218.00001525878906) rotate(0 59.809959411621094 12.5)"><text x="59.809959411621094" y="17.52" font-family="Virgil, Segoe UI Emoji" font-size="20px" fill="#2f9e44" text-anchor="middle" style="white-space: pre;" direction="ltr" dominant-baseline="alphabetic">Ron Weasley</text></g><g stroke-linecap="round" transform="translate(249.20004272460938 124.70002746582031) rotate(0 92 34)"><path d="M17 0 C51.28 1, 83.42 -1.9, 167 0 M17 0 C52.74 -1.08, 87.43 -0.72, 167 0 M167 0 C179.96 0.25, 185.16 5.21, 184 17 M167 0 C178.46 -1.17, 184.09 7.08, 184 17 M184 17 C182.06 26.45, 185.26 31.49, 184 51 M184 17 C184.43 28.1, 184.19 39.88, 184 51 M184 51 C183.68 63.54, 178.19 69.43, 167 68 M184 51 C183.88 63.97, 176.88 67.48, 167 68 M167 68 C111.38 66.77, 56.08 66.97, 17 68 M167 68 C126.86 67.74, 86.76 67.65, 17 68 M17 68 C4.23 68.66, -1.39 60.92, 0 51 M17 68 C5 66.28, -0.87 62.83, 0 51 M0 51 C-0.18 38.72, 0.58 31.21, 0 17 M0 51 C0.19 38.26, -0.45 23.72, 0 17 M0 17 C-0.07 3.94, 7.56 0.91, 17 0 M0 17 C-0.04 5.99, 7.61 0.13, 17 0" stroke="#1971c2" stroke-width="2" fill="none"></path></g><g transform="translate(275.94010162353516 146.2000274658203) rotate(0 65.25994110107422 12.5)"><text x="65.25994110107422" y="17.52" font-family="Virgil, Segoe UI Emoji" font-size="20px" fill="#1971c2" text-anchor="middle" style="white-space: pre;" direction="ltr" dominant-baseline="alphabetic">hash function</text></g><g stroke-linecap="round"><g transform="translate(169.99996948242188 91.90000915527344) rotate(0 40 32.399993896484375)"><path d="M1.1 0.9 C14.49 11.95, 66.33 54.42, 79.49 65.21 M0.22 0.33 C13.49 11.1, 65.09 52.73, 78.28 63.3" stroke="#1971c2" stroke-width="2" fill="none"></path></g><g transform="translate(169.99996948242188 91.90000915527344) rotate(0 40 32.399993896484375)"><path d="M54.61 55.23 C61.46 56.01, 66.06 58.82, 78.28 63.3 M54.61 55.23 C62.65 57.87, 72.43 61.07, 78.28 63.3" stroke="#1971c2" stroke-width="2" fill="none"></path></g><g transform="translate(169.99996948242188 91.90000915527344) rotate(0 40 32.399993896484375)"><path d="M65.33 41.91 C69.61 45.84, 71.75 51.7, 78.28 63.3 M65.33 41.91 C69.37 49.53, 75.19 57.65, 78.28 63.3" stroke="#1971c2" stroke-width="2" fill="none"></path></g></g><mask></mask><g stroke-linecap="round" transform="translate(540.4001159667969 53.50001525878906) rotate(0 30.79998779296875 17.599998474121094)"><path d="M8.8 0 C26 1.5, 40.45 1.7, 52.8 0 M8.8 0 C20.19 0.97, 31.88 0.04, 52.8 0 M52.8 0 C59.67 0.39, 60.85 2.35, 61.6 8.8 M52.8 0 C59.75 1.39, 60.65 2.81, 61.6 8.8 M61.6 8.8 C60.09 14.11, 63.16 18.2, 61.6 26.4 M61.6 8.8 C61.01 16.61, 61.81 23.22, 61.6 26.4 M61.6 26.4 C59.62 32.35, 60.2 35.4, 52.8 35.2 M61.6 26.4 C62.68 33.47, 57.54 32.95, 52.8 35.2 M52.8 35.2 C38.03 34.16, 20.77 33.98, 8.8 35.2 M52.8 35.2 C43.91 35.66, 34.37 36.27, 8.8 35.2 M8.8 35.2 C2.98 35.29, 0.57 33.3, 0 26.4 M8.8 35.2 C5.22 36.46, -1.4 31.16, 0 26.4 M0 26.4 C0.94 24.21, -1.31 18.68, 0 8.8 M0 26.4 C-0.56 20.9, 0.63 14.79, 0 8.8 M0 8.8 C1.09 2.5, 1.47 -0.11, 8.8 0 M0 8.8 C0.52 3.12, 1.78 0.52, 8.8 0" stroke="#e03131" stroke-width="2" fill="none"></path></g><g transform="translate(561.8201065063477 58.600013732910156) rotate(0 9.379997253417969 12.5)"><text x="9.379997253417969" y="17.52" font-family="Virgil, Segoe UI Emoji" font-size="20px" fill="#e03131" text-anchor="middle" style="white-space: pre;" direction="ltr" dominant-baseline="alphabetic">1a</text></g><g stroke-linecap="round" transform="translate(544.3999938964844 120.50000762939453) rotate(0 30.79998779296875 17.599998474121094)"><path d="M8.8 0 C19.08 -0.33, 31.06 -0.58, 52.8 0 M8.8 0 C21.74 0.99, 34.53 -0.78, 52.8 0 M52.8 0 C56.93 -0.04, 61.28 1.84, 61.6 8.8 M52.8 0 C57.59 -2.07, 62.2 0.64, 61.6 8.8 M61.6 8.8 C62.66 15.69, 61.67 20.89, 61.6 26.4 M61.6 8.8 C61.6 13.64, 60.86 16.28, 61.6 26.4 M61.6 26.4 C63.27 32.01, 59.92 35.54, 52.8 35.2 M61.6 26.4 C60.15 33.91, 58.19 33.87, 52.8 35.2 M52.8 35.2 C42.81 37.04, 29.54 34.43, 8.8 35.2 M52.8 35.2 C39.91 34.74, 26.82 35, 8.8 35.2 M8.8 35.2 C2.01 36.79, -1.45 30.41, 0 26.4 M8.8 35.2 C3.31 37.36, 1.34 30.34, 0 26.4 M0 26.4 C0.69 20.13, 1.03 14.49, 0 8.8 M0 26.4 C0.2 21.76, -0.65 18.01, 0 8.8 M0 8.8 C-0.35 4.62, 2.49 -1.33, 8.8 0 M0 8.8 C0.69 0.75, 3.92 1.37, 8.8 0" stroke="#e03131" stroke-width="2" fill="none"></path></g><g transform="translate(562.9999923706055 125.60000610351562) rotate(0 12.199989318847656 12.5)"><text x="12.199989318847656" y="17.52" font-family="Virgil, Segoe UI Emoji" font-size="20px" fill="#e03131" text-anchor="middle" style="white-space: pre;" direction="ltr" dominant-baseline="alphabetic">2b</text></g><g stroke-linecap="round" transform="translate(547.9999694824219 194.49999237060547) rotate(0 30.79998779296875 17.599998474121094)"><path d="M8.8 0 C19.38 1.64, 30.34 -1.8, 52.8 0 M8.8 0 C21.88 0.62, 36.67 0.1, 52.8 0 M52.8 0 C59.46 0.62, 62.77 4.9, 61.6 8.8 M52.8 0 C57.53 1.38, 60.62 3.73, 61.6 8.8 M61.6 8.8 C61.18 15.11, 61.1 17.28, 61.6 26.4 M61.6 8.8 C61.96 14.75, 60.65 19.96, 61.6 26.4 M61.6 26.4 C60.12 30.85, 59.18 36.26, 52.8 35.2 M61.6 26.4 C63.51 30.11, 59.22 36.9, 52.8 35.2 M52.8 35.2 C44.2 33.16, 31.83 35.25, 8.8 35.2 M52.8 35.2 C36.86 35.58, 20.12 36.27, 8.8 35.2 M8.8 35.2 C4.66 35.73, -1.2 30.39, 0 26.4 M8.8 35.2 C4.42 34.57, -0.67 31.73, 0 26.4 M0 26.4 C1.29 22.18, 1.01 14.8, 0 8.8 M0 26.4 C-0.76 22.7, 0.48 17.38, 0 8.8 M0 8.8 C-0.37 1.31, 4.41 -0.11, 8.8 0 M0 8.8 C1.78 3.76, 2.66 1.37, 8.8 0" stroke="#e03131" stroke-width="2" fill="none"></path></g><g transform="translate(566.9699630737305 199.59999084472656) rotate(0 11.829994201660156 12.5)"><text x="11.829994201660156" y="17.52" font-family="Virgil, Segoe UI Emoji" font-size="20px" fill="#e03131" text-anchor="middle" style="white-space: pre;" direction="ltr" dominant-baseline="alphabetic">3c</text></g><g stroke-linecap="round"><g transform="translate(433.54318904522347 157.73304614413973) rotate(0 54 -8.399993896484375)"><path d="M0.33 -1.08 C18.35 -3.82, 88.98 -13.87, 107.02 -16.54 M-0.95 0.97 C17.53 -2.15, 91.05 -15.71, 109.22 -18.53" stroke="#1971c2" stroke-width="2" fill="none"></path></g><g transform="translate(433.54318904522347 157.73304614413973) rotate(0 54 -8.399993896484375)"><path d="M87.51 -6.13 C90.26 -10.41, 97.02 -10.47, 109.22 -18.53 M87.51 -6.13 C92.75 -9.5, 99.24 -12.57, 109.22 -18.53" stroke="#1971c2" stroke-width="2" fill="none"></path></g><g transform="translate(433.54318904522347 157.73304614413973) rotate(0 54 -8.399993896484375)"><path d="M84.62 -22.98 C87.96 -23.75, 95.32 -20.29, 109.22 -18.53 M84.62 -22.98 C90.7 -21.67, 97.99 -20.09, 109.22 -18.53" stroke="#1971c2" stroke-width="2" fill="none"></path></g></g><mask></mask><g transform="translate(68.4000244140625 17.5) rotate(0 23.119972229003906 12.5)"><text x="0" y="17.52" font-family="Virgil, Segoe UI Emoji" font-size="20px" fill="#e03131" text-anchor="start" style="white-space: pre;" direction="ltr" dominant-baseline="alphabetic">input</text></g><g transform="translate(547.2799911499023 10) rotate(0 21.97998046875 12.5)"><text x="0" y="17.52" font-family="Virgil, Segoe UI Emoji" font-size="20px" fill="#e03131" text-anchor="start" style="white-space: pre;" direction="ltr" dominant-baseline="alphabetic">hash</text></g><g stroke-linecap="round"><g transform="translate(171.60000610351562 160.6999969482422) rotate(0 38.399993896484375 0.4000091552734375)"><path d="M-1.09 0.2 C11.94 0.42, 64.16 1.49, 77.32 1.77 M0.54 -0.74 C13.53 -0.88, 63.79 0.02, 76.65 0.16" stroke="#f08c00" stroke-width="2" fill="none"></path></g><g transform="translate(171.60000610351562 160.6999969482422) rotate(0 38.399993896484375 0.4000091552734375)"><path d="M53.04 8.37 C58.78 7.56, 65.51 6.59, 76.65 0.16 M53.04 8.37 C62.46 5.32, 71.49 2.26, 76.65 0.16" stroke="#f08c00" stroke-width="2" fill="none"></path></g><g transform="translate(171.60000610351562 160.6999969482422) rotate(0 38.399993896484375 0.4000091552734375)"><path d="M53.28 -8.73 C59.03 -5.6, 65.71 -2.63, 76.65 0.16 M53.28 -8.73 C62.61 -5.15, 71.55 -1.59, 76.65 0.16" stroke="#f08c00" stroke-width="2" fill="none"></path></g></g><mask></mask><g stroke-linecap="round"><g transform="translate(433.4821073889732 155.39465324772027) rotate(0 49.199981689453125 -41.99999237060547)"><path d="M0.73 0.67 C17.08 -13.16, 82.53 -69.17, 98.64 -83.24 M-0.34 -0.02 C15.83 -14.17, 81.14 -71.25, 97.82 -84.97" stroke="#f08c00" stroke-width="2" fill="none"></path></g><g transform="translate(433.4821073889732 155.39465324772027) rotate(0 49.199981689453125 -41.99999237060547)"><path d="M85.48 -63.22 C90.89 -70.36, 95.27 -79.93, 97.82 -84.97 M85.48 -63.22 C89.29 -70.76, 92.58 -76.13, 97.82 -84.97" stroke="#f08c00" stroke-width="2" fill="none"></path></g><g transform="translate(433.4821073889732 155.39465324772027) rotate(0 49.199981689453125 -41.99999237060547)"><path d="M74.39 -76.24 C83.58 -78.98, 91.77 -84.07, 97.82 -84.97 M74.39 -76.24 C81.67 -79.5, 88.5 -80.7, 97.82 -84.97" stroke="#f08c00" stroke-width="2" fill="none"></path></g></g><mask></mask><g stroke-linecap="round"><g transform="translate(167.60000610351562 226.3000030517578) rotate(0 39.600006103515625 -23.199996948242188)"><path d="M0.87 0.34 C14.27 -7.34, 66.05 -38.91, 79.21 -46.81 M-0.13 -0.53 C13.22 -7.97, 65.01 -37.9, 78.26 -45.49" stroke="#2f9e44" stroke-width="2" fill="none"></path></g><g transform="translate(167.60000610351562 226.3000030517578) rotate(0 39.600006103515625 -23.199996948242188)"><path d="M62.16 -26.36 C66.09 -30.33, 68.08 -33.16, 78.26 -45.49 M62.16 -26.36 C65.59 -30.09, 70.08 -35.41, 78.26 -45.49" stroke="#2f9e44" stroke-width="2" fill="none"></path></g><g transform="translate(167.60000610351562 226.3000030517578) rotate(0 39.600006103515625 -23.199996948242188)"><path d="M53.63 -41.19 C59.19 -42.22, 62.9 -42.07, 78.26 -45.49 M53.63 -41.19 C59.22 -41.25, 65.8 -42.94, 78.26 -45.49" stroke="#2f9e44" stroke-width="2" fill="none"></path></g></g><mask></mask><g stroke-linecap="round"><g transform="translate(432.85981977108395 158.13602126836759) rotate(0 56 27.599990844726562)"><path d="M-1.19 0.48 C17.24 9.55, 92.71 45.34, 111.61 54.62 M0.39 -0.31 C18.54 8.89, 91.93 46.74, 110.46 55.85" stroke="#2f9e44" stroke-width="2" fill="none"></path></g><g transform="translate(432.85981977108395 158.13602126836759) rotate(0 56 27.599990844726562)"><path d="M85.64 52.89 C95.97 53.63, 103.73 55.79, 110.46 55.85 M85.64 52.89 C95.1 54.78, 105.36 55.85, 110.46 55.85" stroke="#2f9e44" stroke-width="2" fill="none"></path></g><g transform="translate(432.85981977108395 158.13602126836759) rotate(0 56 27.599990844726562)"><path d="M93.35 37.63 C100.75 44.14, 105.55 52.16, 110.46 55.85 M93.35 37.63 C100 45.35, 107.33 52.23, 110.46 55.85" stroke="#2f9e44" stroke-width="2" fill="none"></path></g></g><mask></mask></svg>