<svg version="1.1" xmlns="http://www.w3.org/2000/svg" viewBox="0 0 460.2599639892578 477.2999725341797" width="460.2599639892578" height="477.2999725341797">
  <!-- svg-source:excalidraw -->
  
  <defs>
    <style class="style-fonts">
      @font-face {
        font-family: "Virgil";
        src: url("https://excalidraw.com/Virgil.woff2");
      }
      @font-face {
        font-family: "Cascadia";
        src: url("https://excalidraw.com/Cascadia.woff2");
      }
      @font-face {
        font-family: "Assistant";
        src: url("https://excalidraw.com/Assistant-Regular.woff2");
      }
    </style>
    
  </defs>
  <g stroke-linecap="round" transform="translate(139.45993041992188 14.199996948242188) rotate(0 24 19.599990844726562)"><path d="M9.8 0 C16.97 1.76, 22.99 -1.12, 38.2 0 M9.8 0 C18.3 -0.76, 26.4 0.83, 38.2 0 M38.2 0 C44.08 -1.3, 49.52 1.61, 48 9.8 M38.2 0 C45.31 1.62, 46.95 2.3, 48 9.8 M48 9.8 C48.81 17.29, 49.53 19.76, 48 29.4 M48 9.8 C48.84 15.92, 48.45 21.41, 48 29.4 M48 29.4 C47.74 36.49, 45.3 39.56, 38.2 39.2 M48 29.4 C49.71 34.39, 43.83 40.96, 38.2 39.2 M38.2 39.2 C30.46 38.37, 20.42 40.25, 9.8 39.2 M38.2 39.2 C32 39.94, 24.68 39.58, 9.8 39.2 M9.8 39.2 C3.33 37.76, 1.87 35.25, 0 29.4 M9.8 39.2 C5.21 38.33, 1.92 35.65, 0 29.4 M0 29.4 C0.16 23.17, 0.3 14.38, 0 9.8 M0 29.4 C0.81 25.33, -0.13 20.94, 0 9.8 M0 9.8 C0.61 3.71, 2.53 0.16, 9.8 0 M0 9.8 C-1.14 1.91, 1.99 1.93, 9.8 0" stroke="#1971c2" stroke-width="2" fill="none"></path></g><g transform="translate(153.86993408203125 21.29998779296875) rotate(0 9.589996337890625 12.5)"><text x="9.589996337890625" y="17.52" font-family="Virgil, Segoe UI Emoji" font-size="20px" fill="#1971c2" text-anchor="middle" style="white-space: pre;" direction="ltr" dominant-baseline="alphabetic">10</text></g><g stroke-linecap="round" transform="translate(205.05996704101562 12.999969482421875) rotate(0 24 19.599990844726562)"><path d="M9.8 0 C17.3 -1.38, 24.15 1.66, 38.2 0 M9.8 0 C16.79 0, 23.19 0.02, 38.2 0 M38.2 0 C46.42 -0.25, 47.69 1.68, 48 9.8 M38.2 0 C44.81 -0.93, 48.52 5.33, 48 9.8 M48 9.8 C48.48 17.1, 47.01 21.08, 48 29.4 M48 9.8 C48.79 17.17, 47.3 24.16, 48 29.4 M48 29.4 C48.11 34.15, 45.79 37.7, 38.2 39.2 M48 29.4 C49.48 33.78, 45.68 38.16, 38.2 39.2 M38.2 39.2 C28.48 40.44, 21.15 37.43, 9.8 39.2 M38.2 39.2 C32.83 38.37, 25.39 39.64, 9.8 39.2 M9.8 39.2 C3.98 39.37, 0.14 34.86, 0 29.4 M9.8 39.2 C3.12 37.28, 2.16 35.04, 0 29.4 M0 29.4 C1.43 25.2, -1.71 21.4, 0 9.8 M0 29.4 C0.78 23.08, 0.82 16.94, 0 9.8 M0 9.8 C-0.48 2.64, 2.26 -1.86, 9.8 0 M0 9.8 C-1.78 3.81, 4.73 -1.65, 9.8 0" stroke="#1971c2" stroke-width="2" fill="none"></path></g><g transform="translate(219.22997283935547 20.099960327148438) rotate(0 9.829994201660156 12.5)"><text x="9.829994201660156" y="17.52" font-family="Virgil, Segoe UI Emoji" font-size="20px" fill="#1971c2" text-anchor="middle" style="white-space: pre;" direction="ltr" dominant-baseline="alphabetic">12</text></g><g stroke-linecap="round" transform="translate(269.0599060058594 11.399993896484375) rotate(0 24 19.599990844726562)"><path d="M9.8 0 C20.33 0.88, 32.77 -1.08, 38.2 0 M9.8 0 C16.6 0.43, 23.8 -0.02, 38.2 0 M38.2 0 C45.41 1.62, 48.6 2.45, 48 9.8 M38.2 0 C46.19 0.46, 47.61 4.8, 48 9.8 M48 9.8 C49.44 12.67, 49.35 19.89, 48 29.4 M48 9.8 C48.07 15.77, 47.62 19.45, 48 29.4 M48 29.4 C49.56 35.01, 46.44 41.17, 38.2 39.2 M48 29.4 C47.93 34.22, 46.06 41.04, 38.2 39.2 M38.2 39.2 C33.27 40.07, 25.37 40.04, 9.8 39.2 M38.2 39.2 C27.4 39.74, 15.89 39.77, 9.8 39.2 M9.8 39.2 C2.25 40.19, -1.65 36.24, 0 29.4 M9.8 39.2 C5.33 37.92, 1.89 34.74, 0 29.4 M0 29.4 C-1.33 23.8, 1.93 17.4, 0 9.8 M0 29.4 C0.26 23.16, 0.71 18.27, 0 9.8 M0 9.8 C-1.21 1.8, 3.21 0.58, 9.8 0 M0 9.8 C-1.95 3.98, 4.55 -1.49, 9.8 0" stroke="#1971c2" stroke-width="2" fill="none"></path></g><g transform="translate(286.659912109375 18.499984741210938) rotate(0 6.399993896484375 12.5)"><text x="6.399993896484375" y="17.52" font-family="Virgil, Segoe UI Emoji" font-size="20px" fill="#1971c2" text-anchor="middle" style="white-space: pre;" direction="ltr" dominant-baseline="alphabetic">4</text></g><g stroke-linecap="round" transform="translate(329.0599060058594 11.399993896484375) rotate(0 24 19.599990844726562)"><path d="M9.8 0 C19.61 -0.84, 25.47 -1.19, 38.2 0 M9.8 0 C18.56 0.8, 26.05 0.68, 38.2 0 M38.2 0 C44.62 -1.13, 46.7 3.9, 48 9.8 M38.2 0 C44.35 -0.62, 50.03 3.19, 48 9.8 M48 9.8 C49.51 15.42, 47.52 20.21, 48 29.4 M48 9.8 C48.69 14.91, 48.61 21.3, 48 29.4 M48 29.4 C47.77 36.74, 45.37 40.21, 38.2 39.2 M48 29.4 C47.18 33.83, 43.66 38.93, 38.2 39.2 M38.2 39.2 C30.08 39.61, 19.91 38.34, 9.8 39.2 M38.2 39.2 C32.09 38.66, 26.39 39.54, 9.8 39.2 M9.8 39.2 C3.13 37.25, 0.43 36.5, 0 29.4 M9.8 39.2 C3.89 40.98, 0.41 34.68, 0 29.4 M0 29.4 C0.9 25.81, 2.02 21.27, 0 9.8 M0 29.4 C-0.51 24.62, -0.6 18.48, 0 9.8 M0 9.8 C0.86 4.03, 4.75 -0.02, 9.8 0 M0 9.8 C-1.12 2.5, 2.06 -1.57, 9.8 0" stroke="#1971c2" stroke-width="2" fill="none"></path></g><g transform="translate(345.9399108886719 18.499984741210938) rotate(0 7.1199951171875 12.5)"><text x="7.1199951171875" y="17.52" font-family="Virgil, Segoe UI Emoji" font-size="20px" fill="#1971c2" text-anchor="middle" style="white-space: pre;" direction="ltr" dominant-baseline="alphabetic">2</text></g><g stroke-linecap="round" transform="translate(393.8599548339844 10) rotate(0 24 19.599990844726562)"><path d="M9.8 0 C17.58 1.56, 22.91 1.94, 38.2 0 M9.8 0 C18.2 1.04, 25.48 0.38, 38.2 0 M38.2 0 C45.15 -1.82, 48.69 2.3, 48 9.8 M38.2 0 C46.45 -0.17, 45.93 2.19, 48 9.8 M48 9.8 C48.77 12.98, 47.93 17.52, 48 29.4 M48 9.8 C48.86 15.59, 48.14 21.76, 48 29.4 M48 29.4 C49.11 37.12, 45.49 37.77, 38.2 39.2 M48 29.4 C46.17 33.68, 45.75 38.44, 38.2 39.2 M38.2 39.2 C27.46 39.24, 14.97 41, 9.8 39.2 M38.2 39.2 C27.07 39.52, 16.01 38.69, 9.8 39.2 M9.8 39.2 C1.51 39.72, -1.68 34.18, 0 29.4 M9.8 39.2 C4.45 40.68, 0.12 35.02, 0 29.4 M0 29.4 C-0.49 25.87, -0.22 21.19, 0 9.8 M0 29.4 C0.3 24.48, -0.8 18.48, 0 9.8 M0 9.8 C1.69 4.86, 1.57 -0.82, 9.8 0 M0 9.8 C-0.22 3.16, 1.39 -0.37, 9.8 0" stroke="#1971c2" stroke-width="2" fill="none"></path></g><g transform="translate(410.2099609375 17.099990844726562) rotate(0 7.649993896484375 12.5)"><text x="7.649993896484375" y="17.52" font-family="Virgil, Segoe UI Emoji" font-size="20px" fill="#1971c2" text-anchor="middle" style="white-space: pre;" direction="ltr" dominant-baseline="alphabetic">8</text></g><g transform="translate(21.859954833984375 55.80003356933594) rotate(0 44.90996551513672 12.5)"><text x="0" y="17.52" font-family="Virgil, Segoe UI Emoji" font-size="20px" fill="#1971c2" text-anchor="start" style="white-space: pre;" direction="ltr" dominant-baseline="alphabetic">hash map</text></g><g stroke-linecap="round" transform="translate(137.05990600585938 88.19998168945312) rotate(0 24 19.599990844726562)"><path d="M9.8 0 C18.15 -0.01, 25.57 -1.51, 38.2 0 M9.8 0 C16.08 -0.49, 22.81 0.51, 38.2 0 M38.2 0 C45.82 0.62, 48.42 3.98, 48 9.8 M38.2 0 C45.49 -0.45, 47.29 1.31, 48 9.8 M48 9.8 C48.99 17.23, 46.34 24.19, 48 29.4 M48 9.8 C48.52 14.32, 47.24 19.5, 48 29.4 M48 29.4 C48.67 35.07, 44.46 39.35, 38.2 39.2 M48 29.4 C46.36 37, 46.7 39.55, 38.2 39.2 M38.2 39.2 C30.76 41, 24.19 40, 9.8 39.2 M38.2 39.2 C27.62 38.86, 18.91 39.83, 9.8 39.2 M9.8 39.2 C1.93 41.12, -1.7 34.54, 0 29.4 M9.8 39.2 C1.26 37.65, 1.65 35.02, 0 29.4 M0 29.4 C-0.69 25.89, -0.46 22.46, 0 9.8 M0 29.4 C-0.5 25.28, -0.18 20.55, 0 9.8 M0 9.8 C0.21 4.65, 3.1 0.71, 9.8 0 M0 9.8 C0.51 2.22, 1.94 0.56, 9.8 0" stroke="#1971c2" stroke-width="2" fill="none"></path></g><g transform="translate(158.34990692138672 95.29997253417969) rotate(0 2.7099990844726562 12.5)"><text x="2.7099990844726562" y="17.52" font-family="Virgil, Segoe UI Emoji" font-size="20px" fill="#1971c2" text-anchor="middle" style="white-space: pre;" direction="ltr" dominant-baseline="alphabetic">1</text></g><g stroke-linecap="round"><g transform="translate(158.50717879306808 54.39997863769531) rotate(0 -0.0648220013339369 16.400001525878906)"><path d="M-0.49 -0.02 C-0.45 5.61, -0.37 27.91, -0.23 33.35 M0.26 -0.51 C0.26 5.03, -0.72 27.06, -0.71 32.67" stroke="#1971c2" stroke-width="2" fill="none"></path></g><g transform="translate(158.50717879306808 54.39997863769531) rotate(0 -0.0648220013339369 16.400001525878906)"><path d="M-5.95 17.12 C-4.91 20.39, -2.91 24.71, -0.71 32.67 M-5.95 17.12 C-4.49 21.09, -3.18 24.95, -0.71 32.67" stroke="#1971c2" stroke-width="2" fill="none"></path></g><g transform="translate(158.50717879306808 54.39997863769531) rotate(0 -0.0648220013339369 16.400001525878906)"><path d="M5.27 17.39 C3.86 20.55, 3.41 24.81, -0.71 32.67 M5.27 17.39 C3.77 21.32, 2.12 25.1, -0.71 32.67" stroke="#1971c2" stroke-width="2" fill="none"></path></g></g><mask></mask><g stroke-linecap="round" transform="translate(208.25997924804688 87.75486340592988) rotate(0 24 19.599990844726562)"><path d="M9.8 0 C19.13 -0.07, 31.03 1.32, 38.2 0 M9.8 0 C18.01 0.65, 26.4 -1.09, 38.2 0 M38.2 0 C43.33 0.58, 47.22 4.83, 48 9.8 M38.2 0 C45.72 0.87, 48.84 3.29, 48 9.8 M48 9.8 C46.43 16.41, 48.13 22.51, 48 29.4 M48 9.8 C48 13.93, 47.67 18.39, 48 29.4 M48 29.4 C48.24 34.38, 46.23 39.17, 38.2 39.2 M48 29.4 C46.64 34.41, 45.6 39.6, 38.2 39.2 M38.2 39.2 C28.29 40.25, 19.24 39.3, 9.8 39.2 M38.2 39.2 C32.17 38.63, 23.81 40.31, 9.8 39.2 M9.8 39.2 C4.1 40.99, -1.16 36.67, 0 29.4 M9.8 39.2 C2.2 39.76, 2.19 33.9, 0 29.4 M0 29.4 C1.59 26.31, 1.65 21.89, 0 9.8 M0 29.4 C0.69 23.65, -0.65 19.61, 0 9.8 M0 9.8 C-0.78 4.36, 3.07 1.9, 9.8 0 M0 9.8 C1.59 1.26, 4.04 -1.97, 9.8 0" stroke="#1971c2" stroke-width="2" fill="none"></path></g><g transform="translate(229.54998016357422 94.85485425065644) rotate(0 2.7099990844726562 12.5)"><text x="2.7099990844726562" y="17.52" font-family="Virgil, Segoe UI Emoji" font-size="20px" fill="#1971c2" text-anchor="middle" style="white-space: pre;" direction="ltr" dominant-baseline="alphabetic">1</text></g><g stroke-linecap="round"><g transform="translate(229.70725203525558 53.95486035417207) rotate(0 -0.0648220013339369 16.400001525878906)"><path d="M0.36 -0.1 C0.34 5.49, -0.1 27.63, -0.16 33.19 M-0.12 -0.63 C-0.22 4.84, -0.58 26.92, -0.61 32.43" stroke="#1971c2" stroke-width="2" fill="none"></path></g><g transform="translate(229.70725203525558 53.95486035417207) rotate(0 -0.0648220013339369 16.400001525878906)"><path d="M-6.04 16.95 C-4.64 21.46, -2.29 26.26, -0.61 32.43 M-6.04 16.95 C-4.19 23.06, -1.97 29.22, -0.61 32.43" stroke="#1971c2" stroke-width="2" fill="none"></path></g><g transform="translate(229.70725203525558 53.95486035417207) rotate(0 -0.0648220013339369 16.400001525878906)"><path d="M5.18 17.09 C3.27 21.59, 2.29 26.35, -0.61 32.43 M5.18 17.09 C2.71 23.09, 0.61 29.2, -0.61 32.43" stroke="#1971c2" stroke-width="2" fill="none"></path></g></g><mask></mask><g stroke-linecap="round" transform="translate(269.8599548339844 86.954845095383) rotate(0 24 19.599990844726562)"><path d="M9.8 0 C18.22 0.96, 21.56 -0.7, 38.2 0 M9.8 0 C16.2 -0.54, 21.8 0.91, 38.2 0 M38.2 0 C42.99 0.83, 46.11 2.93, 48 9.8 M38.2 0 C46.59 1.34, 49 3.62, 48 9.8 M48 9.8 C46.3 18.97, 47.38 25.64, 48 29.4 M48 9.8 C48.17 14.82, 48.98 20.87, 48 29.4 M48 29.4 C49.65 37.36, 46.26 40.29, 38.2 39.2 M48 29.4 C48.89 37.15, 44.05 40.48, 38.2 39.2 M38.2 39.2 C26.29 40.05, 16.69 38.29, 9.8 39.2 M38.2 39.2 C26.18 39, 16.22 39.14, 9.8 39.2 M9.8 39.2 C1.29 39.68, -0.95 35.88, 0 29.4 M9.8 39.2 C3.04 40.31, -0.3 36.68, 0 29.4 M0 29.4 C-1.59 22.02, 1.99 14.02, 0 9.8 M0 29.4 C0.09 22.32, 0.06 16.37, 0 9.8 M0 9.8 C0.59 3.05, 2.72 1.25, 9.8 0 M0 9.8 C1.78 1.67, 4.7 -1.36, 9.8 0" stroke="#1971c2" stroke-width="2" fill="none"></path></g><g transform="translate(291.1499557495117 94.05483594010957) rotate(0 2.7099990844726562 12.5)"><text x="2.7099990844726562" y="17.52" font-family="Virgil, Segoe UI Emoji" font-size="20px" fill="#1971c2" text-anchor="middle" style="white-space: pre;" direction="ltr" dominant-baseline="alphabetic">1</text></g><g stroke-linecap="round"><g transform="translate(291.3072276211931 53.154842043625194) rotate(0 -0.0648220013339369 16.400001525878906)"><path d="M-0.25 -0.5 C-0.28 5.03, -0.04 27.21, 0.02 32.7 M0.62 0.43 C0.51 6.08, -0.21 27.94, -0.33 33.35" stroke="#1971c2" stroke-width="2" fill="none"></path></g><g transform="translate(291.3072276211931 53.154842043625194) rotate(0 -0.0648220013339369 16.400001525878906)"><path d="M-5.5 17.79 C-4.56 23.28, -2.22 28.69, -0.33 33.35 M-5.5 17.79 C-4.61 21.69, -3.39 25.2, -0.33 33.35" stroke="#1971c2" stroke-width="2" fill="none"></path></g><g transform="translate(291.3072276211931 53.154842043625194) rotate(0 -0.0648220013339369 16.400001525878906)"><path d="M5.71 18.11 C2.87 23.47, 1.42 28.76, -0.33 33.35 M5.71 18.11 C3.9 21.98, 2.42 25.41, -0.33 33.35" stroke="#1971c2" stroke-width="2" fill="none"></path></g></g><mask></mask><g stroke-linecap="round" transform="translate(330.6599426269531 84.55485119889863) rotate(0 24 19.599990844726562)"><path d="M9.8 0 C18.91 1.1, 27.94 -1.39, 38.2 0 M9.8 0 C16.02 1.18, 21.54 -0.08, 38.2 0 M38.2 0 C43.49 -0.74, 49.96 4.6, 48 9.8 M38.2 0 C46.47 -0.74, 46.42 4.34, 48 9.8 M48 9.8 C47 16.31, 47.12 17.86, 48 29.4 M48 9.8 C48.73 16.78, 47.47 23.2, 48 29.4 M48 29.4 C47.05 34.39, 46.04 37.87, 38.2 39.2 M48 29.4 C46.04 37.91, 44.81 41.1, 38.2 39.2 M38.2 39.2 C30.27 38.32, 25.66 38.67, 9.8 39.2 M38.2 39.2 C30.22 40.02, 20.3 40.24, 9.8 39.2 M9.8 39.2 C2.8 40.1, 0.08 36.71, 0 29.4 M9.8 39.2 C4.82 37.5, -1.48 33.75, 0 29.4 M0 29.4 C1.23 24.67, -1.72 20.26, 0 9.8 M0 29.4 C-0.57 23.92, -0.7 20.54, 0 9.8 M0 9.8 C0.77 3.87, 1.31 -0.28, 9.8 0 M0 9.8 C-1 1.4, 4.69 2.26, 9.8 0" stroke="#1971c2" stroke-width="2" fill="none"></path></g><g transform="translate(351.94994354248047 91.6548420436252) rotate(0 2.7099990844726562 12.5)"><text x="2.7099990844726562" y="17.52" font-family="Virgil, Segoe UI Emoji" font-size="20px" fill="#1971c2" text-anchor="middle" style="white-space: pre;" direction="ltr" dominant-baseline="alphabetic">1</text></g><g stroke-linecap="round"><g transform="translate(352.10721541416183 50.75484814714082) rotate(0 -0.0648220013339369 16.400001525878906)"><path d="M-0.43 -0.45 C-0.49 4.88, -0.17 26.63, -0.12 32.25 M0.35 0.51 C0.19 5.86, -0.41 27.34, -0.54 32.67" stroke="#1971c2" stroke-width="2" fill="none"></path></g><g transform="translate(352.10721541416183 50.75484814714082) rotate(0 -0.0648220013339369 16.400001525878906)"><path d="M-5.74 17.12 C-4.57 22.54, -2.91 27.92, -0.54 32.67 M-5.74 17.12 C-4.02 23.04, -1.33 29.53, -0.54 32.67" stroke="#1971c2" stroke-width="2" fill="none"></path></g><g transform="translate(352.10721541416183 50.75484814714082) rotate(0 -0.0648220013339369 16.400001525878906)"><path d="M5.48 17.42 C2.76 22.69, 0.54 27.97, -0.54 32.67 M5.48 17.42 C2.83 23.2, 1.13 29.58, -0.54 32.67" stroke="#1971c2" stroke-width="2" fill="none"></path></g></g><mask></mask><g stroke-linecap="round" transform="translate(396.2599792480469 86.15485730241426) rotate(0 24 19.599990844726562)"><path d="M9.8 0 C15.05 1.47, 22.69 -1.19, 38.2 0 M9.8 0 C17.01 -0.68, 23.06 -0.22, 38.2 0 M38.2 0 C45.08 0.67, 46.95 3.55, 48 9.8 M38.2 0 C44.9 0.21, 46.62 1.89, 48 9.8 M48 9.8 C47.38 14.91, 49.12 18.85, 48 29.4 M48 9.8 C47.1 13.68, 47.32 17.7, 48 29.4 M48 29.4 C47.25 34.28, 44.61 37.83, 38.2 39.2 M48 29.4 C49.99 34.41, 42.57 38.3, 38.2 39.2 M38.2 39.2 C34.25 40.26, 26.49 39.44, 9.8 39.2 M38.2 39.2 C31.17 39.08, 23.34 39.72, 9.8 39.2 M9.8 39.2 C1.62 40.05, -0.22 35.35, 0 29.4 M9.8 39.2 C4.66 40.68, 2.17 33.72, 0 29.4 M0 29.4 C-0.95 22.64, 0.44 20.92, 0 9.8 M0 29.4 C-0.07 22.49, 0.17 18.18, 0 9.8 M0 9.8 C1.44 1.48, 3.75 1.33, 9.8 0 M0 9.8 C1.11 4.36, 2.72 -0.02, 9.8 0" stroke="#1971c2" stroke-width="2" fill="none"></path></g><g transform="translate(417.5499801635742 93.25484814714082) rotate(0 2.7099990844726562 12.5)"><text x="2.7099990844726562" y="17.52" font-family="Virgil, Segoe UI Emoji" font-size="20px" fill="#1971c2" text-anchor="middle" style="white-space: pre;" direction="ltr" dominant-baseline="alphabetic">1</text></g><g stroke-linecap="round"><g transform="translate(417.7072520352556 52.354854250656444) rotate(0 -0.0648220013339369 16.400001525878906)"><path d="M-0.32 -0.33 C-0.37 5.14, 0.05 27.2, 0.12 32.65 M0.51 0.69 C0.38 6.25, -0.07 27.93, -0.18 33.27" stroke="#1971c2" stroke-width="2" fill="none"></path></g><g transform="translate(417.7072520352556 52.354854250656444) rotate(0 -0.0648220013339369 16.400001525878906)"><path d="M-5.47 17.75 C-4 23.95, -1.75 29.7, -0.18 33.27 M-5.47 17.75 C-4.24 21.38, -3.34 24.78, -0.18 33.27" stroke="#1971c2" stroke-width="2" fill="none"></path></g><g transform="translate(417.7072520352556 52.354854250656444) rotate(0 -0.0648220013339369 16.400001525878906)"><path d="M5.75 17.98 C3.02 24.06, 1.07 29.73, -0.18 33.27 M5.75 17.98 C4.46 21.54, 2.84 24.89, -0.18 33.27" stroke="#1971c2" stroke-width="2" fill="none"></path></g></g><mask></mask><g transform="translate(15.45989990234375 219.79991149902344) rotate(0 41.619964599609375 12.5)"><text x="0" y="17.52" font-family="Virgil, Segoe UI Emoji" font-size="20px" fill="#1971c2" text-anchor="start" style="white-space: pre;" direction="ltr" dominant-baseline="alphabetic">1st cycle</text></g><g stroke-linecap="round" transform="translate(143.45993041992188 190.89999389648438) rotate(0 24 19.599990844726562)"><path d="M9.8 0 C21.13 1.46, 31.11 -0.6, 38.2 0 M9.8 0 C19.19 -0.34, 28.42 0.15, 38.2 0 M38.2 0 C42.74 -0.17, 48.64 1.5, 48 9.8 M38.2 0 C45.46 -0.17, 48.53 4.98, 48 9.8 M48 9.8 C49.59 15.53, 48.56 23.23, 48 29.4 M48 9.8 C48.23 17.42, 48.16 23.97, 48 29.4 M48 29.4 C47.27 36.93, 46.41 38.09, 38.2 39.2 M48 29.4 C47.96 37.75, 43.62 39.44, 38.2 39.2 M38.2 39.2 C29.06 38.98, 21.8 38.14, 9.8 39.2 M38.2 39.2 C32.28 38.54, 25.81 39.46, 9.8 39.2 M9.8 39.2 C4.42 37.98, 0.74 37.05, 0 29.4 M9.8 39.2 C1.95 41.45, -1.91 35.07, 0 29.4 M0 29.4 C-0.37 23.56, 0.44 16.53, 0 9.8 M0 29.4 C0.77 25.11, 0.65 21.5, 0 9.8 M0 9.8 C0.31 3.56, 3.78 0.76, 9.8 0 M0 9.8 C0.64 2.14, 4.05 0.43, 9.8 0" stroke="#1971c2" stroke-width="2" fill="none"></path></g><g transform="translate(157.86993408203125 197.99998474121094) rotate(0 9.589996337890625 12.5)"><text x="9.589996337890625" y="17.52" font-family="Virgil, Segoe UI Emoji" font-size="20px" fill="#1971c2" text-anchor="middle" style="white-space: pre;" direction="ltr" dominant-baseline="alphabetic">10</text></g><g stroke-linecap="round" transform="translate(209.05996704101562 189.69996643066406) rotate(0 24 19.599990844726562)"><path d="M9.8 0 C21.07 -1.12, 31.27 0.24, 38.2 0 M9.8 0 C16.39 -0.13, 25.28 -0.93, 38.2 0 M38.2 0 C45.36 -0.15, 48.46 4.76, 48 9.8 M38.2 0 C44.62 1.1, 47.39 5.03, 48 9.8 M48 9.8 C49.56 16.74, 47.53 21.7, 48 29.4 M48 9.8 C47.65 16.63, 48.83 21.94, 48 29.4 M48 29.4 C47.96 37.51, 43.76 39.41, 38.2 39.2 M48 29.4 C47.49 36.39, 46.46 37.77, 38.2 39.2 M38.2 39.2 C28.67 40.75, 22.65 39.59, 9.8 39.2 M38.2 39.2 C32.24 38.65, 25.49 39.82, 9.8 39.2 M9.8 39.2 C2.12 41.16, -1.66 35.18, 0 29.4 M9.8 39.2 C3.6 38, -0.49 35.38, 0 29.4 M0 29.4 C-1.64 21.33, 0.4 18.17, 0 9.8 M0 29.4 C0.06 23.69, 0.16 18.07, 0 9.8 M0 9.8 C0.56 2.29, 3.95 0.37, 9.8 0 M0 9.8 C2.21 2.8, 5.06 1.67, 9.8 0" stroke="#1971c2" stroke-width="2" fill="none"></path></g><g transform="translate(223.22997283935547 196.79995727539062) rotate(0 9.829994201660156 12.5)"><text x="9.829994201660156" y="17.52" font-family="Virgil, Segoe UI Emoji" font-size="20px" fill="#1971c2" text-anchor="middle" style="white-space: pre;" direction="ltr" dominant-baseline="alphabetic">12</text></g><g stroke-linecap="round" transform="translate(273.0599060058594 188.09999084472656) rotate(0 24 19.599990844726562)"><path d="M9.8 0 C15.96 -0.02, 23.75 -2.02, 38.2 0 M9.8 0 C18.4 0.18, 26.59 1, 38.2 0 M38.2 0 C44.64 0.96, 47.47 4.8, 48 9.8 M38.2 0 C44.67 0.55, 50.18 5.04, 48 9.8 M48 9.8 C48.41 16.88, 46.72 23.08, 48 29.4 M48 9.8 C48.15 17.43, 47.69 23.62, 48 29.4 M48 29.4 C47.56 36.33, 46.24 37.96, 38.2 39.2 M48 29.4 C47.5 35.23, 43.27 37.33, 38.2 39.2 M38.2 39.2 C25.83 39.32, 16.7 40.44, 9.8 39.2 M38.2 39.2 C30.84 40.34, 23.8 38.98, 9.8 39.2 M9.8 39.2 C3.55 38.16, -0.43 35.45, 0 29.4 M9.8 39.2 C3.64 39.6, -0.65 34.05, 0 29.4 M0 29.4 C-0.07 26.32, 1.24 21.7, 0 9.8 M0 29.4 C0.22 22.75, 0.28 17.24, 0 9.8 M0 9.8 C1.92 2.86, 4.82 1.45, 9.8 0 M0 9.8 C0.75 4.64, 2.71 1.23, 9.8 0" stroke="#1971c2" stroke-width="2" fill="none"></path></g><g transform="translate(290.659912109375 195.19998168945312) rotate(0 6.399993896484375 12.5)"><text x="6.399993896484375" y="17.52" font-family="Virgil, Segoe UI Emoji" font-size="20px" fill="#1971c2" text-anchor="middle" style="white-space: pre;" direction="ltr" dominant-baseline="alphabetic">4</text></g><g stroke-linecap="round" transform="translate(333.0599060058594 188.09999084472656) rotate(0 24 19.599990844726562)"><path d="M9.8 0 C18.15 0.92, 25.08 0.91, 38.2 0 M9.8 0 C18.06 0.27, 26.15 0.55, 38.2 0 M38.2 0 C44.68 0.48, 49.9 4.81, 48 9.8 M38.2 0 C46.04 -0.61, 48.29 3.81, 48 9.8 M48 9.8 C48.86 17.42, 46.79 21.7, 48 29.4 M48 9.8 C47.69 17.42, 48.64 24.05, 48 29.4 M48 29.4 C47.57 35.32, 43.46 37.57, 38.2 39.2 M48 29.4 C49.99 36.23, 45.39 37.59, 38.2 39.2 M38.2 39.2 C28.41 40.1, 22.18 38.22, 9.8 39.2 M38.2 39.2 C27.05 38.57, 15.39 38.85, 9.8 39.2 M9.8 39.2 C3.59 39.55, -0.56 34.29, 0 29.4 M9.8 39.2 C1.06 39.71, 1.36 35.9, 0 29.4 M0 29.4 C0.16 23.1, 0.62 16.34, 0 9.8 M0 29.4 C0.87 24.28, 0.7 20.27, 0 9.8 M0 9.8 C0.65 4.46, 2.78 1.07, 9.8 0 M0 9.8 C1.42 1.86, 2.31 0.04, 9.8 0" stroke="#1971c2" stroke-width="2" fill="none"></path></g><g transform="translate(349.9399108886719 195.19998168945312) rotate(0 7.1199951171875 12.5)"><text x="7.1199951171875" y="17.52" font-family="Virgil, Segoe UI Emoji" font-size="20px" fill="#1971c2" text-anchor="middle" style="white-space: pre;" direction="ltr" dominant-baseline="alphabetic">2</text></g><g stroke-linecap="round" transform="translate(397.8599548339844 186.6999969482422) rotate(0 24 19.599990844726562)"><path d="M9.8 0 C19.08 0.37, 30.15 -0.19, 38.2 0 M9.8 0 C19.65 0.02, 30.51 0.55, 38.2 0 M38.2 0 C45.87 -0.53, 48.25 3.74, 48 9.8 M38.2 0 C44.84 -1.44, 47.17 4.42, 48 9.8 M48 9.8 C49.44 16.38, 48.09 24.43, 48 29.4 M48 9.8 C47.94 15.77, 47.52 21.54, 48 29.4 M48 29.4 C49.73 36.19, 45.3 37.8, 38.2 39.2 M48 29.4 C48.04 36.44, 46.06 37.79, 38.2 39.2 M38.2 39.2 C30.59 37.37, 18.31 39.32, 9.8 39.2 M38.2 39.2 C31.32 39.3, 23.84 38.31, 9.8 39.2 M9.8 39.2 C1.35 39.64, 1.19 35.91, 0 29.4 M9.8 39.2 C4.35 40.7, 0.36 36.27, 0 29.4 M0 29.4 C-1.03 23.68, 0.29 18.51, 0 9.8 M0 29.4 C0.17 24.51, -0.39 18.96, 0 9.8 M0 9.8 C1.24 2.04, 2.44 0.04, 9.8 0 M0 9.8 C0.5 2.15, 4.88 -1.24, 9.8 0" stroke="#1971c2" stroke-width="2" fill="none"></path></g><g transform="translate(414.2099609375 193.79998779296875) rotate(0 7.649993896484375 12.5)"><text x="7.649993896484375" y="17.52" font-family="Virgil, Segoe UI Emoji" font-size="20px" fill="#1971c2" text-anchor="middle" style="white-space: pre;" direction="ltr" dominant-baseline="alphabetic">8</text></g><g stroke-linecap="round" transform="translate(141.05990600585938 264.8999786376953) rotate(0 24 19.599990844726562)"><path d="M9.8 0 C19.94 -0.52, 29.69 -0.04, 38.2 0 M9.8 0 C19.56 -0.49, 28.32 0.02, 38.2 0 M38.2 0 C44.82 -1.25, 47.27 4.27, 48 9.8 M38.2 0 C46.67 -1.28, 47.96 5.08, 48 9.8 M48 9.8 C48.41 16.2, 46.8 19.23, 48 29.4 M48 9.8 C48.72 15.21, 48.16 19.68, 48 29.4 M48 29.4 C48.04 36.37, 45.89 37.98, 38.2 39.2 M48 29.4 C48.85 37.22, 43.42 41.45, 38.2 39.2 M38.2 39.2 C31 38.81, 25.4 39.56, 9.8 39.2 M38.2 39.2 C28.23 39.19, 20.77 38.95, 9.8 39.2 M9.8 39.2 C4.21 40.51, 0.31 36.23, 0 29.4 M9.8 39.2 C3.86 40.08, 0.64 34.81, 0 29.4 M0 29.4 C-0.44 24.38, 1.38 16.94, 0 9.8 M0 29.4 C0.65 21.75, -0.36 15.31, 0 9.8 M0 9.8 C0.43 2.29, 4.67 -1.08, 9.8 0 M0 9.8 C-0.88 3.71, 2.5 -2.24, 9.8 0" stroke="#e03131" stroke-width="2" fill="none"></path></g><g transform="translate(158.1799087524414 271.9999694824219) rotate(0 6.879997253417969 12.5)"><text x="6.879997253417969" y="17.52" font-family="Virgil, Segoe UI Emoji" font-size="20px" fill="#e03131" text-anchor="middle" style="white-space: pre;" direction="ltr" dominant-baseline="alphabetic">0</text></g><g stroke-linecap="round"><g transform="translate(162.50717879306808 231.0999755859375) rotate(0 -0.0648220013339369 16.400001525878906)"><path d="M-0.01 0.13 C0.08 5.6, 0.36 27.8, 0.39 33.22 M-0.69 -0.28 C-0.61 5.01, 0.12 26.9, 0.23 32.48" stroke="#1971c2" stroke-width="2" fill="none"></path></g><g transform="translate(162.50717879306808 231.0999755859375) rotate(0 -0.0648220013339369 16.400001525878906)"><path d="M-5.8 17.22 C-3.9 22.17, -1.81 26.03, 0.23 32.48 M-5.8 17.22 C-4.12 21.13, -2.64 25.76, 0.23 32.48" stroke="#1971c2" stroke-width="2" fill="none"></path></g><g transform="translate(162.50717879306808 231.0999755859375) rotate(0 -0.0648220013339369 16.400001525878906)"><path d="M5.41 16.92 C4.25 21.95, 3.27 25.89, 0.23 32.48 M5.41 16.92 C4.03 20.92, 2.44 25.64, 0.23 32.48" stroke="#1971c2" stroke-width="2" fill="none"></path></g></g><mask></mask><g stroke-linecap="round" transform="translate(212.25997924804688 264.45486035417207) rotate(0 24 19.599990844726562)"><path d="M9.8 0 C19.79 0.87, 26.16 -0.02, 38.2 0 M9.8 0 C18.62 0.68, 29.01 -0.38, 38.2 0 M38.2 0 C44.7 1.58, 47.03 3.47, 48 9.8 M38.2 0 C44.23 0.45, 49.73 1.84, 48 9.8 M48 9.8 C46.34 16.95, 48.19 21.27, 48 29.4 M48 9.8 C48.57 13.71, 48.37 19.37, 48 29.4 M48 29.4 C46.85 37.89, 43.07 38.45, 38.2 39.2 M48 29.4 C48.33 34.73, 44.24 38.64, 38.2 39.2 M38.2 39.2 C27.58 37.2, 20.69 40.31, 9.8 39.2 M38.2 39.2 C29.87 39.53, 21.5 39.77, 9.8 39.2 M9.8 39.2 C3.82 38.22, 0.68 36.3, 0 29.4 M9.8 39.2 C5.47 38.73, 1.79 37.6, 0 29.4 M0 29.4 C0.93 24.1, -1.32 15.56, 0 9.8 M0 29.4 C0.65 22.96, -0.42 17.76, 0 9.8 M0 9.8 C-0.67 1.32, 2.14 1.04, 9.8 0 M0 9.8 C-1.93 4.97, 4.27 -1.21, 9.8 0" stroke="#e03131" stroke-width="2" fill="none"></path></g><g transform="translate(229.3799819946289 271.55485119889863) rotate(0 6.879997253417969 12.5)"><text x="6.879997253417969" y="17.52" font-family="Virgil, Segoe UI Emoji" font-size="20px" fill="#e03131" text-anchor="middle" style="white-space: pre;" direction="ltr" dominant-baseline="alphabetic">0</text></g><g stroke-linecap="round"><g transform="translate(233.70725203525558 230.65485730241426) rotate(0 -0.0648220013339369 16.400001525878906)"><path d="M0.07 0.13 C0 5.56, -0.04 26.97, -0.1 32.46 M-0.56 -0.28 C-0.73 5.23, -0.49 27.57, -0.52 32.98" stroke="#1971c2" stroke-width="2" fill="none"></path></g><g transform="translate(233.70725203525558 230.65485730241426) rotate(0 -0.0648220013339369 16.400001525878906)"><path d="M-6.17 17.58 C-3.99 23.11, -2.67 28.27, -0.52 32.98 M-6.17 17.58 C-4.14 23.31, -2.35 28.42, -0.52 32.98" stroke="#1971c2" stroke-width="2" fill="none"></path></g><g transform="translate(233.70725203525558 230.65485730241426) rotate(0 -0.0648220013339369 16.400001525878906)"><path d="M5.04 17.55 C3.23 23.1, 0.54 28.27, -0.52 32.98 M5.04 17.55 C3.15 23.26, 1.01 28.38, -0.52 32.98" stroke="#1971c2" stroke-width="2" fill="none"></path></g></g><mask></mask><g stroke-linecap="round" transform="translate(273.8599548339844 263.6548420436252) rotate(0 24 19.599990844726562)"><path d="M9.8 0 C17.43 -0.74, 28.55 1.67, 38.2 0 M9.8 0 C16.26 -0.12, 23.47 -0.03, 38.2 0 M38.2 0 C46.24 -1.24, 47.57 2.66, 48 9.8 M38.2 0 C43.27 -1.87, 49.99 3.56, 48 9.8 M48 9.8 C48.29 17.37, 46.66 23.41, 48 29.4 M48 9.8 C47.07 16.41, 48.03 23.25, 48 29.4 M48 29.4 C47.57 35.45, 45.06 39.55, 38.2 39.2 M48 29.4 C47.35 34.05, 42.53 39.71, 38.2 39.2 M38.2 39.2 C29.3 39.64, 18.09 39.85, 9.8 39.2 M38.2 39.2 C28.94 39.25, 19.95 38.86, 9.8 39.2 M9.8 39.2 C4.82 40.65, 0.65 37.13, 0 29.4 M9.8 39.2 C2.71 40.43, 1.42 34.53, 0 29.4 M0 29.4 C-0.96 25.71, -1.06 18.51, 0 9.8 M0 29.4 C-0.48 23.65, -0.76 17.61, 0 9.8 M0 9.8 C0.87 2.21, 3.27 1.03, 9.8 0 M0 9.8 C-1.21 3.01, 1.24 0.3, 9.8 0" stroke="#1971c2" stroke-width="2" fill="none"></path></g><g transform="translate(295.1499557495117 270.75483288835176) rotate(0 2.7099990844726562 12.5)"><text x="2.7099990844726562" y="17.52" font-family="Virgil, Segoe UI Emoji" font-size="20px" fill="#1971c2" text-anchor="middle" style="white-space: pre;" direction="ltr" dominant-baseline="alphabetic">1</text></g><g stroke-linecap="round"><g transform="translate(295.3072276211931 229.85483899186738) rotate(0 -0.0648220013339369 16.400001525878906)"><path d="M0.46 -0.3 C0.47 5.19, 0 27.71, -0.14 33.23 M0.04 0.73 C-0.01 6.05, -0.42 27.03, -0.58 32.49" stroke="#1971c2" stroke-width="2" fill="none"></path></g><g transform="translate(295.3072276211931 229.85483899186738) rotate(0 -0.0648220013339369 16.400001525878906)"><path d="M-5.83 16.95 C-4.86 21.01, -2.37 24.73, -0.58 32.49 M-5.83 16.95 C-3.91 21.52, -2.68 26.47, -0.58 32.49" stroke="#1971c2" stroke-width="2" fill="none"></path></g><g transform="translate(295.3072276211931 229.85483899186738) rotate(0 -0.0648220013339369 16.400001525878906)"><path d="M5.39 17.21 C3.4 21.25, 2.93 24.9, -0.58 32.49 M5.39 17.21 C3.83 21.71, 1.58 26.58, -0.58 32.49" stroke="#1971c2" stroke-width="2" fill="none"></path></g></g><mask></mask><g stroke-linecap="round" transform="translate(334.6599426269531 261.2548481471408) rotate(0 24 19.599990844726562)"><path d="M9.8 0 C22.29 -0.97, 31.82 -0.43, 38.2 0 M9.8 0 C18.66 -0.13, 27.33 -0.64, 38.2 0 M38.2 0 C46.46 0.26, 48.57 1.87, 48 9.8 M38.2 0 C44.77 0.5, 49.33 1.86, 48 9.8 M48 9.8 C50.03 14.77, 47.38 23.29, 48 29.4 M48 9.8 C48.12 14.83, 47.68 18.71, 48 29.4 M48 29.4 C46.08 36.38, 45.92 39.17, 38.2 39.2 M48 29.4 C49.08 37.44, 45.09 39.54, 38.2 39.2 M38.2 39.2 C27.97 39.96, 20.06 41.2, 9.8 39.2 M38.2 39.2 C30.58 40, 22.08 39.94, 9.8 39.2 M9.8 39.2 C4.5 37.98, -0.83 35.97, 0 29.4 M9.8 39.2 C3.76 38.08, 1.61 34.7, 0 29.4 M0 29.4 C-1.95 23.17, 0.99 17.5, 0 9.8 M0 29.4 C-0.09 22.57, -0.6 14.63, 0 9.8 M0 9.8 C-1.76 3.53, 2.39 0.99, 9.8 0 M0 9.8 C-0.98 1.53, 2.83 -0.27, 9.8 0" stroke="#1971c2" stroke-width="2" fill="none"></path></g><g transform="translate(355.94994354248047 268.3548389918674) rotate(0 2.7099990844726562 12.5)"><text x="2.7099990844726562" y="17.52" font-family="Virgil, Segoe UI Emoji" font-size="20px" fill="#1971c2" text-anchor="middle" style="white-space: pre;" direction="ltr" dominant-baseline="alphabetic">1</text></g><g stroke-linecap="round"><g transform="translate(356.10721541416183 227.454845095383) rotate(0 -0.0648220013339369 16.400001525878906)"><path d="M-0.12 0.11 C-0.03 5.51, 0.31 27.04, 0.28 32.46 M0.82 -0.31 C0.9 5.15, 0.31 27.41, 0.06 32.98" stroke="#1971c2" stroke-width="2" fill="none"></path></g><g transform="translate(356.10721541416183 227.454845095383) rotate(0 -0.0648220013339369 16.400001525878906)"><path d="M-5.03 17.39 C-3.58 21.94, -2.97 25.06, 0.06 32.98 M-5.03 17.39 C-3.35 21.67, -2.22 25.53, 0.06 32.98" stroke="#1971c2" stroke-width="2" fill="none"></path></g><g transform="translate(356.10721541416183 227.454845095383) rotate(0 -0.0648220013339369 16.400001525878906)"><path d="M6.18 17.77 C4.81 22.2, 2.61 25.23, 0.06 32.98 M6.18 17.77 C4.84 21.9, 2.95 25.66, 0.06 32.98" stroke="#1971c2" stroke-width="2" fill="none"></path></g></g><mask></mask><g stroke-linecap="round" transform="translate(400.2599792480469 262.85485425065644) rotate(0 24 19.599990844726562)"><path d="M9.8 0 C16.46 -0.65, 24.98 -1.49, 38.2 0 M9.8 0 C16.29 -0.73, 22.23 0.18, 38.2 0 M38.2 0 C45.89 -1.22, 48.74 4.39, 48 9.8 M38.2 0 C43.42 2.25, 46.09 2.4, 48 9.8 M48 9.8 C47.42 16.28, 48.24 21.57, 48 29.4 M48 9.8 C48.39 14.06, 48.27 18.98, 48 29.4 M48 29.4 C48.31 36.23, 45.25 39.96, 38.2 39.2 M48 29.4 C48.64 34.81, 45.52 39.63, 38.2 39.2 M38.2 39.2 C28.4 40.07, 16.9 38.93, 9.8 39.2 M38.2 39.2 C27.75 39.04, 18.35 38.54, 9.8 39.2 M9.8 39.2 C4.67 38.12, -0.77 36.32, 0 29.4 M9.8 39.2 C2.5 36.96, -1.29 37.13, 0 29.4 M0 29.4 C-1.18 25.16, 0.86 19.9, 0 9.8 M0 29.4 C-0.26 24.22, -0.24 17.33, 0 9.8 M0 9.8 C-0.38 3.03, 4.38 -1.2, 9.8 0 M0 9.8 C-1.2 4.48, 1.83 -0.02, 9.8 0" stroke="#1971c2" stroke-width="2" fill="none"></path></g><g transform="translate(421.5499801635742 269.954845095383) rotate(0 2.7099990844726562 12.5)"><text x="2.7099990844726562" y="17.52" font-family="Virgil, Segoe UI Emoji" font-size="20px" fill="#1971c2" text-anchor="middle" style="white-space: pre;" direction="ltr" dominant-baseline="alphabetic">1</text></g><g stroke-linecap="round"><g transform="translate(421.7072520352556 229.05485119889863) rotate(0 -0.0648220013339369 16.400001525878906)"><path d="M-0.35 -0.45 C-0.27 5.06, 0.28 27.39, 0.35 32.87 M0.47 0.51 C0.53 6.13, 0.28 28.22, 0.16 33.61" stroke="#1971c2" stroke-width="2" fill="none"></path></g><g transform="translate(421.7072520352556 229.05485119889863) rotate(0 -0.0648220013339369 16.400001525878906)"><path d="M-5.21 18.11 C-4.41 23.15, -2.14 26.99, 0.16 33.61 M-5.21 18.11 C-3.74 21.42, -2.59 25.47, 0.16 33.61" stroke="#1971c2" stroke-width="2" fill="none"></path></g><g transform="translate(421.7072520352556 229.05485119889863) rotate(0 -0.0648220013339369 16.400001525878906)"><path d="M6 18.28 C3.69 23.24, 2.83 27.03, 0.16 33.61 M6 18.28 C4.9 21.57, 3.47 25.58, 0.16 33.61" stroke="#1971c2" stroke-width="2" fill="none"></path></g></g><mask></mask><g transform="translate(138.659912109375 239.0000457763672) rotate(0 6.8199920654296875 12.5)"><text x="0" y="17.52" font-family="Virgil, Segoe UI Emoji" font-size="20px" fill="#e03131" text-anchor="start" style="white-space: pre;" direction="ltr" dominant-baseline="alphabetic">-1</text></g><g transform="translate(209.43992614746094 241.6999969482422) rotate(0 6.8199920654296875 12.5)"><text x="0" y="17.52" font-family="Virgil, Segoe UI Emoji" font-size="20px" fill="#e03131" text-anchor="start" style="white-space: pre;" direction="ltr" dominant-baseline="alphabetic">-1</text></g><g transform="translate(10 375.29991149902344) rotate(0 45.309967041015625 12.5)"><text x="0" y="17.52" font-family="Virgil, Segoe UI Emoji" font-size="20px" fill="#1971c2" text-anchor="start" style="white-space: pre;" direction="ltr" dominant-baseline="alphabetic">2nd cycle</text></g><g stroke-linecap="round" transform="translate(145.4599151611328 354.1000061035156) rotate(0 24 19.599990844726562)"><path d="M9.8 0 C13.76 0.89, 20.49 0.15, 38.2 0 M9.8 0 C17.59 0.51, 24.34 0.07, 38.2 0 M38.2 0 C43.43 0.28, 47.21 2.3, 48 9.8 M38.2 0 C42.6 1.27, 47.69 4.8, 48 9.8 M48 9.8 C48.06 17.05, 47.06 20.64, 48 29.4 M48 9.8 C49.12 15.54, 49.06 21.89, 48 29.4 M48 29.4 C47.51 34.79, 45.86 40.39, 38.2 39.2 M48 29.4 C49.4 36.86, 43.96 39.74, 38.2 39.2 M38.2 39.2 C28.89 37.67, 20.32 40.52, 9.8 39.2 M38.2 39.2 C26.42 39.81, 14.73 38.32, 9.8 39.2 M9.8 39.2 C2.69 40.47, 1.26 36.99, 0 29.4 M9.8 39.2 C4.11 40.05, 1.4 34.22, 0 29.4 M0 29.4 C-1.47 20.75, 0.85 15.25, 0 9.8 M0 29.4 C0.49 23.53, 0.36 16.57, 0 9.8 M0 9.8 C-1.7 4.24, 4.45 -0.35, 9.8 0 M0 9.8 C1.69 3.24, 1.97 -1.07, 9.8 0" stroke="#1971c2" stroke-width="2" fill="none"></path></g><g transform="translate(159.8699188232422 361.1999969482422) rotate(0 9.589996337890625 12.5)"><text x="9.589996337890625" y="17.52" font-family="Virgil, Segoe UI Emoji" font-size="20px" fill="#1971c2" text-anchor="middle" style="white-space: pre;" direction="ltr" dominant-baseline="alphabetic">10</text></g><g stroke-linecap="round" transform="translate(211.05995178222656 352.8999786376953) rotate(0 24 19.599990844726562)"><path d="M9.8 0 C18.36 -1.25, 28.99 0.98, 38.2 0 M9.8 0 C19.26 0.1, 29.63 -0.52, 38.2 0 M38.2 0 C42.88 1.1, 47.73 4.6, 48 9.8 M38.2 0 C44.9 0.4, 48.11 3.29, 48 9.8 M48 9.8 C48.12 18.65, 46.27 25.9, 48 29.4 M48 9.8 C47.94 14.43, 48.73 20.75, 48 29.4 M48 29.4 C49.22 36.74, 44.06 39.67, 38.2 39.2 M48 29.4 C48.56 35.06, 44.4 39.08, 38.2 39.2 M38.2 39.2 C33.77 39.62, 24.71 38.46, 9.8 39.2 M38.2 39.2 C27.37 39.61, 17.74 39.51, 9.8 39.2 M9.8 39.2 C4 39.94, 1.22 34.44, 0 29.4 M9.8 39.2 C4.49 38.43, -2.15 34.13, 0 29.4 M0 29.4 C0.6 27.02, 1.04 22.43, 0 9.8 M0 29.4 C-0.94 22.61, 0.47 14.69, 0 9.8 M0 9.8 C1.47 3.24, 2.14 -0.93, 9.8 0 M0 9.8 C1.8 2.47, 1.8 -0.18, 9.8 0" stroke="#1971c2" stroke-width="2" fill="none"></path></g><g transform="translate(225.2299575805664 359.9999694824219) rotate(0 9.829994201660156 12.5)"><text x="9.829994201660156" y="17.52" font-family="Virgil, Segoe UI Emoji" font-size="20px" fill="#1971c2" text-anchor="middle" style="white-space: pre;" direction="ltr" dominant-baseline="alphabetic">12</text></g><g stroke-linecap="round" transform="translate(275.0598907470703 351.3000030517578) rotate(0 24 19.599990844726562)"><path d="M9.8 0 C17.64 -0.28, 23.48 -1.44, 38.2 0 M9.8 0 C17.79 0.69, 27.49 0.8, 38.2 0 M38.2 0 C44.88 0.35, 48.1 3.29, 48 9.8 M38.2 0 C46.17 -1.14, 46.58 3.52, 48 9.8 M48 9.8 C47.14 19.19, 47.65 24.57, 48 29.4 M48 9.8 C48.71 14.96, 47.78 19.56, 48 29.4 M48 29.4 C48.48 35.17, 44.45 39.1, 38.2 39.2 M48 29.4 C46.28 36.55, 46.29 41.46, 38.2 39.2 M38.2 39.2 C30.78 37.4, 18.96 38.5, 9.8 39.2 M38.2 39.2 C28.25 39.72, 18.17 38.6, 9.8 39.2 M9.8 39.2 C4.33 38.53, -1.87 34.37, 0 29.4 M9.8 39.2 C1.24 40.12, -0.35 36.73, 0 29.4 M0 29.4 C1.28 22.83, 0.47 12.43, 0 9.8 M0 29.4 C0.61 22.56, -0.67 15.28, 0 9.8 M0 9.8 C1.56 2.57, 1.99 -0.16, 9.8 0 M0 9.8 C1.16 3.36, 4.49 -0.91, 9.8 0" stroke="#1971c2" stroke-width="2" fill="none"></path></g><g transform="translate(292.65989685058594 358.3999938964844) rotate(0 6.399993896484375 12.5)"><text x="6.399993896484375" y="17.52" font-family="Virgil, Segoe UI Emoji" font-size="20px" fill="#1971c2" text-anchor="middle" style="white-space: pre;" direction="ltr" dominant-baseline="alphabetic">4</text></g><g stroke-linecap="round" transform="translate(335.0598907470703 351.3000030517578) rotate(0 24 19.599990844726562)"><path d="M9.8 0 C18.4 -0.6, 25.47 -1.67, 38.2 0 M9.8 0 C19.96 -0.02, 30.02 -0.18, 38.2 0 M38.2 0 C45.99 -0.99, 46.77 3.48, 48 9.8 M38.2 0 C46.78 -1.92, 50.21 2.45, 48 9.8 M48 9.8 C46.87 18.55, 49.15 26.28, 48 29.4 M48 9.8 C48.17 16.09, 47.79 23.09, 48 29.4 M48 29.4 C46.51 36.47, 46.09 41.17, 38.2 39.2 M48 29.4 C48.26 35.14, 43.67 40.84, 38.2 39.2 M38.2 39.2 C33.31 40.38, 26.95 39.86, 9.8 39.2 M38.2 39.2 C29.17 38.65, 18.13 38.2, 9.8 39.2 M9.8 39.2 C1.5 40, -0.3 36.63, 0 29.4 M9.8 39.2 C5.35 40.51, 1.56 37.56, 0 29.4 M0 29.4 C0.89 23.6, -0.4 16.92, 0 9.8 M0 29.4 C0.88 23.2, -0.51 17.6, 0 9.8 M0 9.8 C1.01 3.35, 4.33 -0.79, 9.8 0 M0 9.8 C-2.29 2.89, 5.52 -1.53, 9.8 0" stroke="#1971c2" stroke-width="2" fill="none"></path></g><g transform="translate(351.9398956298828 358.3999938964844) rotate(0 7.1199951171875 12.5)"><text x="7.1199951171875" y="17.52" font-family="Virgil, Segoe UI Emoji" font-size="20px" fill="#1971c2" text-anchor="middle" style="white-space: pre;" direction="ltr" dominant-baseline="alphabetic">2</text></g><g stroke-linecap="round" transform="translate(399.8599395751953 349.90000915527344) rotate(0 24 19.599990844726562)"><path d="M9.8 0 C18.3 -0.01, 25.93 0.41, 38.2 0 M9.8 0 C19.44 -0.5, 27.21 0.11, 38.2 0 M38.2 0 C46.51 -1.67, 49.92 2.56, 48 9.8 M38.2 0 C46.8 -0.22, 47.43 1.96, 48 9.8 M48 9.8 C48.9 16.12, 48.58 24.24, 48 29.4 M48 9.8 C47.24 15.19, 48.64 21.03, 48 29.4 M48 29.4 C48.23 35.24, 43.81 40.63, 38.2 39.2 M48 29.4 C46.08 34.14, 44.07 40.66, 38.2 39.2 M38.2 39.2 C28.62 40.52, 16.08 40.37, 9.8 39.2 M38.2 39.2 C29.75 39.38, 22.9 39.33, 9.8 39.2 M9.8 39.2 C5.08 40.34, 1.36 37.35, 0 29.4 M9.8 39.2 C4.54 39.88, -1.95 37.05, 0 29.4 M0 29.4 C0.01 21.25, -0.88 16.85, 0 9.8 M0 29.4 C0.62 24.24, 0.65 18.61, 0 9.8 M0 9.8 C-1.99 2.94, 5.22 -1.33, 9.8 0 M0 9.8 C-1.72 2.92, 4.67 -0.02, 9.8 0" stroke="#1971c2" stroke-width="2" fill="none"></path></g><g transform="translate(416.20994567871094 357) rotate(0 7.649993896484375 12.5)"><text x="7.649993896484375" y="17.52" font-family="Virgil, Segoe UI Emoji" font-size="20px" fill="#1971c2" text-anchor="middle" style="white-space: pre;" direction="ltr" dominant-baseline="alphabetic">8</text></g><g stroke-linecap="round" transform="translate(143.0598907470703 428.09999084472656) rotate(0 24 19.599990844726562)"><path d="M9.8 0 C18.28 0.08, 26.09 1.23, 38.2 0 M9.8 0 C17.8 -0.87, 24.98 -0.39, 38.2 0 M38.2 0 C46.53 -0.19, 47.51 2.13, 48 9.8 M38.2 0 C46.03 1.37, 49.4 4.19, 48 9.8 M48 9.8 C47.3 14.74, 47.95 18.77, 48 29.4 M48 9.8 C48.24 15.86, 47.68 23.3, 48 29.4 M48 29.4 C46.33 34.38, 44.16 40.47, 38.2 39.2 M48 29.4 C49.45 37.14, 45.58 40.05, 38.2 39.2 M38.2 39.2 C27.28 37.48, 16.14 37.59, 9.8 39.2 M38.2 39.2 C29.45 39.87, 19.56 40.01, 9.8 39.2 M9.8 39.2 C4.37 39.79, -1.7 36.91, 0 29.4 M9.8 39.2 C4.63 38.8, 1.69 35.91, 0 29.4 M0 29.4 C-0.59 23.38, -0.07 20.85, 0 9.8 M0 29.4 C-1.08 23.28, 0.85 16.83, 0 9.8 M0 9.8 C-1.5 2.96, 4.49 -0.02, 9.8 0 M0 9.8 C0.2 1, 1.45 1.29, 9.8 0" stroke="#e03131" stroke-width="2" fill="none"></path></g><g transform="translate(160.17989349365234 435.1999816894531) rotate(0 6.879997253417969 12.5)"><text x="6.879997253417969" y="17.52" font-family="Virgil, Segoe UI Emoji" font-size="20px" fill="#e03131" text-anchor="middle" style="white-space: pre;" direction="ltr" dominant-baseline="alphabetic">0</text></g><g stroke-linecap="round"><g transform="translate(164.50716353427902 394.29998779296875) rotate(0 -0.0648220013339369 16.400001525878906)"><path d="M0.34 -0.27 C0.26 5.2, -0.47 27.42, -0.47 32.86 M-0.14 0.78 C-0.05 6.35, 0.52 28.27, 0.59 33.59" stroke="#1971c2" stroke-width="2" fill="none"></path></g><g transform="translate(164.50716353427902 394.29998779296875) rotate(0 -0.0648220013339369 16.400001525878906)"><path d="M-5.33 18.3 C-3.93 22.43, -1.63 28.33, 0.59 33.59 M-5.33 18.3 C-3.61 21.58, -2.79 24.69, 0.59 33.59" stroke="#1971c2" stroke-width="2" fill="none"></path></g><g transform="translate(164.50716353427902 394.29998779296875) rotate(0 -0.0648220013339369 16.400001525878906)"><path d="M5.88 18.07 C3.86 22.31, 2.75 28.28, 0.59 33.59 M5.88 18.07 C5.18 21.38, 3.57 24.55, 0.59 33.59" stroke="#1971c2" stroke-width="2" fill="none"></path></g></g><mask></mask><g stroke-linecap="round" transform="translate(214.2599639892578 427.6548725612033) rotate(0 24 19.599990844726562)"><path d="M9.8 0 C20.32 1.96, 28.73 2.1, 38.2 0 M9.8 0 C17.07 -0.54, 25.39 0.62, 38.2 0 M38.2 0 C45.95 0.8, 47.32 3.74, 48 9.8 M38.2 0 C45.29 -0.88, 47.67 3.15, 48 9.8 M48 9.8 C49.98 14.44, 47.38 17.73, 48 29.4 M48 9.8 C47.56 17.7, 48.46 24.87, 48 29.4 M48 29.4 C48.74 36.67, 45.95 37.71, 38.2 39.2 M48 29.4 C49.23 35.17, 42.58 37.4, 38.2 39.2 M38.2 39.2 C32.88 40.97, 27.31 40.51, 9.8 39.2 M38.2 39.2 C26.82 39.77, 17.72 39.11, 9.8 39.2 M9.8 39.2 C4.74 39.18, -1.13 35, 0 29.4 M9.8 39.2 C5.06 38.4, -1.47 35.75, 0 29.4 M0 29.4 C-0.78 20.58, -0.33 17.58, 0 9.8 M0 29.4 C0.74 24.81, 0.23 19.27, 0 9.8 M0 9.8 C-1.58 4.39, 3.74 0.79, 9.8 0 M0 9.8 C1 3.66, 3.95 -1.89, 9.8 0" stroke="#1971c2" stroke-width="2" fill="none"></path></g><g transform="translate(235.54996490478516 434.7548634059299) rotate(0 2.7099990844726562 12.5)"><text x="2.7099990844726562" y="17.52" font-family="Virgil, Segoe UI Emoji" font-size="20px" fill="#1971c2" text-anchor="middle" style="white-space: pre;" direction="ltr" dominant-baseline="alphabetic">1</text></g><g stroke-linecap="round"><g transform="translate(235.70723677646652 393.8548695094455) rotate(0 -1.8848140667636244 15.657414155335573)"><path d="M0.53 -0.2 C-0.1 5.09, -2.54 26.06, -3.27 31.26 M0.14 -0.77 C-0.56 4.64, -2.71 26.57, -3.45 31.93" stroke="#1971c2" stroke-width="2" fill="none"></path></g><g transform="translate(235.70723677646652 393.8548695094455) rotate(0 -1.8848140667636244 15.657414155335573)"><path d="M-7.11 16.59 C-6.03 23.25, -4.4 28.32, -3.45 31.93 M-7.11 16.59 C-5.94 20.47, -5.42 24.13, -3.45 31.93" stroke="#1971c2" stroke-width="2" fill="none"></path></g><g transform="translate(235.70723677646652 393.8548695094455) rotate(0 -1.8848140667636244 15.657414155335573)"><path d="M3.61 17.83 C0.52 24.06, -2.02 28.64, -3.45 31.93 M3.61 17.83 C2.17 21.44, 0.08 24.8, -3.45 31.93" stroke="#1971c2" stroke-width="2" fill="none"></path></g></g><mask></mask><g stroke-linecap="round" transform="translate(275.8599395751953 426.85485425065644) rotate(0 24 19.599990844726562)"><path d="M9.8 0 C20.86 -0.75, 31.16 0.87, 38.2 0 M9.8 0 C19.67 0.12, 30.46 -0.5, 38.2 0 M38.2 0 C44.45 -0.1, 46.51 3.8, 48 9.8 M38.2 0 C46.29 2.26, 48.26 2.47, 48 9.8 M48 9.8 C46.62 14.21, 49.38 20.98, 48 29.4 M48 9.8 C48.67 15.98, 48.6 23.3, 48 29.4 M48 29.4 C46.13 34.37, 42.97 40, 38.2 39.2 M48 29.4 C47.65 36.73, 46.81 40.51, 38.2 39.2 M38.2 39.2 C28.34 37.66, 18.28 40.54, 9.8 39.2 M38.2 39.2 C29.61 38.73, 22.93 38.85, 9.8 39.2 M9.8 39.2 C1.99 39.04, 1.01 36.01, 0 29.4 M9.8 39.2 C4.49 38.29, -2.29 35.55, 0 29.4 M0 29.4 C-0.17 22.8, 0.11 13.98, 0 9.8 M0 29.4 C0.39 25.84, 0.58 21.67, 0 9.8 M0 9.8 C0.59 1.62, 2.9 0.15, 9.8 0 M0 9.8 C1.68 4.8, 5.03 -0.83, 9.8 0" stroke="#e03131" stroke-width="2" fill="none"></path></g><g transform="translate(292.97994232177734 433.954845095383) rotate(0 6.879997253417969 12.5)"><text x="6.879997253417969" y="17.52" font-family="Virgil, Segoe UI Emoji" font-size="20px" fill="#e03131" text-anchor="middle" style="white-space: pre;" direction="ltr" dominant-baseline="alphabetic">0</text></g><g stroke-linecap="round"><g transform="translate(297.307212362404 393.05485119889863) rotate(0 -0.0648220013339369 16.400001525878906)"><path d="M0.31 0.33 C0.37 5.88, 0.31 27.59, 0.2 33.02 M-0.2 0.02 C-0.17 5.44, 0.04 26.57, -0.06 32.17" stroke="#1971c2" stroke-width="2" fill="none"></path></g><g transform="translate(297.307212362404 393.05485119889863) rotate(0 -0.0648220013339369 16.400001525878906)"><path d="M-5.64 16.75 C-3.65 21.48, -2.28 24.95, -0.06 32.17 M-5.64 16.75 C-3.87 21.73, -2.31 26.85, -0.06 32.17" stroke="#1971c2" stroke-width="2" fill="none"></path></g><g transform="translate(297.307212362404 393.05485119889863) rotate(0 -0.0648220013339369 16.400001525878906)"><path d="M5.58 16.77 C4.47 21.52, 2.76 24.99, -0.06 32.17 M5.58 16.77 C3.72 21.72, 1.65 26.83, -0.06 32.17" stroke="#1971c2" stroke-width="2" fill="none"></path></g></g><mask></mask><g stroke-linecap="round" transform="translate(336.65992736816406 424.45486035417207) rotate(0 24 19.599990844726562)"><path d="M9.8 0 C20.72 -0.85, 30.51 0.31, 38.2 0 M9.8 0 C16.49 0.28, 25.35 1, 38.2 0 M38.2 0 C44.96 -0.69, 47.07 4.69, 48 9.8 M38.2 0 C42.81 -1.79, 47.34 4.72, 48 9.8 M48 9.8 C48.82 18.11, 46.64 25.09, 48 29.4 M48 9.8 C46.95 15.42, 47.67 20.59, 48 29.4 M48 29.4 C49.81 37.07, 46.09 40.62, 38.2 39.2 M48 29.4 C49.27 36.61, 42.78 40.32, 38.2 39.2 M38.2 39.2 C27.98 38.28, 16.87 40.97, 9.8 39.2 M38.2 39.2 C31.17 39.22, 23.66 38.78, 9.8 39.2 M9.8 39.2 C1.28 38.87, 1.96 34.61, 0 29.4 M9.8 39.2 C1.54 38.85, 1.4 35.91, 0 29.4 M0 29.4 C1.29 23.81, 0.97 18.15, 0 9.8 M0 29.4 C-0.24 23.25, 0.66 17.62, 0 9.8 M0 9.8 C1.54 2.55, 3.05 0.61, 9.8 0 M0 9.8 C1.31 4.11, 3.27 -0.8, 9.8 0" stroke="#1971c2" stroke-width="2" fill="none"></path></g><g transform="translate(357.9499282836914 431.55485119889863) rotate(0 2.7099990844726562 12.5)"><text x="2.7099990844726562" y="17.52" font-family="Virgil, Segoe UI Emoji" font-size="20px" fill="#1971c2" text-anchor="middle" style="white-space: pre;" direction="ltr" dominant-baseline="alphabetic">1</text></g><g stroke-linecap="round"><g transform="translate(358.10720015537277 390.65485730241426) rotate(0 -0.0648220013339369 16.400001525878906)"><path d="M0.13 -0.21 C0.13 5.23, -0.1 27.25, -0.21 32.77 M-0.46 -0.79 C-0.53 4.73, -0.85 27.72, -0.68 33.46" stroke="#1971c2" stroke-width="2" fill="none"></path></g><g transform="translate(358.10720015537277 390.65485730241426) rotate(0 -0.0648220013339369 16.400001525878906)"><path d="M-6.36 18.07 C-5.14 22.04, -3.36 25.65, -0.68 33.46 M-6.36 18.07 C-4.41 22.93, -2.79 28.39, -0.68 33.46" stroke="#1971c2" stroke-width="2" fill="none"></path></g><g transform="translate(358.10720015537277 390.65485730241426) rotate(0 -0.0648220013339369 16.400001525878906)"><path d="M4.86 18.02 C3.09 22.02, 1.89 25.63, -0.68 33.46 M4.86 18.02 C3.15 22.95, 1.1 28.42, -0.68 33.46" stroke="#1971c2" stroke-width="2" fill="none"></path></g></g><mask></mask><g stroke-linecap="round" transform="translate(402.2599639892578 426.0548664576877) rotate(0 24 19.599990844726562)"><path d="M9.8 0 C18.91 -1.45, 28.75 1.4, 38.2 0 M9.8 0 C20.65 0.81, 31.6 -0.68, 38.2 0 M38.2 0 C44.16 1.27, 49.26 4.32, 48 9.8 M38.2 0 C45.58 0.85, 49.4 1.55, 48 9.8 M48 9.8 C46.4 15, 48.72 23.36, 48 29.4 M48 9.8 C48.84 17.06, 48.72 23.21, 48 29.4 M48 29.4 C46.3 36.91, 45.92 38.85, 38.2 39.2 M48 29.4 C49.69 35.91, 43.43 38.13, 38.2 39.2 M38.2 39.2 C27.3 40.03, 16.81 40.08, 9.8 39.2 M38.2 39.2 C31.78 38.49, 22.66 39, 9.8 39.2 M9.8 39.2 C4.49 39.18, 0.17 33.96, 0 29.4 M9.8 39.2 C1.45 40.49, 0.55 36.84, 0 29.4 M0 29.4 C-1.65 22.31, 0.11 17.38, 0 9.8 M0 29.4 C-0.25 22.51, 0.41 15.38, 0 9.8 M0 9.8 C0 2.57, 4.03 -0.25, 9.8 0 M0 9.8 C-1.96 4.16, 1.5 -0.19, 9.8 0" stroke="#1971c2" stroke-width="2" fill="none"></path></g><g transform="translate(423.54996490478516 433.15485730241426) rotate(0 2.7099990844726562 12.5)"><text x="2.7099990844726562" y="17.52" font-family="Virgil, Segoe UI Emoji" font-size="20px" fill="#1971c2" text-anchor="middle" style="white-space: pre;" direction="ltr" dominant-baseline="alphabetic">1</text></g><g stroke-linecap="round"><g transform="translate(423.7072367764665 392.2548634059299) rotate(0 -0.0648220013339369 16.400001525878906)"><path d="M0.37 0.54 C0.43 5.95, 0.06 27.17, -0.07 32.61 M-0.1 0.34 C-0.07 5.82, -0.34 27.88, -0.47 33.21" stroke="#1971c2" stroke-width="2" fill="none"></path></g><g transform="translate(423.7072367764665 392.2548634059299) rotate(0 -0.0648220013339369 16.400001525878906)"><path d="M-5.82 17.71 C-3.78 21.28, -3.67 24.3, -0.47 33.21 M-5.82 17.71 C-4.01 23.75, -1.65 29.46, -0.47 33.21" stroke="#1971c2" stroke-width="2" fill="none"></path></g><g transform="translate(423.7072367764665 392.2548634059299) rotate(0 -0.0648220013339369 16.400001525878906)"><path d="M5.4 17.9 C4.9 21.46, 2.49 24.44, -0.47 33.21 M5.4 17.9 C3.04 23.82, 1.24 29.46, -0.47 33.21" stroke="#1971c2" stroke-width="2" fill="none"></path></g></g><mask></mask><g transform="translate(140.65989685058594 402.20005798339844) rotate(0 6.8199920654296875 12.5)"><text x="0" y="17.52" font-family="Virgil, Segoe UI Emoji" font-size="20px" fill="#e03131" text-anchor="start" style="white-space: pre;" direction="ltr" dominant-baseline="alphabetic">-1</text></g></svg>