<svg version="1.1" xmlns="http://www.w3.org/2000/svg" viewBox="0 0 71.27092892950975 57.48731400194873" width="71.27092892950975" height="57.48731400194873">
  <defs>
    <style class="style-fonts">
      @font-face {
        font-family: "Virgil";
        src: url("https://excalidraw.com/Virgil.woff2");
      }
      @font-face {
        font-family: "Cascadia";
        src: url("https://excalidraw.com/Cascadia.woff2");
      }
      @font-face {
        font-family: "Assistant";
        src: url("https://excalidraw.com/Assistant-Regular.woff2");
      }
    </style>
    
  </defs>
  <g stroke-linecap="round"><g transform="translate(18.91091078779732 16.858938078038705) rotate(0 0.399993896484375 14.399993896484375)"><path d="M-0.14 -0.49 C0.02 4.27, 0.41 23.66, 0.57 28.59 M0.79 0.45 C0.89 5.27, 0.06 24.56, 0.03 29.18" stroke="#868e96" stroke-width="1" fill="none"></path></g></g><mask></mask><g stroke-linecap="round"><g transform="translate(27.1077314261006 18.114806763349634) rotate(0 0.24841480486742284 13.000240015775574)"><path d="M0.12 0.46 C0.28 4.85, 0.35 22.06, 0.43 26.37 M-0.48 0.23 C-0.35 4.45, -0.16 21.4, -0.04 25.59" stroke="#868e96" stroke-width="1" fill="none"></path></g></g><mask></mask><g stroke-linecap="round"><g transform="translate(34.5600997627123 18.280412421627318) rotate(0 0.41402046314505014 13.745478112926918)"><path d="M-0.3 -0.45 C-0.15 4.01, 0.48 22.34, 0.71 26.94 M0.54 0.5 C0.62 5, 0.16 22.84, 0.22 27.36" stroke="#868e96" stroke-width="1" fill="none"></path></g></g><mask></mask><g stroke-linecap="round"><g transform="translate(42.50929770905873 18.280412421627318) rotate(0 0 13.000243174501037)"><path d="M-0.25 0.15 C-0.24 4.46, 0.43 21.45, 0.51 25.76 M0.63 -0.25 C0.56 4.15, 0.45 21.87, 0.34 26.34" stroke="#868e96" stroke-width="1" fill="none"></path></g></g><mask></mask><g stroke-linecap="round"><g transform="translate(50.45849565540527 18.280412421627318) rotate(0 -0.1656119757286092 12.83463435749789)"><path d="M0.27 0.23 C0.21 4.4, -0.09 21.27, -0.13 25.44 M-0.26 -0.13 C-0.39 4.08, -0.48 21.73, -0.46 26.03" stroke="#868e96" stroke-width="1" fill="none"></path></g></g><mask></mask><g stroke-linecap="round"><g transform="translate(59.566945844597285 18.280412421627318) rotate(0 0.414020463145107 13.497066466784958)"><path d="M0.42 0.15 C0.55 4.66, 0.54 22.23, 0.67 26.68 M-0.03 -0.25 C0.02 4.37, -0.03 22.62, 0.16 27.22" stroke="#868e96" stroke-width="1" fill="none"></path></g></g><mask></mask><g stroke-linecap="round"><g transform="translate(10.381307242019147 16.293112935040654) rotate(0 0.08280282913881365 15.153148319365329)"><path d="M0.47 -0.07 C0.41 4.9, -0.23 24.9, -0.21 30.01 M0.05 -0.58 C0.14 4.44, 0.77 25.51, 0.83 30.56" stroke="#868e96" stroke-width="1" fill="none"></path></g></g><mask></mask><g stroke-linecap="round"><g transform="translate(12.202994752877203 15.796289642756733) rotate(0 23.847581204137725 0.24841164614196032)"><path d="M-0.38 -0.32 C7.66 -0.36, 40.24 -0.02, 48.22 0.11 M0.43 0.7 C8.44 0.7, 40.29 0.56, 48.06 0.61" stroke="#868e96" stroke-width="1" fill="none"></path></g></g><mask></mask><g stroke-linecap="round"><g transform="translate(10.381307242019147 23.414263637646116) rotate(0 24.427207325560516 -0.5796261214227627)"><path d="M-0.38 0.22 C7.67 0.05, 40.41 -0.92, 48.55 -1.13 M0.42 -0.15 C8.64 -0.2, 41.43 -0.38, 49.63 -0.42" stroke="#868e96" stroke-width="1" fill="none"></path></g></g><mask></mask><g stroke-linecap="round"><g transform="translate(11.209348168309361 30.866631974257757) rotate(0 24.178798838143962 -0.41402046314507857)"><path d="M-0.39 -0.48 C7.55 -0.64, 39.76 -0.51, 47.97 -0.58 M0.41 0.46 C8.49 0.11, 40.94 -1.29, 49.01 -1.42" stroke="#868e96" stroke-width="1" fill="none"></path></g></g><mask></mask><g stroke-linecap="round"><g transform="translate(11.871783436321834 37.822177018585535) rotate(0 23.59916639927036 0)"><path d="M-0.25 0.53 C7.57 0.65, 38.98 0.46, 46.89 0.3 M0.62 0.33 C8.62 0.32, 40.26 -0.45, 47.97 -0.51" stroke="#868e96" stroke-width="1" fill="none"></path></g></g><mask></mask><g stroke-linecap="round"><g transform="translate(11.374953826586989 46.930627207777604) rotate(0 24.67562213042794 -0.5796292801482252)"><path d="M-0.38 -0.42 C7.89 -0.57, 41.69 -0.82, 49.9 -0.86 M0.43 0.56 C8.65 0.23, 41.5 -1.33, 49.74 -1.67" stroke="#868e96" stroke-width="1" fill="none"></path></g></g><mask></mask><g stroke-linecap="round" transform="translate(10.381319876920884 10) rotate(0 25.338051080989544 18.713725250030762)"><path d="M9.36 0 C22.52 2.05, 32.31 -0.91, 41.32 0 M9.36 0 C21.54 0.11, 33.56 -0.58, 41.32 0 M41.32 0 C45.92 -0.08, 50.18 2.24, 50.68 9.36 M41.32 0 C48.32 2, 48.59 1.85, 50.68 9.36 M50.68 9.36 C50.2 16.8, 52.4 22.42, 50.68 28.07 M50.68 9.36 C50.54 15.05, 49.87 21.07, 50.68 28.07 M50.68 28.07 C49.97 33.16, 48.8 37.77, 41.32 37.43 M50.68 28.07 C52.77 35.84, 46.69 36.04, 41.32 37.43 M41.32 37.43 C30.53 37.46, 18.77 35.98, 9.36 37.43 M41.32 37.43 C30.77 37.54, 20.37 37.93, 9.36 37.43 M9.36 37.43 C1.43 39.09, -0.9 32.9, 0 28.07 M9.36 37.43 C2.16 38.56, 1.49 34.26, 0 28.07 M0 28.07 C1.53 23.09, -1.21 19.03, 0 9.36 M0 28.07 C-0.87 21.46, -0.08 16.29, 0 9.36 M0 9.36 C1.47 2.34, 2.52 0.46, 9.36 0 M0 9.36 C-1.31 3.6, 2.99 -1.52, 9.36 0" stroke="#868e96" stroke-width="1" fill="none"></path></g></svg>