<svg version="1.1" xmlns="http://www.w3.org/2000/svg" viewBox="0 0 251.20001220703125 299.1999816894531" width="251.20001220703125" height="299.1999816894531">
  <defs>
    <style class="style-fonts">
      @font-face {
        font-family: "Virgil";
        src: url("https://excalidraw.com/Virgil.woff2");
      }
      @font-face {
        font-family: "Cascadia";
        src: url("https://excalidraw.com/Cascadia.woff2");
      }
      @font-face {
        font-family: "Assistant";
        src: url("https://excalidraw.com/Assistant-Regular.woff2");
      }
    </style>
    
  </defs>
  <g transform="translate(50 106) rotate(0 75.60000610351562 43.59999084472656)" stroke="none"><path fill="#1971c2" d="M 0,-5.12 Q 0,-5.12 1.61,-5.21 3.22,-5.30 5.47,-5.49 7.73,-5.67 10.29,-5.87 12.85,-6.06 15.16,-6.21 17.46,-6.35 20.00,-6.48 22.54,-6.60 24.77,-6.69 27.00,-6.77 29.49,-6.85 31.98,-6.92 34.49,-7.00 37.00,-7.07 39.23,-7.13 41.46,-7.18 43.78,-7.17 46.11,-7.16 48.34,-7.63 50.57,-8.10 52.90,-8.14 55.23,-8.18 57.86,-8.20 60.49,-8.22 62.71,-8.22 64.94,-8.23 67.24,-8.23 69.53,-8.24 72.06,-8.26 74.59,-8.28 77.00,-8.31 79.40,-8.34 81.72,-8.35 84.03,-8.36 87.80,-7.72 91.56,-7.09 93.80,-7.35 96.04,-7.61 98.32,-7.61 100.60,-7.62 103.17,-7.63 105.74,-7.63 108.44,-8.26 111.13,-8.89 113.50,-9.38 115.86,-9.86 116.43,-12.18 117.00,-14.51 118.04,-16.40 119.09,-18.29 118.49,-20.90 117.89,-23.52 117.89,-25.68 117.89,-27.84 117.90,-30.31 117.90,-32.79 117.28,-35.16 116.66,-37.53 115.23,-39.59 113.81,-41.66 112.34,-43.55 110.88,-45.45 109.29,-47.61 107.70,-49.77 105.61,-52.31 103.52,-54.84 101.07,-56.03 98.63,-57.21 95.85,-58.71 93.06,-60.21 90.90,-59.43 88.73,-58.66 86.26,-58.65 83.79,-58.65 81.64,-58.71 79.50,-58.77 80.03,-56.48 80.57,-54.18 80.56,-51.80 80.56,-49.41 80.56,-47.17 80.56,-44.93 80.56,-42.76 80.57,-40.59 80.56,-38.19 80.56,-35.80 80.56,-33.19 80.55,-30.59 80.54,-28.10 80.53,-25.61 80.53,-23.30 80.52,-20.99 80.52,-18.81 80.52,-16.63 80.52,-14.22 80.52,-11.81 80.52,-9.58 80.52,-7.35 80.51,-4.91 80.50,-2.47 81.16,-0.37 81.82,1.71 81.93,3.85 82.04,5.99 82.05,8.17 82.06,10.35 82.00,12.62 81.94,14.89 82.41,17.08 82.87,19.26 82.89,21.66 82.90,24.06 82.89,26.35 82.89,28.63 82.87,31.22 82.84,33.80 82.81,36.05 82.78,38.29 83.08,40.89 83.37,43.50 83.47,45.70 83.57,47.91 83.57,50.31 83.56,52.71 83.58,54.86 83.60,57.00 83.61,59.40 83.63,61.80 83.64,64.43 83.64,67.05 83.65,69.19 83.65,71.33 84.02,73.72 84.38,76.11 84.41,78.28 84.44,80.45 84.44,83.02 84.44,85.58 84.46,88.09 84.47,90.60 84.41,93.26 84.35,95.91 83.70,97.94 83.04,99.96 81.41,103.43 79.77,106.89 77.71,109.27 75.66,111.65 73.98,113.28 72.30,114.92 70.07,115.59 67.85,116.26 64.91,116.79 61.96,117.32 59.68,117.33 57.40,117.35 55.02,117.35 52.65,117.35 50.32,117.35 47.99,117.34 45.60,117.33 43.20,117.32 40.88,117.32 38.56,117.32 34.55,116.61 30.54,115.91 26.77,114.51 23.01,113.11 19.63,110.98 16.25,108.85 14.22,107.79 12.19,106.73 10.37,105.40 8.55,104.07 6.80,101.84 5.06,99.60 3.73,97.64 2.41,95.67 1.59,93.66 0.78,91.66 0.18,89.36 -0.41,87.05 -0.82,84.22 -1.23,81.39 -1.28,79.03 -1.32,76.68 -1.32,74.26 -1.32,71.85 -0.75,68.70 -0.17,65.55 1.47,61.81 3.11,58.08 5.22,55.08 7.32,52.07 9.10,50.29 10.89,48.52 12.94,46.88 15.00,45.25 17.78,44.18 20.56,43.12 23.24,41.99 25.91,40.86 28.06,40.29 30.20,39.71 32.22,39.02 34.23,38.32 37.03,38.11 39.82,37.90 42.02,37.54 44.22,37.19 46.83,36.76 49.45,36.33 51.59,36.31 53.73,36.29 56.16,36.28 58.59,36.28 61.22,36.28 63.85,36.28 66.18,36.29 68.51,36.29 71.52,36.33 74.53,36.36 77.06,36.38 79.59,36.39 81.77,36.39 83.95,36.40 86.62,36.40 89.28,36.40 92.06,36.42 94.84,36.44 97.00,36.44 99.15,36.44 101.59,36.43 104.02,36.43 106.42,36.44 108.82,36.45 111.27,36.44 113.71,36.43 116.14,36.42 118.58,36.41 121.23,36.46 123.89,36.51 126.07,36.83 128.25,37.15 132.08,37.87 135.92,38.59 138.16,39.38 140.40,40.16 142.74,40.87 145.08,41.57 147.05,42.76 149.02,43.94 150.82,45.34 152.62,46.74 155.22,48.94 157.82,51.14 159.40,53.26 160.98,55.38 159.50,53.28 158.01,51.19 160.42,53.75 162.82,56.32 163.89,58.92 164.97,61.53 165.78,64.37 166.60,67.22 167.15,70.22 167.69,73.22 167.71,75.51 167.73,77.79 167.73,80.42 167.73,83.05 166.74,86.39 165.75,89.73 164.83,92.41 163.90,95.10 162.93,97.82 161.96,100.55 161.02,102.80 160.09,105.05 158.93,107.35 157.76,109.64 156.60,111.87 155.43,114.10 153.68,116.26 151.93,118.42 150.56,120.85 149.19,123.27 147.46,125.67 145.74,128.06 143.61,129.95 141.49,131.84 138.69,133.57 135.88,135.30 133.92,136.70 131.96,138.09 128.55,139.45 125.15,140.81 122.21,141.63 119.26,142.45 117.01,143.06 114.75,143.66 112.70,144.23 110.64,144.80 107.93,145.37 105.21,145.95 102.56,146.71 99.91,147.48 97.31,148.52 94.71,149.56 92.25,150.43 89.79,151.29 86.71,152.03 83.63,152.77 80.98,153.71 78.32,154.64 75.54,155.33 72.75,156.02 70.13,156.18 67.50,156.34 65.20,156.65 62.89,156.95 60.67,157.03 58.44,157.11 55.54,157.10 52.64,157.10 50.38,157.08 48.11,157.05 45.50,157.02 42.90,156.98 40.63,156.99 38.36,157.00 36.11,156.65 33.85,156.31 31.40,156.25 28.94,156.18 26.28,155.68 23.62,155.17 20.81,154.65 18.00,154.13 14.27,153.56 10.55,152.99 8.38,151.84 6.21,150.70 3.56,150.15 0.90,149.59 -1.55,148.77 -4.01,147.94 -6.10,146.94 -8.19,145.93 -10.64,143.78 -13.09,141.63 -15.16,140.13 -17.22,138.63 -19.96,136.06 -22.70,133.49 -24.29,131.31 -25.88,129.12 -27.74,126.18 -29.61,123.25 -30.69,121.05 -31.77,118.85 -32.36,116.33 -32.95,113.81 -33.84,111.51 -34.73,109.22 -35.35,107.09 -35.96,104.96 -36.49,102.40 -37.02,99.83 -37.46,97.64 -37.90,95.44 -38.34,92.89 -38.77,90.34 -39.42,87.98 -40.08,85.61 -40.63,83.31 -41.18,81.00 -41.21,78.87 -41.24,76.74 -41.91,74.30 -42.57,71.87 -43.06,69.09 -43.55,66.31 -43.94,63.90 -44.33,61.50 -44.73,59.14 -45.13,56.79 -45.13,54.60 -45.12,52.41 -45.85,49.30 -46.58,46.18 -46.65,43.93 -46.73,41.67 -47.02,39.08 -47.30,36.50 -47.42,33.91 -47.54,31.32 -47.54,28.90 -47.54,26.48 -47.54,23.75 -47.55,21.02 -47.55,18.28 -47.55,15.55 -47.53,12.74 -47.50,9.94 -47.47,7.47 -47.44,5.00 -47.37,1.70 -47.29,-1.59 -46.98,-4.89 -46.66,-8.19 -45.88,-11.12 -45.10,-14.04 -44.25,-16.77 -43.40,-19.51 -42.86,-22.48 -42.32,-25.46 -41.55,-27.47 -40.78,-29.48 -39.81,-31.70 -38.84,-33.92 -37.48,-36.23 -36.11,-38.55 -34.50,-41.76 -32.88,-44.96 -31.21,-47.53 -29.53,-50.10 -27.70,-53.40 -25.88,-56.70 -24.46,-58.76 -23.03,-60.82 -21.47,-63.20 -19.90,-65.59 -17.64,-68.13 -15.37,-70.67 -13.55,-72.62 -11.72,-74.57 -9.10,-76.85 -6.48,-79.13 -5.09,-80.75 -3.71,-82.37 -1.72,-84.38 0.25,-86.40 2.10,-87.90 3.94,-89.41 6.06,-90.85 8.18,-92.29 10.64,-93.48 13.10,-94.66 15.07,-95.47 17.04,-96.28 19.73,-97.30 22.43,-98.32 25.14,-98.74 27.85,-99.15 30.39,-99.53 32.92,-99.91 35.69,-100.37 38.46,-100.82 40.89,-101.18 43.32,-101.54 46.25,-101.63 49.19,-101.72 52.22,-102.03 55.26,-102.34 57.89,-102.39 60.52,-102.45 62.66,-102.61 64.80,-102.76 67.24,-102.96 69.67,-103.15 72.23,-103.21 74.79,-103.26 76.96,-103.26 79.12,-103.26 81.71,-103.27 84.29,-103.29 86.42,-103.30 88.55,-103.32 91.54,-103.34 94.54,-103.36 98.09,-103.32 101.64,-103.29 104.56,-102.92 107.47,-102.56 111.49,-101.77 115.52,-100.97 117.67,-100.20 119.81,-99.42 122.68,-98.16 125.54,-96.89 128.37,-95.89 131.19,-94.89 134.26,-93.03 137.33,-91.17 139.61,-89.62 141.89,-88.07 144.01,-86.44 146.13,-84.82 148.47,-83.64 150.80,-82.47 153.11,-80.97 155.43,-79.47 157.38,-78.03 159.34,-76.59 161.90,-74.79 164.46,-72.98 166.09,-71.60 167.72,-70.21 170.44,-68.00 173.16,-65.80 175.11,-63.64 177.05,-61.48 178.58,-58.83 180.10,-56.19 181.98,-54.20 183.85,-52.21 184.94,-49.53 186.02,-46.85 186.89,-43.51 187.76,-40.18 188.65,-37.27 189.53,-34.36 190.30,-31.99 191.06,-29.61 191.47,-26.59 191.88,-23.57 192.74,-20.19 193.60,-16.81 194.17,-13.39 194.74,-9.96 195.21,-6.64 195.69,-3.31 195.75,-0.28 195.81,2.74 195.83,5.26 195.84,7.77 195.87,10.51 195.90,13.25 195.89,15.82 195.88,18.38 196.21,20.93 196.54,23.48 197.02,26.25 197.50,29.02 197.58,31.19 197.65,33.36 198.06,35.97 198.47,38.58 198.49,41.18 198.50,43.78 198.47,46.66 198.43,49.54 198.34,53.20 198.25,56.86 198.25,59.49 198.24,62.12 197.95,64.68 197.65,67.25 197.29,70.50 196.94,73.76 196.30,75.94 195.67,78.13 195.47,80.39 195.27,82.65 194.93,85.33 194.58,88.02 193.80,91.27 193.01,94.53 192.15,97.63 191.30,100.73 190.44,103.78 189.58,106.83 188.78,109.23 187.99,111.62 187.56,113.85 187.12,116.07 186.71,118.30 186.29,120.53 185.54,122.92 184.78,125.30 183.94,127.54 183.10,129.78 182.00,132.31 180.90,134.83 179.38,137.67 177.86,140.51 176.23,143.94 174.61,147.36 173.24,150.02 171.87,152.67 170.75,154.65 169.63,156.64 167.66,159.33 165.69,162.02 163.34,164.34 160.99,166.66 158.99,168.63 156.99,170.60 153.86,173.47 150.74,176.34 149.00,178.01 147.25,179.69 144.07,181.33 140.88,182.98 138.88,183.76 136.88,184.55 133.64,185.38 130.40,186.22 126.85,186.58 123.31,186.94 120.72,187.41 118.13,187.88 114.72,188.62 111.31,189.35 107.75,189.65 104.18,189.95 101.79,190.02 99.39,190.09 96.75,190.10 94.11,190.11 91.57,190.12 89.03,190.14 86.83,190.19 84.63,190.25 82.02,190.30 79.42,190.35 77.15,190.38 74.88,190.42 72.58,190.41 70.29,190.41 67.39,190.43 64.49,190.46 62.28,190.12 60.08,189.79 57.64,189.38 55.19,188.96 52.02,188.17 48.85,187.39 45.53,187.06 42.21,186.73 39.09,186.05 35.98,185.37 33.35,185.19 30.73,185.00 28.14,184.63 25.56,184.25 23.16,183.63 20.76,183.00 18.24,182.82 15.72,182.63 13.57,182.26 11.43,181.89 8.46,181.01 5.48,180.13 3.31,179.49 1.14,178.86 -1.67,177.89 -4.48,176.92 -6.78,175.95 -9.09,174.98 -11.88,170.86 -14.67,166.73 -14.65,165.51 -14.64,164.29 -14.24,163.13 -13.83,161.98 -13.08,161.01 -12.33,160.05 -11.31,159.37 -10.29,158.70 -9.11,158.38 -7.93,158.07 -6.71,158.15 -5.49,158.23 -4.35,158.70 -3.22,159.16 -2.30,159.96 -1.38,160.77 -0.76,161.82 -0.14,162.88 0.10,164.08 0.35,165.27 0.20,166.49 0.06,167.70 -0.46,168.81 -0.99,169.91 -1.84,170.79 -2.69,171.67 -3.78,172.23 -4.86,172.79 -6.07,172.97 -7.28,173.15 -8.49,172.94 -9.69,172.73 -10.77,172.15 -11.84,171.56 -12.67,170.66 -13.50,169.76 -14.00,168.65 -14.50,167.53 -14.62,166.32 -14.74,165.10 -14.46,163.91 -14.19,162.72 -13.54,161.67 -12.90,160.63 -11.96,159.85 -11.02,159.07 -9.88,158.63 -8.73,158.19 -7.51,158.14 -6.29,158.09 -5.12,158.43 -3.94,158.77 -2.94,159.47 -1.93,160.17 -1.20,161.15 -0.47,162.13 -0.10,163.30 0.27,164.46 0.27,164.46 0.27,164.46 -0.10,163.49 -0.49,162.53 2.48,163.66 5.46,164.79 7.90,165.53 10.34,166.27 13.15,167.03 15.96,167.78 18.66,167.91 21.35,168.03 23.50,168.80 25.65,169.57 28.37,169.91 31.08,170.25 33.40,170.35 35.73,170.44 37.83,170.92 39.94,171.40 42.37,171.87 44.81,172.35 47.15,172.57 49.50,172.80 51.65,173.29 53.80,173.79 57.61,174.54 61.42,175.29 64.46,175.62 67.49,175.95 69.89,175.97 72.30,175.99 74.88,175.99 77.46,176.00 79.67,176.05 81.88,176.09 84.14,176.14 86.41,176.19 88.96,176.23 91.50,176.26 94.21,176.26 96.91,176.26 99.19,176.26 101.46,176.26 103.81,176.19 106.17,176.11 108.99,175.60 111.81,175.09 115.10,174.29 118.39,173.49 121.67,173.10 124.95,172.72 127.21,172.21 129.48,171.69 131.67,171.03 133.87,170.37 136.67,168.86 139.48,167.34 141.41,166.09 143.34,164.83 145.16,162.72 146.99,160.60 148.97,158.60 150.95,156.59 153.11,155.05 155.28,153.51 156.86,150.89 158.44,148.26 159.49,146.20 160.54,144.13 161.93,141.33 163.31,138.53 164.17,136.19 165.03,133.85 166.25,131.60 167.47,129.36 168.61,126.75 169.76,124.14 170.65,122.04 171.54,119.95 172.29,116.82 173.05,113.69 173.64,111.51 174.23,109.33 174.91,107.07 175.59,104.82 176.30,102.75 177.02,100.68 177.79,97.53 178.56,94.38 179.27,91.30 179.97,88.22 180.45,85.93 180.92,83.63 181.39,80.19 181.86,76.76 182.61,73.12 183.35,69.49 183.59,66.81 183.82,64.14 183.98,61.86 184.15,59.59 184.12,56.65 184.10,53.71 183.99,49.98 183.89,46.24 184.16,43.38 184.44,40.51 183.78,37.48 183.11,34.45 183.14,32.05 183.17,29.64 182.73,26.76 182.30,23.87 182.00,21.13 181.71,18.39 181.70,15.82 181.69,13.25 181.71,10.53 181.74,7.81 181.73,5.38 181.72,2.96 181.66,-0.18 181.61,-3.32 181.19,-5.71 180.76,-8.11 180.22,-10.87 179.68,-13.63 178.94,-16.40 178.19,-19.16 177.77,-22.14 177.36,-25.12 176.55,-27.52 175.74,-29.93 174.93,-32.45 174.13,-34.97 173.43,-37.96 172.72,-40.94 171.74,-43.45 170.76,-45.97 168.89,-48.39 167.01,-50.81 164.84,-53.18 162.66,-55.54 160.75,-57.00 158.85,-58.46 156.62,-60.35 154.39,-62.24 151.94,-63.92 149.49,-65.60 147.65,-67.05 145.81,-68.50 143.84,-69.70 141.86,-70.91 139.24,-72.38 136.62,-73.85 134.58,-75.41 132.53,-76.98 130.47,-78.71 128.40,-80.43 125.32,-81.75 122.24,-83.06 119.87,-84.02 117.50,-84.98 115.04,-85.81 112.58,-86.64 110.32,-87.33 108.07,-88.01 105.62,-88.19 103.17,-88.38 100.80,-88.51 98.42,-88.64 95.50,-88.63 92.57,-88.63 89.85,-88.66 87.13,-88.68 84.83,-88.70 82.53,-88.71 79.71,-88.72 76.88,-88.72 74.34,-88.72 71.80,-88.73 69.58,-88.63 67.35,-88.54 64.05,-88.21 60.74,-87.89 57.87,-87.78 55.01,-87.68 52.18,-87.36 49.34,-87.04 46.52,-86.99 43.69,-86.94 40.64,-86.57 37.59,-86.19 34.00,-85.43 30.40,-84.67 27.88,-84.28 25.35,-83.90 23.23,-83.18 21.10,-82.47 18.61,-81.33 16.11,-80.19 14.29,-78.92 12.47,-77.64 9.99,-75.51 7.51,-73.37 5.84,-71.70 4.17,-70.03 2.35,-68.53 0.52,-67.03 -2.15,-63.97 -4.84,-60.90 -6.33,-59.24 -7.83,-57.57 -9.95,-54.99 -12.07,-52.42 -13.58,-49.88 -15.10,-47.34 -16.19,-45.16 -17.28,-42.99 -18.87,-40.36 -20.46,-37.73 -21.60,-35.53 -22.73,-33.33 -24.78,-30.07 -26.82,-26.82 -27.46,-24.70 -28.10,-22.59 -28.64,-20.37 -29.18,-18.14 -29.84,-15.48 -30.50,-12.83 -31.20,-10.17 -31.90,-7.52 -32.30,-4.55 -32.70,-1.59 -32.62,1.70 -32.55,5.00 -32.52,7.47 -32.49,9.94 -32.46,12.74 -32.44,15.55 -32.44,17.76 -32.44,19.97 -32.44,22.51 -32.45,25.04 -32.45,27.19 -32.44,29.34 -32.40,31.95 -32.36,34.56 -31.99,37.33 -31.61,40.10 -31.55,42.52 -31.49,44.94 -30.78,48.30 -30.06,51.66 -30.04,54.32 -30.01,56.99 -29.21,60.57 -28.42,64.16 -28.07,66.71 -27.72,69.26 -26.87,72.19 -26.01,75.11 -26.25,77.31 -26.50,79.51 -25.50,82.12 -24.51,84.73 -24.35,88.64 -24.18,92.54 -23.31,94.52 -22.44,96.50 -21.88,99.45 -21.33,102.41 -20.57,104.63 -19.82,106.85 -19.05,109.55 -18.27,112.25 -17.33,114.35 -16.40,116.44 -14.75,119.18 -13.11,121.91 -11.81,123.76 -10.51,125.61 -7.93,127.12 -5.36,128.63 -3.22,130.84 -1.08,133.05 1.84,134.07 4.76,135.09 7.56,135.95 10.36,136.81 12.50,137.89 14.64,138.97 16.95,139.12 19.26,139.27 21.40,139.94 23.55,140.61 26.42,141.03 29.29,141.46 31.48,141.52 33.66,141.58 36.01,141.89 38.36,142.19 40.63,142.20 42.90,142.21 45.50,142.17 48.11,142.13 51.33,142.11 54.55,142.08 57.26,142.03 59.97,141.98 62.43,141.61 64.89,141.24 67.37,141.25 69.84,141.27 71.98,141.50 74.12,141.73 76.16,140.37 78.19,139.01 80.26,138.45 82.33,137.90 85.30,136.84 88.27,135.79 90.29,134.99 92.31,134.19 94.46,133.67 96.62,133.15 99.89,132.00 103.16,130.84 105.61,130.44 108.06,130.04 110.78,129.17 113.50,128.31 115.59,127.69 117.69,127.07 120.41,126.26 123.14,125.45 125.43,124.33 127.72,123.21 130.06,121.84 132.39,120.47 130.82,121.90 129.25,123.33 131.59,121.13 133.94,118.94 136.03,116.37 138.11,113.81 139.47,111.72 140.83,109.62 141.78,107.21 142.73,104.79 143.85,102.87 144.98,100.95 146.07,99.12 147.16,97.29 148.21,95.29 149.26,93.30 150.03,90.59 150.80,87.87 151.69,85.74 152.57,83.61 152.41,81.34 152.26,79.06 152.59,76.72 152.91,74.37 152.10,71.93 151.29,69.50 151.33,67.31 151.37,65.13 149.95,63.40 148.52,61.66 145.43,59.52 142.35,57.38 139.90,55.71 137.46,54.03 135.24,53.59 133.01,53.15 130.38,52.77 127.75,52.38 125.32,51.93 122.90,51.48 120.74,51.53 118.58,51.58 116.14,51.57 113.71,51.56 111.27,51.55 108.82,51.54 105.90,51.55 102.98,51.56 100.50,51.55 98.02,51.54 95.65,51.55 93.28,51.55 90.53,51.57 87.78,51.60 85.30,51.59 82.81,51.59 80.39,51.60 77.96,51.61 75.26,51.63 72.55,51.65 69.79,51.68 67.04,51.71 64.39,51.71 61.74,51.71 59.34,51.71 56.94,51.70 54.42,51.70 51.90,51.70 49.53,51.52 47.15,51.33 43.53,52.31 39.91,53.30 37.68,53.50 35.46,53.71 32.29,55.01 29.13,56.31 26.11,57.24 23.09,58.17 21.05,59.80 19.00,61.44 17.45,63.44 15.90,65.44 14.98,67.73 14.06,70.03 14.09,72.51 14.13,74.99 13.94,77.46 13.76,79.92 14.19,82.60 14.62,85.28 14.96,87.38 15.29,89.48 17.02,91.38 18.76,93.28 20.61,94.32 22.47,95.35 25.68,97.36 28.88,99.37 31.99,101.47 35.09,103.56 32.72,102.32 30.35,101.08 32.93,101.54 35.50,102.00 37.68,101.93 39.86,101.87 42.08,101.87 44.29,101.86 46.68,101.86 49.08,101.85 51.30,101.84 53.53,101.84 55.86,101.84 58.19,101.84 60.32,102.48 62.46,103.12 64.87,101.69 67.28,100.26 65.41,101.92 63.53,103.59 65.56,101.47 67.60,99.35 68.42,97.12 69.24,94.89 69.18,92.75 69.12,90.60 69.13,88.09 69.15,85.58 69.14,83.05 69.14,80.52 69.12,77.97 69.11,75.42 68.73,72.41 68.35,69.40 68.35,66.73 68.36,64.06 68.37,61.73 68.38,59.40 68.39,56.98 68.41,54.55 68.41,52.21 68.42,49.87 68.40,47.41 68.38,44.95 67.99,41.62 67.61,38.29 67.57,35.10 67.53,31.92 67.51,28.66 67.50,25.40 67.83,22.66 68.15,19.92 67.44,16.82 66.73,13.73 66.73,11.51 66.73,9.29 66.89,7.10 67.06,4.92 66.08,1.35 65.09,-2.20 65.08,-4.78 65.07,-7.35 65.07,-9.58 65.07,-11.81 65.07,-14.22 65.07,-16.63 65.07,-18.81 65.07,-20.99 65.06,-23.30 65.06,-25.61 65.05,-28.10 65.04,-30.59 65.03,-33.19 65.03,-35.80 65.03,-38.19 65.02,-40.59 65.03,-42.76 65.03,-44.93 65.03,-47.17 65.03,-49.41 65.03,-51.83 65.03,-54.24 65.08,-56.66 65.14,-59.08 65.92,-61.73 66.69,-64.39 68.45,-66.54 70.20,-68.69 72.30,-70.69 74.40,-72.69 77.49,-73.42 80.59,-74.15 82.99,-74.15 85.39,-74.14 87.58,-74.14 89.76,-74.13 92.05,-74.09 94.34,-74.06 96.47,-73.58 98.59,-73.11 100.69,-72.57 102.79,-72.04 105.50,-70.70 108.20,-69.36 110.52,-67.66 112.83,-65.96 114.45,-64.24 116.07,-62.52 117.53,-60.64 118.99,-58.76 120.63,-57.24 122.26,-55.73 123.74,-53.79 125.21,-51.85 126.93,-48.95 128.65,-46.06 130.25,-42.99 131.86,-39.93 132.57,-35.81 133.29,-31.69 133.29,-29.12 133.30,-26.55 133.31,-24.16 133.31,-21.77 133.30,-19.19 133.29,-16.60 132.45,-13.99 131.61,-11.37 130.90,-8.44 130.19,-5.51 128.52,-3.31 126.84,-1.11 125.30,0.81 123.76,2.74 121.48,3.67 119.19,4.60 116.37,5.41 113.54,6.21 110.87,6.93 108.20,7.65 106.02,7.64 103.83,7.63 101.54,7.62 99.25,7.62 97.12,7.61 95.00,7.61 92.63,7.58 90.27,7.56 87.60,7.16 84.93,6.76 82.80,6.75 80.66,6.74 78.03,6.72 75.40,6.69 73.17,6.67 70.95,6.64 68.82,6.64 66.70,6.63 64.14,6.63 61.58,6.63 59.09,6.61 56.60,6.59 54.30,6.57 52.01,6.55 49.49,6.86 46.97,7.16 44.22,7.17 41.46,7.18 39.23,7.13 37.00,7.07 34.49,7.00 31.98,6.92 29.49,6.85 27.00,6.77 24.77,6.69 22.54,6.60 20.00,6.48 17.46,6.35 15.16,6.21 12.85,6.06 10.29,5.87 7.73,5.67 5.47,5.49 3.22,5.30 1.61,5.21 0,5.12 -0.61,5.05 -1.22,4.98 -1.80,4.76 -2.38,4.54 -2.89,4.19 -3.40,3.83 -3.81,3.37 -4.22,2.91 -4.50,2.36 -4.79,1.81 -4.94,1.21 -5.09,0.61 -5.09,-0.00 -5.09,-0.61 -4.94,-1.21 -4.79,-1.81 -4.50,-2.36 -4.22,-2.91 -3.81,-3.37 -3.40,-3.83 -2.89,-4.19 -2.38,-4.54 -1.80,-4.76 -1.22,-4.98 -0.61,-5.05 0.00,-5.12 0.00,-5.12 L 0,-5.12 Z"></path></g></svg>