<svg version="1.1" xmlns="http://www.w3.org/2000/svg" viewBox="0 0 166.540399864316 130.9552832147479" width="166.540399864316" height="130.9552832147479">
  <!-- svg-source:excalidraw -->
  
  <defs>
    <style class="style-fonts">
      @font-face {
        font-family: "Virgil";
        src: url("https://excalidraw.com/Virgil.woff2");
      }
      @font-face {
        font-family: "Cascadia";
        src: url("https://excalidraw.com/Cascadia.woff2");
      }
      @font-face {
        font-family: "Assistant";
        src: url("https://excalidraw.com/Assistant-Regular.woff2");
      }
    </style>
    
  </defs>
  <g stroke-linecap="round"><g transform="translate(142.45191212596376 14.650226389151072) rotate(0 -18.800003051757812 -2)"><path d="M-0.38 -0.33 C-6.67 -1.02, -31.36 -3.49, -37.51 -4.08 M0.42 0.69 C-5.94 0.08, -31.58 -2.78, -37.89 -3.42" stroke="#1e1e1e" stroke-width="2" fill="none"></path></g></g><mask></mask><g stroke-linecap="round"><g transform="translate(140.05188771190126 13.85022333739326) rotate(0 7.600006103515625 12.799995422363281)"><path d="M0.33 -1.19 C2.54 3.26, 11.7 22.01, 14.27 26.43 M-0.95 0.8 C1.54 4.94, 13.78 20.46, 16.49 24.74" stroke="#1e1e1e" stroke-width="2" fill="none"></path></g></g><mask></mask><g stroke-linecap="round"><g transform="translate(153.651924332995 38.65022638915107) rotate(0 -2.800018310546875 14.800003051757812)"><path d="M-0.4 -0.17 C-1.3 4.78, -4.65 24.86, -5.56 29.89 M0.4 -0.74 C-0.56 4.04, -4.85 24.09, -5.97 29.08" stroke="#1e1e1e" stroke-width="2" fill="none"></path></g></g><mask></mask><g stroke-linecap="round"><g transform="translate(107.25191517772157 9.850238596182322) rotate(0 -48.800010681152344 21.599998474121094)"><path d="M0.05 0.78 C-16.21 8.22, -80.18 37.29, -96.56 44.27 M-1.39 0.15 C-17.8 7.31, -80.63 35.46, -96.97 42.7" stroke="#1e1e1e" stroke-width="2" fill="none"></path></g></g><mask></mask><g stroke-linecap="round"><g transform="translate(148.05191822947938 65.85025385497138) rotate(0 -52.800010681152344 27.20000457763672)"><path d="M-0.5 0.94 C-17.74 9.73, -86.98 44.34, -104.63 53.28 M1.44 0.38 C-15.77 9.24, -87.51 44.96, -105.07 54.22" stroke="#1e1e1e" stroke-width="2" fill="none"></path></g></g><mask></mask><g stroke-linecap="round"><g transform="translate(11.251899918932509 52.2502324926667) rotate(0 16.400001525878906 34)"><path d="M0.14 0.55 C5.87 11.78, 28.53 56.23, 33.96 67.45 M-1.25 -0.2 C4.47 11.17, 28.09 57.14, 33.63 68.71" stroke="#1e1e1e" stroke-width="2" fill="none"></path></g></g><mask></mask><g stroke-linecap="round" transform="translate(116.85190602244813 31.450229440908885) rotate(0 10.399993896484375 10.400001525878906)"><path d="M10.1 0.45 C12.17 0.11, 14.42 0.47, 16.23 1.71 C18.04 2.96, 20.35 5.64, 20.96 7.91 C21.57 10.18, 20.96 13.32, 19.88 15.35 C18.8 17.38, 16.56 19.26, 14.5 20.08 C12.44 20.9, 9.66 20.86, 7.51 20.26 C5.35 19.66, 2.78 18.41, 1.58 16.48 C0.38 14.55, -0.08 11.02, 0.3 8.68 C0.67 6.35, 2.12 3.85, 3.82 2.46 C5.53 1.07, 9.45 0.77, 10.55 0.35 C11.64 -0.08, 10.39 -0.24, 10.42 -0.1 M8.96 -0.44 C11.01 -1.13, 13.35 -0.55, 15.27 0.64 C17.18 1.82, 19.61 4.39, 20.42 6.68 C21.23 8.98, 20.84 12.36, 20.12 14.43 C19.4 16.49, 17.94 17.97, 16.1 19.08 C14.27 20.19, 11.44 21.48, 9.13 21.1 C6.81 20.72, 3.8 18.68, 2.2 16.82 C0.6 14.95, -0.42 12.2, -0.5 9.92 C-0.59 7.64, 0.13 4.72, 1.68 3.15 C3.23 1.58, 7.58 0.97, 8.78 0.5 C9.99 0.03, 9.05 0.14, 8.93 0.34" stroke="#1e1e1e" stroke-width="2" fill="none"></path></g></svg>