<svg version="1.1" xmlns="http://www.w3.org/2000/svg" viewBox="0 0 159.20001220703125 145.48733104334212" width="159.20001220703125" height="145.48733104334212">
  <defs>
    <style class="style-fonts">
      @font-face {
        font-family: "Virgil";
        src: url("https://excalidraw.com/Virgil.woff2");
      }
      @font-face {
        font-family: "Cascadia";
        src: url("https://excalidraw.com/Cascadia.woff2");
      }
      @font-face {
        font-family: "Assistant";
        src: url("https://excalidraw.com/Assistant-Regular.woff2");
      }
    </style>
    
  </defs>
  <g stroke-linecap="round" transform="translate(10 10) rotate(0 69.60000610351562 61.59999084472656)"><path d="M85.91 2.65 C96.05 3.97, 107.99 9.91, 116.05 15.88 C124.11 21.85, 130.6 29.52, 134.27 38.48 C137.95 47.43, 139.26 60.11, 138.12 69.61 C136.98 79.12, 133.5 87.88, 127.44 95.48 C121.37 103.08, 111.36 110.5, 101.71 115.21 C92.06 119.92, 80.09 123.74, 69.54 123.76 C58.98 123.77, 47.81 119.76, 38.39 115.32 C28.98 110.88, 19.3 104.76, 13.07 97.12 C6.85 89.48, 2.35 78.97, 1.04 69.48 C-0.26 59.98, 1.66 49.18, 5.25 40.15 C8.84 31.13, 14.77 21.78, 22.58 15.35 C30.4 8.91, 40.86 3.45, 52.15 1.54 C63.44 -0.37, 83.12 3.29, 90.32 3.88 C97.51 4.46, 95.48 4.09, 95.3 5.03 M55.04 0.27 C65.21 -2.13, 79.28 0.8, 89.89 3.6 C100.5 6.4, 110.98 10.56, 118.71 17.06 C126.45 23.56, 132.99 33.74, 136.29 42.59 C139.59 51.44, 140.31 60.8, 138.51 70.16 C136.7 79.51, 132.01 90.93, 125.45 98.72 C118.89 106.51, 108.73 112.68, 99.16 116.91 C89.59 121.13, 78.88 124.15, 68.05 124.06 C57.22 123.98, 43.58 121.25, 34.19 116.4 C24.8 111.55, 17.12 102.97, 11.7 94.95 C6.27 86.94, 2.77 77.77, 1.65 68.3 C0.53 58.82, 1.01 47.35, 4.97 38.12 C8.92 28.89, 17.23 18.92, 25.39 12.9 C33.55 6.89, 48.92 3.7, 53.93 2.04 C58.94 0.39, 55.17 2.23, 55.45 2.96" stroke="#868e96" stroke-width="2" fill="none"></path></g><g stroke-linecap="round"><g transform="translate(71.5999755859375 10.79998779296875) rotate(0 0 5.600006103515625)"><path d="M0.25 0.4 C0.33 2.22, 0.18 8.85, 0.11 10.73 M-0.28 0.12 C-0.23 2.03, -0.2 9.4, -0.26 11.19" stroke="#868e96" stroke-width="2" fill="none"></path></g></g><mask></mask><g transform="translate(74.79998779296875 41.199981689453125) rotate(0 28.800018310546875 21.600006103515625)" stroke="none"><path fill="#868e96" d="M 2.17,0.11 Q 2.17,0.11 1.83,4.47 1.48,8.84 1.30,13.19 1.12,17.55 1.01,20.78 0.91,24.02 0.85,26.31 0.78,28.61 0.88,29.82 0.98,31.02 1.14,32.31 1.29,33.59 1.45,34.89 1.61,36.19 1.69,37.45 1.78,38.72 1.87,39.80 1.95,40.88 0.99,40.21 0.03,39.54 1.10,38.73 2.18,37.91 5.53,36.76 8.88,35.60 12.43,34.71 15.98,33.81 18.88,33.25 21.79,32.69 24.01,32.48 26.23,32.27 27.38,32.05 28.52,31.84 30.40,31.42 32.27,31.00 34.33,30.10 36.39,29.20 38.15,28.62 39.90,28.04 41.41,27.47 42.91,26.89 44.48,26.38 46.04,25.87 47.25,25.80 48.46,25.74 50.18,25.01 51.91,24.28 53.18,24.27 54.45,24.26 55.19,23.44 55.93,22.62 56.35,22.28 56.76,21.94 57.26,21.76 57.75,21.57 58.29,21.55 58.82,21.54 59.33,21.69 59.84,21.84 60.27,22.15 60.70,22.46 61.02,22.89 61.33,23.31 61.49,23.82 61.65,24.33 61.64,24.86 61.63,25.39 61.45,25.89 61.27,26.39 60.94,26.81 60.61,27.23 60.16,27.52 59.71,27.81 59.20,27.94 58.68,28.07 58.15,28.03 57.62,27.99 57.13,27.78 56.64,27.58 56.25,27.22 55.85,26.87 55.58,26.41 55.32,25.95 55.21,25.43 55.11,24.91 55.18,24.38 55.25,23.85 55.48,23.37 55.71,22.90 56.09,22.52 56.46,22.14 56.93,21.90 57.41,21.66 57.94,21.58 58.46,21.51 58.99,21.61 59.51,21.70 59.97,21.96 60.44,22.22 60.80,22.61 61.15,23.01 61.37,23.49 61.58,23.98 61.63,24.51 61.67,25.04 61.55,25.56 61.42,26.07 61.14,26.52 60.86,26.97 60.86,26.97 60.86,26.97 59.33,28.06 57.80,29.14 56.84,29.67 55.88,30.21 54.48,30.37 53.07,30.53 52.00,30.86 50.92,31.19 49.83,31.53 48.74,31.87 47.20,31.76 45.66,31.65 44.19,32.05 42.73,32.44 41.17,32.84 39.61,33.24 37.86,33.68 36.10,34.11 34.70,34.72 33.30,35.34 31.11,35.52 28.92,35.70 27.81,35.72 26.69,35.74 24.67,36.08 22.65,36.42 19.91,37.17 17.17,37.91 13.93,39.00 10.68,40.09 7.79,41.43 4.91,42.78 3.35,43.71 1.80,44.64 -0.06,44.49 -1.92,44.35 -2.73,42.61 -3.55,40.88 -3.47,39.80 -3.38,38.72 -3.29,37.45 -3.20,36.19 -3.05,34.88 -2.89,33.58 -2.72,32.29 -2.56,31.00 -2.44,29.79 -2.33,28.58 -2.36,26.28 -2.39,23.98 -2.41,20.72 -2.43,17.47 -2.42,13.05 -2.40,8.63 -2.29,4.26 -2.17,-0.11 -2.13,-0.37 -2.08,-0.63 -1.97,-0.87 -1.87,-1.11 -1.71,-1.32 -1.55,-1.52 -1.34,-1.69 -1.14,-1.85 -0.90,-1.96 -0.66,-2.07 -0.40,-2.12 -0.14,-2.17 0.11,-2.15 0.37,-2.14 0.62,-2.06 0.87,-1.99 1.10,-1.85 1.33,-1.72 1.51,-1.54 1.70,-1.35 1.84,-1.13 1.97,-0.90 2.05,-0.65 2.13,-0.40 2.15,-0.14 2.17,0.11 2.17,0.11 L 2.17,0.11 Z"></path></g><g stroke-linecap="round"><g transform="translate(78.79998779296875 124.39999389648438) rotate(0 0.399993896484375 5.1999969482421875)"><path d="M-0.29 0.51 C-0.12 2.16, 0.34 8.69, 0.59 10.39 M0.56 0.3 C0.67 2.28, -0.04 9.49, 0.05 11.09" stroke="#868e96" stroke-width="2" fill="none"></path></g></g><mask></mask></svg>